G04*
G04 #@! TF.GenerationSoftware,Altium Limited,Altium Designer,23.10.1 (27)*
G04*
G04 Layer_Color=16711935*
%FSLAX42Y42*%
%MOMM*%
G71*
G04*
G04 #@! TF.SameCoordinates,D45A84C9-24EE-431E-81B0-E16C7BED9CBD*
G04*
G04*
G04 #@! TF.FilePolarity,Negative*
G04*
G01*
G75*
%ADD31C,1.65*%
%ADD32R,1.65X1.65*%
%ADD33C,6.55*%
%ADD34C,4.60*%
%ADD35C,1.55*%
%ADD36R,1.55X1.55*%
%ADD37C,1.40*%
%ADD38R,1.40X1.40*%
%ADD39R,4.01X9.73*%
%ADD40C,5.20*%
%ADD41C,1.20*%
%ADD42C,0.70*%
%ADD66R,3.30X2.50*%
%ADD68R,5.40X1.70*%
%ADD75R,0.86X1.61*%
%ADD82R,2.45X3.05*%
%ADD83R,7.20X3.70*%
%ADD84R,2.70X2.20*%
%ADD85R,1.70X1.75*%
%ADD86R,2.25X2.40*%
%ADD87R,0.81X1.38*%
%ADD88R,2.50X3.50*%
%ADD89R,0.73X0.60*%
%ADD90R,1.45X2.00*%
%ADD91R,2.05X1.55*%
%ADD92R,1.20X1.00*%
%ADD93R,1.65X3.60*%
G04:AMPARAMS|DCode=94|XSize=0.6mm|YSize=1mm|CornerRadius=0.15mm|HoleSize=0mm|Usage=FLASHONLY|Rotation=180.000|XOffset=0mm|YOffset=0mm|HoleType=Round|Shape=RoundedRectangle|*
%AMROUNDEDRECTD94*
21,1,0.60,0.70,0,0,180.0*
21,1,0.30,1.00,0,0,180.0*
1,1,0.30,-0.15,0.35*
1,1,0.30,0.15,0.35*
1,1,0.30,0.15,-0.35*
1,1,0.30,-0.15,-0.35*
%
%ADD94ROUNDEDRECTD94*%
G04:AMPARAMS|DCode=95|XSize=5.2mm|YSize=3.4mm|CornerRadius=0.15mm|HoleSize=0mm|Usage=FLASHONLY|Rotation=180.000|XOffset=0mm|YOffset=0mm|HoleType=Round|Shape=RoundedRectangle|*
%AMROUNDEDRECTD95*
21,1,5.20,3.10,0,0,180.0*
21,1,4.90,3.40,0,0,180.0*
1,1,0.30,-2.45,1.55*
1,1,0.30,2.45,1.55*
1,1,0.30,2.45,-1.55*
1,1,0.30,-2.45,-1.55*
%
%ADD95ROUNDEDRECTD95*%
D31*
X483Y-5080D02*
D03*
Y-4826D02*
D03*
X737Y-5080D02*
D03*
Y-4826D02*
D03*
X991Y-5080D02*
D03*
Y-4826D02*
D03*
X1245Y-5080D02*
D03*
Y-4826D02*
D03*
X1499Y-5080D02*
D03*
Y-4826D02*
D03*
X1753Y-5080D02*
D03*
Y-4826D02*
D03*
X2007Y-5080D02*
D03*
Y-4826D02*
D03*
X2261Y-5080D02*
D03*
Y-4826D02*
D03*
X2515Y-5080D02*
D03*
Y-4826D02*
D03*
X2769Y-5080D02*
D03*
Y-4826D02*
D03*
X3023Y-5080D02*
D03*
Y-4826D02*
D03*
X3277Y-5080D02*
D03*
Y-4826D02*
D03*
X3531Y-5080D02*
D03*
Y-4826D02*
D03*
X3785Y-5080D02*
D03*
Y-4826D02*
D03*
X4039Y-5080D02*
D03*
Y-4826D02*
D03*
X4293Y-5080D02*
D03*
Y-4826D02*
D03*
X4547Y-5080D02*
D03*
Y-4826D02*
D03*
X4801Y-5080D02*
D03*
Y-4826D02*
D03*
X5055Y-5080D02*
D03*
Y-4826D02*
D03*
X5309Y-5080D02*
D03*
D32*
Y-4826D02*
D03*
D33*
X152Y-2299D02*
D03*
X864D02*
D03*
D34*
X5000Y-1250D02*
D03*
X800Y-50D02*
D03*
Y-1250D02*
D03*
X5000Y-50D02*
D03*
D35*
X5702Y-880D02*
D03*
D36*
Y-1130D02*
D03*
D37*
X4403Y-3973D02*
D03*
X4153D02*
D03*
X5298Y-1967D02*
D03*
X5548D02*
D03*
X5798D02*
D03*
X4407Y-1956D02*
D03*
X4157D02*
D03*
X4403Y-2972D02*
D03*
X4153D02*
D03*
X5300Y-3988D02*
D03*
X5550D02*
D03*
X5800D02*
D03*
X5298Y-2970D02*
D03*
X5548D02*
D03*
X5798D02*
D03*
D38*
X3903Y-3973D02*
D03*
X5048Y-1967D02*
D03*
X3907Y-1956D02*
D03*
X3903Y-2972D02*
D03*
X5050Y-3988D02*
D03*
X5048Y-2970D02*
D03*
D39*
X762Y-3759D02*
D03*
X51D02*
D03*
D40*
X5800Y0D02*
D03*
X0D02*
D03*
Y-4900D02*
D03*
X5817Y-4915D02*
D03*
D41*
X2095Y-1283D02*
D03*
X2667Y-1702D02*
D03*
X3099Y-38D02*
D03*
X3416Y-635D02*
D03*
X3429Y-317D02*
D03*
X3632Y-991D02*
D03*
X1600Y-775D02*
D03*
X2515Y-838D02*
D03*
X2388Y-673D02*
D03*
X1778Y-622D02*
D03*
X2273Y-3759D02*
D03*
X4216Y-2515D02*
D03*
X5397Y-2502D02*
D03*
Y-3531D02*
D03*
X5410Y-4483D02*
D03*
X4254D02*
D03*
X4242Y-3531D02*
D03*
X2553Y-3594D02*
D03*
D42*
X1713Y-1586D02*
D03*
X1556D02*
D03*
Y-1332D02*
D03*
X1713D02*
D03*
Y-1459D02*
D03*
X1556D02*
D03*
X1435D02*
D03*
X1834D02*
D03*
D66*
X3152Y-2362D02*
D03*
Y-3052D02*
D03*
D68*
X1435Y116D02*
D03*
Y-394D02*
D03*
X2095Y115D02*
D03*
Y-395D02*
D03*
D75*
X2160Y-1511D02*
D03*
X2426D02*
D03*
D82*
X4242Y-381D02*
D03*
Y-46D02*
D03*
D83*
X2072Y-3347D02*
D03*
Y-2297D02*
D03*
D84*
X2692Y-483D02*
D03*
Y178D02*
D03*
D85*
X2530Y-1257D02*
D03*
X2350D02*
D03*
D86*
X3399Y-3495D02*
D03*
X2949D02*
D03*
D87*
X3160Y-265D02*
D03*
X3068Y-470D02*
D03*
X3251D02*
D03*
D88*
X3746Y-89D02*
D03*
D89*
X3522Y-122D02*
D03*
Y-56D02*
D03*
X3522Y11D02*
D03*
X3523Y-188D02*
D03*
D90*
X2172Y-1753D02*
D03*
X2477D02*
D03*
D91*
X3632Y-788D02*
D03*
Y-482D02*
D03*
X3150Y-838D02*
D03*
Y-1143D02*
D03*
D92*
X3391Y-1257D02*
D03*
Y-1107D02*
D03*
D93*
X4648Y-813D02*
D03*
X4073D02*
D03*
X3845Y-1245D02*
D03*
X4420D02*
D03*
D94*
X1394Y-1229D02*
D03*
X1474D02*
D03*
X1555D02*
D03*
X1634D02*
D03*
X1715D02*
D03*
X1794D02*
D03*
X1875D02*
D03*
X1394Y-1689D02*
D03*
X1474D02*
D03*
X1555D02*
D03*
X1634D02*
D03*
X1715D02*
D03*
X1794D02*
D03*
X1875D02*
D03*
D95*
X1634Y-1459D02*
D03*
M02*
