G04*
G04 #@! TF.GenerationSoftware,Altium Limited,Altium Designer,23.10.1 (27)*
G04*
G04 Layer_Color=255*
%FSLAX42Y42*%
%MOMM*%
G71*
G04*
G04 #@! TF.SameCoordinates,D45A84C9-24EE-431E-81B0-E16C7BED9CBD*
G04*
G04*
G04 #@! TF.FilePolarity,Positive*
G04*
G01*
G75*
%ADD31C,1.65*%
%ADD32R,1.65X1.65*%
%ADD35C,1.55*%
%ADD36R,1.55X1.55*%
%ADD37C,1.40*%
%ADD38R,1.40X1.40*%
%ADD43C,6.35*%
%ADD44C,4.40*%
%ADD45R,3.81X9.53*%
%ADD46C,5.00*%
%ADD65R,2.25X2.85*%
%ADD66R,3.30X2.50*%
%ADD67R,7.00X3.50*%
%ADD68R,5.40X1.70*%
%ADD69R,2.50X2.00*%
%ADD70R,1.50X1.55*%
%ADD71R,2.05X2.20*%
%ADD72R,0.61X1.18*%
%ADD73R,2.30X3.30*%
%ADD74R,0.53X0.40*%
%ADD75R,0.86X1.61*%
%ADD76R,1.25X1.80*%
%ADD77R,1.85X1.35*%
%ADD78R,1.00X0.80*%
%ADD79R,1.45X3.40*%
G04:AMPARAMS|DCode=80|XSize=0.4mm|YSize=0.8mm|CornerRadius=0.05mm|HoleSize=0mm|Usage=FLASHONLY|Rotation=180.000|XOffset=0mm|YOffset=0mm|HoleType=Round|Shape=RoundedRectangle|*
%AMROUNDEDRECTD80*
21,1,0.40,0.70,0,0,180.0*
21,1,0.30,0.80,0,0,180.0*
1,1,0.10,-0.15,0.35*
1,1,0.10,0.15,0.35*
1,1,0.10,0.15,-0.35*
1,1,0.10,-0.15,-0.35*
%
%ADD80ROUNDEDRECTD80*%
G04:AMPARAMS|DCode=81|XSize=5mm|YSize=3.2mm|CornerRadius=0.05mm|HoleSize=0mm|Usage=FLASHONLY|Rotation=180.000|XOffset=0mm|YOffset=0mm|HoleType=Round|Shape=RoundedRectangle|*
%AMROUNDEDRECTD81*
21,1,5.00,3.10,0,0,180.0*
21,1,4.90,3.20,0,0,180.0*
1,1,0.10,-2.45,1.55*
1,1,0.10,2.45,1.55*
1,1,0.10,2.45,-1.55*
1,1,0.10,-2.45,-1.55*
%
%ADD81ROUNDEDRECTD81*%
D31*
X483Y-5080D02*
D03*
Y-4826D02*
D03*
X737Y-5080D02*
D03*
Y-4826D02*
D03*
X991Y-5080D02*
D03*
Y-4826D02*
D03*
X1245Y-5080D02*
D03*
Y-4826D02*
D03*
X1499Y-5080D02*
D03*
Y-4826D02*
D03*
X1753Y-5080D02*
D03*
Y-4826D02*
D03*
X2007Y-5080D02*
D03*
Y-4826D02*
D03*
X2261Y-5080D02*
D03*
Y-4826D02*
D03*
X2515Y-5080D02*
D03*
Y-4826D02*
D03*
X2769Y-5080D02*
D03*
Y-4826D02*
D03*
X3023Y-5080D02*
D03*
Y-4826D02*
D03*
X3277Y-5080D02*
D03*
Y-4826D02*
D03*
X3531Y-5080D02*
D03*
Y-4826D02*
D03*
X3785Y-5080D02*
D03*
Y-4826D02*
D03*
X4039Y-5080D02*
D03*
Y-4826D02*
D03*
X4293Y-5080D02*
D03*
Y-4826D02*
D03*
X4547Y-5080D02*
D03*
Y-4826D02*
D03*
X4801Y-5080D02*
D03*
Y-4826D02*
D03*
X5055Y-5080D02*
D03*
Y-4826D02*
D03*
X5309Y-5080D02*
D03*
D32*
Y-4826D02*
D03*
D35*
X5702Y-880D02*
D03*
D36*
Y-1130D02*
D03*
D37*
X4403Y-3973D02*
D03*
X4153D02*
D03*
X5298Y-1967D02*
D03*
X5548D02*
D03*
X5798D02*
D03*
X4407Y-1956D02*
D03*
X4157D02*
D03*
X4403Y-2972D02*
D03*
X4153D02*
D03*
X5300Y-3988D02*
D03*
X5550D02*
D03*
X5800D02*
D03*
X5298Y-2970D02*
D03*
X5548D02*
D03*
X5798D02*
D03*
D38*
X3903Y-3973D02*
D03*
X5048Y-1967D02*
D03*
X3907Y-1956D02*
D03*
X3903Y-2972D02*
D03*
X5050Y-3988D02*
D03*
X5048Y-2970D02*
D03*
D43*
X152Y-2299D02*
D03*
X864D02*
D03*
D44*
X5000Y-1250D02*
D03*
X800Y-50D02*
D03*
Y-1250D02*
D03*
X5000Y-50D02*
D03*
D45*
X762Y-3759D02*
D03*
X51D02*
D03*
D46*
X5800Y0D02*
D03*
X0D02*
D03*
Y-4900D02*
D03*
X5817Y-4915D02*
D03*
D65*
X4242Y-381D02*
D03*
Y-46D02*
D03*
D66*
X3152Y-2362D02*
D03*
Y-3052D02*
D03*
D67*
X2072Y-3347D02*
D03*
Y-2297D02*
D03*
D68*
X1435Y116D02*
D03*
Y-394D02*
D03*
X2095Y115D02*
D03*
Y-395D02*
D03*
D69*
X2692Y-483D02*
D03*
Y178D02*
D03*
D70*
X2530Y-1257D02*
D03*
X2350D02*
D03*
D71*
X3399Y-3495D02*
D03*
X2949D02*
D03*
D72*
X3160Y-265D02*
D03*
X3068Y-470D02*
D03*
X3251D02*
D03*
D73*
X3746Y-89D02*
D03*
D74*
X3522Y-122D02*
D03*
Y-56D02*
D03*
X3522Y11D02*
D03*
X3523Y-188D02*
D03*
D75*
X2160Y-1511D02*
D03*
X2426D02*
D03*
D76*
X2172Y-1753D02*
D03*
X2477D02*
D03*
D77*
X3632Y-788D02*
D03*
Y-482D02*
D03*
X3150Y-838D02*
D03*
Y-1143D02*
D03*
D78*
X3391Y-1257D02*
D03*
Y-1107D02*
D03*
D79*
X4648Y-813D02*
D03*
X4073D02*
D03*
X3845Y-1245D02*
D03*
X4420D02*
D03*
D80*
X1394Y-1229D02*
D03*
X1474D02*
D03*
X1555D02*
D03*
X1634D02*
D03*
X1715D02*
D03*
X1794D02*
D03*
X1875D02*
D03*
X1394Y-1689D02*
D03*
X1474D02*
D03*
X1555D02*
D03*
X1634D02*
D03*
X1715D02*
D03*
X1794D02*
D03*
X1875D02*
D03*
D81*
X1634Y-1459D02*
D03*
M02*
