G04*
G04 #@! TF.GenerationSoftware,Altium Limited,Altium Designer,23.10.1 (27)*
G04*
G04 Layer_Color=8388736*
%FSLAX42Y42*%
%MOMM*%
G71*
G04*
G04 #@! TF.SameCoordinates,D45A84C9-24EE-431E-81B0-E16C7BED9CBD*
G04*
G04*
G04 #@! TF.FilePolarity,Positive*
G04*
G01*
G75*
%ADD10C,0.20*%
G36*
X2688Y-2988D02*
X2858Y-3238D01*
X3099D01*
X3162Y-3302D01*
Y-3823D01*
X3035Y-3950D01*
X1499D01*
X1219Y-3670D01*
Y-3023D01*
X1499Y-2743D01*
X2489D01*
X2688Y-2988D01*
D02*
G37*
G36*
X3152Y-2731D02*
X3152Y-2733D01*
X3152Y-2735D01*
X3151Y-2736D01*
X3151Y-2738D01*
X3151Y-2739D01*
X3151Y-2740D01*
X3151Y-2740D01*
X3151Y-2741D01*
Y-2741D01*
X3150Y-2742D01*
X3150Y-2744D01*
X3149Y-2745D01*
X3149Y-2746D01*
X3148Y-2747D01*
X3148Y-2748D01*
X3148Y-2748D01*
X3148Y-2748D01*
X3147Y-2750D01*
X3146Y-2751D01*
X3145Y-2752D01*
X3144Y-2753D01*
X3143Y-2753D01*
X3142Y-2754D01*
X3142Y-2754D01*
X3142Y-2754D01*
X3140Y-2755D01*
X3139Y-2756D01*
X3137Y-2757D01*
X3136Y-2757D01*
X3134Y-2758D01*
X3133Y-2758D01*
X3133Y-2758D01*
X3133Y-2759D01*
X3133Y-2759D01*
X3133D01*
X3130Y-2759D01*
X3128Y-2760D01*
X3126Y-2760D01*
X3124Y-2760D01*
X3122Y-2760D01*
X3121D01*
X3121Y-2760D01*
X3120D01*
X3120D01*
X3120D01*
X3120D01*
X3116Y-2760D01*
X3114Y-2760D01*
X3111Y-2760D01*
X3110Y-2759D01*
X3109Y-2759D01*
X3108Y-2759D01*
X3107Y-2759D01*
X3106Y-2758D01*
X3106Y-2758D01*
X3105Y-2758D01*
X3105Y-2758D01*
X3104Y-2758D01*
X3104D01*
X3102Y-2757D01*
X3100Y-2756D01*
X3098Y-2754D01*
X3096Y-2753D01*
X3095Y-2752D01*
X3094Y-2751D01*
X3094Y-2751D01*
X3094Y-2750D01*
X3094Y-2750D01*
X3093Y-2750D01*
X3092Y-2749D01*
X3091Y-2747D01*
X3090Y-2746D01*
X3090Y-2744D01*
X3089Y-2743D01*
X3089Y-2742D01*
X3089Y-2741D01*
Y-2741D01*
X3089Y-2741D01*
Y-2741D01*
X3089Y-2739D01*
X3088Y-2737D01*
X3088Y-2736D01*
X3088Y-2734D01*
X3088Y-2732D01*
Y-2707D01*
X3152D01*
Y-2731D01*
D02*
G37*
G36*
X3111Y-2776D02*
X3110Y-2778D01*
X3109Y-2779D01*
X3109Y-2780D01*
X3108Y-2781D01*
X3108Y-2782D01*
X3107Y-2783D01*
X3107Y-2783D01*
Y-2783D01*
X3106Y-2785D01*
X3105Y-2786D01*
X3104Y-2787D01*
X3103Y-2788D01*
X3103Y-2789D01*
X3102Y-2790D01*
X3102Y-2790D01*
X3102Y-2791D01*
X3152D01*
Y-2798D01*
X3088D01*
Y-2793D01*
X3089Y-2792D01*
X3091Y-2791D01*
X3092Y-2790D01*
X3093Y-2789D01*
X3095Y-2788D01*
X3095Y-2787D01*
X3096Y-2787D01*
X3096Y-2786D01*
X3096Y-2786D01*
X3096Y-2786D01*
X3098Y-2784D01*
X3099Y-2782D01*
X3101Y-2781D01*
X3102Y-2779D01*
X3102Y-2777D01*
X3103Y-2776D01*
X3103Y-2776D01*
X3103Y-2775D01*
X3103Y-2775D01*
X3104Y-2775D01*
Y-2775D01*
X3111D01*
X3111Y-2776D01*
D02*
G37*
G36*
X1500Y-50D02*
X1499Y-51D01*
X1497Y-52D01*
X1496Y-54D01*
X1495Y-55D01*
X1494Y-56D01*
X1493Y-57D01*
X1492Y-57D01*
X1492Y-57D01*
X1492Y-57D01*
X1492Y-57D01*
X1490Y-59D01*
X1489Y-61D01*
X1488Y-63D01*
X1487Y-65D01*
X1486Y-67D01*
X1485Y-67D01*
X1485Y-68D01*
X1485Y-68D01*
X1485Y-69D01*
X1484Y-69D01*
Y-69D01*
X1477D01*
X1477Y-67D01*
X1478Y-66D01*
X1479Y-65D01*
X1479Y-63D01*
X1480Y-62D01*
X1480Y-61D01*
X1481Y-61D01*
X1481Y-61D01*
Y-61D01*
X1482Y-59D01*
X1483Y-57D01*
X1484Y-56D01*
X1485Y-55D01*
X1485Y-54D01*
X1486Y-54D01*
X1486Y-53D01*
X1486Y-53D01*
X1436D01*
Y-45D01*
X1500D01*
Y-50D01*
D02*
G37*
G36*
X1459Y-91D02*
X1457Y-91D01*
X1456Y-91D01*
X1454Y-92D01*
X1453Y-92D01*
X1452Y-93D01*
X1451Y-93D01*
X1450Y-94D01*
X1449Y-95D01*
X1449Y-95D01*
X1448Y-96D01*
X1448Y-96D01*
X1447Y-97D01*
X1447Y-97D01*
X1447Y-97D01*
X1446Y-97D01*
X1446Y-97D01*
X1446Y-98D01*
X1445Y-99D01*
X1444Y-101D01*
X1443Y-103D01*
X1443Y-105D01*
X1442Y-107D01*
X1442Y-108D01*
Y-108D01*
X1442Y-109D01*
Y-109D01*
X1442Y-111D01*
X1443Y-114D01*
X1443Y-115D01*
X1444Y-117D01*
X1444Y-118D01*
X1445Y-119D01*
X1445Y-119D01*
X1445Y-120D01*
X1445Y-120D01*
X1445Y-120D01*
Y-120D01*
X1447Y-122D01*
X1448Y-124D01*
X1450Y-125D01*
X1451Y-126D01*
X1452Y-127D01*
X1453Y-127D01*
X1454Y-127D01*
X1454Y-128D01*
X1454Y-128D01*
X1454D01*
X1457Y-128D01*
X1459Y-129D01*
X1462Y-129D01*
X1464Y-130D01*
X1465Y-130D01*
X1466Y-130D01*
X1467D01*
X1467Y-130D01*
X1468D01*
X1468D01*
X1469D01*
X1469D01*
X1471Y-130D01*
X1473Y-130D01*
X1475Y-129D01*
X1477Y-129D01*
X1479Y-129D01*
X1479Y-129D01*
X1480Y-128D01*
X1480Y-128D01*
X1481Y-128D01*
X1481Y-128D01*
X1481D01*
X1483Y-127D01*
X1485Y-126D01*
X1487Y-125D01*
X1488Y-124D01*
X1489Y-123D01*
X1490Y-122D01*
X1490Y-121D01*
X1490Y-121D01*
Y-121D01*
X1492Y-119D01*
X1493Y-117D01*
X1493Y-115D01*
X1494Y-113D01*
X1494Y-111D01*
X1494Y-111D01*
Y-110D01*
X1494Y-109D01*
Y-109D01*
X1494Y-106D01*
X1494Y-104D01*
X1493Y-103D01*
X1493Y-101D01*
X1492Y-100D01*
X1491Y-99D01*
X1491Y-98D01*
X1491Y-98D01*
X1489Y-97D01*
X1488Y-95D01*
X1486Y-94D01*
X1485Y-93D01*
X1483Y-92D01*
X1482Y-92D01*
X1482Y-92D01*
X1481Y-92D01*
X1481Y-92D01*
X1481Y-92D01*
X1481D01*
X1483Y-83D01*
X1484Y-84D01*
X1486Y-84D01*
X1487Y-85D01*
X1489Y-86D01*
X1490Y-86D01*
X1491Y-87D01*
X1492Y-88D01*
X1493Y-89D01*
X1494Y-89D01*
X1494Y-90D01*
X1495Y-91D01*
X1495Y-91D01*
X1496Y-92D01*
X1496Y-92D01*
X1496Y-92D01*
X1496Y-92D01*
X1497Y-94D01*
X1498Y-95D01*
X1499Y-96D01*
X1499Y-98D01*
X1500Y-100D01*
X1501Y-103D01*
X1501Y-104D01*
X1501Y-105D01*
X1501Y-106D01*
X1501Y-107D01*
X1501Y-108D01*
Y-109D01*
X1501Y-112D01*
X1501Y-115D01*
X1500Y-117D01*
X1500Y-118D01*
X1499Y-119D01*
X1499Y-120D01*
X1499Y-121D01*
X1498Y-122D01*
X1498Y-123D01*
X1498Y-123D01*
X1498Y-124D01*
X1498Y-124D01*
X1497Y-124D01*
X1496Y-127D01*
X1494Y-129D01*
X1492Y-131D01*
X1490Y-132D01*
X1489Y-133D01*
X1488Y-134D01*
X1487Y-134D01*
X1487Y-135D01*
X1486Y-135D01*
X1486Y-135D01*
X1486Y-135D01*
X1483Y-136D01*
X1480Y-137D01*
X1477Y-138D01*
X1475Y-138D01*
X1473Y-138D01*
X1472Y-138D01*
X1471Y-139D01*
X1470D01*
X1470Y-139D01*
X1469D01*
X1469D01*
X1469D01*
X1465Y-138D01*
X1462Y-138D01*
X1459Y-138D01*
X1458Y-137D01*
X1457Y-137D01*
X1456Y-137D01*
X1455Y-136D01*
X1454Y-136D01*
X1453Y-136D01*
X1452Y-136D01*
X1452Y-136D01*
X1452Y-135D01*
X1451D01*
X1449Y-134D01*
X1446Y-132D01*
X1444Y-131D01*
X1443Y-130D01*
X1442Y-129D01*
X1442Y-128D01*
X1441Y-128D01*
X1440Y-127D01*
X1440Y-126D01*
X1440Y-126D01*
X1439Y-126D01*
X1439Y-126D01*
X1439Y-125D01*
X1439Y-124D01*
X1438Y-123D01*
X1437Y-120D01*
X1436Y-117D01*
X1436Y-115D01*
X1435Y-113D01*
X1435Y-112D01*
X1435Y-111D01*
Y-110D01*
X1435Y-110D01*
Y-109D01*
X1435Y-107D01*
X1435Y-105D01*
X1436Y-103D01*
X1436Y-102D01*
X1436Y-100D01*
X1437Y-99D01*
X1437Y-98D01*
X1438Y-96D01*
X1438Y-95D01*
X1439Y-94D01*
X1439Y-94D01*
X1440Y-93D01*
X1440Y-92D01*
X1440Y-92D01*
X1440Y-92D01*
X1441Y-92D01*
X1442Y-90D01*
X1443Y-89D01*
X1444Y-88D01*
X1445Y-87D01*
X1448Y-86D01*
X1451Y-84D01*
X1452Y-84D01*
X1453Y-83D01*
X1454Y-83D01*
X1455Y-83D01*
X1455Y-82D01*
X1456Y-82D01*
X1456Y-82D01*
X1456D01*
X1459Y-91D01*
D02*
G37*
G36*
X2104Y-66D02*
X2106Y-65D01*
X2106Y-64D01*
X2107Y-64D01*
X2108Y-64D01*
X2108Y-63D01*
X2108Y-63D01*
X2108Y-63D01*
X2109Y-62D01*
X2109Y-62D01*
X2110Y-60D01*
X2112Y-59D01*
X2113Y-57D01*
X2114Y-56D01*
X2115Y-55D01*
X2116Y-55D01*
X2116Y-54D01*
X2116Y-54D01*
X2116Y-54D01*
X2116Y-54D01*
X2118Y-52D01*
X2119Y-51D01*
X2120Y-49D01*
X2121Y-48D01*
X2122Y-47D01*
X2123Y-46D01*
X2124Y-45D01*
X2125Y-44D01*
X2125Y-44D01*
X2126Y-43D01*
X2126Y-43D01*
X2127Y-42D01*
X2127Y-42D01*
X2128Y-42D01*
X2129Y-40D01*
X2131Y-39D01*
X2132Y-38D01*
X2133Y-38D01*
X2134Y-37D01*
X2135Y-37D01*
X2135Y-36D01*
X2136Y-36D01*
X2137Y-36D01*
X2138Y-35D01*
X2140Y-35D01*
X2141Y-35D01*
X2142Y-35D01*
X2142Y-35D01*
X2143D01*
X2143D01*
X2144Y-35D01*
X2146Y-35D01*
X2147Y-35D01*
X2148Y-36D01*
X2150Y-36D01*
X2152Y-37D01*
X2153Y-38D01*
X2154Y-38D01*
X2154Y-39D01*
X2155Y-39D01*
X2155Y-40D01*
X2156Y-40D01*
X2156Y-40D01*
X2156Y-40D01*
X2157Y-41D01*
X2157Y-42D01*
X2158Y-43D01*
X2159Y-45D01*
X2160Y-47D01*
X2160Y-49D01*
X2160Y-50D01*
X2161Y-51D01*
X2161Y-52D01*
X2161Y-53D01*
X2161Y-54D01*
Y-55D01*
X2161Y-56D01*
X2161Y-58D01*
X2160Y-59D01*
X2160Y-61D01*
X2160Y-62D01*
X2159Y-63D01*
X2159Y-64D01*
X2158Y-65D01*
X2158Y-66D01*
X2158Y-67D01*
X2157Y-68D01*
X2157Y-68D01*
X2157Y-69D01*
X2156Y-69D01*
X2156Y-69D01*
X2156Y-69D01*
X2155Y-70D01*
X2154Y-71D01*
X2153Y-72D01*
X2152Y-73D01*
X2150Y-74D01*
X2147Y-74D01*
X2146Y-75D01*
X2145Y-75D01*
X2145Y-75D01*
X2144Y-75D01*
X2143Y-75D01*
X2143D01*
X2142Y-76D01*
X2142D01*
X2142Y-67D01*
X2144Y-67D01*
X2146Y-67D01*
X2147Y-66D01*
X2148Y-66D01*
X2150Y-65D01*
X2150Y-65D01*
X2151Y-64D01*
X2151Y-64D01*
X2152Y-63D01*
X2153Y-61D01*
X2154Y-60D01*
X2154Y-58D01*
X2154Y-57D01*
X2154Y-56D01*
X2154Y-55D01*
Y-55D01*
X2154Y-53D01*
X2154Y-51D01*
X2153Y-50D01*
X2153Y-48D01*
X2152Y-47D01*
X2152Y-47D01*
X2151Y-46D01*
X2151Y-46D01*
X2150Y-45D01*
X2149Y-44D01*
X2147Y-44D01*
X2146Y-43D01*
X2145Y-43D01*
X2144Y-43D01*
X2143Y-43D01*
X2143D01*
X2143D01*
X2142Y-43D01*
X2140Y-43D01*
X2138Y-44D01*
X2137Y-45D01*
X2136Y-45D01*
X2135Y-46D01*
X2134Y-46D01*
X2134Y-46D01*
X2134Y-47D01*
X2134D01*
X2133Y-47D01*
X2132Y-48D01*
X2131Y-49D01*
X2130Y-50D01*
X2127Y-53D01*
X2125Y-55D01*
X2124Y-56D01*
X2123Y-57D01*
X2122Y-58D01*
X2122Y-59D01*
X2121Y-60D01*
X2121Y-60D01*
X2120Y-61D01*
X2120Y-61D01*
X2118Y-63D01*
X2116Y-65D01*
X2115Y-67D01*
X2113Y-68D01*
X2112Y-69D01*
X2111Y-70D01*
X2111Y-71D01*
X2111Y-71D01*
X2111D01*
X2109Y-72D01*
X2108Y-73D01*
X2106Y-74D01*
X2105Y-75D01*
X2104Y-75D01*
X2103Y-76D01*
X2102Y-76D01*
X2102Y-76D01*
X2102D01*
X2101Y-76D01*
X2100Y-77D01*
X2099Y-77D01*
X2098Y-77D01*
X2098Y-77D01*
X2097D01*
X2097D01*
X2097D01*
Y-35D01*
X2104D01*
Y-66D01*
D02*
G37*
G36*
X2119Y-92D02*
X2118Y-92D01*
X2116Y-92D01*
X2115Y-93D01*
X2114Y-93D01*
X2113Y-94D01*
X2112Y-94D01*
X2111Y-95D01*
X2110Y-96D01*
X2109Y-96D01*
X2109Y-97D01*
X2108Y-97D01*
X2108Y-98D01*
X2107Y-98D01*
X2107Y-98D01*
X2107Y-98D01*
X2107Y-98D01*
X2106Y-99D01*
X2105Y-100D01*
X2104Y-102D01*
X2104Y-104D01*
X2103Y-106D01*
X2103Y-108D01*
X2103Y-109D01*
Y-109D01*
X2103Y-110D01*
Y-110D01*
X2103Y-113D01*
X2103Y-115D01*
X2104Y-116D01*
X2104Y-118D01*
X2105Y-119D01*
X2105Y-120D01*
X2105Y-120D01*
X2105Y-121D01*
X2106Y-121D01*
X2106Y-121D01*
Y-121D01*
X2107Y-123D01*
X2108Y-125D01*
X2110Y-126D01*
X2111Y-127D01*
X2113Y-128D01*
X2114Y-128D01*
X2114Y-128D01*
X2115Y-129D01*
X2115Y-129D01*
X2115D01*
X2117Y-129D01*
X2120Y-130D01*
X2122Y-130D01*
X2124Y-131D01*
X2125Y-131D01*
X2126Y-131D01*
X2127D01*
X2128Y-131D01*
X2128D01*
X2129D01*
X2129D01*
X2129D01*
X2131Y-131D01*
X2134Y-131D01*
X2136Y-130D01*
X2138Y-130D01*
X2139Y-130D01*
X2140Y-130D01*
X2140Y-129D01*
X2141Y-129D01*
X2141Y-129D01*
X2141Y-129D01*
X2141D01*
X2143Y-128D01*
X2145Y-127D01*
X2147Y-126D01*
X2148Y-125D01*
X2149Y-124D01*
X2150Y-123D01*
X2151Y-122D01*
X2151Y-122D01*
Y-122D01*
X2152Y-120D01*
X2153Y-118D01*
X2154Y-116D01*
X2154Y-114D01*
X2154Y-112D01*
X2154Y-112D01*
Y-111D01*
X2154Y-110D01*
Y-110D01*
X2154Y-107D01*
X2154Y-105D01*
X2153Y-104D01*
X2153Y-102D01*
X2152Y-101D01*
X2152Y-100D01*
X2151Y-99D01*
X2151Y-99D01*
X2150Y-98D01*
X2148Y-96D01*
X2147Y-95D01*
X2145Y-94D01*
X2143Y-93D01*
X2143Y-93D01*
X2142Y-93D01*
X2142Y-93D01*
X2141Y-93D01*
X2141Y-93D01*
X2141D01*
X2143Y-84D01*
X2145Y-85D01*
X2146Y-85D01*
X2148Y-86D01*
X2149Y-87D01*
X2150Y-87D01*
X2151Y-88D01*
X2152Y-89D01*
X2153Y-90D01*
X2154Y-91D01*
X2155Y-91D01*
X2155Y-92D01*
X2156Y-92D01*
X2156Y-93D01*
X2157Y-93D01*
X2157Y-93D01*
X2157Y-93D01*
X2158Y-95D01*
X2158Y-96D01*
X2159Y-97D01*
X2160Y-99D01*
X2160Y-101D01*
X2161Y-104D01*
X2161Y-105D01*
X2161Y-106D01*
X2162Y-107D01*
X2162Y-108D01*
X2162Y-109D01*
Y-110D01*
X2162Y-113D01*
X2161Y-116D01*
X2160Y-118D01*
X2160Y-119D01*
X2160Y-120D01*
X2159Y-121D01*
X2159Y-122D01*
X2159Y-123D01*
X2158Y-124D01*
X2158Y-124D01*
X2158Y-125D01*
X2158Y-125D01*
X2158Y-125D01*
X2156Y-128D01*
X2154Y-130D01*
X2153Y-132D01*
X2151Y-133D01*
X2149Y-134D01*
X2148Y-135D01*
X2148Y-135D01*
X2147Y-136D01*
X2147Y-136D01*
X2147Y-136D01*
X2146Y-136D01*
X2144Y-137D01*
X2141Y-138D01*
X2138Y-139D01*
X2135Y-139D01*
X2134Y-139D01*
X2133Y-140D01*
X2132Y-140D01*
X2131D01*
X2130Y-140D01*
X2130D01*
X2129D01*
X2129D01*
X2126Y-140D01*
X2122Y-139D01*
X2120Y-139D01*
X2118Y-138D01*
X2117Y-138D01*
X2116Y-138D01*
X2115Y-137D01*
X2114Y-137D01*
X2113Y-137D01*
X2113Y-137D01*
X2112Y-137D01*
X2112Y-136D01*
X2112D01*
X2109Y-135D01*
X2107Y-133D01*
X2104Y-132D01*
X2104Y-131D01*
X2103Y-130D01*
X2102Y-129D01*
X2101Y-129D01*
X2101Y-128D01*
X2100Y-127D01*
X2100Y-127D01*
X2100Y-127D01*
X2100Y-127D01*
X2100Y-126D01*
X2099Y-125D01*
X2098Y-124D01*
X2097Y-121D01*
X2097Y-118D01*
X2096Y-116D01*
X2096Y-114D01*
X2096Y-113D01*
X2096Y-112D01*
Y-111D01*
X2095Y-111D01*
Y-110D01*
X2096Y-108D01*
X2096Y-106D01*
X2096Y-104D01*
X2096Y-103D01*
X2097Y-101D01*
X2097Y-100D01*
X2098Y-99D01*
X2098Y-97D01*
X2099Y-96D01*
X2099Y-95D01*
X2100Y-95D01*
X2100Y-94D01*
X2100Y-93D01*
X2101Y-93D01*
X2101Y-93D01*
X2101Y-93D01*
X2102Y-91D01*
X2103Y-90D01*
X2104Y-89D01*
X2106Y-88D01*
X2108Y-87D01*
X2111Y-85D01*
X2112Y-85D01*
X2113Y-84D01*
X2114Y-84D01*
X2115Y-84D01*
X2116Y-83D01*
X2116Y-83D01*
X2117Y-83D01*
X2117D01*
X2119Y-92D01*
D02*
G37*
G36*
X2208Y-1449D02*
X2209Y-1450D01*
X2210Y-1452D01*
X2212Y-1453D01*
X2213Y-1454D01*
X2213Y-1455D01*
X2214Y-1455D01*
X2214Y-1455D01*
X2214Y-1456D01*
X2214Y-1456D01*
X2216Y-1457D01*
X2218Y-1459D01*
X2220Y-1460D01*
X2222Y-1461D01*
X2223Y-1462D01*
X2224Y-1462D01*
X2225Y-1463D01*
X2225Y-1463D01*
X2226Y-1463D01*
X2226Y-1463D01*
X2226D01*
Y-1471D01*
X2224Y-1470D01*
X2223Y-1470D01*
X2222Y-1469D01*
X2220Y-1468D01*
X2219Y-1468D01*
X2218Y-1467D01*
X2218Y-1467D01*
X2218Y-1467D01*
X2218D01*
X2216Y-1466D01*
X2214Y-1465D01*
X2213Y-1464D01*
X2212Y-1463D01*
X2211Y-1462D01*
X2211Y-1462D01*
X2210Y-1461D01*
X2210Y-1461D01*
Y-1511D01*
X2202D01*
Y-1447D01*
X2207D01*
X2208Y-1449D01*
D02*
G37*
G36*
X2293Y-1511D02*
X2284D01*
Y-1483D01*
X2274D01*
X2273Y-1483D01*
X2272D01*
X2271Y-1483D01*
X2271Y-1483D01*
X2270D01*
X2270Y-1483D01*
X2270D01*
X2269Y-1484D01*
X2268Y-1484D01*
X2267Y-1484D01*
X2267Y-1485D01*
X2266Y-1485D01*
X2266Y-1485D01*
X2266Y-1485D01*
X2265Y-1486D01*
X2265Y-1486D01*
X2263Y-1488D01*
X2263Y-1488D01*
X2262Y-1489D01*
X2262Y-1489D01*
X2262Y-1489D01*
X2261Y-1490D01*
X2260Y-1492D01*
X2259Y-1493D01*
X2258Y-1495D01*
X2257Y-1496D01*
X2256Y-1497D01*
X2256Y-1497D01*
X2256Y-1498D01*
X2256Y-1498D01*
Y-1498D01*
X2247Y-1511D01*
X2237D01*
X2248Y-1494D01*
X2249Y-1492D01*
X2250Y-1490D01*
X2251Y-1489D01*
X2253Y-1488D01*
X2253Y-1487D01*
X2254Y-1486D01*
X2255Y-1486D01*
X2255Y-1485D01*
X2256Y-1485D01*
X2256Y-1484D01*
X2258Y-1483D01*
X2259Y-1483D01*
X2259Y-1482D01*
X2260Y-1482D01*
X2260Y-1482D01*
X2258Y-1482D01*
X2257Y-1482D01*
X2255Y-1481D01*
X2254Y-1481D01*
X2253Y-1480D01*
X2252Y-1480D01*
X2251Y-1479D01*
X2250Y-1479D01*
X2249Y-1478D01*
X2248Y-1478D01*
X2248Y-1477D01*
X2247Y-1477D01*
X2247Y-1477D01*
X2246Y-1477D01*
X2246Y-1476D01*
X2246Y-1476D01*
X2246Y-1475D01*
X2245Y-1475D01*
X2244Y-1473D01*
X2243Y-1471D01*
X2242Y-1469D01*
X2242Y-1467D01*
X2242Y-1467D01*
Y-1466D01*
X2242Y-1465D01*
Y-1465D01*
Y-1465D01*
Y-1465D01*
X2242Y-1463D01*
X2242Y-1461D01*
X2243Y-1459D01*
X2243Y-1458D01*
X2244Y-1457D01*
X2244Y-1456D01*
X2244Y-1455D01*
X2245Y-1455D01*
Y-1455D01*
X2246Y-1454D01*
X2247Y-1452D01*
X2248Y-1451D01*
X2249Y-1450D01*
X2250Y-1450D01*
X2251Y-1449D01*
X2251Y-1449D01*
X2252Y-1449D01*
X2252D01*
X2253Y-1449D01*
X2254Y-1449D01*
X2256Y-1448D01*
X2258Y-1448D01*
X2260Y-1448D01*
X2262Y-1447D01*
X2263D01*
X2263Y-1447D01*
X2293D01*
Y-1511D01*
D02*
G37*
%LPC*%
G36*
X3144Y-2716D02*
X3095D01*
Y-2731D01*
X3096Y-2732D01*
Y-2733D01*
X3096Y-2734D01*
X3096Y-2736D01*
X3096Y-2738D01*
X3096Y-2739D01*
X3097Y-2740D01*
X3097Y-2740D01*
X3097Y-2740D01*
X3098Y-2742D01*
X3099Y-2744D01*
X3100Y-2745D01*
X3101Y-2746D01*
X3102Y-2747D01*
X3103Y-2748D01*
X3103Y-2748D01*
X3104Y-2748D01*
X3104Y-2748D01*
X3104D01*
X3105Y-2749D01*
X3106Y-2749D01*
X3109Y-2750D01*
X3111Y-2751D01*
X3114Y-2751D01*
X3115Y-2751D01*
X3116Y-2752D01*
X3117Y-2752D01*
X3118D01*
X3118Y-2752D01*
X3119D01*
X3119D01*
X3119D01*
X3122Y-2752D01*
X3124Y-2751D01*
X3127Y-2751D01*
X3128Y-2751D01*
X3129Y-2751D01*
X3130Y-2750D01*
X3130Y-2750D01*
X3131Y-2750D01*
X3131Y-2750D01*
X3132Y-2750D01*
X3132Y-2750D01*
X3132D01*
X3134Y-2749D01*
X3135Y-2749D01*
X3137Y-2748D01*
X3138Y-2747D01*
X3139Y-2746D01*
X3139Y-2746D01*
X3140Y-2745D01*
X3140Y-2745D01*
X3141Y-2744D01*
X3141Y-2743D01*
X3142Y-2743D01*
X3142Y-2742D01*
X3143Y-2741D01*
X3143Y-2740D01*
X3143Y-2740D01*
X3143Y-2739D01*
X3144Y-2738D01*
X3144Y-2736D01*
X3144Y-2735D01*
X3144Y-2733D01*
X3144Y-2732D01*
X3144Y-2731D01*
Y-2716D01*
D02*
G37*
G36*
X2284Y-1454D02*
X2264D01*
X2262Y-1455D01*
X2260Y-1455D01*
X2258Y-1455D01*
X2256Y-1456D01*
X2255Y-1456D01*
X2255Y-1457D01*
X2254Y-1457D01*
X2254Y-1457D01*
X2253Y-1459D01*
X2252Y-1460D01*
X2251Y-1461D01*
X2251Y-1462D01*
X2251Y-1463D01*
X2251Y-1464D01*
X2251Y-1465D01*
Y-1465D01*
Y-1465D01*
X2251Y-1466D01*
X2251Y-1467D01*
X2251Y-1468D01*
X2251Y-1469D01*
X2252Y-1470D01*
X2252Y-1470D01*
X2252Y-1471D01*
X2252Y-1471D01*
X2253Y-1472D01*
X2254Y-1472D01*
X2255Y-1473D01*
X2255Y-1474D01*
X2256Y-1474D01*
X2257Y-1474D01*
X2257Y-1474D01*
X2257Y-1475D01*
X2259Y-1475D01*
X2260Y-1475D01*
X2262Y-1475D01*
X2263Y-1475D01*
X2264Y-1476D01*
X2265Y-1476D01*
X2284D01*
Y-1454D01*
D02*
G37*
%LPD*%
D10*
X2831Y-3188D02*
Y-2227D01*
Y-3188D02*
X3473D01*
Y-2227D01*
X2831D02*
X3473D01*
X1140Y-504D02*
X1730D01*
X1140D02*
Y226D01*
X1730D01*
Y-504D02*
Y226D01*
X1800Y-505D02*
X2391D01*
X1800D02*
Y225D01*
X2391D01*
Y-505D02*
Y225D01*
X2479Y-1606D02*
Y-1416D01*
X2107Y-1606D02*
X2479D01*
X2107D02*
Y-1416D01*
X2479D01*
M02*
