G04*
G04 #@! TF.GenerationSoftware,Altium Limited,Altium Designer,23.10.1 (27)*
G04*
G04 Layer_Color=8421504*
%FSLAX42Y42*%
%MOMM*%
G71*
G04*
G04 #@! TF.SameCoordinates,D45A84C9-24EE-431E-81B0-E16C7BED9CBD*
G04*
G04*
G04 #@! TF.FilePolarity,Positive*
G04*
G01*
G75*
%ADD21C,0.25*%
G04:AMPARAMS|DCode=22|XSize=0.55mm|YSize=0.5mm|CornerRadius=0.06mm|HoleSize=0mm|Usage=FLASHONLY|Rotation=270.000|XOffset=0mm|YOffset=0mm|HoleType=Round|Shape=RoundedRectangle|*
%AMROUNDEDRECTD22*
21,1,0.55,0.38,0,0,270.0*
21,1,0.43,0.50,0,0,270.0*
1,1,0.13,-0.19,-0.21*
1,1,0.13,-0.19,0.21*
1,1,0.13,0.19,0.21*
1,1,0.13,0.19,-0.21*
%
%ADD22ROUNDEDRECTD22*%
%ADD23R,4.75X2.30*%
G04:AMPARAMS|DCode=24|XSize=2.33mm|YSize=1.55mm|CornerRadius=0.19mm|HoleSize=0mm|Usage=FLASHONLY|Rotation=270.000|XOffset=0mm|YOffset=0mm|HoleType=Round|Shape=RoundedRectangle|*
%AMROUNDEDRECTD24*
21,1,2.33,1.16,0,0,270.0*
21,1,1.94,1.55,0,0,270.0*
1,1,0.39,-0.58,-0.97*
1,1,0.39,-0.58,0.97*
1,1,0.39,0.58,0.97*
1,1,0.39,0.58,-0.97*
%
%ADD24ROUNDEDRECTD24*%
%ADD25R,0.80X0.80*%
D21*
X4572Y-4483D02*
D03*
X5740Y-4521D02*
D03*
X5994D02*
D03*
D22*
X5130Y-4483D02*
D03*
X5220D02*
D03*
X2699Y-3277D02*
D03*
X2609D02*
D03*
X3080D02*
D03*
X2990D02*
D03*
X3981Y-4470D02*
D03*
X4071D02*
D03*
X3956Y-2515D02*
D03*
X4046D02*
D03*
X3968Y-3531D02*
D03*
X4058D02*
D03*
X5111Y-2502D02*
D03*
X5201D02*
D03*
X5111Y-3531D02*
D03*
X5201D02*
D03*
D23*
X3215Y-2235D02*
D03*
X2170D02*
D03*
D24*
X2070Y-3467D02*
D03*
Y-3040D02*
D03*
D25*
X2756Y-3391D02*
D03*
X2906D02*
D03*
M02*
