G04*
G04 #@! TF.GenerationSoftware,Altium Limited,Altium Designer,23.10.1 (27)*
G04*
G04 Layer_Physical_Order=1*
G04 Layer_Color=255*
%FSLAX42Y42*%
%MOMM*%
G71*
G04*
G04 #@! TF.SameCoordinates,D45A84C9-24EE-431E-81B0-E16C7BED9CBD*
G04*
G04*
G04 #@! TF.FilePolarity,Positive*
G04*
G01*
G75*
%ADD17C,0.25*%
%ADD21C,0.25*%
G04:AMPARAMS|DCode=22|XSize=0.55mm|YSize=0.5mm|CornerRadius=0.06mm|HoleSize=0mm|Usage=FLASHONLY|Rotation=270.000|XOffset=0mm|YOffset=0mm|HoleType=Round|Shape=RoundedRectangle|*
%AMROUNDEDRECTD22*
21,1,0.55,0.38,0,0,270.0*
21,1,0.43,0.50,0,0,270.0*
1,1,0.13,-0.19,-0.21*
1,1,0.13,-0.19,0.21*
1,1,0.13,0.19,0.21*
1,1,0.13,0.19,-0.21*
%
%ADD22ROUNDEDRECTD22*%
%ADD23R,4.75X2.30*%
G04:AMPARAMS|DCode=24|XSize=2.33mm|YSize=1.55mm|CornerRadius=0.19mm|HoleSize=0mm|Usage=FLASHONLY|Rotation=270.000|XOffset=0mm|YOffset=0mm|HoleType=Round|Shape=RoundedRectangle|*
%AMROUNDEDRECTD24*
21,1,2.33,1.16,0,0,270.0*
21,1,1.94,1.55,0,0,270.0*
1,1,0.39,-0.58,-0.97*
1,1,0.39,-0.58,0.97*
1,1,0.39,0.58,0.97*
1,1,0.39,0.58,-0.97*
%
%ADD24ROUNDEDRECTD24*%
%ADD25R,0.80X0.80*%
%ADD31C,1.65*%
%ADD32R,1.65X1.65*%
%ADD35C,1.55*%
%ADD36R,1.55X1.55*%
%ADD37C,1.40*%
%ADD38R,1.40X1.40*%
%ADD43C,6.35*%
%ADD44C,4.40*%
%ADD45R,3.81X9.53*%
%ADD46C,5.00*%
%ADD47C,1.00*%
%ADD48C,0.50*%
G36*
X6185Y-5118D02*
X5982Y-5296D01*
X5969D01*
X-174Y-5261D01*
X-350Y-5086D01*
Y350D01*
X6150D01*
X6185Y-5118D01*
D02*
G37*
%LPC*%
G36*
X5822Y275D02*
X5813D01*
Y13D01*
X6075D01*
Y22D01*
X6069Y64D01*
X6055Y106D01*
X6036Y144D01*
X6010Y179D01*
X5979Y210D01*
X5944Y236D01*
X5906Y255D01*
X5864Y269D01*
X5822Y275D01*
D02*
G37*
G36*
X5787D02*
X5778D01*
X5736Y269D01*
X5694Y255D01*
X5656Y236D01*
X5621Y210D01*
X5590Y179D01*
X5564Y144D01*
X5545Y106D01*
X5531Y64D01*
X5525Y22D01*
Y13D01*
X5787D01*
Y275D01*
D02*
G37*
G36*
X22D02*
X13D01*
Y13D01*
X275D01*
Y22D01*
X269Y64D01*
X255Y106D01*
X236Y144D01*
X210Y179D01*
X179Y210D01*
X144Y236D01*
X106Y255D01*
X64Y269D01*
X22Y275D01*
D02*
G37*
G36*
X-13D02*
X-22D01*
X-64Y269D01*
X-106Y255D01*
X-144Y236D01*
X-179Y210D01*
X-210Y179D01*
X-236Y144D01*
X-255Y106D01*
X-269Y64D01*
X-275Y22D01*
Y13D01*
X-13D01*
Y275D01*
D02*
G37*
G36*
X5024Y195D02*
X5013D01*
Y-37D01*
X5245D01*
Y-26D01*
X5236Y22D01*
X5217Y66D01*
X5191Y106D01*
X5156Y141D01*
X5116Y167D01*
X5072Y186D01*
X5024Y195D01*
D02*
G37*
G36*
X4987D02*
X4976D01*
X4928Y186D01*
X4884Y167D01*
X4844Y141D01*
X4809Y106D01*
X4783Y66D01*
X4764Y22D01*
X4755Y-26D01*
Y-37D01*
X4987D01*
Y195D01*
D02*
G37*
G36*
X824D02*
X813D01*
Y-37D01*
X1045D01*
Y-26D01*
X1036Y22D01*
X1017Y66D01*
X991Y106D01*
X956Y141D01*
X916Y167D01*
X872Y186D01*
X824Y195D01*
D02*
G37*
G36*
X787D02*
X776D01*
X728Y186D01*
X684Y167D01*
X644Y141D01*
X609Y106D01*
X583Y66D01*
X564Y22D01*
X555Y-26D01*
Y-37D01*
X787D01*
Y195D01*
D02*
G37*
G36*
X6075Y-13D02*
X5813D01*
Y-275D01*
X5822D01*
X5864Y-269D01*
X5906Y-255D01*
X5944Y-236D01*
X5979Y-210D01*
X6010Y-179D01*
X6036Y-144D01*
X6055Y-106D01*
X6069Y-64D01*
X6075Y-22D01*
Y-13D01*
D02*
G37*
G36*
X5787D02*
X5525D01*
Y-22D01*
X5531Y-64D01*
X5545Y-106D01*
X5564Y-144D01*
X5590Y-179D01*
X5621Y-210D01*
X5656Y-236D01*
X5694Y-255D01*
X5736Y-269D01*
X5778Y-275D01*
X5787D01*
Y-13D01*
D02*
G37*
G36*
X275D02*
X13D01*
Y-275D01*
X22D01*
X64Y-269D01*
X106Y-255D01*
X144Y-236D01*
X179Y-210D01*
X210Y-179D01*
X236Y-144D01*
X255Y-106D01*
X269Y-64D01*
X275Y-22D01*
Y-13D01*
D02*
G37*
G36*
X-13D02*
X-275D01*
Y-22D01*
X-269Y-64D01*
X-255Y-106D01*
X-236Y-144D01*
X-210Y-179D01*
X-179Y-210D01*
X-144Y-236D01*
X-106Y-255D01*
X-64Y-269D01*
X-22Y-275D01*
X-13D01*
Y-13D01*
D02*
G37*
G36*
X5245Y-63D02*
X5013D01*
Y-295D01*
X5024D01*
X5072Y-286D01*
X5116Y-267D01*
X5156Y-241D01*
X5191Y-206D01*
X5217Y-166D01*
X5236Y-122D01*
X5245Y-74D01*
Y-63D01*
D02*
G37*
G36*
X4987D02*
X4755D01*
Y-74D01*
X4764Y-122D01*
X4783Y-166D01*
X4809Y-206D01*
X4844Y-241D01*
X4884Y-267D01*
X4928Y-286D01*
X4976Y-295D01*
X4987D01*
Y-63D01*
D02*
G37*
G36*
X1045D02*
X813D01*
Y-295D01*
X824D01*
X872Y-286D01*
X916Y-267D01*
X956Y-241D01*
X991Y-206D01*
X1017Y-166D01*
X1036Y-122D01*
X1045Y-74D01*
Y-63D01*
D02*
G37*
G36*
X787D02*
X555D01*
Y-74D01*
X564Y-122D01*
X583Y-166D01*
X609Y-206D01*
X644Y-241D01*
X684Y-267D01*
X728Y-286D01*
X776Y-295D01*
X787D01*
Y-63D01*
D02*
G37*
G36*
X3439Y-242D02*
X3419D01*
X3400Y-247D01*
X3383Y-257D01*
X3369Y-271D01*
X3359Y-288D01*
X3354Y-308D01*
Y-327D01*
X3359Y-347D01*
X3369Y-364D01*
X3383Y-378D01*
X3400Y-388D01*
X3419Y-393D01*
X3439D01*
X3458Y-388D01*
X3475Y-378D01*
X3489Y-364D01*
X3499Y-347D01*
X3504Y-327D01*
Y-308D01*
X3499Y-288D01*
X3489Y-271D01*
X3475Y-257D01*
X3458Y-247D01*
X3439Y-242D01*
D02*
G37*
G36*
X1788Y-547D02*
X1768D01*
X1749Y-552D01*
X1732Y-562D01*
X1718Y-576D01*
X1708Y-593D01*
X1703Y-612D01*
Y-632D01*
X1708Y-651D01*
X1718Y-669D01*
X1732Y-683D01*
X1749Y-693D01*
X1768Y-698D01*
X1788D01*
X1807Y-693D01*
X1824Y-683D01*
X1838Y-669D01*
X1848Y-651D01*
X1853Y-632D01*
Y-612D01*
X1848Y-593D01*
X1838Y-576D01*
X1824Y-562D01*
X1807Y-552D01*
X1788Y-547D01*
D02*
G37*
G36*
X3109Y37D02*
X3089D01*
X3070Y32D01*
X3053Y22D01*
X3038Y8D01*
X3029Y-9D01*
X3023Y-28D01*
Y-48D01*
X3029Y-67D01*
X3038Y-84D01*
X3053Y-98D01*
X3060Y-103D01*
Y-317D01*
X3063Y-332D01*
X3071Y-345D01*
X3343Y-617D01*
X3341Y-625D01*
Y-645D01*
X3346Y-664D01*
X3356Y-681D01*
X3370Y-695D01*
X3387Y-705D01*
X3406Y-710D01*
X3426D01*
X3445Y-705D01*
X3463Y-695D01*
X3477Y-681D01*
X3487Y-664D01*
X3492Y-645D01*
Y-625D01*
X3487Y-606D01*
X3477Y-589D01*
X3463Y-575D01*
X3445Y-565D01*
X3426Y-560D01*
X3406D01*
X3398Y-562D01*
X3138Y-301D01*
Y-103D01*
X3145Y-98D01*
X3159Y-84D01*
X3169Y-67D01*
X3174Y-48D01*
Y-28D01*
X3169Y-9D01*
X3159Y8D01*
X3145Y22D01*
X3128Y32D01*
X3109Y37D01*
D02*
G37*
G36*
X2398Y-598D02*
X2378D01*
X2358Y-603D01*
X2341Y-613D01*
X2327Y-627D01*
X2317Y-644D01*
X2312Y-663D01*
Y-683D01*
X2317Y-702D01*
X2327Y-719D01*
X2341Y-733D01*
X2358Y-743D01*
X2378Y-749D01*
X2398D01*
X2417Y-743D01*
X2434Y-733D01*
X2448Y-719D01*
X2458Y-702D01*
X2463Y-683D01*
Y-663D01*
X2458Y-644D01*
X2448Y-627D01*
X2434Y-613D01*
X2417Y-603D01*
X2398Y-598D01*
D02*
G37*
G36*
X1610Y-699D02*
X1590D01*
X1571Y-704D01*
X1554Y-714D01*
X1540Y-728D01*
X1530Y-746D01*
X1525Y-765D01*
Y-785D01*
X1530Y-804D01*
X1540Y-821D01*
X1554Y-835D01*
X1571Y-845D01*
X1590Y-850D01*
X1610D01*
X1629Y-845D01*
X1646Y-835D01*
X1661Y-821D01*
X1670Y-804D01*
X1676Y-785D01*
Y-765D01*
X1670Y-746D01*
X1661Y-728D01*
X1646Y-714D01*
X1629Y-704D01*
X1610Y-699D01*
D02*
G37*
G36*
X2525Y-763D02*
X2505D01*
X2485Y-768D01*
X2468Y-778D01*
X2454Y-792D01*
X2444Y-809D01*
X2439Y-828D01*
Y-848D01*
X2444Y-867D01*
X2454Y-884D01*
X2468Y-899D01*
X2485Y-908D01*
X2505Y-914D01*
X2525D01*
X2544Y-908D01*
X2561Y-899D01*
X2575Y-884D01*
X2585Y-867D01*
X2590Y-848D01*
Y-828D01*
X2585Y-809D01*
X2575Y-792D01*
X2561Y-778D01*
X2544Y-768D01*
X2525Y-763D01*
D02*
G37*
G36*
X5716Y-777D02*
X5689D01*
X5663Y-784D01*
X5639Y-798D01*
X5620Y-817D01*
X5606Y-841D01*
X5599Y-867D01*
Y-894D01*
X5606Y-920D01*
X5620Y-943D01*
X5639Y-963D01*
X5663Y-976D01*
X5689Y-983D01*
X5716D01*
X5742Y-976D01*
X5765Y-963D01*
X5785Y-943D01*
X5798Y-920D01*
X5805Y-894D01*
Y-867D01*
X5798Y-841D01*
X5785Y-817D01*
X5765Y-798D01*
X5742Y-784D01*
X5716Y-777D01*
D02*
G37*
G36*
X3642Y-915D02*
X3622D01*
X3603Y-920D01*
X3586Y-930D01*
X3572Y-944D01*
X3562Y-961D01*
X3557Y-981D01*
Y-1001D01*
X3562Y-1020D01*
X3572Y-1037D01*
X3586Y-1051D01*
X3603Y-1061D01*
X3622Y-1066D01*
X3642D01*
X3661Y-1061D01*
X3678Y-1051D01*
X3693Y-1037D01*
X3702Y-1020D01*
X3708Y-1001D01*
Y-981D01*
X3702Y-961D01*
X3693Y-944D01*
X3678Y-930D01*
X3661Y-920D01*
X3642Y-915D01*
D02*
G37*
G36*
X5805Y-1027D02*
X5599D01*
Y-1233D01*
X5805D01*
Y-1027D01*
D02*
G37*
G36*
X5024Y-1005D02*
X5013D01*
Y-1237D01*
X5245D01*
Y-1226D01*
X5236Y-1178D01*
X5217Y-1134D01*
X5191Y-1094D01*
X5156Y-1059D01*
X5116Y-1033D01*
X5072Y-1014D01*
X5024Y-1005D01*
D02*
G37*
G36*
X4987D02*
X4976D01*
X4928Y-1014D01*
X4884Y-1033D01*
X4844Y-1059D01*
X4809Y-1094D01*
X4783Y-1134D01*
X4764Y-1178D01*
X4755Y-1226D01*
Y-1237D01*
X4987D01*
Y-1005D01*
D02*
G37*
G36*
X824D02*
X813D01*
Y-1237D01*
X1045D01*
Y-1226D01*
X1036Y-1178D01*
X1017Y-1134D01*
X991Y-1094D01*
X956Y-1059D01*
X916Y-1033D01*
X872Y-1014D01*
X824Y-1005D01*
D02*
G37*
G36*
X787D02*
X776D01*
X728Y-1014D01*
X684Y-1033D01*
X644Y-1059D01*
X609Y-1094D01*
X583Y-1134D01*
X564Y-1178D01*
X555Y-1226D01*
Y-1237D01*
X787D01*
Y-1005D01*
D02*
G37*
G36*
X1726Y-1283D02*
Y-1319D01*
X1762D01*
X1756Y-1304D01*
X1742Y-1289D01*
X1726Y-1283D01*
D02*
G37*
G36*
X1700D02*
X1685Y-1289D01*
X1670Y-1304D01*
X1664Y-1319D01*
X1700D01*
Y-1283D01*
D02*
G37*
G36*
X1569D02*
Y-1319D01*
X1605D01*
X1599Y-1304D01*
X1584Y-1289D01*
X1569Y-1283D01*
D02*
G37*
G36*
X1543D02*
X1527Y-1289D01*
X1513Y-1304D01*
X1507Y-1319D01*
X1543D01*
Y-1283D01*
D02*
G37*
G36*
X2105Y-1207D02*
X2086D01*
X2066Y-1212D01*
X2049Y-1222D01*
X2035Y-1236D01*
X2025Y-1254D01*
X2020Y-1273D01*
Y-1293D01*
X2025Y-1312D01*
X2035Y-1329D01*
X2049Y-1343D01*
X2066Y-1353D01*
X2086Y-1358D01*
X2105D01*
X2125Y-1353D01*
X2142Y-1343D01*
X2156Y-1329D01*
X2166Y-1312D01*
X2171Y-1293D01*
Y-1273D01*
X2166Y-1254D01*
X2156Y-1236D01*
X2142Y-1222D01*
X2125Y-1212D01*
X2105Y-1207D01*
D02*
G37*
G36*
X1762Y-1345D02*
X1726D01*
Y-1381D01*
X1742Y-1375D01*
X1756Y-1361D01*
X1762Y-1345D01*
D02*
G37*
G36*
X1700D02*
X1664D01*
X1670Y-1361D01*
X1685Y-1375D01*
X1700Y-1381D01*
Y-1345D01*
D02*
G37*
G36*
X1605D02*
X1569D01*
Y-1381D01*
X1584Y-1375D01*
X1599Y-1361D01*
X1605Y-1345D01*
D02*
G37*
G36*
X1543D02*
X1507D01*
X1513Y-1361D01*
X1527Y-1375D01*
X1543Y-1381D01*
Y-1345D01*
D02*
G37*
G36*
X1847Y-1410D02*
Y-1446D01*
X1884D01*
X1877Y-1431D01*
X1863Y-1416D01*
X1847Y-1410D01*
D02*
G37*
G36*
X1822D02*
X1806Y-1416D01*
X1792Y-1431D01*
X1785Y-1446D01*
X1822D01*
Y-1410D01*
D02*
G37*
G36*
X1726D02*
Y-1446D01*
X1762D01*
X1756Y-1431D01*
X1742Y-1416D01*
X1726Y-1410D01*
D02*
G37*
G36*
X1700D02*
X1685Y-1416D01*
X1670Y-1431D01*
X1664Y-1446D01*
X1700D01*
Y-1410D01*
D02*
G37*
G36*
X1569D02*
Y-1446D01*
X1605D01*
X1599Y-1431D01*
X1584Y-1416D01*
X1569Y-1410D01*
D02*
G37*
G36*
X1543D02*
X1527Y-1416D01*
X1513Y-1431D01*
X1507Y-1446D01*
X1543D01*
Y-1410D01*
D02*
G37*
G36*
X1447D02*
Y-1446D01*
X1484D01*
X1477Y-1431D01*
X1463Y-1416D01*
X1447Y-1410D01*
D02*
G37*
G36*
X1422D02*
X1406Y-1416D01*
X1392Y-1431D01*
X1385Y-1446D01*
X1422D01*
Y-1410D01*
D02*
G37*
G36*
X5245Y-1263D02*
X5013D01*
Y-1495D01*
X5024D01*
X5072Y-1486D01*
X5116Y-1467D01*
X5156Y-1441D01*
X5191Y-1406D01*
X5217Y-1366D01*
X5236Y-1322D01*
X5245Y-1274D01*
Y-1263D01*
D02*
G37*
G36*
X4987D02*
X4755D01*
Y-1274D01*
X4764Y-1322D01*
X4783Y-1366D01*
X4809Y-1406D01*
X4844Y-1441D01*
X4884Y-1467D01*
X4928Y-1486D01*
X4976Y-1495D01*
X4987D01*
Y-1263D01*
D02*
G37*
G36*
X1045D02*
X813D01*
Y-1495D01*
X824D01*
X872Y-1486D01*
X916Y-1467D01*
X956Y-1441D01*
X991Y-1406D01*
X1017Y-1366D01*
X1036Y-1322D01*
X1045Y-1274D01*
Y-1263D01*
D02*
G37*
G36*
X787D02*
X555D01*
Y-1274D01*
X564Y-1322D01*
X583Y-1366D01*
X609Y-1406D01*
X644Y-1441D01*
X684Y-1467D01*
X728Y-1486D01*
X776Y-1495D01*
X787D01*
Y-1263D01*
D02*
G37*
G36*
X1884Y-1472D02*
X1847D01*
Y-1508D01*
X1863Y-1502D01*
X1877Y-1488D01*
X1884Y-1472D01*
D02*
G37*
G36*
X1822D02*
X1785D01*
X1792Y-1488D01*
X1806Y-1502D01*
X1822Y-1508D01*
Y-1472D01*
D02*
G37*
G36*
X1762D02*
X1726D01*
Y-1508D01*
X1742Y-1502D01*
X1756Y-1488D01*
X1762Y-1472D01*
D02*
G37*
G36*
X1700D02*
X1664D01*
X1670Y-1488D01*
X1685Y-1502D01*
X1700Y-1508D01*
Y-1472D01*
D02*
G37*
G36*
X1605D02*
X1569D01*
Y-1508D01*
X1584Y-1502D01*
X1599Y-1488D01*
X1605Y-1472D01*
D02*
G37*
G36*
X1543D02*
X1507D01*
X1513Y-1488D01*
X1527Y-1502D01*
X1543Y-1508D01*
Y-1472D01*
D02*
G37*
G36*
X1484D02*
X1447D01*
Y-1508D01*
X1463Y-1502D01*
X1477Y-1488D01*
X1484Y-1472D01*
D02*
G37*
G36*
X1422D02*
X1385D01*
X1392Y-1488D01*
X1406Y-1502D01*
X1422Y-1508D01*
Y-1472D01*
D02*
G37*
G36*
X1726Y-1537D02*
Y-1573D01*
X1762D01*
X1756Y-1558D01*
X1742Y-1543D01*
X1726Y-1537D01*
D02*
G37*
G36*
X1700D02*
X1685Y-1543D01*
X1670Y-1558D01*
X1664Y-1573D01*
X1700D01*
Y-1537D01*
D02*
G37*
G36*
X1569D02*
Y-1573D01*
X1605D01*
X1599Y-1558D01*
X1584Y-1543D01*
X1569Y-1537D01*
D02*
G37*
G36*
X1543D02*
X1527Y-1543D01*
X1513Y-1558D01*
X1507Y-1573D01*
X1543D01*
Y-1537D01*
D02*
G37*
G36*
X1762Y-1599D02*
X1726D01*
Y-1635D01*
X1742Y-1629D01*
X1756Y-1615D01*
X1762Y-1599D01*
D02*
G37*
G36*
X1700D02*
X1664D01*
X1670Y-1615D01*
X1685Y-1629D01*
X1700Y-1635D01*
Y-1599D01*
D02*
G37*
G36*
X1605D02*
X1569D01*
Y-1635D01*
X1584Y-1629D01*
X1599Y-1615D01*
X1605Y-1599D01*
D02*
G37*
G36*
X1543D02*
X1507D01*
X1513Y-1615D01*
X1527Y-1629D01*
X1543Y-1635D01*
Y-1599D01*
D02*
G37*
G36*
X2360Y-1676D02*
X653D01*
X653Y-1676D01*
X650Y-1676D01*
X648Y-1676D01*
X645Y-1676D01*
X643Y-1677D01*
X643Y-1677D01*
X642Y-1677D01*
X642Y-1677D01*
X640Y-1678D01*
X640Y-1678D01*
X640Y-1678D01*
X638Y-1679D01*
X636Y-1680D01*
D01*
X636Y-1680D01*
X634Y-1681D01*
X632Y-1682D01*
X630Y-1684D01*
X628Y-1685D01*
X626Y-1687D01*
X626Y-1687D01*
X626Y-1687D01*
X502Y-1810D01*
X497Y-1819D01*
X495Y-1829D01*
Y-2269D01*
X487Y-2218D01*
X470Y-2167D01*
X446Y-2119D01*
X414Y-2075D01*
X376Y-2037D01*
X332Y-2005D01*
X284Y-1981D01*
X233Y-1964D01*
X179Y-1956D01*
X165D01*
Y-2299D01*
Y-2642D01*
X179D01*
X233Y-2633D01*
X284Y-2616D01*
X332Y-2592D01*
X376Y-2560D01*
X414Y-2522D01*
X446Y-2478D01*
X470Y-2430D01*
X487Y-2379D01*
X495Y-2329D01*
Y-2692D01*
X-300D01*
X-300Y-2692D01*
X-302Y-2692D01*
X-305Y-2692D01*
X-307Y-2692D01*
X-307Y-2692D01*
X-307D01*
X-307Y-2692D01*
X-310Y-2693D01*
X-310Y-2693D01*
X-310Y-2693D01*
X-310Y-2693D01*
X-312Y-2694D01*
X-312Y-2694D01*
X-312Y-2694D01*
X-314Y-2695D01*
X-316Y-2696D01*
X-316Y-2696D01*
X-317Y-2696D01*
X-317Y-2696D01*
X-317Y-2696D01*
X-317Y-2696D01*
X-319Y-2697D01*
X-321Y-2698D01*
X-321Y-2698D01*
X-321Y-2698D01*
X-321Y-2698D01*
X-321Y-2698D01*
X-323Y-2700D01*
X-325Y-2701D01*
X-327Y-2703D01*
X-327Y-2703D01*
X-327Y-2703D01*
X-332Y-2709D01*
X-332Y-2709D01*
X-332Y-2709D01*
X-334Y-2710D01*
X-335Y-2712D01*
X-337Y-2713D01*
X-337Y-2713D01*
X-337Y-2714D01*
X-337Y-2714D01*
X-338Y-2716D01*
X-339Y-2717D01*
X-339Y-2717D01*
X-339Y-2718D01*
X-340Y-2719D01*
X-340Y-2719D01*
X-340Y-2719D01*
Y-2719D01*
X-340Y-2719D01*
X-340Y-2719D01*
X-340Y-2719D01*
X-341Y-2722D01*
Y-2722D01*
X-341Y-2723D01*
X-341Y-2723D01*
X-341Y-2723D01*
X-342Y-2726D01*
X-343Y-2728D01*
X-343Y-2728D01*
Y-2728D01*
X-343Y-2728D01*
X-343Y-2731D01*
X-343Y-2733D01*
Y-4541D01*
Y-4544D01*
X-343Y-4547D01*
X-343Y-4549D01*
X-343Y-4550D01*
X-343Y-4550D01*
X-343Y-4550D01*
X-342Y-4552D01*
X-341Y-4554D01*
X-341Y-4554D01*
X-341Y-4554D01*
X-341Y-4555D01*
X-341Y-4555D01*
X-340Y-4556D01*
X-339Y-4558D01*
X-339Y-4559D01*
X-338Y-4559D01*
X-338Y-4559D01*
X-338Y-4560D01*
X-337Y-4561D01*
X-335Y-4563D01*
X-335Y-4564D01*
X-334Y-4564D01*
X-334Y-4564D01*
X-334Y-4565D01*
X-332Y-4566D01*
X-331Y-4567D01*
X-330Y-4567D01*
X-330D01*
X-330Y-4568D01*
X-329Y-4568D01*
X-327Y-4569D01*
X-326Y-4570D01*
X-326Y-4570D01*
X-326Y-4570D01*
X-325Y-4571D01*
X-322Y-4571D01*
X-320Y-4572D01*
X-317Y-4572D01*
X-316Y-4572D01*
X-316Y-4572D01*
X-316Y-4572D01*
X-315Y-4572D01*
X251D01*
X252Y-4572D01*
X253Y-4572D01*
X255Y-4572D01*
X256Y-4572D01*
X257Y-4572D01*
X258Y-4572D01*
X258Y-4572D01*
X259Y-4571D01*
X261Y-4571D01*
X261Y-4570D01*
X261Y-4570D01*
X266Y-4569D01*
X266Y-4569D01*
X266Y-4569D01*
X266Y-4569D01*
X266Y-4569D01*
X266Y-4569D01*
X268Y-4567D01*
X270Y-4567D01*
X270Y-4567D01*
X270Y-4566D01*
X270Y-4566D01*
X272Y-4565D01*
X274Y-4563D01*
X276Y-4561D01*
X276Y-4561D01*
X447Y-4391D01*
X447Y-4391D01*
X447Y-4391D01*
X448Y-4389D01*
X449Y-4387D01*
X451Y-4386D01*
X451Y-4386D01*
X451Y-4385D01*
X452Y-4385D01*
X452Y-4383D01*
X453Y-4382D01*
X453Y-4382D01*
X453Y-4381D01*
X454Y-4381D01*
X454Y-4380D01*
X454Y-4380D01*
Y-4380D01*
X454Y-4380D01*
X454Y-4380D01*
X454Y-4380D01*
X455Y-4377D01*
Y-4377D01*
X456Y-4376D01*
X456Y-4376D01*
X456Y-4376D01*
X456Y-4374D01*
X457Y-4371D01*
X457Y-4371D01*
Y-4371D01*
X457Y-4371D01*
X457Y-4369D01*
X458Y-4366D01*
Y-3008D01*
X468Y-2998D01*
X1831D01*
X1841Y-3008D01*
Y-3132D01*
X1841Y-3132D01*
X1841Y-3134D01*
X1842Y-3137D01*
X1842Y-3139D01*
X1842Y-3139D01*
Y-3139D01*
X1842Y-3139D01*
X1842Y-3142D01*
X1843Y-3142D01*
X1843Y-3142D01*
X1843Y-3142D01*
X1843Y-3144D01*
X1843Y-3144D01*
X1843Y-3144D01*
X1844Y-3146D01*
X1845Y-3148D01*
X1845Y-3148D01*
X1845Y-3149D01*
X1845Y-3149D01*
X1845Y-3149D01*
X1845Y-3149D01*
X1846Y-3151D01*
X1847Y-3153D01*
X1847Y-3153D01*
X1847Y-3153D01*
X1847Y-3153D01*
X1847Y-3153D01*
X1849Y-3155D01*
X1850Y-3157D01*
X1852Y-3159D01*
X1852Y-3159D01*
X1852Y-3159D01*
X1921Y-3228D01*
X1921Y-3228D01*
X1921Y-3228D01*
X1923Y-3230D01*
X1925Y-3231D01*
X1926Y-3232D01*
X1926Y-3232D01*
X1927Y-3232D01*
X1927Y-3233D01*
X1929Y-3234D01*
X1930Y-3234D01*
X1930Y-3234D01*
X1931Y-3235D01*
X1931Y-3235D01*
X1932Y-3235D01*
X1932Y-3235D01*
X1932D01*
X1932Y-3235D01*
X1932Y-3235D01*
X1932Y-3235D01*
X1935Y-3237D01*
X1935D01*
X1936Y-3237D01*
X1936Y-3237D01*
X1936Y-3237D01*
X1938Y-3238D01*
X1941Y-3238D01*
X1941Y-3238D01*
X1941D01*
X1941Y-3238D01*
X1943Y-3238D01*
X1946Y-3239D01*
X2243D01*
X2243Y-3239D01*
X2245Y-3239D01*
X2248Y-3238D01*
X2250Y-3238D01*
X2250Y-3238D01*
X2250D01*
X2250Y-3238D01*
X2253Y-3238D01*
X2253Y-3237D01*
X2253Y-3237D01*
X2253Y-3237D01*
X2255Y-3237D01*
X2255Y-3237D01*
X2255Y-3237D01*
X2257Y-3236D01*
X2259Y-3235D01*
X2259Y-3235D01*
X2260Y-3235D01*
X2260Y-3235D01*
X2260Y-3235D01*
X2260Y-3235D01*
X2262Y-3234D01*
X2264Y-3233D01*
X2264Y-3233D01*
X2264Y-3233D01*
X2264Y-3233D01*
X2264Y-3233D01*
X2266Y-3231D01*
X2268Y-3230D01*
X2270Y-3228D01*
X2270Y-3228D01*
X2270Y-3228D01*
X2720Y-2778D01*
X2720Y-2778D01*
X2720Y-2778D01*
X2722Y-2776D01*
X2723Y-2774D01*
X2724Y-2773D01*
X2724Y-2773D01*
X2724Y-2772D01*
X2725Y-2772D01*
X2726Y-2770D01*
X2726Y-2769D01*
X2726Y-2769D01*
X2727Y-2768D01*
X2727Y-2768D01*
X2727Y-2767D01*
X2727Y-2767D01*
Y-2767D01*
X2727Y-2767D01*
X2727Y-2767D01*
X2727Y-2767D01*
X2729Y-2764D01*
Y-2764D01*
X2729Y-2763D01*
X2729Y-2763D01*
X2729Y-2763D01*
X2730Y-2761D01*
X2730Y-2758D01*
X2730Y-2758D01*
Y-2758D01*
X2730Y-2758D01*
X2730Y-2756D01*
X2731Y-2753D01*
Y-2050D01*
X2731Y-2050D01*
X2731Y-2047D01*
X2730Y-2045D01*
X2730Y-2042D01*
X2730Y-2042D01*
Y-2042D01*
X2730Y-2042D01*
X2730Y-2040D01*
X2729Y-2040D01*
X2729Y-2039D01*
X2729Y-2039D01*
X2729Y-2037D01*
X2729Y-2037D01*
X2729Y-2037D01*
X2728Y-2035D01*
X2727Y-2033D01*
X2727Y-2033D01*
X2727Y-2033D01*
X2727Y-2033D01*
X2727Y-2033D01*
X2727Y-2033D01*
X2726Y-2031D01*
X2725Y-2029D01*
X2725Y-2029D01*
X2725Y-2029D01*
X2725Y-2029D01*
X2725Y-2028D01*
X2723Y-2027D01*
X2722Y-2025D01*
X2720Y-2023D01*
X2720Y-2023D01*
X2720Y-2023D01*
X2635Y-1937D01*
X2382Y-1685D01*
X2380Y-1684D01*
X2378Y-1682D01*
X2376Y-1681D01*
X2374Y-1680D01*
X2374Y-1680D01*
D01*
X2370Y-1678D01*
X2370Y-1678D01*
X2370Y-1678D01*
X2370Y-1678D01*
X2367Y-1677D01*
X2365Y-1676D01*
X2362Y-1676D01*
X2360Y-1676D01*
D02*
G37*
G36*
X2677Y-1626D02*
X2657D01*
X2638Y-1632D01*
X2621Y-1641D01*
X2607Y-1656D01*
X2597Y-1673D01*
X2592Y-1692D01*
Y-1712D01*
X2597Y-1731D01*
X2607Y-1748D01*
X2621Y-1762D01*
X2638Y-1772D01*
X2657Y-1777D01*
X2677D01*
X2696Y-1772D01*
X2713Y-1762D01*
X2727Y-1748D01*
X2737Y-1731D01*
X2742Y-1712D01*
Y-1692D01*
X2737Y-1673D01*
X2727Y-1656D01*
X2713Y-1641D01*
X2696Y-1632D01*
X2677Y-1626D01*
D02*
G37*
G36*
X4002Y-1860D02*
X3920D01*
Y-1943D01*
X4002D01*
Y-1860D01*
D02*
G37*
G36*
X3894D02*
X3812D01*
Y-1943D01*
X3894D01*
Y-1860D01*
D02*
G37*
G36*
X5143Y-1871D02*
X5061D01*
Y-1954D01*
X5143D01*
Y-1871D01*
D02*
G37*
G36*
X5035D02*
X4953D01*
Y-1954D01*
X5035D01*
Y-1871D01*
D02*
G37*
G36*
X4169Y-1860D02*
X4144D01*
X4120Y-1867D01*
X4098Y-1879D01*
X4081Y-1897D01*
X4068Y-1919D01*
X4062Y-1943D01*
Y-1968D01*
X4068Y-1993D01*
X4081Y-2014D01*
X4098Y-2032D01*
X4120Y-2045D01*
X4144Y-2051D01*
X4169D01*
X4194Y-2045D01*
X4215Y-2032D01*
X4233Y-2014D01*
X4246Y-1993D01*
X4252Y-1968D01*
Y-1943D01*
X4246Y-1919D01*
X4233Y-1897D01*
X4215Y-1879D01*
X4194Y-1867D01*
X4169Y-1860D01*
D02*
G37*
G36*
X4002Y-1968D02*
X3920D01*
Y-2051D01*
X4002D01*
Y-1968D01*
D02*
G37*
G36*
X3894D02*
X3812D01*
Y-2051D01*
X3894D01*
Y-1968D01*
D02*
G37*
G36*
X5310Y-1871D02*
X5285D01*
X5261Y-1878D01*
X5239Y-1890D01*
X5222Y-1908D01*
X5209Y-1930D01*
X5203Y-1954D01*
Y-1979D01*
X5209Y-2004D01*
X5222Y-2025D01*
X5239Y-2043D01*
X5261Y-2056D01*
X5285Y-2062D01*
X5310D01*
X5335Y-2056D01*
X5356Y-2043D01*
X5374Y-2025D01*
X5387Y-2004D01*
X5393Y-1979D01*
Y-1954D01*
X5387Y-1930D01*
X5374Y-1908D01*
X5356Y-1890D01*
X5335Y-1878D01*
X5310Y-1871D01*
D02*
G37*
G36*
X5143Y-1980D02*
X5061D01*
Y-2062D01*
X5143D01*
Y-1980D01*
D02*
G37*
G36*
X5035D02*
X4953D01*
Y-2062D01*
X5035D01*
Y-1980D01*
D02*
G37*
G36*
X3478Y-2095D02*
X3228D01*
Y-2223D01*
X3478D01*
Y-2095D01*
D02*
G37*
G36*
X3202D02*
X2952D01*
Y-2223D01*
X3202D01*
Y-2095D01*
D02*
G37*
G36*
X140Y-1956D02*
X125D01*
X72Y-1964D01*
X21Y-1981D01*
X-27Y-2005D01*
X-71Y-2037D01*
X-109Y-2075D01*
X-141Y-2119D01*
X-165Y-2167D01*
X-182Y-2218D01*
X-190Y-2272D01*
Y-2286D01*
X140D01*
Y-1956D01*
D02*
G37*
G36*
X3478Y-2248D02*
X3228D01*
Y-2376D01*
X3478D01*
Y-2248D01*
D02*
G37*
G36*
X3202D02*
X2952D01*
Y-2376D01*
X3202D01*
Y-2248D01*
D02*
G37*
G36*
X5407Y-2426D02*
X5388D01*
X5368Y-2432D01*
X5351Y-2442D01*
X5337Y-2456D01*
X5333Y-2463D01*
X5246D01*
X5243Y-2458D01*
X5232Y-2451D01*
X5220Y-2448D01*
X5182D01*
X5170Y-2451D01*
X5160Y-2458D01*
X5156Y-2463D01*
X5153Y-2458D01*
X5142Y-2451D01*
X5130Y-2448D01*
X5124D01*
Y-2502D01*
Y-2555D01*
X5130D01*
X5142Y-2553D01*
X5153Y-2546D01*
X5156Y-2541D01*
X5160Y-2546D01*
X5170Y-2553D01*
X5182Y-2555D01*
X5220D01*
X5232Y-2553D01*
X5243Y-2546D01*
X5246Y-2541D01*
X5333D01*
X5337Y-2548D01*
X5351Y-2562D01*
X5368Y-2572D01*
X5388Y-2577D01*
X5407D01*
X5427Y-2572D01*
X5444Y-2562D01*
X5458Y-2548D01*
X5468Y-2531D01*
X5473Y-2512D01*
Y-2492D01*
X5468Y-2473D01*
X5458Y-2456D01*
X5444Y-2442D01*
X5427Y-2432D01*
X5407Y-2426D01*
D02*
G37*
G36*
X4226Y-2439D02*
X4206D01*
X4187Y-2444D01*
X4170Y-2454D01*
X4156Y-2468D01*
X4152Y-2476D01*
X4091D01*
X4087Y-2471D01*
X4077Y-2464D01*
X4064Y-2461D01*
X4027D01*
X4014Y-2464D01*
X4004Y-2471D01*
X4001Y-2476D01*
X3997Y-2471D01*
X3987Y-2464D01*
X3974Y-2461D01*
X3968D01*
Y-2515D01*
Y-2568D01*
X3974D01*
X3987Y-2566D01*
X3997Y-2559D01*
X4001Y-2554D01*
X4004Y-2559D01*
X4014Y-2566D01*
X4027Y-2568D01*
X4064D01*
X4077Y-2566D01*
X4087Y-2559D01*
X4091Y-2553D01*
X4152D01*
X4156Y-2561D01*
X4170Y-2575D01*
X4187Y-2585D01*
X4206Y-2590D01*
X4226D01*
X4246Y-2585D01*
X4263Y-2575D01*
X4277Y-2561D01*
X4287Y-2544D01*
X4292Y-2525D01*
Y-2505D01*
X4287Y-2485D01*
X4277Y-2468D01*
X4263Y-2454D01*
X4246Y-2444D01*
X4226Y-2439D01*
D02*
G37*
G36*
X5099Y-2448D02*
X5092D01*
X5080Y-2451D01*
X5070Y-2458D01*
X5063Y-2468D01*
X5060Y-2481D01*
Y-2489D01*
X5099D01*
Y-2448D01*
D02*
G37*
G36*
X3943Y-2461D02*
X3937D01*
X3924Y-2464D01*
X3914Y-2471D01*
X3907Y-2481D01*
X3904Y-2493D01*
Y-2502D01*
X3943D01*
Y-2461D01*
D02*
G37*
G36*
X5099Y-2515D02*
X5060D01*
Y-2523D01*
X5063Y-2535D01*
X5070Y-2546D01*
X5080Y-2553D01*
X5092Y-2555D01*
X5099D01*
Y-2515D01*
D02*
G37*
G36*
X3943Y-2527D02*
X3904D01*
Y-2536D01*
X3907Y-2548D01*
X3914Y-2559D01*
X3924Y-2566D01*
X3937Y-2568D01*
X3943D01*
Y-2527D01*
D02*
G37*
G36*
X140Y-2311D02*
X-190D01*
Y-2326D01*
X-182Y-2379D01*
X-165Y-2430D01*
X-141Y-2478D01*
X-109Y-2522D01*
X-71Y-2560D01*
X-27Y-2592D01*
X21Y-2616D01*
X72Y-2633D01*
X125Y-2642D01*
X140D01*
Y-2311D01*
D02*
G37*
G36*
X5143Y-2875D02*
X5061D01*
Y-2957D01*
X5143D01*
Y-2875D01*
D02*
G37*
G36*
X5035D02*
X4953D01*
Y-2957D01*
X5035D01*
Y-2875D01*
D02*
G37*
G36*
X3998Y-2876D02*
X3916D01*
Y-2959D01*
X3998D01*
Y-2876D01*
D02*
G37*
G36*
X3890D02*
X3808D01*
Y-2959D01*
X3890D01*
Y-2876D01*
D02*
G37*
G36*
X5310Y-2875D02*
X5285D01*
X5261Y-2881D01*
X5239Y-2894D01*
X5222Y-2912D01*
X5209Y-2933D01*
X5203Y-2958D01*
Y-2983D01*
X5209Y-3007D01*
X5222Y-3029D01*
X5239Y-3046D01*
X5261Y-3059D01*
X5285Y-3066D01*
X5310D01*
X5335Y-3059D01*
X5356Y-3046D01*
X5374Y-3029D01*
X5387Y-3007D01*
X5393Y-2983D01*
Y-2958D01*
X5387Y-2933D01*
X5374Y-2912D01*
X5356Y-2894D01*
X5335Y-2881D01*
X5310Y-2875D01*
D02*
G37*
G36*
X5143Y-2983D02*
X5061D01*
Y-3066D01*
X5143D01*
Y-2983D01*
D02*
G37*
G36*
X5035D02*
X4953D01*
Y-3066D01*
X5035D01*
Y-2983D01*
D02*
G37*
G36*
X4165Y-2876D02*
X4140D01*
X4116Y-2883D01*
X4094Y-2895D01*
X4077Y-2913D01*
X4064Y-2935D01*
X4058Y-2959D01*
Y-2984D01*
X4064Y-3009D01*
X4077Y-3030D01*
X4094Y-3048D01*
X4116Y-3061D01*
X4140Y-3067D01*
X4165D01*
X4190Y-3061D01*
X4211Y-3048D01*
X4229Y-3030D01*
X4242Y-3009D01*
X4248Y-2984D01*
Y-2959D01*
X4242Y-2935D01*
X4229Y-2913D01*
X4211Y-2895D01*
X4190Y-2883D01*
X4165Y-2876D01*
D02*
G37*
G36*
X3998Y-2984D02*
X3916D01*
Y-3067D01*
X3998D01*
Y-2984D01*
D02*
G37*
G36*
X3890D02*
X3808D01*
Y-3067D01*
X3890D01*
Y-2984D01*
D02*
G37*
G36*
X3068Y-3223D02*
X3062D01*
X3049Y-3226D01*
X3039Y-3233D01*
X3035Y-3238D01*
X3032Y-3233D01*
X3021Y-3226D01*
X3009Y-3223D01*
X2972D01*
X2959Y-3226D01*
X2949Y-3233D01*
X2942Y-3243D01*
X2939Y-3255D01*
Y-3288D01*
X2939Y-3289D01*
Y-3303D01*
X2916Y-3326D01*
X2841D01*
Y-3456D01*
X2971D01*
Y-3380D01*
X3005Y-3346D01*
X3014Y-3334D01*
X3015Y-3329D01*
X3021Y-3328D01*
X3032Y-3321D01*
X3035Y-3316D01*
X3039Y-3321D01*
X3049Y-3328D01*
X3062Y-3330D01*
X3068D01*
Y-3277D01*
Y-3223D01*
D02*
G37*
G36*
X2718D02*
X2681D01*
X2668Y-3226D01*
X2658Y-3233D01*
X2654Y-3238D01*
X2651Y-3233D01*
X2640Y-3226D01*
X2628Y-3223D01*
X2591D01*
X2578Y-3226D01*
X2568Y-3233D01*
X2561Y-3243D01*
X2558Y-3255D01*
Y-3298D01*
X2561Y-3310D01*
X2568Y-3321D01*
X2570Y-3322D01*
Y-3494D01*
X2546Y-3519D01*
X2543D01*
X2524Y-3524D01*
X2506Y-3534D01*
X2492Y-3548D01*
X2482Y-3565D01*
X2477Y-3584D01*
Y-3604D01*
X2482Y-3623D01*
X2492Y-3640D01*
X2506Y-3654D01*
X2524Y-3664D01*
X2543Y-3669D01*
X2563D01*
X2582Y-3664D01*
X2599Y-3654D01*
X2613Y-3640D01*
X2623Y-3623D01*
X2628Y-3604D01*
Y-3584D01*
X2623Y-3565D01*
X2618Y-3556D01*
X2637Y-3537D01*
X2645Y-3525D01*
X2648Y-3510D01*
Y-3322D01*
X2651Y-3321D01*
X2654Y-3316D01*
X2658Y-3321D01*
X2660Y-3322D01*
Y-3334D01*
X2663Y-3349D01*
X2672Y-3362D01*
X2691Y-3380D01*
Y-3456D01*
X2821D01*
Y-3326D01*
X2745D01*
X2741Y-3321D01*
X2741Y-3321D01*
X2748Y-3310D01*
X2750Y-3298D01*
Y-3255D01*
X2748Y-3243D01*
X2741Y-3233D01*
X2730Y-3226D01*
X2718Y-3223D01*
D02*
G37*
G36*
X3099D02*
X3093D01*
Y-3264D01*
X3131D01*
Y-3255D01*
X3129Y-3243D01*
X3122Y-3233D01*
X3111Y-3226D01*
X3099Y-3223D01*
D02*
G37*
G36*
X3131Y-3289D02*
X3093D01*
Y-3330D01*
X3099D01*
X3111Y-3328D01*
X3122Y-3321D01*
X3129Y-3310D01*
X3131Y-3298D01*
Y-3289D01*
D02*
G37*
G36*
X2128Y-3324D02*
X2083D01*
Y-3454D01*
X2174D01*
Y-3370D01*
X2170Y-3353D01*
X2161Y-3338D01*
X2146Y-3328D01*
X2128Y-3324D01*
D02*
G37*
G36*
X2057D02*
X2012D01*
X1995Y-3328D01*
X1980Y-3338D01*
X1970Y-3353D01*
X1966Y-3370D01*
Y-3454D01*
X2057D01*
Y-3324D01*
D02*
G37*
G36*
X5407Y-3455D02*
X5388D01*
X5368Y-3460D01*
X5351Y-3470D01*
X5337Y-3484D01*
X5333Y-3492D01*
X5246D01*
X5243Y-3487D01*
X5232Y-3480D01*
X5220Y-3477D01*
X5182D01*
X5170Y-3480D01*
X5160Y-3487D01*
X5156Y-3492D01*
X5153Y-3487D01*
X5142Y-3480D01*
X5130Y-3477D01*
X5124D01*
Y-3531D01*
Y-3584D01*
X5130D01*
X5142Y-3582D01*
X5153Y-3575D01*
X5156Y-3570D01*
X5160Y-3575D01*
X5170Y-3582D01*
X5182Y-3584D01*
X5220D01*
X5232Y-3582D01*
X5243Y-3575D01*
X5246Y-3569D01*
X5333D01*
X5337Y-3577D01*
X5351Y-3591D01*
X5368Y-3601D01*
X5388Y-3606D01*
X5407D01*
X5427Y-3601D01*
X5444Y-3591D01*
X5458Y-3577D01*
X5468Y-3560D01*
X5473Y-3541D01*
Y-3521D01*
X5468Y-3501D01*
X5458Y-3484D01*
X5444Y-3470D01*
X5427Y-3460D01*
X5407Y-3455D01*
D02*
G37*
G36*
X4252D02*
X4232D01*
X4213Y-3460D01*
X4196Y-3470D01*
X4181Y-3484D01*
X4177Y-3492D01*
X4103D01*
X4100Y-3487D01*
X4089Y-3480D01*
X4077Y-3477D01*
X4039D01*
X4027Y-3480D01*
X4017Y-3487D01*
X4013Y-3492D01*
X4010Y-3487D01*
X3999Y-3480D01*
X3987Y-3477D01*
X3981D01*
Y-3531D01*
Y-3584D01*
X3987D01*
X3999Y-3582D01*
X4010Y-3575D01*
X4013Y-3570D01*
X4017Y-3575D01*
X4027Y-3582D01*
X4039Y-3584D01*
X4077D01*
X4089Y-3582D01*
X4100Y-3575D01*
X4103Y-3569D01*
X4177D01*
X4181Y-3577D01*
X4196Y-3591D01*
X4213Y-3601D01*
X4232Y-3606D01*
X4252D01*
X4271Y-3601D01*
X4288Y-3591D01*
X4302Y-3577D01*
X4312Y-3560D01*
X4317Y-3541D01*
Y-3521D01*
X4312Y-3501D01*
X4302Y-3484D01*
X4288Y-3470D01*
X4271Y-3460D01*
X4252Y-3455D01*
D02*
G37*
G36*
X5099Y-3477D02*
X5092D01*
X5080Y-3480D01*
X5070Y-3487D01*
X5063Y-3497D01*
X5060Y-3509D01*
Y-3518D01*
X5099D01*
Y-3477D01*
D02*
G37*
G36*
X3956D02*
X3949D01*
X3937Y-3480D01*
X3927Y-3487D01*
X3920Y-3497D01*
X3917Y-3509D01*
Y-3518D01*
X3956D01*
Y-3477D01*
D02*
G37*
G36*
X5099Y-3543D02*
X5060D01*
Y-3552D01*
X5063Y-3564D01*
X5070Y-3575D01*
X5080Y-3582D01*
X5092Y-3584D01*
X5099D01*
Y-3543D01*
D02*
G37*
G36*
X3956D02*
X3917D01*
Y-3552D01*
X3920Y-3564D01*
X3927Y-3575D01*
X3937Y-3582D01*
X3949Y-3584D01*
X3956D01*
Y-3543D01*
D02*
G37*
G36*
X2174Y-3480D02*
X2083D01*
Y-3610D01*
X2128D01*
X2146Y-3606D01*
X2161Y-3597D01*
X2170Y-3582D01*
X2174Y-3564D01*
Y-3480D01*
D02*
G37*
G36*
X2057D02*
X1966D01*
Y-3564D01*
X1970Y-3582D01*
X1980Y-3597D01*
X1995Y-3606D01*
X2012Y-3610D01*
X2057D01*
Y-3480D01*
D02*
G37*
G36*
X2283Y-3684D02*
X2263D01*
X2244Y-3689D01*
X2227Y-3699D01*
X2213Y-3713D01*
X2203Y-3730D01*
X2198Y-3749D01*
Y-3769D01*
X2203Y-3788D01*
X2213Y-3805D01*
X2227Y-3820D01*
X2244Y-3829D01*
X2263Y-3835D01*
X2283D01*
X2302Y-3829D01*
X2320Y-3820D01*
X2334Y-3805D01*
X2344Y-3788D01*
X2349Y-3769D01*
Y-3749D01*
X2344Y-3730D01*
X2334Y-3713D01*
X2320Y-3699D01*
X2302Y-3689D01*
X2283Y-3684D01*
D02*
G37*
G36*
X3998Y-3878D02*
X3916D01*
Y-3961D01*
X3998D01*
Y-3878D01*
D02*
G37*
G36*
X3890D02*
X3808D01*
Y-3961D01*
X3890D01*
Y-3878D01*
D02*
G37*
G36*
X5145Y-3892D02*
X5063D01*
Y-3975D01*
X5145D01*
Y-3892D01*
D02*
G37*
G36*
X5037D02*
X4954D01*
Y-3975D01*
X5037D01*
Y-3892D01*
D02*
G37*
G36*
X4165Y-3878D02*
X4140D01*
X4116Y-3885D01*
X4094Y-3897D01*
X4077Y-3915D01*
X4064Y-3937D01*
X4058Y-3961D01*
Y-3986D01*
X4064Y-4010D01*
X4077Y-4032D01*
X4094Y-4050D01*
X4116Y-4062D01*
X4140Y-4069D01*
X4165D01*
X4190Y-4062D01*
X4211Y-4050D01*
X4229Y-4032D01*
X4242Y-4010D01*
X4248Y-3986D01*
Y-3961D01*
X4242Y-3937D01*
X4229Y-3915D01*
X4211Y-3897D01*
X4190Y-3885D01*
X4165Y-3878D01*
D02*
G37*
G36*
X3998Y-3986D02*
X3916D01*
Y-4069D01*
X3998D01*
Y-3986D01*
D02*
G37*
G36*
X3890D02*
X3808D01*
Y-4069D01*
X3890D01*
Y-3986D01*
D02*
G37*
G36*
X5312Y-3892D02*
X5287D01*
X5263Y-3899D01*
X5241Y-3911D01*
X5224Y-3929D01*
X5211Y-3951D01*
X5204Y-3975D01*
Y-4000D01*
X5211Y-4025D01*
X5224Y-4046D01*
X5241Y-4064D01*
X5263Y-4077D01*
X5287Y-4083D01*
X5312D01*
X5337Y-4077D01*
X5358Y-4064D01*
X5376Y-4046D01*
X5389Y-4025D01*
X5395Y-4000D01*
Y-3975D01*
X5389Y-3951D01*
X5376Y-3929D01*
X5358Y-3911D01*
X5337Y-3899D01*
X5312Y-3892D01*
D02*
G37*
G36*
X5145Y-4000D02*
X5063D01*
Y-4083D01*
X5145D01*
Y-4000D01*
D02*
G37*
G36*
X5037D02*
X4954D01*
Y-4083D01*
X5037D01*
Y-4000D01*
D02*
G37*
G36*
X978Y-3258D02*
X546D01*
Y-4261D01*
X978D01*
Y-3258D01*
D02*
G37*
G36*
X4264Y-4408D02*
X4245D01*
X4225Y-4413D01*
X4208Y-4423D01*
X4194Y-4437D01*
X4194Y-4438D01*
X4120D01*
X4119Y-4437D01*
X4112Y-4426D01*
X4102Y-4419D01*
X4090Y-4417D01*
X4052D01*
X4040Y-4419D01*
X4029Y-4426D01*
X4026Y-4431D01*
X4022Y-4426D01*
X4012Y-4419D01*
X4000Y-4417D01*
X3994D01*
Y-4470D01*
Y-4524D01*
X4000D01*
X4012Y-4521D01*
X4022Y-4514D01*
X4026Y-4509D01*
X4029Y-4514D01*
X4040Y-4521D01*
X4052Y-4524D01*
X4090D01*
X4102Y-4521D01*
X4111Y-4516D01*
X4186D01*
X4194Y-4529D01*
X4208Y-4543D01*
X4225Y-4553D01*
X4245Y-4558D01*
X4264D01*
X4284Y-4553D01*
X4301Y-4543D01*
X4315Y-4529D01*
X4325Y-4512D01*
X4330Y-4493D01*
Y-4473D01*
X4325Y-4454D01*
X4315Y-4437D01*
X4301Y-4423D01*
X4284Y-4413D01*
X4264Y-4408D01*
D02*
G37*
G36*
X5420D02*
X5400D01*
X5381Y-4413D01*
X5364Y-4423D01*
X5350Y-4437D01*
X5346Y-4444D01*
X5265D01*
X5261Y-4439D01*
X5251Y-4432D01*
X5238Y-4430D01*
X5201D01*
X5189Y-4432D01*
X5178Y-4439D01*
X5175Y-4444D01*
X5171Y-4439D01*
X5161Y-4432D01*
X5148Y-4430D01*
X5142D01*
Y-4483D01*
Y-4537D01*
X5148D01*
X5161Y-4534D01*
X5171Y-4527D01*
X5175Y-4522D01*
X5178Y-4527D01*
X5189Y-4534D01*
X5201Y-4537D01*
X5238D01*
X5251Y-4534D01*
X5261Y-4527D01*
X5265Y-4522D01*
X5346D01*
X5350Y-4529D01*
X5364Y-4543D01*
X5381Y-4553D01*
X5400Y-4558D01*
X5420D01*
X5439Y-4553D01*
X5456Y-4543D01*
X5471Y-4529D01*
X5480Y-4512D01*
X5486Y-4493D01*
Y-4473D01*
X5480Y-4454D01*
X5471Y-4437D01*
X5456Y-4423D01*
X5439Y-4413D01*
X5420Y-4408D01*
D02*
G37*
G36*
X3968Y-4417D02*
X3962D01*
X3950Y-4419D01*
X3939Y-4426D01*
X3932Y-4437D01*
X3930Y-4449D01*
Y-4458D01*
X3968D01*
Y-4417D01*
D02*
G37*
G36*
X5117Y-4430D02*
X5111D01*
X5099Y-4432D01*
X5088Y-4439D01*
X5081Y-4450D01*
X5079Y-4462D01*
Y-4470D01*
X5117D01*
Y-4430D01*
D02*
G37*
G36*
X4419Y-1860D02*
X4394D01*
X4370Y-1867D01*
X4348Y-1879D01*
X4331Y-1897D01*
X4318Y-1919D01*
X4312Y-1943D01*
Y-1968D01*
X4318Y-1993D01*
X4331Y-2014D01*
X4348Y-2032D01*
X4366Y-2042D01*
Y-2883D01*
X4344Y-2895D01*
X4327Y-2913D01*
X4314Y-2935D01*
X4308Y-2959D01*
Y-2984D01*
X4314Y-3009D01*
X4327Y-3030D01*
X4344Y-3048D01*
X4364Y-3060D01*
Y-3886D01*
X4344Y-3897D01*
X4327Y-3915D01*
X4314Y-3937D01*
X4308Y-3961D01*
Y-3986D01*
X4314Y-4010D01*
X4327Y-4032D01*
X4344Y-4050D01*
X4364Y-4061D01*
Y-4314D01*
X4367Y-4329D01*
X4375Y-4341D01*
X4545Y-4511D01*
X4548Y-4513D01*
X4550Y-4515D01*
X4554Y-4517D01*
X4557Y-4519D01*
X4561Y-4520D01*
X4564Y-4521D01*
X4568D01*
X4572Y-4522D01*
X4576Y-4521D01*
X4580D01*
X4583Y-4520D01*
X4587Y-4519D01*
X4590Y-4517D01*
X4594Y-4515D01*
X4596Y-4513D01*
X4599Y-4511D01*
X4602Y-4507D01*
X4604Y-4505D01*
X4606Y-4501D01*
X4608Y-4498D01*
X4609Y-4494D01*
X4610Y-4491D01*
Y-4487D01*
X4611Y-4483D01*
X4610Y-4479D01*
Y-4476D01*
X4609Y-4472D01*
X4608Y-4468D01*
X4606Y-4465D01*
X4604Y-4462D01*
X4602Y-4459D01*
X4599Y-4456D01*
X4442Y-4298D01*
Y-4061D01*
X4461Y-4050D01*
X4479Y-4032D01*
X4492Y-4010D01*
X4498Y-3986D01*
Y-3961D01*
X4492Y-3937D01*
X4479Y-3915D01*
X4461Y-3897D01*
X4442Y-3886D01*
Y-3060D01*
X4461Y-3048D01*
X4479Y-3030D01*
X4492Y-3009D01*
X4498Y-2984D01*
Y-2959D01*
X4492Y-2935D01*
X4479Y-2913D01*
X4461Y-2895D01*
X4444Y-2885D01*
Y-2045D01*
X4465Y-2032D01*
X4483Y-2014D01*
X4496Y-1993D01*
X4502Y-1968D01*
Y-1943D01*
X4496Y-1919D01*
X4483Y-1897D01*
X4465Y-1879D01*
X4444Y-1867D01*
X4419Y-1860D01*
D02*
G37*
G36*
X3968Y-4483D02*
X3930D01*
Y-4492D01*
X3932Y-4504D01*
X3939Y-4514D01*
X3950Y-4521D01*
X3962Y-4524D01*
X3968D01*
Y-4483D01*
D02*
G37*
G36*
X5117Y-4496D02*
X5079D01*
Y-4504D01*
X5081Y-4517D01*
X5088Y-4527D01*
X5099Y-4534D01*
X5111Y-4537D01*
X5117D01*
Y-4496D01*
D02*
G37*
G36*
X5810Y-1871D02*
X5785D01*
X5761Y-1878D01*
X5739Y-1890D01*
X5722Y-1908D01*
X5709Y-1930D01*
X5703Y-1954D01*
Y-1979D01*
X5709Y-2004D01*
X5722Y-2025D01*
X5739Y-2043D01*
X5759Y-2055D01*
Y-2882D01*
X5739Y-2894D01*
X5722Y-2912D01*
X5709Y-2933D01*
X5703Y-2958D01*
Y-2983D01*
X5709Y-3007D01*
X5722Y-3029D01*
X5739Y-3046D01*
X5760Y-3058D01*
Y-3901D01*
X5741Y-3911D01*
X5724Y-3929D01*
X5711Y-3951D01*
X5704Y-3975D01*
Y-4000D01*
X5711Y-4025D01*
X5724Y-4046D01*
X5741Y-4064D01*
X5761Y-4076D01*
Y-4327D01*
X5764Y-4342D01*
X5772Y-4354D01*
X5967Y-4549D01*
X5970Y-4551D01*
X5973Y-4553D01*
X5976Y-4555D01*
X5980Y-4557D01*
X5983Y-4558D01*
X5987Y-4559D01*
X5991D01*
X5994Y-4560D01*
X5998Y-4559D01*
X6002D01*
X6006Y-4558D01*
X6009Y-4557D01*
X6012Y-4555D01*
X6016Y-4553D01*
X6019Y-4551D01*
X6022Y-4549D01*
X6024Y-4545D01*
X6027Y-4543D01*
X6028Y-4539D01*
X6030Y-4536D01*
X6031Y-4532D01*
X6033Y-4529D01*
Y-4525D01*
X6033Y-4521D01*
X6033Y-4517D01*
Y-4514D01*
X6031Y-4510D01*
X6030Y-4506D01*
X6028Y-4503D01*
X6027Y-4500D01*
X6024Y-4497D01*
X6022Y-4494D01*
X5839Y-4311D01*
Y-4076D01*
X5858Y-4064D01*
X5876Y-4046D01*
X5889Y-4025D01*
X5895Y-4000D01*
Y-3975D01*
X5889Y-3951D01*
X5876Y-3929D01*
X5858Y-3911D01*
X5838Y-3899D01*
Y-3057D01*
X5856Y-3046D01*
X5874Y-3029D01*
X5887Y-3007D01*
X5893Y-2983D01*
Y-2958D01*
X5887Y-2933D01*
X5874Y-2912D01*
X5856Y-2894D01*
X5837Y-2882D01*
Y-2055D01*
X5856Y-2043D01*
X5874Y-2025D01*
X5887Y-2004D01*
X5893Y-1979D01*
Y-1954D01*
X5887Y-1930D01*
X5874Y-1908D01*
X5856Y-1890D01*
X5835Y-1878D01*
X5810Y-1871D01*
D02*
G37*
G36*
X5560D02*
X5535D01*
X5511Y-1878D01*
X5489Y-1890D01*
X5472Y-1908D01*
X5459Y-1930D01*
X5453Y-1954D01*
Y-1979D01*
X5459Y-2004D01*
X5472Y-2025D01*
X5489Y-2043D01*
X5509Y-2055D01*
Y-2882D01*
X5489Y-2894D01*
X5472Y-2912D01*
X5459Y-2933D01*
X5453Y-2958D01*
Y-2983D01*
X5459Y-3007D01*
X5472Y-3029D01*
X5489Y-3046D01*
X5510Y-3058D01*
Y-3901D01*
X5491Y-3911D01*
X5474Y-3929D01*
X5461Y-3951D01*
X5454Y-3975D01*
Y-4000D01*
X5461Y-4025D01*
X5474Y-4046D01*
X5491Y-4064D01*
X5511Y-4076D01*
Y-4331D01*
X5514Y-4346D01*
X5522Y-4358D01*
X5713Y-4549D01*
X5716Y-4551D01*
X5719Y-4553D01*
X5722Y-4555D01*
X5726Y-4557D01*
X5729Y-4558D01*
X5733Y-4559D01*
X5737D01*
X5740Y-4560D01*
X5744Y-4559D01*
X5748D01*
X5752Y-4558D01*
X5755Y-4557D01*
X5758Y-4555D01*
X5762Y-4553D01*
X5765Y-4551D01*
X5768Y-4549D01*
X5770Y-4545D01*
X5773Y-4543D01*
X5774Y-4539D01*
X5776Y-4536D01*
X5777Y-4532D01*
X5778Y-4529D01*
Y-4525D01*
X5779Y-4521D01*
X5778Y-4517D01*
Y-4514D01*
X5777Y-4510D01*
X5776Y-4506D01*
X5774Y-4503D01*
X5773Y-4500D01*
X5770Y-4497D01*
X5768Y-4494D01*
X5589Y-4315D01*
Y-4076D01*
X5608Y-4064D01*
X5626Y-4046D01*
X5639Y-4025D01*
X5645Y-4000D01*
Y-3975D01*
X5639Y-3951D01*
X5626Y-3929D01*
X5608Y-3911D01*
X5588Y-3899D01*
Y-3057D01*
X5606Y-3046D01*
X5624Y-3029D01*
X5637Y-3007D01*
X5643Y-2983D01*
Y-2958D01*
X5637Y-2933D01*
X5624Y-2912D01*
X5606Y-2894D01*
X5587Y-2882D01*
Y-2055D01*
X5606Y-2043D01*
X5624Y-2025D01*
X5637Y-2004D01*
X5643Y-1979D01*
Y-1954D01*
X5637Y-1930D01*
X5624Y-1908D01*
X5606Y-1890D01*
X5585Y-1878D01*
X5560Y-1871D01*
D02*
G37*
G36*
X4307Y-4718D02*
X4305D01*
Y-4813D01*
X4401D01*
Y-4812D01*
X4393Y-4784D01*
X4379Y-4760D01*
X4359Y-4740D01*
X4334Y-4725D01*
X4307Y-4718D01*
D02*
G37*
G36*
X4280D02*
X4278D01*
X4251Y-4725D01*
X4226Y-4740D01*
X4206Y-4760D01*
X4192Y-4784D01*
X4185Y-4812D01*
Y-4813D01*
X4280D01*
Y-4718D01*
D02*
G37*
G36*
X2275D02*
X2273D01*
Y-4813D01*
X2368D01*
Y-4812D01*
X2361Y-4784D01*
X2347Y-4760D01*
X2327Y-4740D01*
X2302Y-4725D01*
X2275Y-4718D01*
D02*
G37*
G36*
X2248D02*
X2246D01*
X2219Y-4725D01*
X2194Y-4740D01*
X2174Y-4760D01*
X2160Y-4784D01*
X2153Y-4812D01*
Y-4813D01*
X2248D01*
Y-4718D01*
D02*
G37*
G36*
X497D02*
X495D01*
Y-4813D01*
X591D01*
Y-4812D01*
X583Y-4784D01*
X569Y-4760D01*
X549Y-4740D01*
X524Y-4725D01*
X497Y-4718D01*
D02*
G37*
G36*
X470D02*
X468D01*
X441Y-4725D01*
X416Y-4740D01*
X396Y-4760D01*
X382Y-4784D01*
X375Y-4812D01*
Y-4813D01*
X470D01*
Y-4718D01*
D02*
G37*
G36*
X22Y-4625D02*
X13D01*
Y-4887D01*
X275D01*
Y-4878D01*
X269Y-4836D01*
X255Y-4794D01*
X236Y-4756D01*
X210Y-4721D01*
X179Y-4690D01*
X144Y-4664D01*
X106Y-4645D01*
X64Y-4631D01*
X22Y-4625D01*
D02*
G37*
G36*
X-13D02*
X-22D01*
X-64Y-4631D01*
X-106Y-4645D01*
X-144Y-4664D01*
X-179Y-4690D01*
X-210Y-4721D01*
X-236Y-4756D01*
X-255Y-4794D01*
X-269Y-4836D01*
X-275Y-4878D01*
Y-4887D01*
X-13D01*
Y-4625D01*
D02*
G37*
G36*
X5838Y-4640D02*
X5829D01*
Y-4902D01*
X6092D01*
Y-4893D01*
X6085Y-4850D01*
X6072Y-4809D01*
X6052Y-4771D01*
X6027Y-4735D01*
X5996Y-4705D01*
X5961Y-4679D01*
X5922Y-4660D01*
X5881Y-4646D01*
X5838Y-4640D01*
D02*
G37*
G36*
X5804D02*
X5795D01*
X5752Y-4646D01*
X5711Y-4660D01*
X5672Y-4679D01*
X5637Y-4705D01*
X5607Y-4735D01*
X5581Y-4771D01*
X5561Y-4809D01*
X5548Y-4850D01*
X5541Y-4893D01*
Y-4902D01*
X5804D01*
Y-4640D01*
D02*
G37*
G36*
X5417Y-4718D02*
X5201D01*
Y-4934D01*
X5417D01*
Y-4718D01*
D02*
G37*
G36*
X5069D02*
X5040D01*
X5013Y-4725D01*
X4988Y-4740D01*
X4968Y-4760D01*
X4954Y-4784D01*
X4947Y-4812D01*
Y-4840D01*
X4954Y-4868D01*
X4968Y-4892D01*
X4988Y-4912D01*
X5013Y-4927D01*
X5040Y-4934D01*
X5069D01*
X5096Y-4927D01*
X5121Y-4912D01*
X5141Y-4892D01*
X5155Y-4868D01*
X5162Y-4840D01*
Y-4812D01*
X5155Y-4784D01*
X5141Y-4760D01*
X5121Y-4740D01*
X5096Y-4725D01*
X5069Y-4718D01*
D02*
G37*
G36*
X4815D02*
X4786D01*
X4759Y-4725D01*
X4734Y-4740D01*
X4714Y-4760D01*
X4700Y-4784D01*
X4693Y-4812D01*
Y-4840D01*
X4700Y-4868D01*
X4714Y-4892D01*
X4734Y-4912D01*
X4759Y-4927D01*
X4786Y-4934D01*
X4815D01*
X4842Y-4927D01*
X4867Y-4912D01*
X4887Y-4892D01*
X4901Y-4868D01*
X4908Y-4840D01*
Y-4812D01*
X4901Y-4784D01*
X4887Y-4760D01*
X4867Y-4740D01*
X4842Y-4725D01*
X4815Y-4718D01*
D02*
G37*
G36*
X4561D02*
X4532D01*
X4505Y-4725D01*
X4480Y-4740D01*
X4460Y-4760D01*
X4446Y-4784D01*
X4439Y-4812D01*
Y-4840D01*
X4446Y-4868D01*
X4460Y-4892D01*
X4480Y-4912D01*
X4505Y-4927D01*
X4532Y-4934D01*
X4561D01*
X4588Y-4927D01*
X4613Y-4912D01*
X4633Y-4892D01*
X4647Y-4868D01*
X4654Y-4840D01*
Y-4812D01*
X4647Y-4784D01*
X4633Y-4760D01*
X4613Y-4740D01*
X4588Y-4725D01*
X4561Y-4718D01*
D02*
G37*
G36*
X4401Y-4839D02*
X4305D01*
Y-4934D01*
X4307D01*
X4334Y-4927D01*
X4359Y-4912D01*
X4379Y-4892D01*
X4393Y-4868D01*
X4401Y-4840D01*
Y-4839D01*
D02*
G37*
G36*
X4280D02*
X4185D01*
Y-4840D01*
X4192Y-4868D01*
X4206Y-4892D01*
X4226Y-4912D01*
X4251Y-4927D01*
X4278Y-4934D01*
X4280D01*
Y-4839D01*
D02*
G37*
G36*
X4053Y-4718D02*
X4024D01*
X3997Y-4725D01*
X3972Y-4740D01*
X3952Y-4760D01*
X3938Y-4784D01*
X3931Y-4812D01*
Y-4840D01*
X3938Y-4868D01*
X3952Y-4892D01*
X3972Y-4912D01*
X3997Y-4927D01*
X4024Y-4934D01*
X4053D01*
X4080Y-4927D01*
X4105Y-4912D01*
X4125Y-4892D01*
X4139Y-4868D01*
X4147Y-4840D01*
Y-4812D01*
X4139Y-4784D01*
X4125Y-4760D01*
X4105Y-4740D01*
X4080Y-4725D01*
X4053Y-4718D01*
D02*
G37*
G36*
X3799D02*
X3770D01*
X3743Y-4725D01*
X3718Y-4740D01*
X3698Y-4760D01*
X3684Y-4784D01*
X3677Y-4812D01*
Y-4840D01*
X3684Y-4868D01*
X3698Y-4892D01*
X3718Y-4912D01*
X3743Y-4927D01*
X3770Y-4934D01*
X3799D01*
X3826Y-4927D01*
X3851Y-4912D01*
X3871Y-4892D01*
X3885Y-4868D01*
X3892Y-4840D01*
Y-4812D01*
X3885Y-4784D01*
X3871Y-4760D01*
X3851Y-4740D01*
X3826Y-4725D01*
X3799Y-4718D01*
D02*
G37*
G36*
X3545D02*
X3516D01*
X3489Y-4725D01*
X3464Y-4740D01*
X3444Y-4760D01*
X3430Y-4784D01*
X3423Y-4812D01*
Y-4840D01*
X3430Y-4868D01*
X3444Y-4892D01*
X3464Y-4912D01*
X3489Y-4927D01*
X3516Y-4934D01*
X3545D01*
X3572Y-4927D01*
X3597Y-4912D01*
X3617Y-4892D01*
X3631Y-4868D01*
X3638Y-4840D01*
Y-4812D01*
X3631Y-4784D01*
X3617Y-4760D01*
X3597Y-4740D01*
X3572Y-4725D01*
X3545Y-4718D01*
D02*
G37*
G36*
X3291D02*
X3262D01*
X3235Y-4725D01*
X3210Y-4740D01*
X3190Y-4760D01*
X3176Y-4784D01*
X3169Y-4812D01*
Y-4840D01*
X3176Y-4868D01*
X3190Y-4892D01*
X3210Y-4912D01*
X3235Y-4927D01*
X3262Y-4934D01*
X3291D01*
X3318Y-4927D01*
X3343Y-4912D01*
X3363Y-4892D01*
X3377Y-4868D01*
X3385Y-4840D01*
Y-4812D01*
X3377Y-4784D01*
X3363Y-4760D01*
X3343Y-4740D01*
X3318Y-4725D01*
X3291Y-4718D01*
D02*
G37*
G36*
X3037D02*
X3008D01*
X2981Y-4725D01*
X2956Y-4740D01*
X2936Y-4760D01*
X2922Y-4784D01*
X2915Y-4812D01*
Y-4840D01*
X2922Y-4868D01*
X2936Y-4892D01*
X2956Y-4912D01*
X2981Y-4927D01*
X3008Y-4934D01*
X3037D01*
X3064Y-4927D01*
X3089Y-4912D01*
X3109Y-4892D01*
X3123Y-4868D01*
X3131Y-4840D01*
Y-4812D01*
X3123Y-4784D01*
X3109Y-4760D01*
X3089Y-4740D01*
X3064Y-4725D01*
X3037Y-4718D01*
D02*
G37*
G36*
X2783D02*
X2754D01*
X2727Y-4725D01*
X2702Y-4740D01*
X2682Y-4760D01*
X2668Y-4784D01*
X2661Y-4812D01*
Y-4840D01*
X2668Y-4868D01*
X2682Y-4892D01*
X2702Y-4912D01*
X2727Y-4927D01*
X2754Y-4934D01*
X2783D01*
X2810Y-4927D01*
X2835Y-4912D01*
X2855Y-4892D01*
X2869Y-4868D01*
X2876Y-4840D01*
Y-4812D01*
X2869Y-4784D01*
X2855Y-4760D01*
X2835Y-4740D01*
X2810Y-4725D01*
X2783Y-4718D01*
D02*
G37*
G36*
X2529D02*
X2500D01*
X2473Y-4725D01*
X2448Y-4740D01*
X2428Y-4760D01*
X2414Y-4784D01*
X2407Y-4812D01*
Y-4840D01*
X2414Y-4868D01*
X2428Y-4892D01*
X2448Y-4912D01*
X2473Y-4927D01*
X2500Y-4934D01*
X2529D01*
X2556Y-4927D01*
X2581Y-4912D01*
X2601Y-4892D01*
X2615Y-4868D01*
X2623Y-4840D01*
Y-4812D01*
X2615Y-4784D01*
X2601Y-4760D01*
X2581Y-4740D01*
X2556Y-4725D01*
X2529Y-4718D01*
D02*
G37*
G36*
X2368Y-4839D02*
X2273D01*
Y-4934D01*
X2275D01*
X2302Y-4927D01*
X2327Y-4912D01*
X2347Y-4892D01*
X2361Y-4868D01*
X2368Y-4840D01*
Y-4839D01*
D02*
G37*
G36*
X2248D02*
X2153D01*
Y-4840D01*
X2160Y-4868D01*
X2174Y-4892D01*
X2194Y-4912D01*
X2219Y-4927D01*
X2246Y-4934D01*
X2248D01*
Y-4839D01*
D02*
G37*
G36*
X2021Y-4718D02*
X1992D01*
X1965Y-4725D01*
X1940Y-4740D01*
X1920Y-4760D01*
X1906Y-4784D01*
X1899Y-4812D01*
Y-4840D01*
X1906Y-4868D01*
X1920Y-4892D01*
X1940Y-4912D01*
X1965Y-4927D01*
X1992Y-4934D01*
X2021D01*
X2048Y-4927D01*
X2073Y-4912D01*
X2093Y-4892D01*
X2107Y-4868D01*
X2115Y-4840D01*
Y-4812D01*
X2107Y-4784D01*
X2093Y-4760D01*
X2073Y-4740D01*
X2048Y-4725D01*
X2021Y-4718D01*
D02*
G37*
G36*
X1767D02*
X1738D01*
X1711Y-4725D01*
X1686Y-4740D01*
X1666Y-4760D01*
X1652Y-4784D01*
X1645Y-4812D01*
Y-4840D01*
X1652Y-4868D01*
X1666Y-4892D01*
X1686Y-4912D01*
X1711Y-4927D01*
X1738Y-4934D01*
X1767D01*
X1794Y-4927D01*
X1819Y-4912D01*
X1839Y-4892D01*
X1853Y-4868D01*
X1860Y-4840D01*
Y-4812D01*
X1853Y-4784D01*
X1839Y-4760D01*
X1819Y-4740D01*
X1794Y-4725D01*
X1767Y-4718D01*
D02*
G37*
G36*
X1513D02*
X1484D01*
X1457Y-4725D01*
X1432Y-4740D01*
X1412Y-4760D01*
X1398Y-4784D01*
X1391Y-4812D01*
Y-4840D01*
X1398Y-4868D01*
X1412Y-4892D01*
X1432Y-4912D01*
X1457Y-4927D01*
X1484Y-4934D01*
X1513D01*
X1540Y-4927D01*
X1565Y-4912D01*
X1585Y-4892D01*
X1599Y-4868D01*
X1607Y-4840D01*
Y-4812D01*
X1599Y-4784D01*
X1585Y-4760D01*
X1565Y-4740D01*
X1540Y-4725D01*
X1513Y-4718D01*
D02*
G37*
G36*
X1259D02*
X1230D01*
X1203Y-4725D01*
X1178Y-4740D01*
X1158Y-4760D01*
X1144Y-4784D01*
X1137Y-4812D01*
Y-4840D01*
X1144Y-4868D01*
X1158Y-4892D01*
X1178Y-4912D01*
X1203Y-4927D01*
X1230Y-4934D01*
X1259D01*
X1286Y-4927D01*
X1311Y-4912D01*
X1331Y-4892D01*
X1345Y-4868D01*
X1352Y-4840D01*
Y-4812D01*
X1345Y-4784D01*
X1331Y-4760D01*
X1311Y-4740D01*
X1286Y-4725D01*
X1259Y-4718D01*
D02*
G37*
G36*
X1005D02*
X976D01*
X949Y-4725D01*
X924Y-4740D01*
X904Y-4760D01*
X890Y-4784D01*
X883Y-4812D01*
Y-4840D01*
X890Y-4868D01*
X904Y-4892D01*
X924Y-4912D01*
X949Y-4927D01*
X976Y-4934D01*
X1005D01*
X1032Y-4927D01*
X1057Y-4912D01*
X1077Y-4892D01*
X1091Y-4868D01*
X1098Y-4840D01*
Y-4812D01*
X1091Y-4784D01*
X1077Y-4760D01*
X1057Y-4740D01*
X1032Y-4725D01*
X1005Y-4718D01*
D02*
G37*
G36*
X751D02*
X722D01*
X695Y-4725D01*
X670Y-4740D01*
X650Y-4760D01*
X636Y-4784D01*
X629Y-4812D01*
Y-4840D01*
X636Y-4868D01*
X650Y-4892D01*
X670Y-4912D01*
X695Y-4927D01*
X722Y-4934D01*
X751D01*
X778Y-4927D01*
X803Y-4912D01*
X823Y-4892D01*
X837Y-4868D01*
X844Y-4840D01*
Y-4812D01*
X837Y-4784D01*
X823Y-4760D01*
X803Y-4740D01*
X778Y-4725D01*
X751Y-4718D01*
D02*
G37*
G36*
X591Y-4839D02*
X495D01*
Y-4934D01*
X497D01*
X524Y-4927D01*
X549Y-4912D01*
X569Y-4892D01*
X583Y-4868D01*
X591Y-4840D01*
Y-4839D01*
D02*
G37*
G36*
X470D02*
X375D01*
Y-4840D01*
X382Y-4868D01*
X396Y-4892D01*
X416Y-4912D01*
X441Y-4927D01*
X468Y-4934D01*
X470D01*
Y-4839D01*
D02*
G37*
G36*
X4561Y-4972D02*
X4559D01*
Y-5067D01*
X4654D01*
Y-5066D01*
X4647Y-5038D01*
X4633Y-5014D01*
X4613Y-4994D01*
X4588Y-4979D01*
X4561Y-4972D01*
D02*
G37*
G36*
X4534D02*
X4532D01*
X4505Y-4979D01*
X4480Y-4994D01*
X4460Y-5014D01*
X4446Y-5038D01*
X4439Y-5066D01*
Y-5067D01*
X4534D01*
Y-4972D01*
D02*
G37*
G36*
X4053D02*
X4051D01*
Y-5067D01*
X4147D01*
Y-5066D01*
X4139Y-5038D01*
X4125Y-5014D01*
X4105Y-4994D01*
X4080Y-4979D01*
X4053Y-4972D01*
D02*
G37*
G36*
X4026D02*
X4024D01*
X3997Y-4979D01*
X3972Y-4994D01*
X3952Y-5014D01*
X3938Y-5038D01*
X3931Y-5066D01*
Y-5067D01*
X4026D01*
Y-4972D01*
D02*
G37*
G36*
X2783D02*
X2781D01*
Y-5067D01*
X2876D01*
Y-5066D01*
X2869Y-5038D01*
X2855Y-5014D01*
X2835Y-4994D01*
X2810Y-4979D01*
X2783Y-4972D01*
D02*
G37*
G36*
X2756D02*
X2754D01*
X2727Y-4979D01*
X2702Y-4994D01*
X2682Y-5014D01*
X2668Y-5038D01*
X2661Y-5066D01*
Y-5067D01*
X2756D01*
Y-4972D01*
D02*
G37*
G36*
X2021D02*
X2019D01*
Y-5067D01*
X2115D01*
Y-5066D01*
X2107Y-5038D01*
X2093Y-5014D01*
X2073Y-4994D01*
X2048Y-4979D01*
X2021Y-4972D01*
D02*
G37*
G36*
X1994D02*
X1992D01*
X1965Y-4979D01*
X1940Y-4994D01*
X1920Y-5014D01*
X1906Y-5038D01*
X1899Y-5066D01*
Y-5067D01*
X1994D01*
Y-4972D01*
D02*
G37*
G36*
X1005D02*
X1003D01*
Y-5067D01*
X1098D01*
Y-5066D01*
X1091Y-5038D01*
X1077Y-5014D01*
X1057Y-4994D01*
X1032Y-4979D01*
X1005Y-4972D01*
D02*
G37*
G36*
X978D02*
X976D01*
X949Y-4979D01*
X924Y-4994D01*
X904Y-5014D01*
X890Y-5038D01*
X883Y-5066D01*
Y-5067D01*
X978D01*
Y-4972D01*
D02*
G37*
G36*
X275Y-4913D02*
X13D01*
Y-5175D01*
X22D01*
X64Y-5169D01*
X106Y-5155D01*
X144Y-5136D01*
X179Y-5110D01*
X210Y-5079D01*
X236Y-5044D01*
X255Y-5006D01*
X269Y-4964D01*
X275Y-4922D01*
Y-4913D01*
D02*
G37*
G36*
X-13D02*
X-275D01*
Y-4922D01*
X-269Y-4964D01*
X-255Y-5006D01*
X-236Y-5044D01*
X-210Y-5079D01*
X-179Y-5110D01*
X-144Y-5136D01*
X-106Y-5155D01*
X-64Y-5169D01*
X-22Y-5175D01*
X-13D01*
Y-4913D01*
D02*
G37*
G36*
X5323Y-4972D02*
X5294D01*
X5267Y-4979D01*
X5242Y-4994D01*
X5222Y-5014D01*
X5208Y-5038D01*
X5201Y-5066D01*
Y-5094D01*
X5208Y-5122D01*
X5222Y-5146D01*
X5242Y-5166D01*
X5267Y-5181D01*
X5294Y-5188D01*
X5323D01*
X5350Y-5181D01*
X5375Y-5166D01*
X5395Y-5146D01*
X5409Y-5122D01*
X5417Y-5094D01*
Y-5066D01*
X5409Y-5038D01*
X5395Y-5014D01*
X5375Y-4994D01*
X5350Y-4979D01*
X5323Y-4972D01*
D02*
G37*
G36*
X5069D02*
X5040D01*
X5013Y-4979D01*
X4988Y-4994D01*
X4968Y-5014D01*
X4954Y-5038D01*
X4947Y-5066D01*
Y-5094D01*
X4954Y-5122D01*
X4968Y-5146D01*
X4988Y-5166D01*
X5013Y-5181D01*
X5040Y-5188D01*
X5069D01*
X5096Y-5181D01*
X5121Y-5166D01*
X5141Y-5146D01*
X5155Y-5122D01*
X5162Y-5094D01*
Y-5066D01*
X5155Y-5038D01*
X5141Y-5014D01*
X5121Y-4994D01*
X5096Y-4979D01*
X5069Y-4972D01*
D02*
G37*
G36*
X4815D02*
X4786D01*
X4759Y-4979D01*
X4734Y-4994D01*
X4714Y-5014D01*
X4700Y-5038D01*
X4693Y-5066D01*
Y-5094D01*
X4700Y-5122D01*
X4714Y-5146D01*
X4734Y-5166D01*
X4759Y-5181D01*
X4786Y-5188D01*
X4815D01*
X4842Y-5181D01*
X4867Y-5166D01*
X4887Y-5146D01*
X4901Y-5122D01*
X4908Y-5094D01*
Y-5066D01*
X4901Y-5038D01*
X4887Y-5014D01*
X4867Y-4994D01*
X4842Y-4979D01*
X4815Y-4972D01*
D02*
G37*
G36*
X4654Y-5093D02*
X4559D01*
Y-5188D01*
X4561D01*
X4588Y-5181D01*
X4613Y-5166D01*
X4633Y-5146D01*
X4647Y-5122D01*
X4654Y-5094D01*
Y-5093D01*
D02*
G37*
G36*
X4534D02*
X4439D01*
Y-5094D01*
X4446Y-5122D01*
X4460Y-5146D01*
X4480Y-5166D01*
X4505Y-5181D01*
X4532Y-5188D01*
X4534D01*
Y-5093D01*
D02*
G37*
G36*
X4307Y-4972D02*
X4278D01*
X4251Y-4979D01*
X4226Y-4994D01*
X4206Y-5014D01*
X4192Y-5038D01*
X4185Y-5066D01*
Y-5094D01*
X4192Y-5122D01*
X4206Y-5146D01*
X4226Y-5166D01*
X4251Y-5181D01*
X4278Y-5188D01*
X4307D01*
X4334Y-5181D01*
X4359Y-5166D01*
X4379Y-5146D01*
X4393Y-5122D01*
X4401Y-5094D01*
Y-5066D01*
X4393Y-5038D01*
X4379Y-5014D01*
X4359Y-4994D01*
X4334Y-4979D01*
X4307Y-4972D01*
D02*
G37*
G36*
X4147Y-5093D02*
X4051D01*
Y-5188D01*
X4053D01*
X4080Y-5181D01*
X4105Y-5166D01*
X4125Y-5146D01*
X4139Y-5122D01*
X4147Y-5094D01*
Y-5093D01*
D02*
G37*
G36*
X4026D02*
X3931D01*
Y-5094D01*
X3938Y-5122D01*
X3952Y-5146D01*
X3972Y-5166D01*
X3997Y-5181D01*
X4024Y-5188D01*
X4026D01*
Y-5093D01*
D02*
G37*
G36*
X3799Y-4972D02*
X3770D01*
X3743Y-4979D01*
X3718Y-4994D01*
X3698Y-5014D01*
X3684Y-5038D01*
X3677Y-5066D01*
Y-5094D01*
X3684Y-5122D01*
X3698Y-5146D01*
X3718Y-5166D01*
X3743Y-5181D01*
X3770Y-5188D01*
X3799D01*
X3826Y-5181D01*
X3851Y-5166D01*
X3871Y-5146D01*
X3885Y-5122D01*
X3892Y-5094D01*
Y-5066D01*
X3885Y-5038D01*
X3871Y-5014D01*
X3851Y-4994D01*
X3826Y-4979D01*
X3799Y-4972D01*
D02*
G37*
G36*
X3545D02*
X3516D01*
X3489Y-4979D01*
X3464Y-4994D01*
X3444Y-5014D01*
X3430Y-5038D01*
X3423Y-5066D01*
Y-5094D01*
X3430Y-5122D01*
X3444Y-5146D01*
X3464Y-5166D01*
X3489Y-5181D01*
X3516Y-5188D01*
X3545D01*
X3572Y-5181D01*
X3597Y-5166D01*
X3617Y-5146D01*
X3631Y-5122D01*
X3638Y-5094D01*
Y-5066D01*
X3631Y-5038D01*
X3617Y-5014D01*
X3597Y-4994D01*
X3572Y-4979D01*
X3545Y-4972D01*
D02*
G37*
G36*
X3291D02*
X3262D01*
X3235Y-4979D01*
X3210Y-4994D01*
X3190Y-5014D01*
X3176Y-5038D01*
X3169Y-5066D01*
Y-5094D01*
X3176Y-5122D01*
X3190Y-5146D01*
X3210Y-5166D01*
X3235Y-5181D01*
X3262Y-5188D01*
X3291D01*
X3318Y-5181D01*
X3343Y-5166D01*
X3363Y-5146D01*
X3377Y-5122D01*
X3385Y-5094D01*
Y-5066D01*
X3377Y-5038D01*
X3363Y-5014D01*
X3343Y-4994D01*
X3318Y-4979D01*
X3291Y-4972D01*
D02*
G37*
G36*
X3037D02*
X3008D01*
X2981Y-4979D01*
X2956Y-4994D01*
X2936Y-5014D01*
X2922Y-5038D01*
X2915Y-5066D01*
Y-5094D01*
X2922Y-5122D01*
X2936Y-5146D01*
X2956Y-5166D01*
X2981Y-5181D01*
X3008Y-5188D01*
X3037D01*
X3064Y-5181D01*
X3089Y-5166D01*
X3109Y-5146D01*
X3123Y-5122D01*
X3131Y-5094D01*
Y-5066D01*
X3123Y-5038D01*
X3109Y-5014D01*
X3089Y-4994D01*
X3064Y-4979D01*
X3037Y-4972D01*
D02*
G37*
G36*
X2876Y-5093D02*
X2781D01*
Y-5188D01*
X2783D01*
X2810Y-5181D01*
X2835Y-5166D01*
X2855Y-5146D01*
X2869Y-5122D01*
X2876Y-5094D01*
Y-5093D01*
D02*
G37*
G36*
X2756D02*
X2661D01*
Y-5094D01*
X2668Y-5122D01*
X2682Y-5146D01*
X2702Y-5166D01*
X2727Y-5181D01*
X2754Y-5188D01*
X2756D01*
Y-5093D01*
D02*
G37*
G36*
X2529Y-4972D02*
X2500D01*
X2473Y-4979D01*
X2448Y-4994D01*
X2428Y-5014D01*
X2414Y-5038D01*
X2407Y-5066D01*
Y-5094D01*
X2414Y-5122D01*
X2428Y-5146D01*
X2448Y-5166D01*
X2473Y-5181D01*
X2500Y-5188D01*
X2529D01*
X2556Y-5181D01*
X2581Y-5166D01*
X2601Y-5146D01*
X2615Y-5122D01*
X2623Y-5094D01*
Y-5066D01*
X2615Y-5038D01*
X2601Y-5014D01*
X2581Y-4994D01*
X2556Y-4979D01*
X2529Y-4972D01*
D02*
G37*
G36*
X2275D02*
X2246D01*
X2219Y-4979D01*
X2194Y-4994D01*
X2174Y-5014D01*
X2160Y-5038D01*
X2153Y-5066D01*
Y-5094D01*
X2160Y-5122D01*
X2174Y-5146D01*
X2194Y-5166D01*
X2219Y-5181D01*
X2246Y-5188D01*
X2275D01*
X2302Y-5181D01*
X2327Y-5166D01*
X2347Y-5146D01*
X2361Y-5122D01*
X2368Y-5094D01*
Y-5066D01*
X2361Y-5038D01*
X2347Y-5014D01*
X2327Y-4994D01*
X2302Y-4979D01*
X2275Y-4972D01*
D02*
G37*
G36*
X2115Y-5093D02*
X2019D01*
Y-5188D01*
X2021D01*
X2048Y-5181D01*
X2073Y-5166D01*
X2093Y-5146D01*
X2107Y-5122D01*
X2115Y-5094D01*
Y-5093D01*
D02*
G37*
G36*
X1994D02*
X1899D01*
Y-5094D01*
X1906Y-5122D01*
X1920Y-5146D01*
X1940Y-5166D01*
X1965Y-5181D01*
X1992Y-5188D01*
X1994D01*
Y-5093D01*
D02*
G37*
G36*
X1767Y-4972D02*
X1738D01*
X1711Y-4979D01*
X1686Y-4994D01*
X1666Y-5014D01*
X1652Y-5038D01*
X1645Y-5066D01*
Y-5094D01*
X1652Y-5122D01*
X1666Y-5146D01*
X1686Y-5166D01*
X1711Y-5181D01*
X1738Y-5188D01*
X1767D01*
X1794Y-5181D01*
X1819Y-5166D01*
X1839Y-5146D01*
X1853Y-5122D01*
X1860Y-5094D01*
Y-5066D01*
X1853Y-5038D01*
X1839Y-5014D01*
X1819Y-4994D01*
X1794Y-4979D01*
X1767Y-4972D01*
D02*
G37*
G36*
X1513D02*
X1484D01*
X1457Y-4979D01*
X1432Y-4994D01*
X1412Y-5014D01*
X1398Y-5038D01*
X1391Y-5066D01*
Y-5094D01*
X1398Y-5122D01*
X1412Y-5146D01*
X1432Y-5166D01*
X1457Y-5181D01*
X1484Y-5188D01*
X1513D01*
X1540Y-5181D01*
X1565Y-5166D01*
X1585Y-5146D01*
X1599Y-5122D01*
X1607Y-5094D01*
Y-5066D01*
X1599Y-5038D01*
X1585Y-5014D01*
X1565Y-4994D01*
X1540Y-4979D01*
X1513Y-4972D01*
D02*
G37*
G36*
X1259D02*
X1230D01*
X1203Y-4979D01*
X1178Y-4994D01*
X1158Y-5014D01*
X1144Y-5038D01*
X1137Y-5066D01*
Y-5094D01*
X1144Y-5122D01*
X1158Y-5146D01*
X1178Y-5166D01*
X1203Y-5181D01*
X1230Y-5188D01*
X1259D01*
X1286Y-5181D01*
X1311Y-5166D01*
X1331Y-5146D01*
X1345Y-5122D01*
X1352Y-5094D01*
Y-5066D01*
X1345Y-5038D01*
X1331Y-5014D01*
X1311Y-4994D01*
X1286Y-4979D01*
X1259Y-4972D01*
D02*
G37*
G36*
X1098Y-5093D02*
X1003D01*
Y-5188D01*
X1005D01*
X1032Y-5181D01*
X1057Y-5166D01*
X1077Y-5146D01*
X1091Y-5122D01*
X1098Y-5094D01*
Y-5093D01*
D02*
G37*
G36*
X978D02*
X883D01*
Y-5094D01*
X890Y-5122D01*
X904Y-5146D01*
X924Y-5166D01*
X949Y-5181D01*
X976Y-5188D01*
X978D01*
Y-5093D01*
D02*
G37*
G36*
X751Y-4972D02*
X722D01*
X695Y-4979D01*
X670Y-4994D01*
X650Y-5014D01*
X636Y-5038D01*
X629Y-5066D01*
Y-5094D01*
X636Y-5122D01*
X650Y-5146D01*
X670Y-5166D01*
X695Y-5181D01*
X722Y-5188D01*
X751D01*
X778Y-5181D01*
X803Y-5166D01*
X823Y-5146D01*
X837Y-5122D01*
X844Y-5094D01*
Y-5066D01*
X837Y-5038D01*
X823Y-5014D01*
X803Y-4994D01*
X778Y-4979D01*
X751Y-4972D01*
D02*
G37*
G36*
X497D02*
X468D01*
X441Y-4979D01*
X416Y-4994D01*
X396Y-5014D01*
X382Y-5038D01*
X375Y-5066D01*
Y-5094D01*
X382Y-5122D01*
X396Y-5146D01*
X416Y-5166D01*
X441Y-5181D01*
X468Y-5188D01*
X497D01*
X524Y-5181D01*
X549Y-5166D01*
X569Y-5146D01*
X583Y-5122D01*
X591Y-5094D01*
Y-5066D01*
X583Y-5038D01*
X569Y-5014D01*
X549Y-4994D01*
X524Y-4979D01*
X497Y-4972D01*
D02*
G37*
G36*
X6092Y-4928D02*
X5829D01*
Y-5190D01*
X5838D01*
X5881Y-5184D01*
X5922Y-5170D01*
X5961Y-5150D01*
X5996Y-5125D01*
X6027Y-5094D01*
X6052Y-5059D01*
X6072Y-5021D01*
X6085Y-4979D01*
X6092Y-4937D01*
Y-4928D01*
D02*
G37*
G36*
X5804D02*
X5541D01*
Y-4937D01*
X5548Y-4979D01*
X5561Y-5021D01*
X5581Y-5059D01*
X5607Y-5094D01*
X5637Y-5125D01*
X5672Y-5150D01*
X5711Y-5170D01*
X5752Y-5184D01*
X5795Y-5190D01*
X5804D01*
Y-4928D01*
D02*
G37*
%LPD*%
G36*
X2360Y-1702D02*
X2360Y-1702D01*
X2360Y-1702D01*
X2360Y-1702D01*
X2364Y-1704D01*
X2364Y-1704D01*
X2616Y-1956D01*
X2701Y-2041D01*
X2703Y-2043D01*
X2703Y-2043D01*
X2703Y-2043D01*
X2703Y-2043D01*
X2704Y-2045D01*
X2704Y-2045D01*
X2704Y-2045D01*
X2705Y-2047D01*
X2705Y-2047D01*
X2705Y-2047D01*
X2705Y-2050D01*
X2705Y-2050D01*
Y-2753D01*
X2705Y-2753D01*
X2705Y-2753D01*
X2705Y-2754D01*
X2705Y-2754D01*
X2705Y-2754D01*
X2703Y-2758D01*
X2703Y-2758D01*
Y-2758D01*
X2703Y-2758D01*
X2703Y-2758D01*
X2703Y-2758D01*
X2701Y-2760D01*
X2701Y-2760D01*
X2252Y-3209D01*
X2250Y-3211D01*
X2250Y-3211D01*
X2250Y-3211D01*
X2250Y-3211D01*
X2247Y-3212D01*
X2247Y-3212D01*
X2247Y-3212D01*
X2245Y-3213D01*
X2245Y-3213D01*
X2245Y-3213D01*
X2243Y-3213D01*
X2243Y-3213D01*
X1946D01*
X1946Y-3213D01*
X1946Y-3213D01*
X1945Y-3213D01*
X1945Y-3213D01*
X1945Y-3213D01*
X1941Y-3211D01*
X1941Y-3211D01*
X1941D01*
X1941Y-3211D01*
X1941Y-3211D01*
X1941Y-3211D01*
X1939Y-3209D01*
X1939Y-3209D01*
X1871Y-3141D01*
X1869Y-3139D01*
X1869Y-3139D01*
X1869Y-3139D01*
X1869Y-3139D01*
X1868Y-3136D01*
X1868Y-3136D01*
X1868Y-3136D01*
X1867Y-3134D01*
X1867Y-3134D01*
X1867Y-3134D01*
X1867Y-3132D01*
X1867Y-3132D01*
Y-3008D01*
Y-2997D01*
X1842Y-2972D01*
X457D01*
X450Y-2979D01*
X439Y-2990D01*
X432Y-2997D01*
Y-3008D01*
Y-4366D01*
X432Y-4366D01*
X432Y-4366D01*
X431Y-4367D01*
X431Y-4367D01*
X431Y-4367D01*
X430Y-4370D01*
X430Y-4370D01*
Y-4370D01*
X430Y-4370D01*
X430Y-4371D01*
X430Y-4371D01*
X428Y-4372D01*
X428Y-4372D01*
X258Y-4543D01*
X258Y-4543D01*
X256Y-4545D01*
X256Y-4545D01*
X256Y-4545D01*
X256Y-4545D01*
X252Y-4547D01*
X252Y-4547D01*
X251Y-4547D01*
X251Y-4547D01*
X251Y-4547D01*
X-315D01*
X-315D01*
X-315Y-4546D01*
X-315Y-4546D01*
X-316Y-4546D01*
X-316Y-4545D01*
X-317Y-4545D01*
X-317Y-4544D01*
X-317Y-4544D01*
X-317Y-4544D01*
Y-4541D01*
Y-2733D01*
X-317Y-2733D01*
X-317Y-2733D01*
X-317Y-2732D01*
X-317Y-2732D01*
X-317Y-2732D01*
X-316Y-2729D01*
X-316Y-2729D01*
Y-2729D01*
X-316Y-2729D01*
X-316Y-2729D01*
X-316Y-2729D01*
X-314Y-2727D01*
X-314Y-2727D01*
X-308Y-2721D01*
X-307Y-2720D01*
X-307Y-2720D01*
X-307Y-2720D01*
X-306Y-2720D01*
X-304Y-2719D01*
X-304Y-2719D01*
X-304Y-2719D01*
X-302Y-2718D01*
X-302Y-2718D01*
X-302Y-2718D01*
X-300Y-2718D01*
X-300Y-2718D01*
X521D01*
Y-2326D01*
X529Y-2379D01*
X546Y-2430D01*
X570Y-2478D01*
X602Y-2522D01*
X640Y-2560D01*
X684Y-2592D01*
X732Y-2616D01*
X783Y-2633D01*
X837Y-2642D01*
X851D01*
Y-2299D01*
Y-1956D01*
X837D01*
X783Y-1964D01*
X732Y-1981D01*
X684Y-2005D01*
X640Y-2037D01*
X602Y-2075D01*
X570Y-2119D01*
X546Y-2167D01*
X529Y-2218D01*
X521Y-2272D01*
Y-1829D01*
X644Y-1705D01*
X646Y-1704D01*
X646Y-1704D01*
X648Y-1703D01*
X648Y-1703D01*
X648Y-1703D01*
X650Y-1702D01*
X650Y-1702D01*
X653Y-1702D01*
X653Y-1702D01*
X2360D01*
X2360Y-1702D01*
D02*
G37*
%LPC*%
G36*
X2433Y-2095D02*
X2183D01*
Y-2223D01*
X2433D01*
Y-2095D01*
D02*
G37*
G36*
X2157D02*
X1907D01*
Y-2223D01*
X2157D01*
Y-2095D01*
D02*
G37*
G36*
X891Y-1956D02*
X876D01*
Y-2286D01*
X1206D01*
Y-2272D01*
X1198Y-2218D01*
X1181Y-2167D01*
X1157Y-2119D01*
X1125Y-2075D01*
X1087Y-2037D01*
X1043Y-2005D01*
X995Y-1981D01*
X944Y-1964D01*
X891Y-1956D01*
D02*
G37*
G36*
X2433Y-2248D02*
X2183D01*
Y-2376D01*
X2433D01*
Y-2248D01*
D02*
G37*
G36*
X2157D02*
X1907D01*
Y-2376D01*
X2157D01*
Y-2248D01*
D02*
G37*
G36*
X1206Y-2311D02*
X876D01*
Y-2642D01*
X891D01*
X944Y-2633D01*
X995Y-2616D01*
X1043Y-2592D01*
X1087Y-2560D01*
X1125Y-2522D01*
X1157Y-2478D01*
X1181Y-2430D01*
X1198Y-2379D01*
X1206Y-2326D01*
Y-2311D01*
D02*
G37*
G36*
X2128Y-2897D02*
X2083D01*
Y-3027D01*
X2174D01*
Y-2943D01*
X2170Y-2926D01*
X2161Y-2911D01*
X2146Y-2901D01*
X2128Y-2897D01*
D02*
G37*
G36*
X2057D02*
X2012D01*
X1995Y-2901D01*
X1980Y-2911D01*
X1970Y-2926D01*
X1966Y-2943D01*
Y-3027D01*
X2057D01*
Y-2897D01*
D02*
G37*
G36*
X2174Y-3053D02*
X2083D01*
Y-3183D01*
X2128D01*
X2146Y-3179D01*
X2161Y-3170D01*
X2170Y-3155D01*
X2174Y-3137D01*
Y-3053D01*
D02*
G37*
G36*
X2057D02*
X1966D01*
Y-3137D01*
X1970Y-3155D01*
X1980Y-3170D01*
X1995Y-3179D01*
X2012Y-3183D01*
X2057D01*
Y-3053D01*
D02*
G37*
G36*
X267Y-3258D02*
X63D01*
Y-3747D01*
X267D01*
Y-3258D01*
D02*
G37*
G36*
X38D02*
X-165D01*
Y-3747D01*
X38D01*
Y-3258D01*
D02*
G37*
G36*
X267Y-3772D02*
X63D01*
Y-4261D01*
X267D01*
Y-3772D01*
D02*
G37*
G36*
X38D02*
X-165D01*
Y-4261D01*
X38D01*
Y-3772D01*
D02*
G37*
%LPD*%
D17*
X3099Y-317D02*
Y-38D01*
Y-317D02*
X3416Y-635D01*
X4403Y-4314D02*
X4572Y-4483D01*
X4403Y-4314D02*
Y-3973D01*
Y-3966D02*
Y-2972D01*
X4405Y-2970D02*
Y-1958D01*
X4407Y-1956D01*
X4403Y-2972D02*
X4405Y-2970D01*
X5800Y-4327D02*
X5994Y-4521D01*
X5550Y-4331D02*
X5740Y-4521D01*
X5800Y-4327D02*
Y-3988D01*
X5798Y-2970D02*
X5799Y-2971D01*
Y-3983D02*
Y-2971D01*
X5798Y-2966D02*
Y-1967D01*
X5549Y-3988D02*
Y-2971D01*
X5550Y-4331D02*
Y-3988D01*
X5548Y-2970D02*
X5549Y-2971D01*
X5548Y-2970D02*
Y-1967D01*
X5220Y-4483D02*
X5410D01*
X4077Y-4477D02*
X4248D01*
X4254Y-4483D01*
X4071Y-4470D02*
X4077Y-4477D01*
X5201Y-3531D02*
X5397D01*
X4058D02*
X4242D01*
X4046Y-2515D02*
X4216D01*
X5201Y-2502D02*
X5397D01*
X2553Y-3567D02*
X2609Y-3510D01*
X2553Y-3594D02*
Y-3567D01*
X2609Y-3510D02*
Y-3277D01*
X2906Y-3391D02*
X2978Y-3319D01*
Y-3289D01*
X2990Y-3277D01*
X2699Y-3334D02*
X2756Y-3391D01*
X2699Y-3334D02*
Y-3277D01*
X2990Y-3279D02*
Y-3277D01*
D21*
X4572Y-4483D02*
D03*
X5740Y-4521D02*
D03*
X5994D02*
D03*
D22*
X5130Y-4483D02*
D03*
X5220D02*
D03*
X2699Y-3277D02*
D03*
X2609D02*
D03*
X3080D02*
D03*
X2990D02*
D03*
X3981Y-4470D02*
D03*
X4071D02*
D03*
X3956Y-2515D02*
D03*
X4046D02*
D03*
X3968Y-3531D02*
D03*
X4058D02*
D03*
X5111Y-2502D02*
D03*
X5201D02*
D03*
X5111Y-3531D02*
D03*
X5201D02*
D03*
D23*
X3215Y-2235D02*
D03*
X2170D02*
D03*
D24*
X2070Y-3467D02*
D03*
Y-3040D02*
D03*
D25*
X2756Y-3391D02*
D03*
X2906D02*
D03*
D31*
X483Y-5080D02*
D03*
Y-4826D02*
D03*
X737Y-5080D02*
D03*
Y-4826D02*
D03*
X991Y-5080D02*
D03*
Y-4826D02*
D03*
X1245Y-5080D02*
D03*
Y-4826D02*
D03*
X1499Y-5080D02*
D03*
Y-4826D02*
D03*
X1753Y-5080D02*
D03*
Y-4826D02*
D03*
X2007Y-5080D02*
D03*
Y-4826D02*
D03*
X2261Y-5080D02*
D03*
Y-4826D02*
D03*
X2515Y-5080D02*
D03*
Y-4826D02*
D03*
X2769Y-5080D02*
D03*
Y-4826D02*
D03*
X3023Y-5080D02*
D03*
Y-4826D02*
D03*
X3277Y-5080D02*
D03*
Y-4826D02*
D03*
X3531Y-5080D02*
D03*
Y-4826D02*
D03*
X3785Y-5080D02*
D03*
Y-4826D02*
D03*
X4039Y-5080D02*
D03*
Y-4826D02*
D03*
X4293Y-5080D02*
D03*
Y-4826D02*
D03*
X4547Y-5080D02*
D03*
Y-4826D02*
D03*
X4801Y-5080D02*
D03*
Y-4826D02*
D03*
X5055Y-5080D02*
D03*
Y-4826D02*
D03*
X5309Y-5080D02*
D03*
D32*
Y-4826D02*
D03*
D35*
X5702Y-880D02*
D03*
D36*
Y-1130D02*
D03*
D37*
X4403Y-3973D02*
D03*
X4153D02*
D03*
X5298Y-1967D02*
D03*
X5548D02*
D03*
X5798D02*
D03*
X4407Y-1956D02*
D03*
X4157D02*
D03*
X4403Y-2972D02*
D03*
X4153D02*
D03*
X5300Y-3988D02*
D03*
X5550D02*
D03*
X5800D02*
D03*
X5298Y-2970D02*
D03*
X5548D02*
D03*
X5798D02*
D03*
D38*
X3903Y-3973D02*
D03*
X5048Y-1967D02*
D03*
X3907Y-1956D02*
D03*
X3903Y-2972D02*
D03*
X5050Y-3988D02*
D03*
X5048Y-2970D02*
D03*
D43*
X152Y-2299D02*
D03*
X864D02*
D03*
D44*
X5000Y-1250D02*
D03*
X800Y-50D02*
D03*
Y-1250D02*
D03*
X5000Y-50D02*
D03*
D45*
X762Y-3759D02*
D03*
X51D02*
D03*
D46*
X5800Y0D02*
D03*
X0D02*
D03*
Y-4900D02*
D03*
X5817Y-4915D02*
D03*
D47*
X2095Y-1283D02*
D03*
X2667Y-1702D02*
D03*
X3099Y-38D02*
D03*
X3416Y-635D02*
D03*
X3429Y-317D02*
D03*
X3632Y-991D02*
D03*
X1600Y-775D02*
D03*
X2515Y-838D02*
D03*
X2388Y-673D02*
D03*
X1778Y-622D02*
D03*
X2273Y-3759D02*
D03*
X4216Y-2515D02*
D03*
X5397Y-2502D02*
D03*
Y-3531D02*
D03*
X5410Y-4483D02*
D03*
X4254D02*
D03*
X4242Y-3531D02*
D03*
X2553Y-3594D02*
D03*
D48*
X1713Y-1586D02*
D03*
X1556D02*
D03*
Y-1332D02*
D03*
X1713D02*
D03*
Y-1459D02*
D03*
X1556D02*
D03*
X1435D02*
D03*
X1834D02*
D03*
M02*
