G04*
G04 #@! TF.GenerationSoftware,Altium Limited,Altium Designer,23.10.1 (27)*
G04*
G04 Layer_Color=128*
%FSLAX42Y42*%
%MOMM*%
G71*
G04*
G04 #@! TF.SameCoordinates,D45A84C9-24EE-431E-81B0-E16C7BED9CBD*
G04*
G04*
G04 #@! TF.FilePolarity,Positive*
G04*
G01*
G75*
%ADD13C,0.13*%
D13*
X433Y-5080D02*
X533D01*
X483Y-5130D02*
Y-5030D01*
X433Y-4826D02*
X533D01*
X483Y-4876D02*
Y-4776D01*
X687Y-5080D02*
X787D01*
X737Y-5130D02*
Y-5030D01*
X687Y-4826D02*
X787D01*
X737Y-4876D02*
Y-4776D01*
X941Y-5080D02*
X1041D01*
X991Y-5130D02*
Y-5030D01*
X941Y-4826D02*
X1041D01*
X991Y-4876D02*
Y-4776D01*
X1195Y-5080D02*
X1295D01*
X1245Y-5130D02*
Y-5030D01*
X1195Y-4826D02*
X1295D01*
X1245Y-4876D02*
Y-4776D01*
X1449Y-5080D02*
X1549D01*
X1499Y-5130D02*
Y-5030D01*
X1449Y-4826D02*
X1549D01*
X1499Y-4876D02*
Y-4776D01*
X1703Y-5080D02*
X1803D01*
X1753Y-5130D02*
Y-5030D01*
X1703Y-4826D02*
X1803D01*
X1753Y-4876D02*
Y-4776D01*
X1957Y-5080D02*
X2057D01*
X2007Y-5130D02*
Y-5030D01*
X1957Y-4826D02*
X2057D01*
X2007Y-4876D02*
Y-4776D01*
X2211Y-5080D02*
X2311D01*
X2261Y-5130D02*
Y-5030D01*
X2211Y-4826D02*
X2311D01*
X2261Y-4876D02*
Y-4776D01*
X2465Y-5080D02*
X2565D01*
X2515Y-5130D02*
Y-5030D01*
X2465Y-4826D02*
X2565D01*
X2515Y-4876D02*
Y-4776D01*
X2719Y-5080D02*
X2819D01*
X2769Y-5130D02*
Y-5030D01*
X2719Y-4826D02*
X2819D01*
X2769Y-4876D02*
Y-4776D01*
X2973Y-5080D02*
X3073D01*
X3023Y-5130D02*
Y-5030D01*
X2973Y-4826D02*
X3073D01*
X3023Y-4876D02*
Y-4776D01*
X3227Y-5080D02*
X3327D01*
X3277Y-5130D02*
Y-5030D01*
X3227Y-4826D02*
X3327D01*
X3277Y-4876D02*
Y-4776D01*
X3481Y-5080D02*
X3581D01*
X3531Y-5130D02*
Y-5030D01*
X3481Y-4826D02*
X3581D01*
X3531Y-4876D02*
Y-4776D01*
X3735Y-5080D02*
X3835D01*
X3785Y-5130D02*
Y-5030D01*
X3735Y-4826D02*
X3835D01*
X3785Y-4876D02*
Y-4776D01*
X3989Y-5080D02*
X4089D01*
X4039Y-5130D02*
Y-5030D01*
X3989Y-4826D02*
X4089D01*
X4039Y-4876D02*
Y-4776D01*
X4243Y-5080D02*
X4343D01*
X4293Y-5130D02*
Y-5030D01*
X4243Y-4826D02*
X4343D01*
X4293Y-4876D02*
Y-4776D01*
X4497Y-5080D02*
X4597D01*
X4547Y-5130D02*
Y-5030D01*
X4497Y-4826D02*
X4597D01*
X4547Y-4876D02*
Y-4776D01*
X4751Y-5080D02*
X4851D01*
X4801Y-5130D02*
Y-5030D01*
X4751Y-4826D02*
X4851D01*
X4801Y-4876D02*
Y-4776D01*
X5005Y-5080D02*
X5105D01*
X5055Y-5130D02*
Y-5030D01*
X5005Y-4826D02*
X5105D01*
X5055Y-4876D02*
Y-4776D01*
X5259Y-5080D02*
X5359D01*
X5309Y-5130D02*
Y-5030D01*
X5259Y-4826D02*
X5359D01*
X5309Y-4876D02*
Y-4776D01*
X-63Y-2299D02*
X368D01*
X152Y-2515D02*
Y-2083D01*
X648Y-2299D02*
X1080D01*
X864Y-2515D02*
Y-2083D01*
X4890Y-1250D02*
X5110D01*
X5000Y-1360D02*
Y-1140D01*
X5652Y-880D02*
X5752D01*
X5702Y-930D02*
Y-830D01*
X5652Y-1130D02*
X5752D01*
X5702Y-1180D02*
Y-1080D01*
X4358Y-3973D02*
X4448D01*
X4403Y-4018D02*
Y-3928D01*
X4108Y-3973D02*
X4198D01*
X4153Y-4018D02*
Y-3928D01*
X3858Y-3973D02*
X3948D01*
X3903Y-4018D02*
Y-3928D01*
X5003Y-1967D02*
X5093D01*
X5048Y-2012D02*
Y-1922D01*
X5253Y-1967D02*
X5343D01*
X5298Y-2012D02*
Y-1922D01*
X5503Y-1967D02*
X5593D01*
X5548Y-2012D02*
Y-1922D01*
X5753Y-1967D02*
X5843D01*
X5798Y-2012D02*
Y-1922D01*
X667Y-3759D02*
X857D01*
X762Y-3854D02*
Y-3664D01*
X-44Y-3759D02*
X146D01*
X51Y-3854D02*
Y-3664D01*
X5675Y0D02*
X5925D01*
X5800Y-125D02*
Y125D01*
X-125Y0D02*
X125D01*
X0Y-125D02*
Y125D01*
X-125Y-4900D02*
X125D01*
X0Y-5025D02*
Y-4775D01*
X5692Y-4915D02*
X5942D01*
X5817Y-5040D02*
Y-4790D01*
X690Y-50D02*
X910D01*
X800Y-160D02*
Y60D01*
X690Y-1250D02*
X910D01*
X800Y-1360D02*
Y-1140D01*
X4890Y-50D02*
X5110D01*
X5000Y-160D02*
Y60D01*
X4362Y-1956D02*
X4452D01*
X4407Y-2001D02*
Y-1911D01*
X4112Y-1956D02*
X4202D01*
X4157Y-2001D02*
Y-1911D01*
X3862Y-1956D02*
X3952D01*
X3907Y-2001D02*
Y-1911D01*
X4358Y-2972D02*
X4448D01*
X4403Y-3017D02*
Y-2927D01*
X4108Y-2972D02*
X4198D01*
X4153Y-3017D02*
Y-2927D01*
X3858Y-2972D02*
X3948D01*
X3903Y-3017D02*
Y-2927D01*
X5005Y-3988D02*
X5095D01*
X5050Y-4033D02*
Y-3943D01*
X5255Y-3988D02*
X5345D01*
X5300Y-4033D02*
Y-3943D01*
X5505Y-3988D02*
X5595D01*
X5550Y-4033D02*
Y-3943D01*
X5755Y-3988D02*
X5845D01*
X5800Y-4033D02*
Y-3943D01*
X5003Y-2970D02*
X5093D01*
X5048Y-3015D02*
Y-2925D01*
X5253Y-2970D02*
X5343D01*
X5298Y-3015D02*
Y-2925D01*
X5503Y-2970D02*
X5593D01*
X5548Y-3015D02*
Y-2925D01*
X5753Y-2970D02*
X5843D01*
X5798Y-3015D02*
Y-2925D01*
X2070Y-1283D02*
X2120D01*
X2095Y-1308D02*
Y-1258D01*
X2642Y-1702D02*
X2692D01*
X2667Y-1727D02*
Y-1677D01*
X3074Y-38D02*
X3124D01*
X3099Y-63D02*
Y-13D01*
X3391Y-635D02*
X3441D01*
X3416Y-660D02*
Y-610D01*
X3404Y-317D02*
X3454D01*
X3429Y-342D02*
Y-292D01*
X3607Y-991D02*
X3657D01*
X3632Y-1016D02*
Y-966D01*
X1575Y-775D02*
X1625D01*
X1600Y-800D02*
Y-750D01*
X2490Y-838D02*
X2540D01*
X2515Y-863D02*
Y-813D01*
X2363Y-673D02*
X2413D01*
X2388Y-698D02*
Y-648D01*
X1753Y-622D02*
X1803D01*
X1778Y-647D02*
Y-597D01*
X2248Y-3759D02*
X2298D01*
X2273Y-3784D02*
Y-3734D01*
X4191Y-2515D02*
X4241D01*
X4216Y-2540D02*
Y-2490D01*
X5372Y-2502D02*
X5422D01*
X5397Y-2527D02*
Y-2477D01*
X5372Y-3531D02*
X5422D01*
X5397Y-3556D02*
Y-3506D01*
X5385Y-4483D02*
X5435D01*
X5410Y-4508D02*
Y-4458D01*
X4229Y-4483D02*
X4279D01*
X4254Y-4508D02*
Y-4458D01*
X4217Y-3531D02*
X4267D01*
X4242Y-3556D02*
Y-3506D01*
X2528Y-3594D02*
X2578D01*
X2553Y-3619D02*
Y-3569D01*
X1703Y-1586D02*
X1723D01*
X1713Y-1596D02*
Y-1576D01*
X1546Y-1586D02*
X1566D01*
X1556Y-1596D02*
Y-1576D01*
X1546Y-1332D02*
X1566D01*
X1556Y-1342D02*
Y-1322D01*
X1703Y-1332D02*
X1723D01*
X1713Y-1342D02*
Y-1322D01*
X1703Y-1459D02*
X1723D01*
X1713Y-1469D02*
Y-1449D01*
X1546Y-1459D02*
X1566D01*
X1556Y-1469D02*
Y-1449D01*
X1424Y-1459D02*
X1444D01*
X1435Y-1469D02*
Y-1449D01*
X1825Y-1459D02*
X1844D01*
X1834Y-1469D02*
Y-1449D01*
M02*
