G04*
G04 #@! TF.GenerationSoftware,Altium Limited,Altium Designer,23.10.1 (27)*
G04*
G04 Layer_Color=2752767*
%FSLAX42Y42*%
%MOMM*%
G71*
G04*
G04 #@! TF.SameCoordinates,D45A84C9-24EE-431E-81B0-E16C7BED9CBD*
G04*
G04*
G04 #@! TF.FilePolarity,Positive*
G04*
G01*
G75*
%ADD13C,0.13*%
%ADD105C,0.17*%
D13*
X483Y-5131D02*
X432Y-5029D01*
X533D01*
X483Y-5131D01*
Y-4877D02*
X432Y-4775D01*
X533D01*
X483Y-4877D01*
X737Y-5131D02*
X686Y-5029D01*
X787D01*
X737Y-5131D01*
Y-4877D02*
X686Y-4775D01*
X787D01*
X737Y-4877D01*
X991Y-5131D02*
X940Y-5029D01*
X1041D01*
X991Y-5131D01*
Y-4877D02*
X940Y-4775D01*
X1041D01*
X991Y-4877D01*
X1245Y-5131D02*
X1194Y-5029D01*
X1295D01*
X1245Y-5131D01*
Y-4877D02*
X1194Y-4775D01*
X1295D01*
X1245Y-4877D01*
X1499Y-5131D02*
X1448Y-5029D01*
X1549D01*
X1499Y-5131D01*
Y-4877D02*
X1448Y-4775D01*
X1549D01*
X1499Y-4877D01*
X1753Y-5131D02*
X1702Y-5029D01*
X1803D01*
X1753Y-5131D01*
Y-4877D02*
X1702Y-4775D01*
X1803D01*
X1753Y-4877D01*
X2007Y-5131D02*
X1956Y-5029D01*
X2057D01*
X2007Y-5131D01*
Y-4877D02*
X1956Y-4775D01*
X2057D01*
X2007Y-4877D01*
X2261Y-5131D02*
X2210Y-5029D01*
X2311D01*
X2261Y-5131D01*
Y-4877D02*
X2210Y-4775D01*
X2311D01*
X2261Y-4877D01*
X2515Y-5131D02*
X2464Y-5029D01*
X2565D01*
X2515Y-5131D01*
Y-4877D02*
X2464Y-4775D01*
X2565D01*
X2515Y-4877D01*
X2769Y-5131D02*
X2718Y-5029D01*
X2819D01*
X2769Y-5131D01*
Y-4877D02*
X2718Y-4775D01*
X2819D01*
X2769Y-4877D01*
X3023Y-5131D02*
X2972Y-5029D01*
X3073D01*
X3023Y-5131D01*
Y-4877D02*
X2972Y-4775D01*
X3073D01*
X3023Y-4877D01*
X3277Y-5131D02*
X3226Y-5029D01*
X3327D01*
X3277Y-5131D01*
Y-4877D02*
X3226Y-4775D01*
X3327D01*
X3277Y-4877D01*
X3531Y-5131D02*
X3480Y-5029D01*
X3581D01*
X3531Y-5131D01*
Y-4877D02*
X3480Y-4775D01*
X3581D01*
X3531Y-4877D01*
X3785Y-5131D02*
X3734Y-5029D01*
X3835D01*
X3785Y-5131D01*
Y-4877D02*
X3734Y-4775D01*
X3835D01*
X3785Y-4877D01*
X4039Y-5131D02*
X3988Y-5029D01*
X4089D01*
X4039Y-5131D01*
Y-4877D02*
X3988Y-4775D01*
X4089D01*
X4039Y-4877D01*
X4293Y-5131D02*
X4242Y-5029D01*
X4343D01*
X4293Y-5131D01*
Y-4877D02*
X4242Y-4775D01*
X4343D01*
X4293Y-4877D01*
X4547Y-5131D02*
X4496Y-5029D01*
X4597D01*
X4547Y-5131D01*
Y-4877D02*
X4496Y-4775D01*
X4597D01*
X4547Y-4877D01*
X4801Y-5131D02*
X4750Y-5029D01*
X4851D01*
X4801Y-5131D01*
Y-4877D02*
X4750Y-4775D01*
X4851D01*
X4801Y-4877D01*
X5055Y-5131D02*
X5004Y-5029D01*
X5105D01*
X5055Y-5131D01*
Y-4877D02*
X5004Y-4775D01*
X5105D01*
X5055Y-4877D01*
X5309Y-5131D02*
X5258Y-5029D01*
X5359D01*
X5309Y-5131D01*
Y-4877D02*
X5258Y-4775D01*
X5359D01*
X5309Y-4877D01*
X102Y-2350D02*
X127D01*
X152Y-2324D01*
X178Y-2350D01*
X203D01*
Y-2324D01*
X178Y-2299D01*
X203Y-2273D01*
Y-2248D01*
X178D01*
X152Y-2273D01*
X127Y-2248D01*
X102D01*
Y-2273D01*
X127Y-2299D01*
X102Y-2324D01*
Y-2350D01*
X813D02*
X838D01*
X864Y-2324D01*
X889Y-2350D01*
X914D01*
Y-2324D01*
X889Y-2299D01*
X914Y-2273D01*
Y-2248D01*
X889D01*
X864Y-2273D01*
X838Y-2248D01*
X813D01*
Y-2273D01*
X838Y-2299D01*
X813Y-2324D01*
Y-2350D01*
X5702Y-931D02*
X5651Y-830D01*
X5753D01*
X5702Y-931D01*
Y-1181D02*
X5651Y-1080D01*
X5753D01*
X5702Y-1181D01*
X4403Y-4024D02*
X4428Y-3999D01*
X4454D01*
X4428Y-3973D01*
X4454Y-3948D01*
X4428D01*
X4403Y-3923D01*
X4378Y-3948D01*
X4352D01*
X4378Y-3973D01*
X4352Y-3999D01*
X4378D01*
X4403Y-4024D01*
X4153D02*
X4178Y-3999D01*
X4204D01*
X4178Y-3973D01*
X4204Y-3948D01*
X4178D01*
X4153Y-3923D01*
X4128Y-3948D01*
X4102D01*
X4128Y-3973D01*
X4102Y-3999D01*
X4128D01*
X4153Y-4024D01*
X3903D02*
X3928Y-3999D01*
X3954D01*
X3928Y-3973D01*
X3954Y-3948D01*
X3928D01*
X3903Y-3923D01*
X3878Y-3948D01*
X3852D01*
X3878Y-3973D01*
X3852Y-3999D01*
X3878D01*
X3903Y-4024D01*
X5048Y-2018D02*
X5073Y-1992D01*
X5099D01*
X5073Y-1967D01*
X5099Y-1941D01*
X5073D01*
X5048Y-1916D01*
X5022Y-1941D01*
X4997D01*
X5022Y-1967D01*
X4997Y-1992D01*
X5022D01*
X5048Y-2018D01*
X5298D02*
X5323Y-1992D01*
X5349D01*
X5323Y-1967D01*
X5349Y-1941D01*
X5323D01*
X5298Y-1916D01*
X5272Y-1941D01*
X5247D01*
X5272Y-1967D01*
X5247Y-1992D01*
X5272D01*
X5298Y-2018D01*
X5548D02*
X5573Y-1992D01*
X5599D01*
X5573Y-1967D01*
X5599Y-1941D01*
X5573D01*
X5548Y-1916D01*
X5522Y-1941D01*
X5497D01*
X5522Y-1967D01*
X5497Y-1992D01*
X5522D01*
X5548Y-2018D01*
X5798D02*
X5823Y-1992D01*
X5849D01*
X5823Y-1967D01*
X5849Y-1941D01*
X5823D01*
X5798Y-1916D01*
X5772Y-1941D01*
X5747D01*
X5772Y-1967D01*
X5747Y-1992D01*
X5772D01*
X5798Y-2018D01*
X711Y-3810D02*
X737Y-3759D01*
X711Y-3708D01*
X762Y-3734D01*
X813Y-3708D01*
X787Y-3759D01*
X813Y-3810D01*
X762Y-3785D01*
X711Y-3810D01*
X0D02*
X25Y-3759D01*
X0Y-3708D01*
X51Y-3734D01*
X102Y-3708D01*
X76Y-3759D01*
X102Y-3810D01*
X51Y-3785D01*
X0Y-3810D01*
X5749Y-51D02*
Y51D01*
X5851D01*
Y-51D01*
X5749D01*
X-51D02*
Y51D01*
X51D01*
Y-51D01*
X-51D01*
Y-4951D02*
Y-4849D01*
X51D01*
Y-4951D01*
X-51D01*
X5766Y-4966D02*
Y-4864D01*
X5867D01*
Y-4966D01*
X5766D01*
X4407Y-2007D02*
X4432Y-1981D01*
X4458D01*
X4432Y-1956D01*
X4458Y-1930D01*
X4432D01*
X4407Y-1905D01*
X4381Y-1930D01*
X4356D01*
X4381Y-1956D01*
X4356Y-1981D01*
X4381D01*
X4407Y-2007D01*
X4157D02*
X4182Y-1981D01*
X4208D01*
X4182Y-1956D01*
X4208Y-1930D01*
X4182D01*
X4157Y-1905D01*
X4131Y-1930D01*
X4106D01*
X4131Y-1956D01*
X4106Y-1981D01*
X4131D01*
X4157Y-2007D01*
X3907D02*
X3932Y-1981D01*
X3958D01*
X3932Y-1956D01*
X3958Y-1930D01*
X3932D01*
X3907Y-1905D01*
X3881Y-1930D01*
X3856D01*
X3881Y-1956D01*
X3856Y-1981D01*
X3881D01*
X3907Y-2007D01*
X4403Y-3023D02*
X4428Y-2997D01*
X4454D01*
X4428Y-2972D01*
X4454Y-2946D01*
X4428D01*
X4403Y-2921D01*
X4378Y-2946D01*
X4352D01*
X4378Y-2972D01*
X4352Y-2997D01*
X4378D01*
X4403Y-3023D01*
X4153D02*
X4178Y-2997D01*
X4204D01*
X4178Y-2972D01*
X4204Y-2946D01*
X4178D01*
X4153Y-2921D01*
X4128Y-2946D01*
X4102D01*
X4128Y-2972D01*
X4102Y-2997D01*
X4128D01*
X4153Y-3023D01*
X3903D02*
X3928Y-2997D01*
X3954D01*
X3928Y-2972D01*
X3954Y-2946D01*
X3928D01*
X3903Y-2921D01*
X3878Y-2946D01*
X3852D01*
X3878Y-2972D01*
X3852Y-2997D01*
X3878D01*
X3903Y-3023D01*
X5050Y-4039D02*
X5075Y-4013D01*
X5101D01*
X5075Y-3988D01*
X5101Y-3962D01*
X5075D01*
X5050Y-3937D01*
X5024Y-3962D01*
X4999D01*
X5024Y-3988D01*
X4999Y-4013D01*
X5024D01*
X5050Y-4039D01*
X5300D02*
X5325Y-4013D01*
X5351D01*
X5325Y-3988D01*
X5351Y-3962D01*
X5325D01*
X5300Y-3937D01*
X5274Y-3962D01*
X5249D01*
X5274Y-3988D01*
X5249Y-4013D01*
X5274D01*
X5300Y-4039D01*
X5550D02*
X5575Y-4013D01*
X5601D01*
X5575Y-3988D01*
X5601Y-3962D01*
X5575D01*
X5550Y-3937D01*
X5524Y-3962D01*
X5499D01*
X5524Y-3988D01*
X5499Y-4013D01*
X5524D01*
X5550Y-4039D01*
X5800D02*
X5825Y-4013D01*
X5851D01*
X5825Y-3988D01*
X5851Y-3962D01*
X5825D01*
X5800Y-3937D01*
X5774Y-3962D01*
X5749D01*
X5774Y-3988D01*
X5749Y-4013D01*
X5774D01*
X5800Y-4039D01*
X5048Y-3021D02*
X5073Y-2995D01*
X5099D01*
X5073Y-2970D01*
X5099Y-2945D01*
X5073D01*
X5048Y-2919D01*
X5022Y-2945D01*
X4997D01*
X5022Y-2970D01*
X4997Y-2995D01*
X5022D01*
X5048Y-3021D01*
X5298D02*
X5323Y-2995D01*
X5349D01*
X5323Y-2970D01*
X5349Y-2945D01*
X5323D01*
X5298Y-2919D01*
X5272Y-2945D01*
X5247D01*
X5272Y-2970D01*
X5247Y-2995D01*
X5272D01*
X5298Y-3021D01*
X5548D02*
X5573Y-2995D01*
X5599D01*
X5573Y-2970D01*
X5599Y-2945D01*
X5573D01*
X5548Y-2919D01*
X5522Y-2945D01*
X5497D01*
X5522Y-2970D01*
X5497Y-2995D01*
X5522D01*
X5548Y-3021D01*
X5798D02*
X5823Y-2995D01*
X5849D01*
X5823Y-2970D01*
X5849Y-2945D01*
X5823D01*
X5798Y-2919D01*
X5772Y-2945D01*
X5747D01*
X5772Y-2970D01*
X5747Y-2995D01*
X5772D01*
X5798Y-3021D01*
X2045Y-1334D02*
Y-1232D01*
X2146D01*
Y-1334D01*
X2045D01*
X2065Y-1313D02*
Y-1252D01*
X2126D01*
Y-1313D01*
X2065D01*
X2616Y-1753D02*
Y-1651D01*
X2718D01*
Y-1753D01*
X2616D01*
X2637Y-1732D02*
Y-1671D01*
X2697D01*
Y-1732D01*
X2637D01*
X3048Y-89D02*
Y13D01*
X3150D01*
Y-89D01*
X3048D01*
X3068Y-69D02*
Y-8D01*
X3129D01*
Y-69D01*
X3068D01*
X3365Y-686D02*
Y-584D01*
X3467D01*
Y-686D01*
X3365D01*
X3386Y-665D02*
Y-605D01*
X3447D01*
Y-665D01*
X3386D01*
X3378Y-368D02*
Y-267D01*
X3480D01*
Y-368D01*
X3378D01*
X3399Y-348D02*
Y-287D01*
X3459D01*
Y-348D01*
X3399D01*
X3581Y-1041D02*
Y-940D01*
X3683D01*
Y-1041D01*
X3581D01*
X3602Y-1021D02*
Y-960D01*
X3663D01*
Y-1021D01*
X3602D01*
X1549Y-826D02*
Y-724D01*
X1651D01*
Y-826D01*
X1549D01*
X1570Y-805D02*
Y-744D01*
X1631D01*
Y-805D01*
X1570D01*
X2464Y-889D02*
Y-787D01*
X2565D01*
Y-889D01*
X2464D01*
X2484Y-869D02*
Y-808D01*
X2545D01*
Y-869D01*
X2484D01*
X2337Y-724D02*
Y-622D01*
X2438D01*
Y-724D01*
X2337D01*
X2357Y-704D02*
Y-643D01*
X2418D01*
Y-704D01*
X2357D01*
X1727Y-673D02*
Y-572D01*
X1829D01*
Y-673D01*
X1727D01*
X1748Y-653D02*
Y-592D01*
X1808D01*
Y-653D01*
X1748D01*
X2223Y-3810D02*
Y-3708D01*
X2324D01*
Y-3810D01*
X2223D01*
X2243Y-3790D02*
Y-3729D01*
X2304D01*
Y-3790D01*
X2243D01*
X4166Y-2565D02*
Y-2464D01*
X4267D01*
Y-2565D01*
X4166D01*
X4186Y-2545D02*
Y-2484D01*
X4247D01*
Y-2545D01*
X4186D01*
X5347Y-2553D02*
Y-2451D01*
X5448D01*
Y-2553D01*
X5347D01*
X5367Y-2532D02*
Y-2471D01*
X5428D01*
Y-2532D01*
X5367D01*
X5347Y-3581D02*
Y-3480D01*
X5448D01*
Y-3581D01*
X5347D01*
X5367Y-3561D02*
Y-3500D01*
X5428D01*
Y-3561D01*
X5367D01*
X5359Y-4534D02*
Y-4432D01*
X5461D01*
Y-4534D01*
X5359D01*
X5380Y-4514D02*
Y-4453D01*
X5441D01*
Y-4514D01*
X5380D01*
X4204Y-4534D02*
Y-4432D01*
X4305D01*
Y-4534D01*
X4204D01*
X4224Y-4514D02*
Y-4453D01*
X4285D01*
Y-4514D01*
X4224D01*
X4191Y-3581D02*
Y-3480D01*
X4293D01*
Y-3581D01*
X4191D01*
X4211Y-3561D02*
Y-3500D01*
X4272D01*
Y-3561D01*
X4211D01*
X2502Y-3645D02*
Y-3543D01*
X2603D01*
Y-3645D01*
X2502D01*
X2522Y-3625D02*
Y-3564D01*
X2583D01*
Y-3625D01*
X2522D01*
X1688Y-1611D02*
Y-1637D01*
X1739D01*
Y-1611D01*
X1764D01*
Y-1561D01*
X1739D01*
Y-1535D01*
X1688D01*
Y-1561D01*
X1662D01*
Y-1611D01*
X1688D01*
X1530D02*
Y-1637D01*
X1581D01*
Y-1611D01*
X1607D01*
Y-1561D01*
X1581D01*
Y-1535D01*
X1530D01*
Y-1561D01*
X1505D01*
Y-1611D01*
X1530D01*
Y-1357D02*
Y-1383D01*
X1581D01*
Y-1357D01*
X1607D01*
Y-1307D01*
X1581D01*
Y-1281D01*
X1530D01*
Y-1307D01*
X1505D01*
Y-1357D01*
X1530D01*
X1688D02*
Y-1383D01*
X1739D01*
Y-1357D01*
X1764D01*
Y-1307D01*
X1739D01*
Y-1281D01*
X1688D01*
Y-1307D01*
X1662D01*
Y-1357D01*
X1688D01*
Y-1485D02*
Y-1510D01*
X1739D01*
Y-1485D01*
X1764D01*
Y-1434D01*
X1739D01*
Y-1408D01*
X1688D01*
Y-1434D01*
X1662D01*
Y-1485D01*
X1688D01*
X1530D02*
Y-1510D01*
X1581D01*
Y-1485D01*
X1607D01*
Y-1434D01*
X1581D01*
Y-1408D01*
X1530D01*
Y-1434D01*
X1505D01*
Y-1485D01*
X1530D01*
X1409D02*
Y-1510D01*
X1460D01*
Y-1485D01*
X1485D01*
Y-1434D01*
X1460D01*
Y-1408D01*
X1409D01*
Y-1434D01*
X1384D01*
Y-1485D01*
X1409D01*
X1809D02*
Y-1510D01*
X1860D01*
Y-1485D01*
X1885D01*
Y-1434D01*
X1860D01*
Y-1408D01*
X1809D01*
Y-1434D01*
X1784D01*
Y-1485D01*
X1809D01*
D105*
X5051Y-1250D02*
G03*
X5051Y-1250I-51J0D01*
G01*
X851Y-50D02*
G03*
X851Y-50I-51J0D01*
G01*
Y-1250D02*
G03*
X851Y-1250I-51J0D01*
G01*
X5051Y-50D02*
G03*
X5051Y-50I-51J0D01*
G01*
M02*
