G04*
G04 #@! TF.GenerationSoftware,Altium Limited,Altium Designer,23.10.1 (27)*
G04*
G04 Layer_Physical_Order=6*
G04 Layer_Color=16711680*
%FSLAX42Y42*%
%MOMM*%
G71*
G04*
G04 #@! TF.SameCoordinates,D45A84C9-24EE-431E-81B0-E16C7BED9CBD*
G04*
G04*
G04 #@! TF.FilePolarity,Positive*
G04*
G01*
G75*
%ADD17C,0.25*%
%ADD31C,1.65*%
%ADD32R,1.65X1.65*%
%ADD35C,1.55*%
%ADD36R,1.55X1.55*%
%ADD37C,1.40*%
%ADD38R,1.40X1.40*%
%ADD43C,6.35*%
%ADD44C,4.40*%
%ADD45R,3.81X9.53*%
%ADD46C,5.00*%
%ADD47C,1.00*%
%ADD48C,0.50*%
%ADD65R,2.25X2.85*%
%ADD66R,3.30X2.50*%
%ADD67R,7.00X3.50*%
%ADD68R,5.40X1.70*%
%ADD69R,2.50X2.00*%
%ADD70R,1.50X1.55*%
%ADD71R,2.05X2.20*%
%ADD72R,0.61X1.18*%
%ADD73R,2.30X3.30*%
%ADD74R,0.53X0.40*%
%ADD75R,0.86X1.61*%
%ADD76R,1.25X1.80*%
%ADD77R,1.85X1.35*%
%ADD78R,1.00X0.80*%
%ADD79R,1.45X3.40*%
G04:AMPARAMS|DCode=80|XSize=0.4mm|YSize=0.8mm|CornerRadius=0.05mm|HoleSize=0mm|Usage=FLASHONLY|Rotation=180.000|XOffset=0mm|YOffset=0mm|HoleType=Round|Shape=RoundedRectangle|*
%AMROUNDEDRECTD80*
21,1,0.40,0.70,0,0,180.0*
21,1,0.30,0.80,0,0,180.0*
1,1,0.10,-0.15,0.35*
1,1,0.10,0.15,0.35*
1,1,0.10,0.15,-0.35*
1,1,0.10,-0.15,-0.35*
%
%ADD80ROUNDEDRECTD80*%
G04:AMPARAMS|DCode=81|XSize=5mm|YSize=3.2mm|CornerRadius=0.05mm|HoleSize=0mm|Usage=FLASHONLY|Rotation=180.000|XOffset=0mm|YOffset=0mm|HoleType=Round|Shape=RoundedRectangle|*
%AMROUNDEDRECTD81*
21,1,5.00,3.10,0,0,180.0*
21,1,4.90,3.20,0,0,180.0*
1,1,0.10,-2.45,1.55*
1,1,0.10,2.45,1.55*
1,1,0.10,2.45,-1.55*
1,1,0.10,-2.45,-1.55*
%
%ADD81ROUNDEDRECTD81*%
G36*
X6172Y178D02*
Y-5105D01*
X5994Y-5283D01*
X-216Y-5283D01*
X-368Y-5131D01*
X-368Y203D01*
X-210Y362D01*
X-190Y368D01*
X5982D01*
X6172Y178D01*
D02*
G37*
%LPC*%
G36*
X2843Y303D02*
X2705D01*
Y190D01*
X2843D01*
Y303D01*
D02*
G37*
G36*
X2680D02*
X2542D01*
Y190D01*
X2680D01*
Y303D01*
D02*
G37*
G36*
X1731Y227D02*
X1448D01*
Y129D01*
X1731D01*
Y227D01*
D02*
G37*
G36*
X1422D02*
X1140D01*
Y129D01*
X1422D01*
Y227D01*
D02*
G37*
G36*
X2391Y226D02*
X2108D01*
Y128D01*
X2391D01*
Y226D01*
D02*
G37*
G36*
X2083D02*
X1800D01*
Y128D01*
X2083D01*
Y226D01*
D02*
G37*
G36*
X2843Y165D02*
X2705D01*
Y52D01*
X2843D01*
Y165D01*
D02*
G37*
G36*
X2680D02*
X2542D01*
Y52D01*
X2680D01*
Y165D01*
D02*
G37*
G36*
X5822Y275D02*
X5813D01*
Y13D01*
X6075D01*
Y22D01*
X6069Y64D01*
X6055Y106D01*
X6036Y144D01*
X6010Y179D01*
X5979Y210D01*
X5944Y236D01*
X5906Y255D01*
X5864Y269D01*
X5822Y275D01*
D02*
G37*
G36*
X5787D02*
X5778D01*
X5736Y269D01*
X5694Y255D01*
X5656Y236D01*
X5621Y210D01*
X5590Y179D01*
X5564Y144D01*
X5545Y106D01*
X5531Y64D01*
X5525Y22D01*
Y13D01*
X5787D01*
Y275D01*
D02*
G37*
G36*
X22D02*
X13D01*
Y13D01*
X275D01*
Y22D01*
X269Y64D01*
X255Y106D01*
X236Y144D01*
X210Y179D01*
X179Y210D01*
X144Y236D01*
X106Y255D01*
X64Y269D01*
X22Y275D01*
D02*
G37*
G36*
X-13D02*
X-22D01*
X-64Y269D01*
X-106Y255D01*
X-144Y236D01*
X-179Y210D01*
X-210Y179D01*
X-236Y144D01*
X-255Y106D01*
X-269Y64D01*
X-275Y22D01*
Y13D01*
X-13D01*
Y275D01*
D02*
G37*
G36*
X1731Y104D02*
X1448D01*
Y6D01*
X1731D01*
Y104D01*
D02*
G37*
G36*
X1422D02*
X1140D01*
Y6D01*
X1422D01*
Y104D01*
D02*
G37*
G36*
X2391Y103D02*
X2108D01*
Y5D01*
X2391D01*
Y103D01*
D02*
G37*
G36*
X2083D02*
X1800D01*
Y5D01*
X2083D01*
Y103D01*
D02*
G37*
G36*
X4481Y178D02*
X3698D01*
X3698Y178D01*
X3696D01*
X3694Y178D01*
X3693D01*
X3693Y178D01*
X3693Y178D01*
X3690Y178D01*
X3688Y177D01*
X3686Y176D01*
X3684Y175D01*
X3683Y175D01*
X3683Y175D01*
X3683Y174D01*
X3681Y173D01*
X3679Y172D01*
X3679Y172D01*
X3610Y123D01*
X3608Y121D01*
X3607Y120D01*
X3606Y120D01*
X3605Y117D01*
X3603Y115D01*
X3602Y114D01*
X3601Y111D01*
X3600Y108D01*
X3599Y106D01*
X3599Y105D01*
X3599Y101D01*
X3600Y97D01*
X3600Y96D01*
X3600Y95D01*
X3601Y92D01*
X3603Y87D01*
X3604Y87D01*
X3604Y86D01*
X3606Y83D01*
Y0D01*
X3574D01*
X3574Y0D01*
Y56D01*
X3534D01*
X3531Y57D01*
X3527Y56D01*
X3470D01*
Y46D01*
X3457D01*
X3442Y43D01*
X3430Y34D01*
X3216Y-180D01*
X3199D01*
Y-121D01*
X3196Y-106D01*
X3187Y-93D01*
X3166Y-72D01*
X3169Y-67D01*
X3174Y-48D01*
Y-28D01*
X3169Y-9D01*
X3159Y8D01*
X3145Y22D01*
X3128Y32D01*
X3109Y37D01*
X3089D01*
X3070Y32D01*
X3053Y22D01*
X3038Y8D01*
X3029Y-9D01*
X3023Y-28D01*
Y-48D01*
X3029Y-67D01*
X3038Y-84D01*
X3053Y-98D01*
X3070Y-108D01*
X3089Y-113D01*
X3097D01*
X3121Y-137D01*
Y-180D01*
X3104D01*
Y-349D01*
X3216D01*
Y-257D01*
X3232D01*
X3246Y-254D01*
X3251Y-252D01*
Y-332D01*
X3247Y-335D01*
X3246Y-338D01*
X3244Y-339D01*
X3243Y-341D01*
X3243Y-341D01*
D01*
X3242Y-343D01*
X3242Y-344D01*
X3242Y-344D01*
X3242Y-344D01*
X3239Y-351D01*
X3239Y-361D01*
X3242Y-367D01*
X3242Y-367D01*
X3242Y-368D01*
X3243Y-370D01*
D01*
X3243Y-370D01*
X3244Y-372D01*
X3246Y-374D01*
X3247Y-376D01*
X3254Y-382D01*
X3257Y-386D01*
X3195D01*
Y-457D01*
X3251D01*
X3307D01*
Y-435D01*
X3307Y-436D01*
X3309Y-437D01*
X3311Y-439D01*
X3313Y-440D01*
X3313Y-440D01*
X3316Y-441D01*
X3316Y-441D01*
X3316Y-441D01*
X3319Y-443D01*
X3320Y-443D01*
X3320Y-443D01*
X3320Y-443D01*
X3323Y-444D01*
X3323D01*
X3325Y-445D01*
X3327D01*
X3330Y-445D01*
X3503D01*
X3505Y-445D01*
X3508D01*
X3511Y-444D01*
X3513Y-443D01*
X3514Y-443D01*
Y-520D01*
X3461Y-574D01*
X3445Y-565D01*
X3426Y-560D01*
X3406D01*
X3387Y-565D01*
X3370Y-575D01*
X3356Y-589D01*
X3346Y-606D01*
X3341Y-625D01*
Y-645D01*
X3346Y-664D01*
X3356Y-681D01*
X3370Y-695D01*
X3387Y-705D01*
X3406Y-710D01*
X3426D01*
X3445Y-705D01*
X3463Y-695D01*
X3477Y-681D01*
X3487Y-664D01*
X3490Y-651D01*
X3502Y-643D01*
X3569Y-575D01*
X3750D01*
Y-390D01*
X3571D01*
X3621Y-340D01*
X3621Y-340D01*
X3623Y-341D01*
X3625Y-341D01*
X3628Y-342D01*
X3630Y-343D01*
X3633D01*
X3635Y-343D01*
X4061D01*
X4064Y-343D01*
X4067Y-343D01*
X4069Y-342D01*
D01*
D01*
X4069Y-342D01*
X4071Y-341D01*
X4071Y-341D01*
X4071Y-341D01*
X4073Y-341D01*
X4076Y-340D01*
X4076Y-340D01*
X4076Y-340D01*
X4078Y-339D01*
X4078Y-339D01*
D01*
D01*
X4080Y-337D01*
X4082Y-335D01*
X4084Y-334D01*
X4104Y-314D01*
Y-549D01*
X4203D01*
Y-628D01*
X4171Y-660D01*
Y-617D01*
X3975D01*
Y-1008D01*
X4171D01*
Y-755D01*
X4184Y-753D01*
X4196Y-745D01*
X4269Y-672D01*
X4278Y-659D01*
X4281Y-644D01*
Y-549D01*
X4380D01*
Y-420D01*
X4534D01*
X4662Y-548D01*
X4675Y-557D01*
X4677Y-557D01*
X4690Y-560D01*
X5077D01*
X5599Y-1082D01*
Y-1233D01*
X5805D01*
Y-1027D01*
X5654D01*
X5120Y-493D01*
X5108Y-485D01*
X5093Y-482D01*
X4706D01*
X4577Y-354D01*
X4565Y-345D01*
X4550Y-342D01*
X4380D01*
Y-242D01*
X4455D01*
X4458Y-241D01*
X4460Y-241D01*
X4463Y-241D01*
X4463D01*
X4463Y-241D01*
X4463D01*
X4465Y-240D01*
X4465Y-240D01*
X4465Y-240D01*
X4465Y-240D01*
X4468Y-239D01*
X4469Y-238D01*
X4470Y-238D01*
X4472Y-237D01*
X4472Y-237D01*
D01*
D01*
X4473Y-236D01*
X4473Y-236D01*
X4473Y-236D01*
X4474Y-236D01*
X4476Y-234D01*
X4477Y-233D01*
X4477Y-233D01*
D01*
X4478Y-232D01*
X4500Y-211D01*
X4501Y-208D01*
X4503Y-207D01*
X4504Y-205D01*
X4505Y-202D01*
X4505Y-202D01*
X4505Y-202D01*
X4506Y-200D01*
X4507Y-198D01*
X4507Y-198D01*
X4507Y-198D01*
X4508Y-195D01*
X4508Y-193D01*
Y-190D01*
X4509Y-188D01*
Y-157D01*
X4773Y-421D01*
X4786Y-430D01*
X4801Y-433D01*
X5200D01*
X5607Y-840D01*
X5606Y-841D01*
X5599Y-867D01*
Y-894D01*
X5606Y-920D01*
X5620Y-943D01*
X5639Y-963D01*
X5663Y-976D01*
X5689Y-983D01*
X5716D01*
X5742Y-976D01*
X5765Y-963D01*
X5785Y-943D01*
X5798Y-920D01*
X5805Y-894D01*
Y-867D01*
X5798Y-841D01*
X5785Y-817D01*
X5765Y-798D01*
X5742Y-784D01*
X5716Y-777D01*
X5689D01*
X5663Y-784D01*
X5662Y-785D01*
X5243Y-366D01*
X5231Y-358D01*
X5216Y-355D01*
X4817D01*
X4502Y-40D01*
X4503Y-38D01*
X4505Y-36D01*
X4506Y-34D01*
X4507Y-32D01*
X4508Y-29D01*
X4508Y-27D01*
Y-24D01*
X4509Y-22D01*
Y150D01*
X4508Y152D01*
Y155D01*
X4508Y157D01*
X4507Y159D01*
X4507Y160D01*
X4507Y160D01*
X4504Y166D01*
X4497Y174D01*
X4493Y175D01*
X4491Y176D01*
X4490Y176D01*
X4490Y176D01*
X4488Y177D01*
X4486Y178D01*
X4483D01*
X4481Y178D01*
D02*
G37*
G36*
X5024Y195D02*
X5013D01*
Y-37D01*
X5245D01*
Y-26D01*
X5236Y22D01*
X5217Y66D01*
X5191Y106D01*
X5156Y141D01*
X5116Y167D01*
X5072Y186D01*
X5024Y195D01*
D02*
G37*
G36*
X4987D02*
X4976D01*
X4928Y186D01*
X4884Y167D01*
X4844Y141D01*
X4809Y106D01*
X4783Y66D01*
X4764Y22D01*
X4755Y-26D01*
Y-37D01*
X4987D01*
Y195D01*
D02*
G37*
G36*
X824D02*
X813D01*
Y-37D01*
X1045D01*
Y-26D01*
X1036Y22D01*
X1017Y66D01*
X991Y106D01*
X956Y141D01*
X916Y167D01*
X872Y186D01*
X824Y195D01*
D02*
G37*
G36*
X787D02*
X776D01*
X728Y186D01*
X684Y167D01*
X644Y141D01*
X609Y106D01*
X583Y66D01*
X564Y22D01*
X555Y-26D01*
Y-37D01*
X787D01*
Y195D01*
D02*
G37*
G36*
X2830Y-76D02*
X1174D01*
X1173Y-76D01*
X1171Y-76D01*
X1168Y-76D01*
X1166Y-76D01*
X1164Y-77D01*
X1163Y-77D01*
X1163Y-77D01*
X1163Y-77D01*
X1161Y-78D01*
X1161Y-78D01*
X1161Y-78D01*
X1159Y-79D01*
X1157Y-79D01*
D01*
X1157Y-79D01*
X1155Y-81D01*
X1152Y-82D01*
X1150Y-84D01*
X1148Y-85D01*
X1146Y-87D01*
X1146Y-87D01*
X1146Y-87D01*
X961Y-272D01*
X960Y-274D01*
X958Y-276D01*
X957Y-278D01*
X956Y-280D01*
X956Y-281D01*
D01*
X954Y-284D01*
X954Y-285D01*
X954Y-285D01*
X954Y-285D01*
X953Y-287D01*
X952Y-290D01*
X952Y-292D01*
X952Y-295D01*
Y-1036D01*
X952Y-1036D01*
X952Y-1039D01*
X953Y-1041D01*
X953Y-1044D01*
X953Y-1046D01*
X954Y-1047D01*
X954Y-1047D01*
X954Y-1047D01*
X954Y-1049D01*
X954Y-1049D01*
X954Y-1049D01*
X955Y-1051D01*
X956Y-1053D01*
D01*
X956Y-1053D01*
X957Y-1055D01*
X958Y-1058D01*
X960Y-1059D01*
X961Y-1062D01*
X963Y-1063D01*
X963Y-1063D01*
X963Y-1063D01*
X1199Y-1299D01*
X1201Y-1301D01*
X1203Y-1302D01*
X1205Y-1303D01*
X1207Y-1305D01*
X1208Y-1305D01*
D01*
X1211Y-1306D01*
X1212Y-1307D01*
X1212Y-1307D01*
X1212Y-1307D01*
X1214Y-1307D01*
X1217Y-1308D01*
X1219Y-1308D01*
X1222Y-1309D01*
X1353D01*
X1353Y-1309D01*
X1355D01*
X1358Y-1308D01*
X1359D01*
Y-1446D01*
X1634D01*
X1910D01*
Y-1304D01*
X1908Y-1292D01*
X1906Y-1289D01*
X1911Y-1286D01*
X1918Y-1276D01*
X1920Y-1264D01*
Y-1220D01*
X1991D01*
X2025Y-1254D01*
X2020Y-1273D01*
Y-1293D01*
X2025Y-1312D01*
X2035Y-1329D01*
X2049Y-1343D01*
X2066Y-1353D01*
X2086Y-1358D01*
X2105D01*
X2125Y-1353D01*
X2142Y-1343D01*
X2156Y-1329D01*
X2166Y-1312D01*
X2171Y-1293D01*
Y-1273D01*
X2166Y-1254D01*
X2156Y-1236D01*
X2142Y-1222D01*
X2125Y-1212D01*
X2105Y-1207D01*
X2088D01*
X2050Y-1169D01*
X2206D01*
X2249Y-1212D01*
Y-1360D01*
X2630D01*
Y-1283D01*
X2816D01*
X3083Y-1550D01*
Y-1612D01*
X2921D01*
X2911Y-1614D01*
X2903Y-1620D01*
X2669Y-1854D01*
X2565D01*
Y-1765D01*
X2477D01*
X2389D01*
Y-1854D01*
X2259D01*
Y-1637D01*
X2096D01*
Y-1617D01*
X2229D01*
Y-1405D01*
X2092D01*
Y-1472D01*
X2030Y-1534D01*
X2022Y-1547D01*
X2019Y-1562D01*
Y-1714D01*
X1954D01*
X1929Y-1689D01*
X1920Y-1683D01*
Y-1654D01*
X1918Y-1642D01*
X1911Y-1632D01*
X1906Y-1629D01*
X1908Y-1626D01*
X1910Y-1614D01*
Y-1472D01*
X1634D01*
X1359D01*
Y-1614D01*
X1361Y-1626D01*
X1363Y-1629D01*
X1358Y-1632D01*
X1355Y-1637D01*
X1349Y-1635D01*
X1339Y-1637D01*
X1330Y-1643D01*
X1214Y-1760D01*
X1208Y-1768D01*
X1206Y-1778D01*
Y-2269D01*
X1198Y-2218D01*
X1181Y-2167D01*
X1157Y-2119D01*
X1125Y-2075D01*
X1087Y-2037D01*
X1043Y-2005D01*
X995Y-1981D01*
X944Y-1964D01*
X891Y-1956D01*
X837D01*
X783Y-1964D01*
X732Y-1981D01*
X684Y-2005D01*
X640Y-2037D01*
X602Y-2075D01*
X570Y-2119D01*
X546Y-2167D01*
X529Y-2218D01*
X521Y-2272D01*
Y-2326D01*
X529Y-2379D01*
X546Y-2430D01*
X570Y-2478D01*
X602Y-2522D01*
X640Y-2560D01*
X684Y-2592D01*
X732Y-2616D01*
X783Y-2633D01*
X837Y-2642D01*
X891D01*
X944Y-2633D01*
X995Y-2616D01*
X1043Y-2592D01*
X1087Y-2560D01*
X1125Y-2522D01*
X1157Y-2478D01*
X1181Y-2430D01*
X1198Y-2379D01*
X1206Y-2329D01*
Y-2515D01*
X1208Y-2525D01*
X1214Y-2533D01*
X1438Y-2757D01*
X1437Y-2759D01*
X1437Y-2761D01*
X1436Y-2764D01*
X1435Y-2766D01*
Y-2769D01*
X1435Y-2771D01*
Y-2796D01*
X1253Y-2977D01*
X1252Y-2979D01*
X1250Y-2981D01*
X1249Y-2983D01*
X1249Y-2983D01*
X1248Y-2985D01*
X1248Y-2985D01*
X1248Y-2986D01*
X1246Y-2989D01*
X1246Y-2990D01*
X1246Y-2990D01*
X1246Y-2990D01*
X1245Y-2992D01*
Y-2992D01*
X1245Y-2995D01*
Y-2997D01*
X1244Y-3000D01*
Y-3896D01*
X1245Y-3899D01*
X1245Y-3901D01*
X1245Y-3904D01*
D01*
D01*
X1245Y-3904D01*
X1246Y-3906D01*
X1246Y-3906D01*
X1246Y-3906D01*
X1247Y-3908D01*
X1248Y-3910D01*
X1248Y-3911D01*
X1248Y-3911D01*
X1249Y-3913D01*
X1249Y-3913D01*
D01*
D01*
X1250Y-3915D01*
X1252Y-3917D01*
X1253Y-3919D01*
X1656Y-4322D01*
X1658Y-4323D01*
X1660Y-4325D01*
X1662Y-4326D01*
X1662Y-4326D01*
X1665Y-4327D01*
X1665Y-4327D01*
X1665Y-4327D01*
X1668Y-4329D01*
X1669Y-4329D01*
X1669Y-4329D01*
X1669Y-4329D01*
X1672Y-4330D01*
X1672D01*
X1674Y-4331D01*
X1676D01*
X1679Y-4331D01*
X2893D01*
X2896Y-4331D01*
X2898Y-4331D01*
X2900Y-4330D01*
D01*
D01*
X2900Y-4330D01*
X2903Y-4329D01*
X2903Y-4329D01*
X2903Y-4329D01*
X2905Y-4328D01*
X2907Y-4327D01*
X2907Y-4327D01*
X2907Y-4327D01*
X2910Y-4326D01*
X2910Y-4326D01*
D01*
D01*
X2912Y-4325D01*
X2914Y-4323D01*
X2916Y-4322D01*
X3230Y-4008D01*
X3231Y-4006D01*
X3233Y-4004D01*
X3234Y-4002D01*
X3234Y-4002D01*
X3235Y-4000D01*
X3235Y-4000D01*
X3235Y-3999D01*
X3237Y-3996D01*
X3237Y-3995D01*
X3237Y-3995D01*
X3237Y-3995D01*
X3238Y-3993D01*
Y-3993D01*
X3238Y-3990D01*
Y-3988D01*
X3239Y-3985D01*
Y-3343D01*
X3238Y-3340D01*
Y-3338D01*
X3238Y-3335D01*
X3237Y-3333D01*
X3237Y-3333D01*
X3237Y-3332D01*
X3234Y-3326D01*
X3227Y-3319D01*
X3221Y-3316D01*
X3220Y-3316D01*
X3220Y-3316D01*
X3218Y-3315D01*
X3216Y-3315D01*
X3213D01*
X3211Y-3314D01*
X2906D01*
X2629Y-3037D01*
Y-2911D01*
X2629Y-2908D01*
X2629Y-2906D01*
X2628Y-2903D01*
D01*
D01*
X2628Y-2903D01*
X2627Y-2901D01*
X2627Y-2901D01*
X2627Y-2901D01*
X2627Y-2899D01*
X2626Y-2897D01*
X2626Y-2897D01*
X2626Y-2896D01*
X2625Y-2894D01*
X2625Y-2894D01*
D01*
D01*
X2623Y-2892D01*
X2621Y-2890D01*
X2620Y-2888D01*
X2501Y-2769D01*
X3353D01*
X3363Y-2767D01*
X3371Y-2762D01*
X3498Y-2635D01*
X3504Y-2626D01*
X3506Y-2616D01*
Y-1854D01*
X3504Y-1844D01*
X3498Y-1836D01*
X3282Y-1620D01*
X3274Y-1614D01*
X3264Y-1612D01*
X3160D01*
Y-1534D01*
X3157Y-1519D01*
X3149Y-1507D01*
X2860Y-1217D01*
X2847Y-1209D01*
X2832Y-1206D01*
X2630D01*
Y-1154D01*
X2302D01*
X2250Y-1103D01*
X2237Y-1094D01*
X2229Y-1093D01*
D01*
X2763D01*
X2764Y-1093D01*
X2766Y-1093D01*
X2769Y-1092D01*
X2771Y-1092D01*
X2773Y-1091D01*
X2774Y-1091D01*
X2774Y-1091D01*
X2774Y-1091D01*
X2776Y-1091D01*
X2776Y-1091D01*
X2776Y-1091D01*
X2778Y-1090D01*
X2780Y-1089D01*
D01*
X2780Y-1089D01*
X2782Y-1088D01*
X2785Y-1087D01*
X2787Y-1085D01*
X2789Y-1083D01*
X2791Y-1082D01*
X2791Y-1082D01*
X2791Y-1082D01*
X2950Y-922D01*
X2952Y-920D01*
X2953Y-918D01*
X2954Y-916D01*
X2956Y-913D01*
X2956Y-913D01*
D01*
X2957Y-910D01*
X2958Y-909D01*
X2958Y-909D01*
X2958Y-909D01*
X2958Y-907D01*
X2959Y-904D01*
X2959Y-902D01*
X2960Y-899D01*
Y-208D01*
X2960Y-208D01*
X2960Y-206D01*
X2959Y-203D01*
X2959Y-201D01*
X2958Y-198D01*
X2958Y-198D01*
X2958Y-198D01*
X2958Y-198D01*
X2958Y-196D01*
X2958Y-196D01*
X2958Y-196D01*
X2957Y-194D01*
X2956Y-192D01*
D01*
X2956Y-191D01*
X2954Y-189D01*
X2953Y-187D01*
X2952Y-185D01*
X2950Y-183D01*
X2948Y-181D01*
X2948Y-181D01*
X2948Y-181D01*
X2915Y-148D01*
X2852Y-85D01*
X2850Y-84D01*
X2848Y-82D01*
X2846Y-81D01*
X2844Y-79D01*
X2844Y-79D01*
D01*
X2840Y-78D01*
X2840Y-78D01*
X2840Y-78D01*
X2839Y-78D01*
X2837Y-77D01*
X2835Y-76D01*
X2832Y-76D01*
X2830Y-76D01*
D02*
G37*
G36*
X6075Y-13D02*
X5813D01*
Y-275D01*
X5822D01*
X5864Y-269D01*
X5906Y-255D01*
X5944Y-236D01*
X5979Y-210D01*
X6010Y-179D01*
X6036Y-144D01*
X6055Y-106D01*
X6069Y-64D01*
X6075Y-22D01*
Y-13D01*
D02*
G37*
G36*
X5787D02*
X5525D01*
Y-22D01*
X5531Y-64D01*
X5545Y-106D01*
X5564Y-144D01*
X5590Y-179D01*
X5621Y-210D01*
X5656Y-236D01*
X5694Y-255D01*
X5736Y-269D01*
X5778Y-275D01*
X5787D01*
Y-13D01*
D02*
G37*
G36*
X275D02*
X13D01*
Y-275D01*
X22D01*
X64Y-269D01*
X106Y-255D01*
X144Y-236D01*
X179Y-210D01*
X210Y-179D01*
X236Y-144D01*
X255Y-106D01*
X269Y-64D01*
X275Y-22D01*
Y-13D01*
D02*
G37*
G36*
X-13D02*
X-275D01*
Y-22D01*
X-269Y-64D01*
X-255Y-106D01*
X-236Y-144D01*
X-210Y-179D01*
X-179Y-210D01*
X-144Y-236D01*
X-106Y-255D01*
X-64Y-269D01*
X-22Y-275D01*
X-13D01*
Y-13D01*
D02*
G37*
G36*
X5245Y-63D02*
X5013D01*
Y-295D01*
X5024D01*
X5072Y-286D01*
X5116Y-267D01*
X5156Y-241D01*
X5191Y-206D01*
X5217Y-166D01*
X5236Y-122D01*
X5245Y-74D01*
Y-63D01*
D02*
G37*
G36*
X4987D02*
X4755D01*
Y-74D01*
X4764Y-122D01*
X4783Y-166D01*
X4809Y-206D01*
X4844Y-241D01*
X4884Y-267D01*
X4928Y-286D01*
X4976Y-295D01*
X4987D01*
Y-63D01*
D02*
G37*
G36*
X1045D02*
X813D01*
Y-295D01*
X824D01*
X872Y-286D01*
X916Y-267D01*
X956Y-241D01*
X991Y-206D01*
X1017Y-166D01*
X1036Y-122D01*
X1045Y-74D01*
Y-63D01*
D02*
G37*
G36*
X787D02*
X555D01*
Y-74D01*
X564Y-122D01*
X583Y-166D01*
X609Y-206D01*
X644Y-241D01*
X684Y-267D01*
X728Y-286D01*
X776Y-295D01*
X787D01*
Y-63D01*
D02*
G37*
G36*
X3307Y-483D02*
X3264D01*
Y-554D01*
X3307D01*
Y-483D01*
D02*
G37*
G36*
X3238D02*
X3195D01*
Y-554D01*
X3238D01*
Y-483D01*
D02*
G37*
G36*
X3750Y-695D02*
X3514D01*
Y-880D01*
X3593D01*
Y-926D01*
X3586Y-930D01*
X3572Y-944D01*
X3562Y-961D01*
X3557Y-981D01*
Y-1001D01*
X3562Y-1020D01*
X3572Y-1037D01*
X3586Y-1051D01*
X3603Y-1061D01*
X3622Y-1066D01*
X3642D01*
X3661Y-1061D01*
X3678Y-1051D01*
X3693Y-1037D01*
X3702Y-1020D01*
X3708Y-1001D01*
Y-981D01*
X3702Y-961D01*
X3693Y-944D01*
X3678Y-930D01*
X3671Y-926D01*
Y-880D01*
X3750D01*
Y-695D01*
D02*
G37*
G36*
X3267Y-1050D02*
X3162D01*
Y-1130D01*
X3267D01*
Y-1050D01*
D02*
G37*
G36*
X3137D02*
X3032D01*
Y-1130D01*
X3137D01*
Y-1050D01*
D02*
G37*
G36*
X3124Y-386D02*
X3012D01*
Y-554D01*
X3069D01*
X3111Y-596D01*
Y-745D01*
X3032D01*
Y-931D01*
X3267D01*
Y-884D01*
X3352Y-969D01*
Y-1042D01*
X3315D01*
Y-1173D01*
X3466D01*
Y-1042D01*
X3430D01*
Y-952D01*
X3427Y-938D01*
X3418Y-925D01*
X3304Y-811D01*
X3291Y-802D01*
X3276Y-799D01*
X3267D01*
Y-745D01*
X3188D01*
Y-580D01*
X3185Y-565D01*
X3177Y-552D01*
X3124Y-499D01*
Y-386D01*
D02*
G37*
G36*
X4746Y-617D02*
X4550D01*
Y-1008D01*
X4609D01*
Y-1127D01*
X4527Y-1209D01*
X4517D01*
Y-1049D01*
X4322D01*
Y-1440D01*
X4517D01*
Y-1287D01*
X4543D01*
X4558Y-1284D01*
X4571Y-1275D01*
X4676Y-1170D01*
X4684Y-1158D01*
X4687Y-1143D01*
Y-1008D01*
X4746D01*
Y-617D01*
D02*
G37*
G36*
X3942Y-1049D02*
X3857D01*
Y-1232D01*
X3942D01*
Y-1049D01*
D02*
G37*
G36*
X3832D02*
X3747D01*
Y-1232D01*
X3832D01*
Y-1049D01*
D02*
G37*
G36*
X3267Y-1156D02*
X3162D01*
Y-1236D01*
X3267D01*
Y-1156D01*
D02*
G37*
G36*
X3137D02*
X3032D01*
Y-1236D01*
X3137D01*
Y-1156D01*
D02*
G37*
G36*
X5024Y-1005D02*
X5013D01*
Y-1237D01*
X5245D01*
Y-1226D01*
X5236Y-1178D01*
X5217Y-1134D01*
X5191Y-1094D01*
X5156Y-1059D01*
X5116Y-1033D01*
X5072Y-1014D01*
X5024Y-1005D01*
D02*
G37*
G36*
X4987D02*
X4976D01*
X4928Y-1014D01*
X4884Y-1033D01*
X4844Y-1059D01*
X4809Y-1094D01*
X4783Y-1134D01*
X4764Y-1178D01*
X4755Y-1226D01*
Y-1237D01*
X4987D01*
Y-1005D01*
D02*
G37*
G36*
X824D02*
X813D01*
Y-1237D01*
X1045D01*
Y-1226D01*
X1036Y-1178D01*
X1017Y-1134D01*
X991Y-1094D01*
X956Y-1059D01*
X916Y-1033D01*
X872Y-1014D01*
X824Y-1005D01*
D02*
G37*
G36*
X787D02*
X776D01*
X728Y-1014D01*
X684Y-1033D01*
X644Y-1059D01*
X609Y-1094D01*
X583Y-1134D01*
X564Y-1178D01*
X555Y-1226D01*
Y-1237D01*
X787D01*
Y-1005D01*
D02*
G37*
G36*
X3942Y-1257D02*
X3857D01*
Y-1440D01*
X3942D01*
Y-1257D01*
D02*
G37*
G36*
X3832D02*
X3747D01*
Y-1440D01*
X3832D01*
Y-1257D01*
D02*
G37*
G36*
X5245Y-1263D02*
X5013D01*
Y-1495D01*
X5024D01*
X5072Y-1486D01*
X5116Y-1467D01*
X5156Y-1441D01*
X5191Y-1406D01*
X5217Y-1366D01*
X5236Y-1322D01*
X5245Y-1274D01*
Y-1263D01*
D02*
G37*
G36*
X4987D02*
X4755D01*
Y-1274D01*
X4764Y-1322D01*
X4783Y-1366D01*
X4809Y-1406D01*
X4844Y-1441D01*
X4884Y-1467D01*
X4928Y-1486D01*
X4976Y-1495D01*
X4987D01*
Y-1263D01*
D02*
G37*
G36*
X1045D02*
X813D01*
Y-1495D01*
X824D01*
X872Y-1486D01*
X916Y-1467D01*
X956Y-1441D01*
X991Y-1406D01*
X1017Y-1366D01*
X1036Y-1322D01*
X1045Y-1274D01*
Y-1263D01*
D02*
G37*
G36*
X787D02*
X555D01*
Y-1274D01*
X564Y-1322D01*
X583Y-1366D01*
X609Y-1406D01*
X644Y-1441D01*
X684Y-1467D01*
X728Y-1486D01*
X776Y-1495D01*
X787D01*
Y-1263D01*
D02*
G37*
G36*
X2464Y-1637D02*
X2389D01*
Y-1740D01*
X2464D01*
Y-1637D01*
D02*
G37*
G36*
X2494Y-1405D02*
X2357D01*
Y-1617D01*
X2452D01*
X2456Y-1618D01*
X2530D01*
X2549Y-1637D01*
X2489D01*
Y-1740D01*
X2565D01*
Y-1653D01*
X2594Y-1683D01*
X2592Y-1692D01*
Y-1712D01*
X2597Y-1731D01*
X2607Y-1748D01*
X2621Y-1762D01*
X2638Y-1772D01*
X2657Y-1777D01*
X2677D01*
X2696Y-1772D01*
X2713Y-1762D01*
X2727Y-1748D01*
X2737Y-1731D01*
X2742Y-1712D01*
Y-1692D01*
X2737Y-1673D01*
X2727Y-1656D01*
X2713Y-1641D01*
X2696Y-1632D01*
X2677Y-1626D01*
X2657D01*
X2650Y-1628D01*
X2573Y-1552D01*
X2561Y-1543D01*
X2546Y-1540D01*
X2494D01*
Y-1405D01*
D02*
G37*
G36*
X4002Y-1860D02*
X3920D01*
Y-1943D01*
X4002D01*
Y-1860D01*
D02*
G37*
G36*
X3894D02*
X3812D01*
Y-1943D01*
X3894D01*
Y-1860D01*
D02*
G37*
G36*
X5143Y-1871D02*
X5061D01*
Y-1954D01*
X5143D01*
Y-1871D01*
D02*
G37*
G36*
X5035D02*
X4953D01*
Y-1954D01*
X5035D01*
Y-1871D01*
D02*
G37*
G36*
X4419Y-1860D02*
X4394D01*
X4370Y-1867D01*
X4348Y-1879D01*
X4331Y-1897D01*
X4318Y-1919D01*
X4312Y-1943D01*
Y-1968D01*
X4318Y-1993D01*
X4331Y-2014D01*
X4348Y-2032D01*
X4370Y-2045D01*
X4394Y-2051D01*
X4419D01*
X4444Y-2045D01*
X4465Y-2032D01*
X4483Y-2014D01*
X4496Y-1993D01*
X4502Y-1968D01*
Y-1943D01*
X4496Y-1919D01*
X4483Y-1897D01*
X4465Y-1879D01*
X4444Y-1867D01*
X4419Y-1860D01*
D02*
G37*
G36*
X4169D02*
X4144D01*
X4120Y-1867D01*
X4098Y-1879D01*
X4081Y-1897D01*
X4068Y-1919D01*
X4062Y-1943D01*
Y-1968D01*
X4068Y-1993D01*
X4081Y-2014D01*
X4098Y-2032D01*
X4120Y-2045D01*
X4144Y-2051D01*
X4169D01*
X4194Y-2045D01*
X4215Y-2032D01*
X4233Y-2014D01*
X4246Y-1993D01*
X4252Y-1968D01*
Y-1943D01*
X4246Y-1919D01*
X4233Y-1897D01*
X4215Y-1879D01*
X4194Y-1867D01*
X4169Y-1860D01*
D02*
G37*
G36*
X4002Y-1968D02*
X3920D01*
Y-2051D01*
X4002D01*
Y-1968D01*
D02*
G37*
G36*
X3894D02*
X3812D01*
Y-2051D01*
X3894D01*
Y-1968D01*
D02*
G37*
G36*
X5810Y-1871D02*
X5785D01*
X5761Y-1878D01*
X5739Y-1890D01*
X5722Y-1908D01*
X5709Y-1930D01*
X5703Y-1954D01*
Y-1979D01*
X5709Y-2004D01*
X5722Y-2025D01*
X5739Y-2043D01*
X5761Y-2056D01*
X5785Y-2062D01*
X5810D01*
X5835Y-2056D01*
X5856Y-2043D01*
X5874Y-2025D01*
X5887Y-2004D01*
X5893Y-1979D01*
Y-1954D01*
X5887Y-1930D01*
X5874Y-1908D01*
X5856Y-1890D01*
X5835Y-1878D01*
X5810Y-1871D01*
D02*
G37*
G36*
X5560D02*
X5535D01*
X5511Y-1878D01*
X5489Y-1890D01*
X5472Y-1908D01*
X5459Y-1930D01*
X5453Y-1954D01*
Y-1979D01*
X5459Y-2004D01*
X5472Y-2025D01*
X5489Y-2043D01*
X5511Y-2056D01*
X5535Y-2062D01*
X5560D01*
X5585Y-2056D01*
X5606Y-2043D01*
X5624Y-2025D01*
X5637Y-2004D01*
X5643Y-1979D01*
Y-1954D01*
X5637Y-1930D01*
X5624Y-1908D01*
X5606Y-1890D01*
X5585Y-1878D01*
X5560Y-1871D01*
D02*
G37*
G36*
X5310D02*
X5285D01*
X5261Y-1878D01*
X5239Y-1890D01*
X5222Y-1908D01*
X5209Y-1930D01*
X5203Y-1954D01*
Y-1979D01*
X5209Y-2004D01*
X5222Y-2025D01*
X5239Y-2043D01*
X5261Y-2056D01*
X5285Y-2062D01*
X5310D01*
X5335Y-2056D01*
X5356Y-2043D01*
X5374Y-2025D01*
X5387Y-2004D01*
X5393Y-1979D01*
Y-1954D01*
X5387Y-1930D01*
X5374Y-1908D01*
X5356Y-1890D01*
X5335Y-1878D01*
X5310Y-1871D01*
D02*
G37*
G36*
X5143Y-1980D02*
X5061D01*
Y-2062D01*
X5143D01*
Y-1980D01*
D02*
G37*
G36*
X5035D02*
X4953D01*
Y-2062D01*
X5035D01*
Y-1980D01*
D02*
G37*
G36*
X179Y-1956D02*
X165D01*
Y-2286D01*
X495D01*
Y-2272D01*
X487Y-2218D01*
X470Y-2167D01*
X446Y-2119D01*
X414Y-2075D01*
X376Y-2037D01*
X332Y-2005D01*
X284Y-1981D01*
X233Y-1964D01*
X179Y-1956D01*
D02*
G37*
G36*
X140D02*
X125D01*
X72Y-1964D01*
X21Y-1981D01*
X-27Y-2005D01*
X-71Y-2037D01*
X-109Y-2075D01*
X-141Y-2119D01*
X-165Y-2167D01*
X-182Y-2218D01*
X-190Y-2272D01*
Y-2286D01*
X140D01*
Y-1956D01*
D02*
G37*
G36*
X5407Y-2426D02*
X5388D01*
X5368Y-2432D01*
X5351Y-2442D01*
X5337Y-2456D01*
X5327Y-2473D01*
X5322Y-2492D01*
Y-2512D01*
X5327Y-2531D01*
X5337Y-2548D01*
X5351Y-2562D01*
X5368Y-2572D01*
X5388Y-2577D01*
X5407D01*
X5427Y-2572D01*
X5444Y-2562D01*
X5458Y-2548D01*
X5468Y-2531D01*
X5473Y-2512D01*
Y-2492D01*
X5468Y-2473D01*
X5458Y-2456D01*
X5444Y-2442D01*
X5427Y-2432D01*
X5407Y-2426D01*
D02*
G37*
G36*
X4226Y-2439D02*
X4206D01*
X4187Y-2444D01*
X4170Y-2454D01*
X4156Y-2468D01*
X4146Y-2485D01*
X4141Y-2505D01*
Y-2525D01*
X4146Y-2544D01*
X4156Y-2561D01*
X4170Y-2575D01*
X4187Y-2585D01*
X4206Y-2590D01*
X4226D01*
X4246Y-2585D01*
X4263Y-2575D01*
X4277Y-2561D01*
X4287Y-2544D01*
X4292Y-2525D01*
Y-2505D01*
X4287Y-2485D01*
X4277Y-2468D01*
X4263Y-2454D01*
X4246Y-2444D01*
X4226Y-2439D01*
D02*
G37*
G36*
X495Y-2311D02*
X165D01*
Y-2642D01*
X179D01*
X233Y-2633D01*
X284Y-2616D01*
X332Y-2592D01*
X376Y-2560D01*
X414Y-2522D01*
X446Y-2478D01*
X470Y-2430D01*
X487Y-2379D01*
X495Y-2326D01*
Y-2311D01*
D02*
G37*
G36*
X140D02*
X-190D01*
Y-2326D01*
X-182Y-2379D01*
X-165Y-2430D01*
X-141Y-2478D01*
X-109Y-2522D01*
X-71Y-2560D01*
X-27Y-2592D01*
X21Y-2616D01*
X72Y-2633D01*
X125Y-2642D01*
X140D01*
Y-2311D01*
D02*
G37*
G36*
X5143Y-2875D02*
X5061D01*
Y-2957D01*
X5143D01*
Y-2875D01*
D02*
G37*
G36*
X5035D02*
X4953D01*
Y-2957D01*
X5035D01*
Y-2875D01*
D02*
G37*
G36*
X3998Y-2876D02*
X3916D01*
Y-2959D01*
X3998D01*
Y-2876D01*
D02*
G37*
G36*
X3890D02*
X3808D01*
Y-2959D01*
X3890D01*
Y-2876D01*
D02*
G37*
G36*
X3342Y-2902D02*
X3165D01*
Y-3040D01*
X3342D01*
Y-2902D01*
D02*
G37*
G36*
X3139D02*
X2961D01*
Y-3040D01*
X3139D01*
Y-2902D01*
D02*
G37*
G36*
X5810Y-2875D02*
X5785D01*
X5761Y-2881D01*
X5739Y-2894D01*
X5722Y-2912D01*
X5709Y-2933D01*
X5703Y-2958D01*
Y-2983D01*
X5709Y-3007D01*
X5722Y-3029D01*
X5739Y-3046D01*
X5761Y-3059D01*
X5785Y-3066D01*
X5810D01*
X5835Y-3059D01*
X5856Y-3046D01*
X5874Y-3029D01*
X5887Y-3007D01*
X5893Y-2983D01*
Y-2958D01*
X5887Y-2933D01*
X5874Y-2912D01*
X5856Y-2894D01*
X5835Y-2881D01*
X5810Y-2875D01*
D02*
G37*
G36*
X5560D02*
X5535D01*
X5511Y-2881D01*
X5489Y-2894D01*
X5472Y-2912D01*
X5459Y-2933D01*
X5453Y-2958D01*
Y-2983D01*
X5459Y-3007D01*
X5472Y-3029D01*
X5489Y-3046D01*
X5511Y-3059D01*
X5535Y-3066D01*
X5560D01*
X5585Y-3059D01*
X5606Y-3046D01*
X5624Y-3029D01*
X5637Y-3007D01*
X5643Y-2983D01*
Y-2958D01*
X5637Y-2933D01*
X5624Y-2912D01*
X5606Y-2894D01*
X5585Y-2881D01*
X5560Y-2875D01*
D02*
G37*
G36*
X5310D02*
X5285D01*
X5261Y-2881D01*
X5239Y-2894D01*
X5222Y-2912D01*
X5209Y-2933D01*
X5203Y-2958D01*
Y-2983D01*
X5209Y-3007D01*
X5222Y-3029D01*
X5239Y-3046D01*
X5261Y-3059D01*
X5285Y-3066D01*
X5310D01*
X5335Y-3059D01*
X5356Y-3046D01*
X5374Y-3029D01*
X5387Y-3007D01*
X5393Y-2983D01*
Y-2958D01*
X5387Y-2933D01*
X5374Y-2912D01*
X5356Y-2894D01*
X5335Y-2881D01*
X5310Y-2875D01*
D02*
G37*
G36*
X5143Y-2983D02*
X5061D01*
Y-3066D01*
X5143D01*
Y-2983D01*
D02*
G37*
G36*
X5035D02*
X4953D01*
Y-3066D01*
X5035D01*
Y-2983D01*
D02*
G37*
G36*
X4415Y-2876D02*
X4390D01*
X4366Y-2883D01*
X4344Y-2895D01*
X4327Y-2913D01*
X4314Y-2935D01*
X4308Y-2959D01*
Y-2984D01*
X4314Y-3009D01*
X4327Y-3030D01*
X4344Y-3048D01*
X4366Y-3061D01*
X4390Y-3067D01*
X4415D01*
X4440Y-3061D01*
X4461Y-3048D01*
X4479Y-3030D01*
X4492Y-3009D01*
X4498Y-2984D01*
Y-2959D01*
X4492Y-2935D01*
X4479Y-2913D01*
X4461Y-2895D01*
X4440Y-2883D01*
X4415Y-2876D01*
D02*
G37*
G36*
X4165D02*
X4140D01*
X4116Y-2883D01*
X4094Y-2895D01*
X4077Y-2913D01*
X4064Y-2935D01*
X4058Y-2959D01*
Y-2984D01*
X4064Y-3009D01*
X4077Y-3030D01*
X4094Y-3048D01*
X4116Y-3061D01*
X4140Y-3067D01*
X4165D01*
X4190Y-3061D01*
X4211Y-3048D01*
X4229Y-3030D01*
X4242Y-3009D01*
X4248Y-2984D01*
Y-2959D01*
X4242Y-2935D01*
X4229Y-2913D01*
X4211Y-2895D01*
X4190Y-2883D01*
X4165Y-2876D01*
D02*
G37*
G36*
X3998Y-2984D02*
X3916D01*
Y-3067D01*
X3998D01*
Y-2984D01*
D02*
G37*
G36*
X3890D02*
X3808D01*
Y-3067D01*
X3890D01*
Y-2984D01*
D02*
G37*
G36*
X3342Y-3065D02*
X3165D01*
Y-3203D01*
X3342D01*
Y-3065D01*
D02*
G37*
G36*
X3139D02*
X2961D01*
Y-3203D01*
X3139D01*
Y-3065D01*
D02*
G37*
G36*
X3527Y-3360D02*
X3411D01*
Y-3482D01*
X3527D01*
Y-3360D01*
D02*
G37*
G36*
X3386D02*
X3271D01*
Y-3482D01*
X3386D01*
Y-3360D01*
D02*
G37*
G36*
X5407Y-3455D02*
X5388D01*
X5368Y-3460D01*
X5351Y-3470D01*
X5337Y-3484D01*
X5327Y-3501D01*
X5322Y-3521D01*
Y-3541D01*
X5327Y-3560D01*
X5337Y-3577D01*
X5351Y-3591D01*
X5368Y-3601D01*
X5388Y-3606D01*
X5407D01*
X5427Y-3601D01*
X5444Y-3591D01*
X5458Y-3577D01*
X5468Y-3560D01*
X5473Y-3541D01*
Y-3521D01*
X5468Y-3501D01*
X5458Y-3484D01*
X5444Y-3470D01*
X5427Y-3460D01*
X5407Y-3455D01*
D02*
G37*
G36*
X4252D02*
X4232D01*
X4213Y-3460D01*
X4196Y-3470D01*
X4181Y-3484D01*
X4172Y-3501D01*
X4166Y-3521D01*
Y-3541D01*
X4172Y-3560D01*
X4181Y-3577D01*
X4196Y-3591D01*
X4213Y-3601D01*
X4232Y-3606D01*
X4252D01*
X4271Y-3601D01*
X4288Y-3591D01*
X4302Y-3577D01*
X4312Y-3560D01*
X4317Y-3541D01*
Y-3521D01*
X4312Y-3501D01*
X4302Y-3484D01*
X4288Y-3470D01*
X4271Y-3460D01*
X4252Y-3455D01*
D02*
G37*
G36*
X3527Y-3508D02*
X3411D01*
Y-3630D01*
X3527D01*
Y-3508D01*
D02*
G37*
G36*
X3386D02*
X3271D01*
Y-3630D01*
X3386D01*
Y-3508D01*
D02*
G37*
G36*
X3998Y-3878D02*
X3916D01*
Y-3961D01*
X3998D01*
Y-3878D01*
D02*
G37*
G36*
X3890D02*
X3808D01*
Y-3961D01*
X3890D01*
Y-3878D01*
D02*
G37*
G36*
X5145Y-3892D02*
X5063D01*
Y-3975D01*
X5145D01*
Y-3892D01*
D02*
G37*
G36*
X5037D02*
X4954D01*
Y-3975D01*
X5037D01*
Y-3892D01*
D02*
G37*
G36*
X4415Y-3878D02*
X4390D01*
X4366Y-3885D01*
X4344Y-3897D01*
X4327Y-3915D01*
X4314Y-3937D01*
X4308Y-3961D01*
Y-3986D01*
X4314Y-4010D01*
X4327Y-4032D01*
X4344Y-4050D01*
X4366Y-4062D01*
X4390Y-4069D01*
X4415D01*
X4440Y-4062D01*
X4461Y-4050D01*
X4479Y-4032D01*
X4492Y-4010D01*
X4498Y-3986D01*
Y-3961D01*
X4492Y-3937D01*
X4479Y-3915D01*
X4461Y-3897D01*
X4440Y-3885D01*
X4415Y-3878D01*
D02*
G37*
G36*
X4165D02*
X4140D01*
X4116Y-3885D01*
X4094Y-3897D01*
X4077Y-3915D01*
X4064Y-3937D01*
X4058Y-3961D01*
Y-3986D01*
X4064Y-4010D01*
X4077Y-4032D01*
X4094Y-4050D01*
X4116Y-4062D01*
X4140Y-4069D01*
X4165D01*
X4190Y-4062D01*
X4211Y-4050D01*
X4229Y-4032D01*
X4242Y-4010D01*
X4248Y-3986D01*
Y-3961D01*
X4242Y-3937D01*
X4229Y-3915D01*
X4211Y-3897D01*
X4190Y-3885D01*
X4165Y-3878D01*
D02*
G37*
G36*
X3998Y-3986D02*
X3916D01*
Y-4069D01*
X3998D01*
Y-3986D01*
D02*
G37*
G36*
X3890D02*
X3808D01*
Y-4069D01*
X3890D01*
Y-3986D01*
D02*
G37*
G36*
X5812Y-3892D02*
X5787D01*
X5763Y-3899D01*
X5741Y-3911D01*
X5724Y-3929D01*
X5711Y-3951D01*
X5704Y-3975D01*
Y-4000D01*
X5711Y-4025D01*
X5724Y-4046D01*
X5741Y-4064D01*
X5763Y-4077D01*
X5787Y-4083D01*
X5812D01*
X5837Y-4077D01*
X5858Y-4064D01*
X5876Y-4046D01*
X5889Y-4025D01*
X5895Y-4000D01*
Y-3975D01*
X5889Y-3951D01*
X5876Y-3929D01*
X5858Y-3911D01*
X5837Y-3899D01*
X5812Y-3892D01*
D02*
G37*
G36*
X5562D02*
X5537D01*
X5513Y-3899D01*
X5491Y-3911D01*
X5474Y-3929D01*
X5461Y-3951D01*
X5454Y-3975D01*
Y-4000D01*
X5461Y-4025D01*
X5474Y-4046D01*
X5491Y-4064D01*
X5513Y-4077D01*
X5537Y-4083D01*
X5562D01*
X5587Y-4077D01*
X5608Y-4064D01*
X5626Y-4046D01*
X5639Y-4025D01*
X5645Y-4000D01*
Y-3975D01*
X5639Y-3951D01*
X5626Y-3929D01*
X5608Y-3911D01*
X5587Y-3899D01*
X5562Y-3892D01*
D02*
G37*
G36*
X5312D02*
X5287D01*
X5263Y-3899D01*
X5241Y-3911D01*
X5224Y-3929D01*
X5211Y-3951D01*
X5204Y-3975D01*
Y-4000D01*
X5211Y-4025D01*
X5224Y-4046D01*
X5241Y-4064D01*
X5263Y-4077D01*
X5287Y-4083D01*
X5312D01*
X5337Y-4077D01*
X5358Y-4064D01*
X5376Y-4046D01*
X5389Y-4025D01*
X5395Y-4000D01*
Y-3975D01*
X5389Y-3951D01*
X5376Y-3929D01*
X5358Y-3911D01*
X5337Y-3899D01*
X5312Y-3892D01*
D02*
G37*
G36*
X5145Y-4000D02*
X5063D01*
Y-4083D01*
X5145D01*
Y-4000D01*
D02*
G37*
G36*
X5037D02*
X4954D01*
Y-4083D01*
X5037D01*
Y-4000D01*
D02*
G37*
G36*
X978Y-3258D02*
X546D01*
Y-4261D01*
X978D01*
Y-3258D01*
D02*
G37*
G36*
X267D02*
X-165D01*
Y-4261D01*
X267D01*
Y-3258D01*
D02*
G37*
G36*
X5420Y-4408D02*
X5400D01*
X5381Y-4413D01*
X5364Y-4423D01*
X5350Y-4437D01*
X5340Y-4454D01*
X5335Y-4473D01*
Y-4493D01*
X5340Y-4512D01*
X5350Y-4529D01*
X5364Y-4543D01*
X5381Y-4553D01*
X5400Y-4558D01*
X5420D01*
X5439Y-4553D01*
X5456Y-4543D01*
X5471Y-4529D01*
X5480Y-4512D01*
X5486Y-4493D01*
Y-4473D01*
X5480Y-4454D01*
X5471Y-4437D01*
X5456Y-4423D01*
X5439Y-4413D01*
X5420Y-4408D01*
D02*
G37*
G36*
X4264D02*
X4245D01*
X4225Y-4413D01*
X4208Y-4423D01*
X4194Y-4437D01*
X4184Y-4454D01*
X4179Y-4473D01*
Y-4493D01*
X4184Y-4512D01*
X4194Y-4529D01*
X4208Y-4543D01*
X4225Y-4553D01*
X4245Y-4558D01*
X4264D01*
X4284Y-4553D01*
X4301Y-4543D01*
X4315Y-4529D01*
X4325Y-4512D01*
X4330Y-4493D01*
Y-4473D01*
X4325Y-4454D01*
X4315Y-4437D01*
X4301Y-4423D01*
X4284Y-4413D01*
X4264Y-4408D01*
D02*
G37*
G36*
X4307Y-4718D02*
X4305D01*
Y-4813D01*
X4401D01*
Y-4812D01*
X4393Y-4784D01*
X4379Y-4760D01*
X4359Y-4740D01*
X4334Y-4725D01*
X4307Y-4718D01*
D02*
G37*
G36*
X4280D02*
X4278D01*
X4251Y-4725D01*
X4226Y-4740D01*
X4206Y-4760D01*
X4192Y-4784D01*
X4185Y-4812D01*
Y-4813D01*
X4280D01*
Y-4718D01*
D02*
G37*
G36*
X2275D02*
X2273D01*
Y-4813D01*
X2368D01*
Y-4812D01*
X2361Y-4784D01*
X2347Y-4760D01*
X2327Y-4740D01*
X2302Y-4725D01*
X2275Y-4718D01*
D02*
G37*
G36*
X2248D02*
X2246D01*
X2219Y-4725D01*
X2194Y-4740D01*
X2174Y-4760D01*
X2160Y-4784D01*
X2153Y-4812D01*
Y-4813D01*
X2248D01*
Y-4718D01*
D02*
G37*
G36*
X497D02*
X495D01*
Y-4813D01*
X591D01*
Y-4812D01*
X583Y-4784D01*
X569Y-4760D01*
X549Y-4740D01*
X524Y-4725D01*
X497Y-4718D01*
D02*
G37*
G36*
X470D02*
X468D01*
X441Y-4725D01*
X416Y-4740D01*
X396Y-4760D01*
X382Y-4784D01*
X375Y-4812D01*
Y-4813D01*
X470D01*
Y-4718D01*
D02*
G37*
G36*
X22Y-4625D02*
X13D01*
Y-4887D01*
X275D01*
Y-4878D01*
X269Y-4836D01*
X255Y-4794D01*
X236Y-4756D01*
X210Y-4721D01*
X179Y-4690D01*
X144Y-4664D01*
X106Y-4645D01*
X64Y-4631D01*
X22Y-4625D01*
D02*
G37*
G36*
X-13D02*
X-22D01*
X-64Y-4631D01*
X-106Y-4645D01*
X-144Y-4664D01*
X-179Y-4690D01*
X-210Y-4721D01*
X-236Y-4756D01*
X-255Y-4794D01*
X-269Y-4836D01*
X-275Y-4878D01*
Y-4887D01*
X-13D01*
Y-4625D01*
D02*
G37*
G36*
X5838Y-4640D02*
X5829D01*
Y-4902D01*
X6092D01*
Y-4893D01*
X6085Y-4850D01*
X6072Y-4809D01*
X6052Y-4771D01*
X6027Y-4735D01*
X5996Y-4705D01*
X5961Y-4679D01*
X5922Y-4660D01*
X5881Y-4646D01*
X5838Y-4640D01*
D02*
G37*
G36*
X5804D02*
X5795D01*
X5752Y-4646D01*
X5711Y-4660D01*
X5672Y-4679D01*
X5637Y-4705D01*
X5607Y-4735D01*
X5581Y-4771D01*
X5561Y-4809D01*
X5548Y-4850D01*
X5541Y-4893D01*
Y-4902D01*
X5804D01*
Y-4640D01*
D02*
G37*
G36*
X5417Y-4718D02*
X5201D01*
Y-4934D01*
X5417D01*
Y-4718D01*
D02*
G37*
G36*
X5069D02*
X5040D01*
X5013Y-4725D01*
X4988Y-4740D01*
X4968Y-4760D01*
X4954Y-4784D01*
X4947Y-4812D01*
Y-4840D01*
X4954Y-4868D01*
X4968Y-4892D01*
X4988Y-4912D01*
X5013Y-4927D01*
X5040Y-4934D01*
X5069D01*
X5096Y-4927D01*
X5121Y-4912D01*
X5141Y-4892D01*
X5155Y-4868D01*
X5162Y-4840D01*
Y-4812D01*
X5155Y-4784D01*
X5141Y-4760D01*
X5121Y-4740D01*
X5096Y-4725D01*
X5069Y-4718D01*
D02*
G37*
G36*
X4815D02*
X4786D01*
X4759Y-4725D01*
X4734Y-4740D01*
X4714Y-4760D01*
X4700Y-4784D01*
X4693Y-4812D01*
Y-4840D01*
X4700Y-4868D01*
X4714Y-4892D01*
X4734Y-4912D01*
X4759Y-4927D01*
X4786Y-4934D01*
X4815D01*
X4842Y-4927D01*
X4867Y-4912D01*
X4887Y-4892D01*
X4901Y-4868D01*
X4908Y-4840D01*
Y-4812D01*
X4901Y-4784D01*
X4887Y-4760D01*
X4867Y-4740D01*
X4842Y-4725D01*
X4815Y-4718D01*
D02*
G37*
G36*
X3466Y-1192D02*
X3315D01*
Y-1323D01*
X3401D01*
X3537Y-1458D01*
Y-4465D01*
X3540Y-4480D01*
X3548Y-4492D01*
X3706Y-4650D01*
X3719Y-4659D01*
X3734Y-4662D01*
X4353D01*
X4457Y-4766D01*
X4446Y-4784D01*
X4439Y-4812D01*
Y-4840D01*
X4446Y-4868D01*
X4460Y-4892D01*
X4480Y-4912D01*
X4505Y-4927D01*
X4532Y-4934D01*
X4561D01*
X4588Y-4927D01*
X4613Y-4912D01*
X4633Y-4892D01*
X4647Y-4868D01*
X4654Y-4840D01*
Y-4812D01*
X4647Y-4784D01*
X4633Y-4760D01*
X4613Y-4740D01*
X4588Y-4725D01*
X4561Y-4718D01*
X4532D01*
X4522Y-4721D01*
X4396Y-4595D01*
X4384Y-4587D01*
X4369Y-4584D01*
X3750D01*
X3615Y-4449D01*
Y-1442D01*
X3612Y-1427D01*
X3603Y-1415D01*
X3466Y-1278D01*
Y-1192D01*
D02*
G37*
G36*
X4401Y-4839D02*
X4305D01*
Y-4934D01*
X4307D01*
X4334Y-4927D01*
X4359Y-4912D01*
X4379Y-4892D01*
X4393Y-4868D01*
X4401Y-4840D01*
Y-4839D01*
D02*
G37*
G36*
X4280D02*
X4185D01*
Y-4840D01*
X4192Y-4868D01*
X4206Y-4892D01*
X4226Y-4912D01*
X4251Y-4927D01*
X4278Y-4934D01*
X4280D01*
Y-4839D01*
D02*
G37*
G36*
X4053Y-4718D02*
X4024D01*
X3997Y-4725D01*
X3972Y-4740D01*
X3952Y-4760D01*
X3938Y-4784D01*
X3931Y-4812D01*
Y-4840D01*
X3938Y-4868D01*
X3952Y-4892D01*
X3972Y-4912D01*
X3997Y-4927D01*
X4024Y-4934D01*
X4053D01*
X4080Y-4927D01*
X4105Y-4912D01*
X4125Y-4892D01*
X4139Y-4868D01*
X4147Y-4840D01*
Y-4812D01*
X4139Y-4784D01*
X4125Y-4760D01*
X4105Y-4740D01*
X4080Y-4725D01*
X4053Y-4718D01*
D02*
G37*
G36*
X3799D02*
X3770D01*
X3743Y-4725D01*
X3718Y-4740D01*
X3698Y-4760D01*
X3684Y-4784D01*
X3677Y-4812D01*
Y-4840D01*
X3684Y-4868D01*
X3698Y-4892D01*
X3718Y-4912D01*
X3743Y-4927D01*
X3770Y-4934D01*
X3799D01*
X3826Y-4927D01*
X3851Y-4912D01*
X3871Y-4892D01*
X3885Y-4868D01*
X3892Y-4840D01*
Y-4812D01*
X3885Y-4784D01*
X3871Y-4760D01*
X3851Y-4740D01*
X3826Y-4725D01*
X3799Y-4718D01*
D02*
G37*
G36*
X3545D02*
X3516D01*
X3489Y-4725D01*
X3464Y-4740D01*
X3444Y-4760D01*
X3430Y-4784D01*
X3423Y-4812D01*
Y-4840D01*
X3430Y-4868D01*
X3444Y-4892D01*
X3464Y-4912D01*
X3489Y-4927D01*
X3516Y-4934D01*
X3545D01*
X3572Y-4927D01*
X3597Y-4912D01*
X3617Y-4892D01*
X3631Y-4868D01*
X3638Y-4840D01*
Y-4812D01*
X3631Y-4784D01*
X3617Y-4760D01*
X3597Y-4740D01*
X3572Y-4725D01*
X3545Y-4718D01*
D02*
G37*
G36*
X3291D02*
X3262D01*
X3235Y-4725D01*
X3210Y-4740D01*
X3190Y-4760D01*
X3176Y-4784D01*
X3169Y-4812D01*
Y-4840D01*
X3176Y-4868D01*
X3190Y-4892D01*
X3210Y-4912D01*
X3235Y-4927D01*
X3262Y-4934D01*
X3291D01*
X3318Y-4927D01*
X3343Y-4912D01*
X3363Y-4892D01*
X3377Y-4868D01*
X3385Y-4840D01*
Y-4812D01*
X3377Y-4784D01*
X3363Y-4760D01*
X3343Y-4740D01*
X3318Y-4725D01*
X3291Y-4718D01*
D02*
G37*
G36*
X3037D02*
X3008D01*
X2981Y-4725D01*
X2956Y-4740D01*
X2936Y-4760D01*
X2922Y-4784D01*
X2915Y-4812D01*
Y-4840D01*
X2922Y-4868D01*
X2936Y-4892D01*
X2956Y-4912D01*
X2981Y-4927D01*
X3008Y-4934D01*
X3037D01*
X3064Y-4927D01*
X3089Y-4912D01*
X3109Y-4892D01*
X3123Y-4868D01*
X3131Y-4840D01*
Y-4812D01*
X3123Y-4784D01*
X3109Y-4760D01*
X3089Y-4740D01*
X3064Y-4725D01*
X3037Y-4718D01*
D02*
G37*
G36*
X2783D02*
X2754D01*
X2727Y-4725D01*
X2702Y-4740D01*
X2682Y-4760D01*
X2668Y-4784D01*
X2661Y-4812D01*
Y-4840D01*
X2668Y-4868D01*
X2682Y-4892D01*
X2702Y-4912D01*
X2727Y-4927D01*
X2754Y-4934D01*
X2783D01*
X2810Y-4927D01*
X2835Y-4912D01*
X2855Y-4892D01*
X2869Y-4868D01*
X2876Y-4840D01*
Y-4812D01*
X2869Y-4784D01*
X2855Y-4760D01*
X2835Y-4740D01*
X2810Y-4725D01*
X2783Y-4718D01*
D02*
G37*
G36*
X2529D02*
X2500D01*
X2473Y-4725D01*
X2448Y-4740D01*
X2428Y-4760D01*
X2414Y-4784D01*
X2407Y-4812D01*
Y-4840D01*
X2414Y-4868D01*
X2428Y-4892D01*
X2448Y-4912D01*
X2473Y-4927D01*
X2500Y-4934D01*
X2529D01*
X2556Y-4927D01*
X2581Y-4912D01*
X2601Y-4892D01*
X2615Y-4868D01*
X2623Y-4840D01*
Y-4812D01*
X2615Y-4784D01*
X2601Y-4760D01*
X2581Y-4740D01*
X2556Y-4725D01*
X2529Y-4718D01*
D02*
G37*
G36*
X2368Y-4839D02*
X2273D01*
Y-4934D01*
X2275D01*
X2302Y-4927D01*
X2327Y-4912D01*
X2347Y-4892D01*
X2361Y-4868D01*
X2368Y-4840D01*
Y-4839D01*
D02*
G37*
G36*
X2248D02*
X2153D01*
Y-4840D01*
X2160Y-4868D01*
X2174Y-4892D01*
X2194Y-4912D01*
X2219Y-4927D01*
X2246Y-4934D01*
X2248D01*
Y-4839D01*
D02*
G37*
G36*
X2021Y-4718D02*
X1992D01*
X1965Y-4725D01*
X1940Y-4740D01*
X1920Y-4760D01*
X1906Y-4784D01*
X1899Y-4812D01*
Y-4840D01*
X1906Y-4868D01*
X1920Y-4892D01*
X1940Y-4912D01*
X1965Y-4927D01*
X1992Y-4934D01*
X2021D01*
X2048Y-4927D01*
X2073Y-4912D01*
X2093Y-4892D01*
X2107Y-4868D01*
X2115Y-4840D01*
Y-4812D01*
X2107Y-4784D01*
X2093Y-4760D01*
X2073Y-4740D01*
X2048Y-4725D01*
X2021Y-4718D01*
D02*
G37*
G36*
X1767D02*
X1738D01*
X1711Y-4725D01*
X1686Y-4740D01*
X1666Y-4760D01*
X1652Y-4784D01*
X1645Y-4812D01*
Y-4840D01*
X1652Y-4868D01*
X1666Y-4892D01*
X1686Y-4912D01*
X1711Y-4927D01*
X1738Y-4934D01*
X1767D01*
X1794Y-4927D01*
X1819Y-4912D01*
X1839Y-4892D01*
X1853Y-4868D01*
X1860Y-4840D01*
Y-4812D01*
X1853Y-4784D01*
X1839Y-4760D01*
X1819Y-4740D01*
X1794Y-4725D01*
X1767Y-4718D01*
D02*
G37*
G36*
X1513D02*
X1484D01*
X1457Y-4725D01*
X1432Y-4740D01*
X1412Y-4760D01*
X1398Y-4784D01*
X1391Y-4812D01*
Y-4840D01*
X1398Y-4868D01*
X1412Y-4892D01*
X1432Y-4912D01*
X1457Y-4927D01*
X1484Y-4934D01*
X1513D01*
X1540Y-4927D01*
X1565Y-4912D01*
X1585Y-4892D01*
X1599Y-4868D01*
X1607Y-4840D01*
Y-4812D01*
X1599Y-4784D01*
X1585Y-4760D01*
X1565Y-4740D01*
X1540Y-4725D01*
X1513Y-4718D01*
D02*
G37*
G36*
X1259D02*
X1230D01*
X1203Y-4725D01*
X1178Y-4740D01*
X1158Y-4760D01*
X1144Y-4784D01*
X1137Y-4812D01*
Y-4840D01*
X1144Y-4868D01*
X1158Y-4892D01*
X1178Y-4912D01*
X1203Y-4927D01*
X1230Y-4934D01*
X1259D01*
X1286Y-4927D01*
X1311Y-4912D01*
X1331Y-4892D01*
X1345Y-4868D01*
X1352Y-4840D01*
Y-4812D01*
X1345Y-4784D01*
X1331Y-4760D01*
X1311Y-4740D01*
X1286Y-4725D01*
X1259Y-4718D01*
D02*
G37*
G36*
X1005D02*
X976D01*
X949Y-4725D01*
X924Y-4740D01*
X904Y-4760D01*
X890Y-4784D01*
X883Y-4812D01*
Y-4840D01*
X890Y-4868D01*
X904Y-4892D01*
X924Y-4912D01*
X949Y-4927D01*
X976Y-4934D01*
X1005D01*
X1032Y-4927D01*
X1057Y-4912D01*
X1077Y-4892D01*
X1091Y-4868D01*
X1098Y-4840D01*
Y-4812D01*
X1091Y-4784D01*
X1077Y-4760D01*
X1057Y-4740D01*
X1032Y-4725D01*
X1005Y-4718D01*
D02*
G37*
G36*
X751D02*
X722D01*
X695Y-4725D01*
X670Y-4740D01*
X650Y-4760D01*
X636Y-4784D01*
X629Y-4812D01*
Y-4840D01*
X636Y-4868D01*
X650Y-4892D01*
X670Y-4912D01*
X695Y-4927D01*
X722Y-4934D01*
X751D01*
X778Y-4927D01*
X803Y-4912D01*
X823Y-4892D01*
X837Y-4868D01*
X844Y-4840D01*
Y-4812D01*
X837Y-4784D01*
X823Y-4760D01*
X803Y-4740D01*
X778Y-4725D01*
X751Y-4718D01*
D02*
G37*
G36*
X591Y-4839D02*
X495D01*
Y-4934D01*
X497D01*
X524Y-4927D01*
X549Y-4912D01*
X569Y-4892D01*
X583Y-4868D01*
X591Y-4840D01*
Y-4839D01*
D02*
G37*
G36*
X470D02*
X375D01*
Y-4840D01*
X382Y-4868D01*
X396Y-4892D01*
X416Y-4912D01*
X441Y-4927D01*
X468Y-4934D01*
X470D01*
Y-4839D01*
D02*
G37*
G36*
X4561Y-4972D02*
X4559D01*
Y-5067D01*
X4654D01*
Y-5066D01*
X4647Y-5038D01*
X4633Y-5014D01*
X4613Y-4994D01*
X4588Y-4979D01*
X4561Y-4972D01*
D02*
G37*
G36*
X4534D02*
X4532D01*
X4505Y-4979D01*
X4480Y-4994D01*
X4460Y-5014D01*
X4446Y-5038D01*
X4439Y-5066D01*
Y-5067D01*
X4534D01*
Y-4972D01*
D02*
G37*
G36*
X4053D02*
X4051D01*
Y-5067D01*
X4147D01*
Y-5066D01*
X4139Y-5038D01*
X4125Y-5014D01*
X4105Y-4994D01*
X4080Y-4979D01*
X4053Y-4972D01*
D02*
G37*
G36*
X4026D02*
X4024D01*
X3997Y-4979D01*
X3972Y-4994D01*
X3952Y-5014D01*
X3938Y-5038D01*
X3931Y-5066D01*
Y-5067D01*
X4026D01*
Y-4972D01*
D02*
G37*
G36*
X2783D02*
X2781D01*
Y-5067D01*
X2876D01*
Y-5066D01*
X2869Y-5038D01*
X2855Y-5014D01*
X2835Y-4994D01*
X2810Y-4979D01*
X2783Y-4972D01*
D02*
G37*
G36*
X2756D02*
X2754D01*
X2727Y-4979D01*
X2702Y-4994D01*
X2682Y-5014D01*
X2668Y-5038D01*
X2661Y-5066D01*
Y-5067D01*
X2756D01*
Y-4972D01*
D02*
G37*
G36*
X2021D02*
X2019D01*
Y-5067D01*
X2115D01*
Y-5066D01*
X2107Y-5038D01*
X2093Y-5014D01*
X2073Y-4994D01*
X2048Y-4979D01*
X2021Y-4972D01*
D02*
G37*
G36*
X1994D02*
X1992D01*
X1965Y-4979D01*
X1940Y-4994D01*
X1920Y-5014D01*
X1906Y-5038D01*
X1899Y-5066D01*
Y-5067D01*
X1994D01*
Y-4972D01*
D02*
G37*
G36*
X1005D02*
X1003D01*
Y-5067D01*
X1098D01*
Y-5066D01*
X1091Y-5038D01*
X1077Y-5014D01*
X1057Y-4994D01*
X1032Y-4979D01*
X1005Y-4972D01*
D02*
G37*
G36*
X978D02*
X976D01*
X949Y-4979D01*
X924Y-4994D01*
X904Y-5014D01*
X890Y-5038D01*
X883Y-5066D01*
Y-5067D01*
X978D01*
Y-4972D01*
D02*
G37*
G36*
X275Y-4913D02*
X13D01*
Y-5175D01*
X22D01*
X64Y-5169D01*
X106Y-5155D01*
X144Y-5136D01*
X179Y-5110D01*
X210Y-5079D01*
X236Y-5044D01*
X255Y-5006D01*
X269Y-4964D01*
X275Y-4922D01*
Y-4913D01*
D02*
G37*
G36*
X-13D02*
X-275D01*
Y-4922D01*
X-269Y-4964D01*
X-255Y-5006D01*
X-236Y-5044D01*
X-210Y-5079D01*
X-179Y-5110D01*
X-144Y-5136D01*
X-106Y-5155D01*
X-64Y-5169D01*
X-22Y-5175D01*
X-13D01*
Y-4913D01*
D02*
G37*
G36*
X5323Y-4972D02*
X5294D01*
X5267Y-4979D01*
X5242Y-4994D01*
X5222Y-5014D01*
X5208Y-5038D01*
X5201Y-5066D01*
Y-5094D01*
X5208Y-5122D01*
X5222Y-5146D01*
X5242Y-5166D01*
X5267Y-5181D01*
X5294Y-5188D01*
X5323D01*
X5350Y-5181D01*
X5375Y-5166D01*
X5395Y-5146D01*
X5409Y-5122D01*
X5417Y-5094D01*
Y-5066D01*
X5409Y-5038D01*
X5395Y-5014D01*
X5375Y-4994D01*
X5350Y-4979D01*
X5323Y-4972D01*
D02*
G37*
G36*
X5069D02*
X5040D01*
X5013Y-4979D01*
X4988Y-4994D01*
X4968Y-5014D01*
X4954Y-5038D01*
X4947Y-5066D01*
Y-5094D01*
X4954Y-5122D01*
X4968Y-5146D01*
X4988Y-5166D01*
X5013Y-5181D01*
X5040Y-5188D01*
X5069D01*
X5096Y-5181D01*
X5121Y-5166D01*
X5141Y-5146D01*
X5155Y-5122D01*
X5162Y-5094D01*
Y-5066D01*
X5155Y-5038D01*
X5141Y-5014D01*
X5121Y-4994D01*
X5096Y-4979D01*
X5069Y-4972D01*
D02*
G37*
G36*
X4815D02*
X4786D01*
X4759Y-4979D01*
X4734Y-4994D01*
X4714Y-5014D01*
X4700Y-5038D01*
X4693Y-5066D01*
Y-5094D01*
X4700Y-5122D01*
X4714Y-5146D01*
X4734Y-5166D01*
X4759Y-5181D01*
X4786Y-5188D01*
X4815D01*
X4842Y-5181D01*
X4867Y-5166D01*
X4887Y-5146D01*
X4901Y-5122D01*
X4908Y-5094D01*
Y-5066D01*
X4901Y-5038D01*
X4887Y-5014D01*
X4867Y-4994D01*
X4842Y-4979D01*
X4815Y-4972D01*
D02*
G37*
G36*
X4654Y-5093D02*
X4559D01*
Y-5188D01*
X4561D01*
X4588Y-5181D01*
X4613Y-5166D01*
X4633Y-5146D01*
X4647Y-5122D01*
X4654Y-5094D01*
Y-5093D01*
D02*
G37*
G36*
X4534D02*
X4439D01*
Y-5094D01*
X4446Y-5122D01*
X4460Y-5146D01*
X4480Y-5166D01*
X4505Y-5181D01*
X4532Y-5188D01*
X4534D01*
Y-5093D01*
D02*
G37*
G36*
X4307Y-4972D02*
X4278D01*
X4251Y-4979D01*
X4226Y-4994D01*
X4206Y-5014D01*
X4192Y-5038D01*
X4185Y-5066D01*
Y-5094D01*
X4192Y-5122D01*
X4206Y-5146D01*
X4226Y-5166D01*
X4251Y-5181D01*
X4278Y-5188D01*
X4307D01*
X4334Y-5181D01*
X4359Y-5166D01*
X4379Y-5146D01*
X4393Y-5122D01*
X4401Y-5094D01*
Y-5066D01*
X4393Y-5038D01*
X4379Y-5014D01*
X4359Y-4994D01*
X4334Y-4979D01*
X4307Y-4972D01*
D02*
G37*
G36*
X4147Y-5093D02*
X4051D01*
Y-5188D01*
X4053D01*
X4080Y-5181D01*
X4105Y-5166D01*
X4125Y-5146D01*
X4139Y-5122D01*
X4147Y-5094D01*
Y-5093D01*
D02*
G37*
G36*
X4026D02*
X3931D01*
Y-5094D01*
X3938Y-5122D01*
X3952Y-5146D01*
X3972Y-5166D01*
X3997Y-5181D01*
X4024Y-5188D01*
X4026D01*
Y-5093D01*
D02*
G37*
G36*
X3799Y-4972D02*
X3770D01*
X3743Y-4979D01*
X3718Y-4994D01*
X3698Y-5014D01*
X3684Y-5038D01*
X3677Y-5066D01*
Y-5094D01*
X3684Y-5122D01*
X3698Y-5146D01*
X3718Y-5166D01*
X3743Y-5181D01*
X3770Y-5188D01*
X3799D01*
X3826Y-5181D01*
X3851Y-5166D01*
X3871Y-5146D01*
X3885Y-5122D01*
X3892Y-5094D01*
Y-5066D01*
X3885Y-5038D01*
X3871Y-5014D01*
X3851Y-4994D01*
X3826Y-4979D01*
X3799Y-4972D01*
D02*
G37*
G36*
X3545D02*
X3516D01*
X3489Y-4979D01*
X3464Y-4994D01*
X3444Y-5014D01*
X3430Y-5038D01*
X3423Y-5066D01*
Y-5094D01*
X3430Y-5122D01*
X3444Y-5146D01*
X3464Y-5166D01*
X3489Y-5181D01*
X3516Y-5188D01*
X3545D01*
X3572Y-5181D01*
X3597Y-5166D01*
X3617Y-5146D01*
X3631Y-5122D01*
X3638Y-5094D01*
Y-5066D01*
X3631Y-5038D01*
X3617Y-5014D01*
X3597Y-4994D01*
X3572Y-4979D01*
X3545Y-4972D01*
D02*
G37*
G36*
X3291D02*
X3262D01*
X3235Y-4979D01*
X3210Y-4994D01*
X3190Y-5014D01*
X3176Y-5038D01*
X3169Y-5066D01*
Y-5094D01*
X3176Y-5122D01*
X3190Y-5146D01*
X3210Y-5166D01*
X3235Y-5181D01*
X3262Y-5188D01*
X3291D01*
X3318Y-5181D01*
X3343Y-5166D01*
X3363Y-5146D01*
X3377Y-5122D01*
X3385Y-5094D01*
Y-5066D01*
X3377Y-5038D01*
X3363Y-5014D01*
X3343Y-4994D01*
X3318Y-4979D01*
X3291Y-4972D01*
D02*
G37*
G36*
X3037D02*
X3008D01*
X2981Y-4979D01*
X2956Y-4994D01*
X2936Y-5014D01*
X2922Y-5038D01*
X2915Y-5066D01*
Y-5094D01*
X2922Y-5122D01*
X2936Y-5146D01*
X2956Y-5166D01*
X2981Y-5181D01*
X3008Y-5188D01*
X3037D01*
X3064Y-5181D01*
X3089Y-5166D01*
X3109Y-5146D01*
X3123Y-5122D01*
X3131Y-5094D01*
Y-5066D01*
X3123Y-5038D01*
X3109Y-5014D01*
X3089Y-4994D01*
X3064Y-4979D01*
X3037Y-4972D01*
D02*
G37*
G36*
X2876Y-5093D02*
X2781D01*
Y-5188D01*
X2783D01*
X2810Y-5181D01*
X2835Y-5166D01*
X2855Y-5146D01*
X2869Y-5122D01*
X2876Y-5094D01*
Y-5093D01*
D02*
G37*
G36*
X2756D02*
X2661D01*
Y-5094D01*
X2668Y-5122D01*
X2682Y-5146D01*
X2702Y-5166D01*
X2727Y-5181D01*
X2754Y-5188D01*
X2756D01*
Y-5093D01*
D02*
G37*
G36*
X2529Y-4972D02*
X2500D01*
X2473Y-4979D01*
X2448Y-4994D01*
X2428Y-5014D01*
X2414Y-5038D01*
X2407Y-5066D01*
Y-5094D01*
X2414Y-5122D01*
X2428Y-5146D01*
X2448Y-5166D01*
X2473Y-5181D01*
X2500Y-5188D01*
X2529D01*
X2556Y-5181D01*
X2581Y-5166D01*
X2601Y-5146D01*
X2615Y-5122D01*
X2623Y-5094D01*
Y-5066D01*
X2615Y-5038D01*
X2601Y-5014D01*
X2581Y-4994D01*
X2556Y-4979D01*
X2529Y-4972D01*
D02*
G37*
G36*
X2275D02*
X2246D01*
X2219Y-4979D01*
X2194Y-4994D01*
X2174Y-5014D01*
X2160Y-5038D01*
X2153Y-5066D01*
Y-5094D01*
X2160Y-5122D01*
X2174Y-5146D01*
X2194Y-5166D01*
X2219Y-5181D01*
X2246Y-5188D01*
X2275D01*
X2302Y-5181D01*
X2327Y-5166D01*
X2347Y-5146D01*
X2361Y-5122D01*
X2368Y-5094D01*
Y-5066D01*
X2361Y-5038D01*
X2347Y-5014D01*
X2327Y-4994D01*
X2302Y-4979D01*
X2275Y-4972D01*
D02*
G37*
G36*
X2115Y-5093D02*
X2019D01*
Y-5188D01*
X2021D01*
X2048Y-5181D01*
X2073Y-5166D01*
X2093Y-5146D01*
X2107Y-5122D01*
X2115Y-5094D01*
Y-5093D01*
D02*
G37*
G36*
X1994D02*
X1899D01*
Y-5094D01*
X1906Y-5122D01*
X1920Y-5146D01*
X1940Y-5166D01*
X1965Y-5181D01*
X1992Y-5188D01*
X1994D01*
Y-5093D01*
D02*
G37*
G36*
X1767Y-4972D02*
X1738D01*
X1711Y-4979D01*
X1686Y-4994D01*
X1666Y-5014D01*
X1652Y-5038D01*
X1645Y-5066D01*
Y-5094D01*
X1652Y-5122D01*
X1666Y-5146D01*
X1686Y-5166D01*
X1711Y-5181D01*
X1738Y-5188D01*
X1767D01*
X1794Y-5181D01*
X1819Y-5166D01*
X1839Y-5146D01*
X1853Y-5122D01*
X1860Y-5094D01*
Y-5066D01*
X1853Y-5038D01*
X1839Y-5014D01*
X1819Y-4994D01*
X1794Y-4979D01*
X1767Y-4972D01*
D02*
G37*
G36*
X1513D02*
X1484D01*
X1457Y-4979D01*
X1432Y-4994D01*
X1412Y-5014D01*
X1398Y-5038D01*
X1391Y-5066D01*
Y-5094D01*
X1398Y-5122D01*
X1412Y-5146D01*
X1432Y-5166D01*
X1457Y-5181D01*
X1484Y-5188D01*
X1513D01*
X1540Y-5181D01*
X1565Y-5166D01*
X1585Y-5146D01*
X1599Y-5122D01*
X1607Y-5094D01*
Y-5066D01*
X1599Y-5038D01*
X1585Y-5014D01*
X1565Y-4994D01*
X1540Y-4979D01*
X1513Y-4972D01*
D02*
G37*
G36*
X1259D02*
X1230D01*
X1203Y-4979D01*
X1178Y-4994D01*
X1158Y-5014D01*
X1144Y-5038D01*
X1137Y-5066D01*
Y-5094D01*
X1144Y-5122D01*
X1158Y-5146D01*
X1178Y-5166D01*
X1203Y-5181D01*
X1230Y-5188D01*
X1259D01*
X1286Y-5181D01*
X1311Y-5166D01*
X1331Y-5146D01*
X1345Y-5122D01*
X1352Y-5094D01*
Y-5066D01*
X1345Y-5038D01*
X1331Y-5014D01*
X1311Y-4994D01*
X1286Y-4979D01*
X1259Y-4972D01*
D02*
G37*
G36*
X1098Y-5093D02*
X1003D01*
Y-5188D01*
X1005D01*
X1032Y-5181D01*
X1057Y-5166D01*
X1077Y-5146D01*
X1091Y-5122D01*
X1098Y-5094D01*
Y-5093D01*
D02*
G37*
G36*
X978D02*
X883D01*
Y-5094D01*
X890Y-5122D01*
X904Y-5146D01*
X924Y-5166D01*
X949Y-5181D01*
X976Y-5188D01*
X978D01*
Y-5093D01*
D02*
G37*
G36*
X751Y-4972D02*
X722D01*
X695Y-4979D01*
X670Y-4994D01*
X650Y-5014D01*
X636Y-5038D01*
X629Y-5066D01*
Y-5094D01*
X636Y-5122D01*
X650Y-5146D01*
X670Y-5166D01*
X695Y-5181D01*
X722Y-5188D01*
X751D01*
X778Y-5181D01*
X803Y-5166D01*
X823Y-5146D01*
X837Y-5122D01*
X844Y-5094D01*
Y-5066D01*
X837Y-5038D01*
X823Y-5014D01*
X803Y-4994D01*
X778Y-4979D01*
X751Y-4972D01*
D02*
G37*
G36*
X497D02*
X468D01*
X441Y-4979D01*
X416Y-4994D01*
X396Y-5014D01*
X382Y-5038D01*
X375Y-5066D01*
Y-5094D01*
X382Y-5122D01*
X396Y-5146D01*
X416Y-5166D01*
X441Y-5181D01*
X468Y-5188D01*
X497D01*
X524Y-5181D01*
X549Y-5166D01*
X569Y-5146D01*
X583Y-5122D01*
X591Y-5094D01*
Y-5066D01*
X583Y-5038D01*
X569Y-5014D01*
X549Y-4994D01*
X524Y-4979D01*
X497Y-4972D01*
D02*
G37*
G36*
X6092Y-4928D02*
X5829D01*
Y-5190D01*
X5838D01*
X5881Y-5184D01*
X5922Y-5170D01*
X5961Y-5150D01*
X5996Y-5125D01*
X6027Y-5094D01*
X6052Y-5059D01*
X6072Y-5021D01*
X6085Y-4979D01*
X6092Y-4937D01*
Y-4928D01*
D02*
G37*
G36*
X5804D02*
X5541D01*
Y-4937D01*
X5548Y-4979D01*
X5561Y-5021D01*
X5581Y-5059D01*
X5607Y-5094D01*
X5637Y-5125D01*
X5672Y-5150D01*
X5711Y-5170D01*
X5752Y-5184D01*
X5795Y-5190D01*
X5804D01*
Y-4928D01*
D02*
G37*
%LPD*%
G36*
X4483Y152D02*
X4483Y150D01*
Y-22D01*
X4473Y-15D01*
X4458Y-12D01*
X4432D01*
X4417Y-15D01*
X4405Y-23D01*
X4396Y-36D01*
X4393Y-51D01*
X4396Y-66D01*
X4405Y-78D01*
X4417Y-87D01*
X4432Y-90D01*
X4442D01*
X4483Y-131D01*
Y-157D01*
Y-188D01*
X4483Y-190D01*
X4481Y-192D01*
X4460Y-214D01*
X4459Y-215D01*
X4459Y-215D01*
X4458Y-215D01*
X4455Y-216D01*
X4380D01*
Y-214D01*
Y-59D01*
X4104D01*
Y-214D01*
Y-278D01*
X4066Y-316D01*
X4064Y-317D01*
X4061Y-317D01*
X3635D01*
X3633Y-317D01*
Y-279D01*
X3734D01*
Y-89D01*
Y101D01*
X3625D01*
X3625Y102D01*
X3694Y151D01*
X3694Y151D01*
X3696Y152D01*
X3698D01*
X3698Y152D01*
X4481D01*
X4483Y152D01*
D02*
G37*
G36*
X3606Y-279D02*
X3607D01*
Y-317D01*
X3603Y-322D01*
X3553Y-371D01*
X3535Y-390D01*
X3514D01*
Y-410D01*
X3506Y-418D01*
X3503Y-419D01*
X3330D01*
X3328Y-419D01*
X3326Y-417D01*
X3307Y-399D01*
Y-386D01*
X3294D01*
X3272Y-364D01*
X3266Y-357D01*
X3264Y-356D01*
X3266Y-354D01*
X3269Y-350D01*
X3277Y-343D01*
Y-229D01*
X3470Y-35D01*
Y-43D01*
X3574D01*
Y-25D01*
X3606D01*
Y-279D01*
D02*
G37*
%LPC*%
G36*
X4380Y122D02*
X4254D01*
Y-33D01*
X4380D01*
Y122D01*
D02*
G37*
G36*
X4229D02*
X4104D01*
Y-33D01*
X4229D01*
Y122D01*
D02*
G37*
G36*
X3887Y101D02*
X3759D01*
Y-76D01*
X3887D01*
Y101D01*
D02*
G37*
G36*
Y-102D02*
X3759D01*
Y-279D01*
X3887D01*
Y-102D01*
D02*
G37*
G36*
X3574Y-69D02*
X3470D01*
Y-101D01*
Y-109D01*
X3574D01*
Y-101D01*
Y-69D01*
D02*
G37*
G36*
Y-134D02*
X3470D01*
Y-167D01*
X3471D01*
Y-175D01*
X3574D01*
Y-143D01*
X3574D01*
Y-134D01*
D02*
G37*
G36*
X3574Y-201D02*
X3535D01*
Y-233D01*
X3574D01*
Y-201D01*
D02*
G37*
G36*
X3510D02*
X3471D01*
Y-233D01*
X3510D01*
Y-201D01*
D02*
G37*
G36*
X3442Y-243D02*
Y-305D01*
X3504D01*
X3499Y-288D01*
X3489Y-271D01*
X3475Y-257D01*
X3458Y-247D01*
X3442Y-243D01*
D02*
G37*
G36*
X3416D02*
X3400Y-247D01*
X3383Y-257D01*
X3369Y-271D01*
X3359Y-288D01*
X3354Y-305D01*
X3416D01*
Y-243D01*
D02*
G37*
G36*
X3504Y-330D02*
X3442D01*
Y-392D01*
X3458Y-388D01*
X3475Y-378D01*
X3489Y-364D01*
X3499Y-347D01*
X3504Y-330D01*
D02*
G37*
G36*
X3416D02*
X3354D01*
X3359Y-347D01*
X3369Y-364D01*
X3383Y-378D01*
X3400Y-388D01*
X3416Y-392D01*
Y-330D01*
D02*
G37*
%LPD*%
G36*
X2830Y-102D02*
X2830Y-102D01*
X2830Y-102D01*
X2830Y-102D01*
X2834Y-103D01*
X2834Y-103D01*
X2897Y-166D01*
X2930Y-200D01*
X2932Y-201D01*
X2932Y-202D01*
X2933Y-204D01*
X2933Y-204D01*
X2933Y-204D01*
X2934Y-206D01*
X2934Y-206D01*
X2934Y-208D01*
X2934Y-208D01*
Y-899D01*
X2934Y-899D01*
X2933Y-900D01*
X2933Y-900D01*
X2933Y-900D01*
X2932Y-903D01*
X2932Y-904D01*
X2772Y-1063D01*
X2770Y-1065D01*
X2770Y-1065D01*
X2768Y-1066D01*
X2768Y-1066D01*
X2768Y-1066D01*
X2766Y-1067D01*
X2766Y-1067D01*
X2764Y-1067D01*
X2763Y-1067D01*
X2229D01*
X2226Y-1067D01*
X2224D01*
X2221Y-1068D01*
X2219Y-1069D01*
X2217Y-1070D01*
X2214Y-1071D01*
X2213Y-1073D01*
X2210Y-1074D01*
X2209Y-1077D01*
X2207Y-1078D01*
X2206Y-1081D01*
X2205Y-1083D01*
X2204Y-1085D01*
X2203Y-1088D01*
Y-1090D01*
X2203Y-1091D01*
X1702D01*
X1687Y-1094D01*
X1674Y-1103D01*
X1673Y-1104D01*
X1614Y-1163D01*
X1614Y-1164D01*
X1608Y-1165D01*
X1598Y-1172D01*
X1594Y-1177D01*
X1591Y-1172D01*
X1581Y-1165D01*
X1569Y-1163D01*
X1567D01*
Y-1229D01*
X1542D01*
Y-1163D01*
X1540D01*
X1528Y-1165D01*
X1518Y-1172D01*
X1515Y-1177D01*
X1511Y-1172D01*
X1501Y-1165D01*
X1490Y-1163D01*
X1487D01*
Y-1229D01*
X1462D01*
Y-1163D01*
X1460D01*
X1448Y-1165D01*
X1438Y-1172D01*
X1435Y-1177D01*
X1431Y-1172D01*
X1421Y-1165D01*
X1410Y-1163D01*
X1380D01*
X1368Y-1165D01*
X1358Y-1172D01*
X1351Y-1182D01*
X1349Y-1194D01*
Y-1264D01*
X1351Y-1276D01*
X1355Y-1283D01*
D01*
X1353D01*
X1353Y-1283D01*
X1222D01*
X1222Y-1283D01*
X1221Y-1282D01*
X1221Y-1282D01*
X1221Y-1282D01*
X1218Y-1281D01*
X1217Y-1281D01*
X982Y-1045D01*
X980Y-1043D01*
X980Y-1043D01*
X979Y-1041D01*
X979Y-1041D01*
X979Y-1041D01*
X978Y-1039D01*
X978Y-1039D01*
X978Y-1036D01*
X978Y-1036D01*
Y-295D01*
X978Y-295D01*
X978Y-294D01*
X978Y-294D01*
X978Y-294D01*
X980Y-290D01*
X980Y-290D01*
X1165Y-105D01*
X1167Y-103D01*
X1167Y-103D01*
X1169Y-102D01*
X1169Y-102D01*
X1169Y-102D01*
X1171Y-102D01*
X1171Y-102D01*
X1173Y-102D01*
X1174Y-102D01*
X2830D01*
X2830Y-102D01*
D02*
G37*
G36*
X3480Y-1854D02*
Y-2616D01*
X3353Y-2743D01*
X2466D01*
X2464Y-2743D01*
X1460D01*
X1460Y-2743D01*
X1232Y-2515D01*
Y-1778D01*
X1349Y-1661D01*
Y-1676D01*
X1394D01*
Y-1689D01*
X1407D01*
Y-1755D01*
X1410D01*
X1421Y-1753D01*
X1431Y-1746D01*
X1435Y-1741D01*
X1438Y-1746D01*
X1448Y-1753D01*
X1460Y-1755D01*
X1462D01*
Y-1689D01*
X1487D01*
Y-1755D01*
X1490D01*
X1501Y-1753D01*
X1511Y-1746D01*
X1515Y-1741D01*
X1518Y-1746D01*
X1528Y-1753D01*
X1540Y-1755D01*
X1542D01*
Y-1689D01*
X1567D01*
Y-1755D01*
X1569D01*
X1581Y-1753D01*
X1591Y-1746D01*
X1594Y-1741D01*
X1598Y-1746D01*
X1600Y-1748D01*
Y-1753D01*
X1607D01*
X1608Y-1753D01*
X1619Y-1755D01*
X1650D01*
X1661Y-1753D01*
X1662Y-1753D01*
X1687D01*
X1688Y-1753D01*
X1700Y-1755D01*
X1730D01*
X1741Y-1753D01*
X1742Y-1753D01*
X1767D01*
X1768Y-1753D01*
X1780Y-1755D01*
X1809D01*
X1821Y-1753D01*
X1822Y-1753D01*
X1847D01*
X1848Y-1753D01*
X1859Y-1755D01*
X1881D01*
X1882Y-1755D01*
X1882D01*
X2007Y-1880D01*
X2680D01*
X2921Y-1638D01*
X3264D01*
X3480Y-1854D01*
D02*
G37*
G36*
X2483Y-2787D02*
X2602Y-2906D01*
X2603Y-2908D01*
X2603Y-2911D01*
Y-3037D01*
Y-3048D01*
X2611Y-3056D01*
X2888Y-3333D01*
X2896Y-3340D01*
X3211D01*
X3213Y-3341D01*
X3213Y-3343D01*
Y-3985D01*
X3213Y-3988D01*
X3211Y-3990D01*
X2897Y-4303D01*
X2895Y-4305D01*
X2893Y-4305D01*
X1679D01*
X1677Y-4305D01*
X1675Y-4303D01*
X1272Y-3901D01*
X1270Y-3899D01*
X1270Y-3896D01*
Y-3000D01*
X1270Y-2997D01*
X1272Y-2995D01*
X1460Y-2807D01*
Y-2771D01*
X1461Y-2769D01*
X2464D01*
X2483Y-2787D01*
D02*
G37*
%LPC*%
G36*
X1731Y-283D02*
X1448D01*
Y-381D01*
X1731D01*
Y-283D01*
D02*
G37*
G36*
X1422D02*
X1140D01*
Y-381D01*
X1422D01*
Y-283D01*
D02*
G37*
G36*
X2391Y-284D02*
X2108D01*
Y-382D01*
X2391D01*
Y-284D01*
D02*
G37*
G36*
X2083D02*
X1800D01*
Y-382D01*
X2083D01*
Y-284D01*
D02*
G37*
G36*
X2843Y-357D02*
X2705D01*
Y-470D01*
X2843D01*
Y-357D01*
D02*
G37*
G36*
X2680D02*
X2542D01*
Y-470D01*
X2680D01*
Y-357D01*
D02*
G37*
G36*
X1731Y-406D02*
X1448D01*
Y-504D01*
X1731D01*
Y-406D01*
D02*
G37*
G36*
X1422D02*
X1140D01*
Y-504D01*
X1422D01*
Y-406D01*
D02*
G37*
G36*
X2391Y-407D02*
X2108D01*
Y-505D01*
X2391D01*
Y-407D01*
D02*
G37*
G36*
X2083D02*
X1800D01*
Y-505D01*
X2083D01*
Y-407D01*
D02*
G37*
G36*
X2843Y-495D02*
X2705D01*
Y-608D01*
X2843D01*
Y-495D01*
D02*
G37*
G36*
X2680D02*
X2542D01*
Y-608D01*
X2680D01*
Y-495D01*
D02*
G37*
G36*
X1791Y-548D02*
Y-610D01*
X1853D01*
X1848Y-593D01*
X1838Y-576D01*
X1824Y-562D01*
X1807Y-552D01*
X1791Y-548D01*
D02*
G37*
G36*
X1765D02*
X1749Y-552D01*
X1732Y-562D01*
X1718Y-576D01*
X1708Y-593D01*
X1703Y-610D01*
X1765D01*
Y-548D01*
D02*
G37*
G36*
X2400Y-598D02*
Y-660D01*
X2462D01*
X2458Y-644D01*
X2448Y-627D01*
X2434Y-613D01*
X2417Y-603D01*
X2400Y-598D01*
D02*
G37*
G36*
X2375D02*
X2358Y-603D01*
X2341Y-613D01*
X2327Y-627D01*
X2317Y-644D01*
X2313Y-660D01*
X2375D01*
Y-598D01*
D02*
G37*
G36*
X1853Y-635D02*
X1791D01*
Y-697D01*
X1807Y-693D01*
X1824Y-683D01*
X1838Y-669D01*
X1848Y-651D01*
X1853Y-635D01*
D02*
G37*
G36*
X1765D02*
X1703D01*
X1708Y-651D01*
X1718Y-669D01*
X1732Y-683D01*
X1749Y-693D01*
X1765Y-697D01*
Y-635D01*
D02*
G37*
G36*
X2462Y-686D02*
X2400D01*
Y-748D01*
X2417Y-743D01*
X2434Y-733D01*
X2448Y-719D01*
X2458Y-702D01*
X2462Y-686D01*
D02*
G37*
G36*
X2375D02*
X2313D01*
X2317Y-702D01*
X2327Y-719D01*
X2341Y-733D01*
X2358Y-743D01*
X2375Y-748D01*
Y-686D01*
D02*
G37*
G36*
X1613Y-700D02*
Y-762D01*
X1675D01*
X1670Y-746D01*
X1661Y-728D01*
X1646Y-714D01*
X1629Y-704D01*
X1613Y-700D01*
D02*
G37*
G36*
X1588D02*
X1571Y-704D01*
X1554Y-714D01*
X1540Y-728D01*
X1530Y-746D01*
X1526Y-762D01*
X1588D01*
Y-700D01*
D02*
G37*
G36*
X2527Y-764D02*
Y-826D01*
X2589D01*
X2585Y-809D01*
X2575Y-792D01*
X2561Y-778D01*
X2544Y-768D01*
X2527Y-764D01*
D02*
G37*
G36*
X2502D02*
X2485Y-768D01*
X2468Y-778D01*
X2454Y-792D01*
X2444Y-809D01*
X2440Y-826D01*
X2502D01*
Y-764D01*
D02*
G37*
G36*
X1675Y-787D02*
X1613D01*
Y-849D01*
X1629Y-845D01*
X1646Y-835D01*
X1661Y-821D01*
X1670Y-804D01*
X1675Y-787D01*
D02*
G37*
G36*
X1588D02*
X1526D01*
X1530Y-804D01*
X1540Y-821D01*
X1554Y-835D01*
X1571Y-845D01*
X1588Y-849D01*
Y-787D01*
D02*
G37*
G36*
X2589Y-851D02*
X2527D01*
Y-913D01*
X2544Y-908D01*
X2561Y-899D01*
X2575Y-884D01*
X2585Y-867D01*
X2589Y-851D01*
D02*
G37*
G36*
X2502D02*
X2440D01*
X2444Y-867D01*
X2454Y-884D01*
X2468Y-899D01*
X2485Y-908D01*
X2502Y-913D01*
Y-851D01*
D02*
G37*
G36*
X1382Y-1702D02*
X1349D01*
Y-1724D01*
X1351Y-1736D01*
X1358Y-1746D01*
X1368Y-1753D01*
X1380Y-1755D01*
X1382D01*
Y-1702D01*
D02*
G37*
G36*
X2448Y-2096D02*
X2085D01*
Y-2284D01*
X2448D01*
Y-2096D01*
D02*
G37*
G36*
X2060D02*
X1697D01*
Y-2284D01*
X2060D01*
Y-2096D01*
D02*
G37*
G36*
X3342Y-2212D02*
X3165D01*
Y-2350D01*
X3342D01*
Y-2212D01*
D02*
G37*
G36*
X3139D02*
X2961D01*
Y-2350D01*
X3139D01*
Y-2212D01*
D02*
G37*
G36*
X2448Y-2309D02*
X2085D01*
Y-2497D01*
X2448D01*
Y-2309D01*
D02*
G37*
G36*
X2060D02*
X1697D01*
Y-2497D01*
X2060D01*
Y-2309D01*
D02*
G37*
G36*
X3342Y-2375D02*
X3165D01*
Y-2513D01*
X3342D01*
Y-2375D01*
D02*
G37*
G36*
X3139D02*
X2961D01*
Y-2513D01*
X3139D01*
Y-2375D01*
D02*
G37*
G36*
X2448Y-3146D02*
X2085D01*
Y-3334D01*
X2448D01*
Y-3146D01*
D02*
G37*
G36*
X2060D02*
X1697D01*
Y-3334D01*
X2060D01*
Y-3146D01*
D02*
G37*
G36*
X3077Y-3360D02*
X2961D01*
Y-3482D01*
X3077D01*
Y-3360D01*
D02*
G37*
G36*
X2936D02*
X2821D01*
Y-3482D01*
X2936D01*
Y-3360D01*
D02*
G37*
G36*
X2448Y-3360D02*
X2085D01*
Y-3547D01*
X2448D01*
Y-3360D01*
D02*
G37*
G36*
X2060D02*
X1697D01*
Y-3547D01*
X2060D01*
Y-3360D01*
D02*
G37*
G36*
X3077Y-3508D02*
X2961D01*
Y-3630D01*
X3077D01*
Y-3508D01*
D02*
G37*
G36*
X2936D02*
X2821D01*
Y-3630D01*
X2936D01*
Y-3508D01*
D02*
G37*
G36*
X2563Y-3519D02*
X2543D01*
X2524Y-3524D01*
X2506Y-3534D01*
X2492Y-3548D01*
X2482Y-3565D01*
X2477Y-3584D01*
Y-3604D01*
X2482Y-3623D01*
X2492Y-3640D01*
X2506Y-3654D01*
X2524Y-3664D01*
X2543Y-3669D01*
X2563D01*
X2582Y-3664D01*
X2599Y-3654D01*
X2613Y-3640D01*
X2623Y-3623D01*
X2628Y-3604D01*
Y-3584D01*
X2623Y-3565D01*
X2613Y-3548D01*
X2599Y-3534D01*
X2582Y-3524D01*
X2563Y-3519D01*
D02*
G37*
G36*
X2286Y-3685D02*
Y-3747D01*
X2348D01*
X2344Y-3730D01*
X2334Y-3713D01*
X2320Y-3699D01*
X2302Y-3689D01*
X2286Y-3685D01*
D02*
G37*
G36*
X2261D02*
X2244Y-3689D01*
X2227Y-3699D01*
X2213Y-3713D01*
X2203Y-3730D01*
X2199Y-3747D01*
X2261D01*
Y-3685D01*
D02*
G37*
G36*
X2348Y-3772D02*
X2286D01*
Y-3834D01*
X2302Y-3829D01*
X2320Y-3820D01*
X2334Y-3805D01*
X2344Y-3788D01*
X2348Y-3772D01*
D02*
G37*
G36*
X2261D02*
X2199D01*
X2203Y-3788D01*
X2213Y-3805D01*
X2227Y-3820D01*
X2244Y-3829D01*
X2261Y-3834D01*
Y-3772D01*
D02*
G37*
%LPD*%
D17*
X2095Y-1283D02*
Y-1270D01*
X2007Y-1181D02*
X2095Y-1270D01*
X1902Y-1181D02*
X2007D01*
X3122Y-1648D02*
X3124Y-1651D01*
X3122Y-1648D02*
Y-1534D01*
X2553Y-1245D02*
X2832D01*
X3122Y-1534D01*
X1642Y-1191D02*
X1702Y-1131D01*
X1702Y-1130D02*
X2223D01*
X2350Y-1257D02*
Y-1255D01*
X2287Y-1193D02*
X2350Y-1255D01*
X2285Y-1193D02*
X2287D01*
X2223Y-1130D02*
X2285Y-1193D01*
X2667Y-1702D02*
Y-1700D01*
X2546Y-1579D02*
X2667Y-1700D01*
X2456Y-1579D02*
X2546D01*
X2159Y-1753D02*
X2159D01*
X1638Y-1219D02*
X1642Y-1216D01*
Y-1191D01*
X1875Y-1209D02*
X1902Y-1181D01*
X1875Y-1229D02*
Y-1209D01*
X2160Y-1511D02*
Y-1499D01*
X2057Y-1753D02*
X2159D01*
X1938D02*
X2057D01*
Y-1562D02*
X2159Y-1460D01*
X2057Y-1753D02*
Y-1562D01*
X1875Y-1709D02*
Y-1689D01*
Y-1709D02*
X1882Y-1716D01*
X1902D01*
X1938Y-1753D01*
X2407Y-1530D02*
Y-1511D01*
Y-1530D02*
X2456Y-1579D01*
X3391Y-1107D02*
Y-952D01*
X3276Y-838D02*
X3391Y-952D01*
X3150Y-838D02*
X3276D01*
X3150Y-826D02*
Y-580D01*
X3401Y-1257D02*
X3428Y-1285D01*
X3576Y-4465D02*
Y-1442D01*
X3428Y-1295D02*
Y-1285D01*
X3391Y-1257D02*
X3401D01*
X3428Y-1295D02*
X3576Y-1442D01*
Y-4465D02*
X3734Y-4623D01*
X3474Y-616D02*
X3607Y-482D01*
X3416Y-635D02*
X3436Y-616D01*
X3607Y-482D02*
X3632D01*
X3436Y-616D02*
X3474D01*
X3160Y-236D02*
Y-121D01*
Y-265D02*
Y-236D01*
X3099Y-60D02*
X3160Y-121D01*
X3099Y-60D02*
Y-38D01*
X4801Y-394D02*
X5216D01*
X4458Y-51D02*
X4801Y-394D01*
X4432Y-51D02*
X4458D01*
X3632Y-991D02*
Y-787D01*
X3073Y-504D02*
Y-470D01*
Y-504D02*
X3150Y-580D01*
X3518Y13D02*
X3525D01*
X3531Y18D01*
X3632Y-482D02*
X3657D01*
X3177Y-219D02*
X3232D01*
X3457Y7D01*
X3512D01*
X3160Y-236D02*
X3177Y-219D01*
X3512Y7D02*
X3518Y13D01*
X4169Y-717D02*
X4242Y-644D01*
X4073Y-777D02*
X4133Y-717D01*
X4073Y-813D02*
Y-777D01*
X4133Y-717D02*
X4169D01*
X4242Y-644D02*
Y-381D01*
X4550D01*
X4543Y-1248D02*
X4648Y-1143D01*
Y-813D01*
X4423Y-1248D02*
X4543D01*
X4420Y-1245D02*
X4423Y-1248D01*
X5093Y-521D02*
X5702Y-1130D01*
X4550Y-381D02*
X4690Y-521D01*
X5093D01*
X5216Y-394D02*
X5702Y-880D01*
X3734Y-4623D02*
X4369D01*
X4547Y-4801D01*
X2159Y-1740D02*
Y-1712D01*
D31*
X483Y-5080D02*
D03*
Y-4826D02*
D03*
X737Y-5080D02*
D03*
Y-4826D02*
D03*
X991Y-5080D02*
D03*
Y-4826D02*
D03*
X1245Y-5080D02*
D03*
Y-4826D02*
D03*
X1499Y-5080D02*
D03*
Y-4826D02*
D03*
X1753Y-5080D02*
D03*
Y-4826D02*
D03*
X2007Y-5080D02*
D03*
Y-4826D02*
D03*
X2261Y-5080D02*
D03*
Y-4826D02*
D03*
X2515Y-5080D02*
D03*
Y-4826D02*
D03*
X2769Y-5080D02*
D03*
Y-4826D02*
D03*
X3023Y-5080D02*
D03*
Y-4826D02*
D03*
X3277Y-5080D02*
D03*
Y-4826D02*
D03*
X3531Y-5080D02*
D03*
Y-4826D02*
D03*
X3785Y-5080D02*
D03*
Y-4826D02*
D03*
X4039Y-5080D02*
D03*
Y-4826D02*
D03*
X4293Y-5080D02*
D03*
Y-4826D02*
D03*
X4547Y-5080D02*
D03*
Y-4826D02*
D03*
X4801Y-5080D02*
D03*
Y-4826D02*
D03*
X5055Y-5080D02*
D03*
Y-4826D02*
D03*
X5309Y-5080D02*
D03*
D32*
Y-4826D02*
D03*
D35*
X5702Y-880D02*
D03*
D36*
Y-1130D02*
D03*
D37*
X4403Y-3973D02*
D03*
X4153D02*
D03*
X5298Y-1967D02*
D03*
X5548D02*
D03*
X5798D02*
D03*
X4407Y-1956D02*
D03*
X4157D02*
D03*
X4403Y-2972D02*
D03*
X4153D02*
D03*
X5300Y-3988D02*
D03*
X5550D02*
D03*
X5800D02*
D03*
X5298Y-2970D02*
D03*
X5548D02*
D03*
X5798D02*
D03*
D38*
X3903Y-3973D02*
D03*
X5048Y-1967D02*
D03*
X3907Y-1956D02*
D03*
X3903Y-2972D02*
D03*
X5050Y-3988D02*
D03*
X5048Y-2970D02*
D03*
D43*
X152Y-2299D02*
D03*
X864D02*
D03*
D44*
X5000Y-1250D02*
D03*
X800Y-50D02*
D03*
Y-1250D02*
D03*
X5000Y-50D02*
D03*
D45*
X762Y-3759D02*
D03*
X51D02*
D03*
D46*
X5800Y0D02*
D03*
X0D02*
D03*
Y-4900D02*
D03*
X5817Y-4915D02*
D03*
D47*
X2095Y-1283D02*
D03*
X2667Y-1702D02*
D03*
X3099Y-38D02*
D03*
X3416Y-635D02*
D03*
X3429Y-317D02*
D03*
X3632Y-991D02*
D03*
X1600Y-775D02*
D03*
X2515Y-838D02*
D03*
X2388Y-673D02*
D03*
X1778Y-622D02*
D03*
X2273Y-3759D02*
D03*
X4216Y-2515D02*
D03*
X5397Y-2502D02*
D03*
Y-3531D02*
D03*
X5410Y-4483D02*
D03*
X4254D02*
D03*
X4242Y-3531D02*
D03*
X2553Y-3594D02*
D03*
D48*
X1713Y-1586D02*
D03*
X1556D02*
D03*
Y-1332D02*
D03*
X1713D02*
D03*
Y-1459D02*
D03*
X1556D02*
D03*
X1435D02*
D03*
X1834D02*
D03*
D65*
X4242Y-381D02*
D03*
Y-46D02*
D03*
D66*
X3152Y-2362D02*
D03*
Y-3052D02*
D03*
D67*
X2072Y-3347D02*
D03*
Y-2297D02*
D03*
D68*
X1435Y116D02*
D03*
Y-394D02*
D03*
X2095Y115D02*
D03*
Y-395D02*
D03*
D69*
X2692Y-483D02*
D03*
Y178D02*
D03*
D70*
X2530Y-1257D02*
D03*
X2350D02*
D03*
D71*
X3399Y-3495D02*
D03*
X2949D02*
D03*
D72*
X3160Y-265D02*
D03*
X3068Y-470D02*
D03*
X3251D02*
D03*
D73*
X3746Y-89D02*
D03*
D74*
X3522Y-122D02*
D03*
Y-56D02*
D03*
X3522Y11D02*
D03*
X3523Y-188D02*
D03*
D75*
X2160Y-1511D02*
D03*
X2426D02*
D03*
D76*
X2172Y-1753D02*
D03*
X2477D02*
D03*
D77*
X3632Y-788D02*
D03*
Y-482D02*
D03*
X3150Y-838D02*
D03*
Y-1143D02*
D03*
D78*
X3391Y-1257D02*
D03*
Y-1107D02*
D03*
D79*
X4648Y-813D02*
D03*
X4073D02*
D03*
X3845Y-1245D02*
D03*
X4420D02*
D03*
D80*
X1394Y-1229D02*
D03*
X1474D02*
D03*
X1555D02*
D03*
X1634D02*
D03*
X1715D02*
D03*
X1794D02*
D03*
X1875D02*
D03*
X1394Y-1689D02*
D03*
X1474D02*
D03*
X1555D02*
D03*
X1634D02*
D03*
X1715D02*
D03*
X1794D02*
D03*
X1875D02*
D03*
D81*
X1634Y-1459D02*
D03*
M02*
