G04*
G04 #@! TF.GenerationSoftware,Altium Limited,Altium Designer,23.10.1 (27)*
G04*
G04 Layer_Color=16711935*
%FSLAX42Y42*%
%MOMM*%
G71*
G04*
G04 #@! TF.SameCoordinates,D45A84C9-24EE-431E-81B0-E16C7BED9CBD*
G04*
G04*
G04 #@! TF.FilePolarity,Positive*
G04*
G01*
G75*
%ADD10C,0.20*%
%ADD98C,0.10*%
%ADD102C,0.05*%
D10*
X2831Y-3188D02*
Y-2227D01*
Y-3188D02*
X3473D01*
Y-2227D01*
X2831D02*
X3473D01*
X1140Y-504D02*
X1730D01*
X1140D02*
Y226D01*
X1730D01*
Y-504D02*
Y226D01*
X1800Y-505D02*
X2391D01*
X1800D02*
Y225D01*
X2391D01*
Y-505D02*
Y225D01*
X2479Y-1606D02*
Y-1416D01*
X2107Y-1606D02*
X2479D01*
X2107D02*
Y-1416D01*
X2479D01*
D98*
X4242Y-263D02*
Y-163D01*
X4192Y-213D02*
X4292D01*
X2022Y-2822D02*
X2122D01*
X2072Y-2872D02*
Y-2772D01*
X2692Y-202D02*
Y-102D01*
X2642Y-152D02*
X2742D01*
X2440Y-1307D02*
Y-1207D01*
X2390Y-1257D02*
X2490D01*
X3174Y-3545D02*
Y-3445D01*
X3124Y-3495D02*
X3224D01*
X2274Y-1753D02*
X2374D01*
X2324Y-1803D02*
Y-1703D01*
X3632Y-685D02*
Y-585D01*
X3582Y-635D02*
X3682D01*
X3391Y-1227D02*
Y-1137D01*
X3346Y-1182D02*
X3436D01*
X3150Y-1041D02*
Y-941D01*
X3100Y-991D02*
X3200D01*
X4361Y-863D02*
Y-763D01*
X4311Y-813D02*
X4411D01*
X4132Y-1295D02*
Y-1195D01*
X4082Y-1245D02*
X4182D01*
X1634Y-1509D02*
Y-1409D01*
X1585Y-1459D02*
X1684D01*
D102*
X3992Y-574D02*
X4492D01*
X3992Y147D02*
X4492D01*
Y-574D02*
Y147D01*
X3992Y-574D02*
Y147D01*
X2247Y-3083D02*
Y-2561D01*
X1897Y-3083D02*
Y-2561D01*
Y-3083D02*
X2247D01*
X1897Y-2561D02*
X2247D01*
X2846Y-4953D02*
X2946D01*
X2896Y-5003D02*
Y-4903D01*
X281Y-5253D02*
Y-4653D01*
X5511D01*
Y-5253D02*
Y-4653D01*
X281Y-5253D02*
X5511D01*
X2464Y-533D02*
X2920D01*
Y-282D01*
X2922Y-26D02*
Y229D01*
X2464D02*
X2922D01*
X2464Y-533D02*
Y229D01*
X2922Y-279D02*
Y-26D01*
X2920Y-282D02*
X2922Y-279D01*
X2225Y-1127D02*
X2655D01*
X2225Y-1387D02*
X2655D01*
Y-1127D01*
X2225Y-1387D02*
Y-1127D01*
X2834Y-3315D02*
X3514D01*
X2834Y-3675D02*
X3514D01*
Y-3315D01*
X2834Y-3675D02*
Y-3315D01*
X2990Y-181D02*
X3330D01*
X2990Y-554D02*
Y-181D01*
Y-554D02*
X3330D01*
Y-181D01*
X2059Y-1893D02*
Y-1613D01*
X2589Y-1893D02*
Y-1613D01*
X2059Y-1893D02*
X2589D01*
X2059Y-1613D02*
X2589D01*
X3487Y-905D02*
X3777D01*
X3487Y-365D02*
X3777D01*
Y-905D02*
Y-365D01*
X3487Y-905D02*
Y-365D01*
X3291Y-1347D02*
X3491D01*
X3291Y-1017D02*
X3491D01*
Y-1347D02*
Y-1017D01*
X3291Y-1347D02*
Y-1017D01*
X3005Y-721D02*
X3295D01*
X3005Y-1261D02*
X3295D01*
X3005D02*
Y-721D01*
X3295Y-1261D02*
Y-721D01*
X4100Y-638D02*
X4622D01*
X4100Y-988D02*
X4622D01*
Y-638D01*
X4100Y-988D02*
Y-638D01*
X3871Y-1420D02*
X4393D01*
X3871Y-1070D02*
X4393D01*
X3871Y-1420D02*
Y-1070D01*
X4393Y-1420D02*
Y-1070D01*
X1319Y-1179D02*
X1950D01*
X1319Y-1739D02*
X1950D01*
X1319D02*
Y-1179D01*
X1950Y-1739D02*
Y-1179D01*
M02*
