G04*
G04 #@! TF.GenerationSoftware,Altium Limited,Altium Designer,23.10.1 (27)*
G04*
G04 Layer_Physical_Order=3*
G04 Layer_Color=128*
%FSLAX42Y42*%
%MOMM*%
G71*
G04*
G04 #@! TF.SameCoordinates,D45A84C9-24EE-431E-81B0-E16C7BED9CBD*
G04*
G04*
G04 #@! TF.FilePolarity,Negative*
G04*
G01*
G75*
%ADD17C,0.25*%
%ADD49C,1.02*%
%ADD50C,2.02*%
G04:AMPARAMS|DCode=51|XSize=2.524mm|YSize=2.524mm|CornerRadius=0mm|HoleSize=0mm|Usage=FLASHONLY|Rotation=0.000|XOffset=0mm|YOffset=0mm|HoleType=Round|Shape=Relief|Width=0.25mm|Gap=0.25mm|Entries=4|*
%AMTHD51*
7,0,0,2.52,2.02,0.25,45*
%
%ADD51THD51*%
%ADD53C,5.33*%
G04:AMPARAMS|DCode=54|XSize=3.724mm|YSize=3.724mm|CornerRadius=0mm|HoleSize=0mm|Usage=FLASHONLY|Rotation=0.000|XOffset=0mm|YOffset=0mm|HoleType=Round|Shape=Relief|Width=0.25mm|Gap=0.25mm|Entries=4|*
%AMTHD54*
7,0,0,3.72,3.22,0.25,45*
%
%ADD54THD54*%
%ADD55C,1.92*%
G04:AMPARAMS|DCode=56|XSize=2.424mm|YSize=2.424mm|CornerRadius=0mm|HoleSize=0mm|Usage=FLASHONLY|Rotation=0.000|XOffset=0mm|YOffset=0mm|HoleType=Round|Shape=Relief|Width=0.25mm|Gap=0.25mm|Entries=4|*
%AMTHD56*
7,0,0,2.42,1.92,0.25,45*
%
%ADD56THD56*%
%ADD57R,2.92X9.91*%
G04:AMPARAMS|DCode=58|XSize=4.024mm|YSize=4.024mm|CornerRadius=0mm|HoleSize=0mm|Usage=FLASHONLY|Rotation=0.000|XOffset=0mm|YOffset=0mm|HoleType=Round|Shape=Relief|Width=0.25mm|Gap=0.25mm|Entries=4|*
%AMTHD58*
7,0,0,4.02,3.52,0.25,45*
%
%ADD58THD58*%
%ADD59C,1.52*%
%ADD61C,3.22*%
%AMTHRECTD62*
4,1,4,1.71,-5.21,-1.71,-5.21,-1.71,5.21,1.71,5.21,1.71,-5.21,0.0*
4,0,4,1.46,-4.95,-1.46,-4.95,-1.46,4.95,1.46,4.95,1.46,-4.95,0.0*
20,0,0.25,0.00,-3.49,3.43,-6.92,0*
20,0,0.25,0.00,3.49,-3.43,6.92,0*
20,0,0.25,0.00,-3.49,-3.43,-6.92,0*
20,0,0.25,0.00,3.49,3.43,6.92,0*
%
%ADD62THRECTD62*%

G04:AMPARAMS|DCode=63|XSize=2.024mm|YSize=2.024mm|CornerRadius=0mm|HoleSize=0mm|Usage=FLASHONLY|Rotation=0.000|XOffset=0mm|YOffset=0mm|HoleType=Round|Shape=Relief|Width=0.25mm|Gap=0.25mm|Entries=4|*
%AMTHD63*
7,0,0,2.02,1.52,0.25,45*
%
%ADD63THD63*%
%ADD64C,1.22*%
D17*
X432Y-508D02*
X5486D01*
X5601Y-622D01*
Y-4445D02*
Y-622D01*
X5397Y-4648D02*
X5601Y-4445D01*
X5283Y-4648D02*
X5397D01*
X4051D02*
X5283D01*
X343D02*
X1588D01*
X343Y-419D02*
X432Y-508D01*
X343Y-4648D02*
Y-419D01*
X1588Y-4648D02*
X4051D01*
D49*
X5850Y-5250D02*
G03*
X6150Y-4950I0J300D01*
G01*
Y50D02*
G03*
X5850Y350I-300J0D01*
G01*
X-50D02*
G03*
X-350Y50I0J-300D01*
G01*
Y-4950D02*
G03*
X-50Y-5250I300J0D01*
G01*
X5850D01*
X6150Y-4950D02*
Y50D01*
X-50Y350D02*
X5850D01*
X-350Y-4950D02*
Y50D01*
D50*
X483Y-5080D02*
D03*
X737D02*
D03*
Y-4826D02*
D03*
X991D02*
D03*
X1245Y-5080D02*
D03*
Y-4826D02*
D03*
X1499Y-5080D02*
D03*
Y-4826D02*
D03*
X1753Y-5080D02*
D03*
Y-4826D02*
D03*
X2007D02*
D03*
X2261Y-5080D02*
D03*
X2515D02*
D03*
Y-4826D02*
D03*
X2769D02*
D03*
X3023Y-5080D02*
D03*
Y-4826D02*
D03*
X3277Y-5080D02*
D03*
Y-4826D02*
D03*
X3531Y-5080D02*
D03*
Y-4826D02*
D03*
X3785Y-5080D02*
D03*
Y-4826D02*
D03*
X4039D02*
D03*
X4293Y-5080D02*
D03*
X4547Y-4826D02*
D03*
X4801Y-5080D02*
D03*
Y-4826D02*
D03*
X5055Y-5080D02*
D03*
Y-4826D02*
D03*
X5309Y-5080D02*
D03*
Y-4826D02*
D03*
X5702Y-880D02*
D03*
Y-1130D02*
D03*
D51*
X483Y-4826D02*
D03*
X991Y-5080D02*
D03*
X2007D02*
D03*
X2261Y-4826D02*
D03*
X2769Y-5080D02*
D03*
X4039D02*
D03*
X4293Y-4826D02*
D03*
X4547Y-5080D02*
D03*
D53*
X152Y-2299D02*
D03*
X864D02*
D03*
D54*
X800Y-50D02*
D03*
X5000D02*
D03*
D55*
X4403Y-3973D02*
D03*
X3903D02*
D03*
X5048Y-1967D02*
D03*
X5548D02*
D03*
X5798D02*
D03*
X4407Y-1956D02*
D03*
X3907D02*
D03*
X4403Y-2972D02*
D03*
X3903D02*
D03*
X5050Y-3988D02*
D03*
X5550D02*
D03*
X5800D02*
D03*
X5048Y-2970D02*
D03*
X5548D02*
D03*
X5798D02*
D03*
D56*
X4153Y-3973D02*
D03*
X5298Y-1967D02*
D03*
X4157Y-1956D02*
D03*
X4153Y-2972D02*
D03*
X5300Y-3988D02*
D03*
X5298Y-2970D02*
D03*
D57*
X51Y-3759D02*
D03*
D58*
X5800Y0D02*
D03*
X0D02*
D03*
Y-4900D02*
D03*
X5817Y-4915D02*
D03*
D59*
X2095Y-1283D02*
D03*
X3099Y-38D02*
D03*
X3416Y-635D02*
D03*
X3429Y-317D02*
D03*
X2273Y-3759D02*
D03*
D61*
X5000Y-1250D02*
D03*
X800D02*
D03*
D62*
X762Y-3759D02*
D03*
D63*
X2667Y-1702D02*
D03*
X3632Y-991D02*
D03*
X1600Y-775D02*
D03*
X2515Y-838D02*
D03*
X2388Y-673D02*
D03*
X1778Y-622D02*
D03*
X4216Y-2515D02*
D03*
X5397Y-2502D02*
D03*
Y-3531D02*
D03*
X5410Y-4483D02*
D03*
X4254D02*
D03*
X4242Y-3531D02*
D03*
X2553Y-3594D02*
D03*
D64*
X1713Y-1586D02*
D03*
X1556D02*
D03*
Y-1332D02*
D03*
X1713D02*
D03*
Y-1459D02*
D03*
X1556D02*
D03*
X1435D02*
D03*
X1834D02*
D03*
M02*
