G04*
G04 #@! TF.GenerationSoftware,Altium Limited,Altium Designer,23.10.1 (27)*
G04*
G04 Layer_Color=16711935*
%FSLAX42Y42*%
%MOMM*%
G71*
G04*
G04 #@! TF.SameCoordinates,D45A84C9-24EE-431E-81B0-E16C7BED9CBD*
G04*
G04*
G04 #@! TF.FilePolarity,Positive*
G04*
G01*
G75*
%ADD10C,0.20*%
%ADD13C,0.13*%
%ADD98C,0.10*%
D10*
X2080Y-2856D02*
G03*
X2080Y-2856I-10J0D01*
G01*
X1295Y-2705D02*
Y-1892D01*
X-279Y-2705D02*
X1295D01*
X-279D02*
Y-1892D01*
X1295D01*
X5467Y-1375D02*
X6042D01*
Y-635D01*
X5467D02*
X6042D01*
X5467Y-1375D02*
Y-635D01*
X3658Y-4313D02*
Y-3738D01*
Y-4313D02*
X4648D01*
Y-3738D01*
X3658D02*
X4648D01*
X6043Y-2307D02*
Y-1732D01*
X4803D02*
X6043D01*
X4803Y-2307D02*
Y-1732D01*
Y-2307D02*
X6043D01*
X-303Y-4524D02*
Y-2994D01*
Y-4524D02*
X1827D01*
Y-2994D01*
X-303D02*
X1827D01*
X3662Y-2296D02*
Y-1721D01*
Y-2296D02*
X4652D01*
Y-1721D01*
X3662D02*
X4652D01*
X3658Y-3312D02*
Y-2737D01*
Y-3312D02*
X4648D01*
Y-2737D01*
X3658D02*
X4648D01*
X6045Y-4328D02*
Y-3753D01*
X4805D02*
X6045D01*
X4805Y-4328D02*
Y-3753D01*
Y-4328D02*
X6045D01*
X6043Y-3310D02*
Y-2735D01*
X4803D02*
X6043D01*
X4803Y-3310D02*
Y-2735D01*
Y-3310D02*
X6043D01*
D13*
X2199Y-3472D02*
Y-3035D01*
X1941Y-3472D02*
X2199D01*
X1941D02*
Y-3035D01*
X2199D01*
D98*
X2167Y-2555D02*
Y-1915D01*
Y-2555D02*
X2372Y-2760D01*
X3217D01*
Y-1710D01*
X2372D02*
X3217D01*
X2167Y-1915D02*
X2372Y-1710D01*
X2911Y-3431D02*
Y-3351D01*
X2751Y-3431D02*
X2911D01*
X2751D02*
Y-3351D01*
X2911D01*
X2602Y-3304D02*
X2707D01*
X2602Y-3249D02*
X2707D01*
Y-3304D02*
Y-3249D01*
X2602Y-3304D02*
Y-3249D01*
M02*
