G04*
G04 #@! TF.GenerationSoftware,Altium Limited,Altium Designer,23.10.1 (27)*
G04*
G04 Layer_Color=32768*
%FSLAX42Y42*%
%MOMM*%
G71*
G04*
G04 #@! TF.SameCoordinates,D45A84C9-24EE-431E-81B0-E16C7BED9CBD*
G04*
G04*
G04 #@! TF.FilePolarity,Positive*
G04*
G01*
G75*
G36*
X5285Y-4470D02*
X5285D01*
X5286Y-4470D01*
X5287Y-4470D01*
X5287Y-4470D01*
X5289Y-4470D01*
X5291Y-4471D01*
X5292Y-4471D01*
X5293Y-4472D01*
X5294Y-4472D01*
X5294Y-4472D01*
X5294Y-4472D01*
X5294Y-4473D01*
X5294Y-4473D01*
X5295Y-4473D01*
X5295Y-4473D01*
X5296Y-4474D01*
X5296Y-4474D01*
X5296Y-4475D01*
X5297Y-4475D01*
X5298Y-4476D01*
X5299Y-4478D01*
X5300Y-4480D01*
Y-4480D01*
X5300Y-4480D01*
X5300Y-4480D01*
X5300Y-4480D01*
X5300Y-4481D01*
X5300Y-4481D01*
X5301Y-4482D01*
X5301Y-4483D01*
X5301Y-4483D01*
X5301Y-4484D01*
X5301Y-4486D01*
X5302Y-4488D01*
X5302Y-4490D01*
Y-4490D01*
Y-4490D01*
Y-4490D01*
X5302Y-4491D01*
Y-4491D01*
X5302Y-4492D01*
X5302Y-4493D01*
X5301Y-4493D01*
X5301Y-4495D01*
X5301Y-4497D01*
X5300Y-4499D01*
X5299Y-4500D01*
X5299Y-4500D01*
X5299Y-4500D01*
X5299Y-4501D01*
X5299Y-4501D01*
X5299Y-4501D01*
X5298Y-4502D01*
X5298Y-4503D01*
X5297Y-4504D01*
X5296Y-4505D01*
X5294Y-4506D01*
X5293Y-4507D01*
X5293Y-4507D01*
X5293Y-4507D01*
X5293Y-4507D01*
X5292Y-4507D01*
X5292Y-4508D01*
X5291Y-4508D01*
X5291Y-4508D01*
X5290Y-4508D01*
X5290Y-4508D01*
X5289Y-4509D01*
X5287Y-4509D01*
X5285Y-4509D01*
X5284Y-4509D01*
X5283D01*
X5283Y-4509D01*
X5282Y-4509D01*
X5282Y-4509D01*
X5281Y-4509D01*
X5280Y-4509D01*
X5279Y-4509D01*
X5277Y-4508D01*
X5276Y-4508D01*
X5276Y-4507D01*
X5275Y-4507D01*
X5274Y-4506D01*
X5274Y-4506D01*
X5274Y-4506D01*
X5274Y-4506D01*
X5273Y-4506D01*
X5273Y-4506D01*
X5273Y-4505D01*
X5272Y-4505D01*
X5272Y-4504D01*
X5271Y-4504D01*
X5271Y-4503D01*
X5270Y-4502D01*
X5270Y-4502D01*
X5270Y-4501D01*
X5269Y-4500D01*
X5269Y-4499D01*
X5268Y-4498D01*
X5273Y-4497D01*
Y-4497D01*
X5274Y-4497D01*
X5274Y-4497D01*
X5274Y-4498D01*
X5274Y-4498D01*
X5274Y-4498D01*
X5274Y-4499D01*
X5275Y-4500D01*
X5276Y-4501D01*
X5277Y-4502D01*
X5277Y-4503D01*
X5278Y-4503D01*
X5278Y-4503D01*
X5278Y-4504D01*
X5279Y-4504D01*
X5280Y-4504D01*
X5281Y-4505D01*
X5282Y-4505D01*
X5284Y-4505D01*
X5284D01*
X5284Y-4505D01*
X5285D01*
X5285Y-4505D01*
X5286Y-4505D01*
X5288Y-4505D01*
X5289Y-4504D01*
X5290Y-4504D01*
X5291Y-4503D01*
X5291D01*
X5291Y-4503D01*
X5292Y-4503D01*
X5292Y-4502D01*
X5293Y-4501D01*
X5294Y-4501D01*
X5294Y-4500D01*
X5295Y-4498D01*
X5295Y-4497D01*
Y-4497D01*
X5295Y-4497D01*
X5295Y-4497D01*
X5295Y-4497D01*
X5296Y-4496D01*
X5296Y-4496D01*
X5296Y-4495D01*
X5296Y-4494D01*
X5296Y-4493D01*
X5296Y-4491D01*
X5296Y-4490D01*
Y-4490D01*
Y-4490D01*
Y-4489D01*
Y-4489D01*
X5296Y-4489D01*
Y-4488D01*
X5296Y-4488D01*
X5296Y-4487D01*
X5296Y-4486D01*
X5296Y-4484D01*
X5296Y-4483D01*
X5295Y-4481D01*
Y-4481D01*
X5295Y-4481D01*
X5295Y-4481D01*
X5295Y-4481D01*
X5295Y-4480D01*
X5294Y-4479D01*
X5293Y-4478D01*
X5293Y-4477D01*
X5292Y-4477D01*
X5291Y-4476D01*
X5291D01*
X5291Y-4476D01*
X5290Y-4476D01*
X5290Y-4476D01*
X5290Y-4475D01*
X5290Y-4475D01*
X5289Y-4475D01*
X5288Y-4475D01*
X5287Y-4474D01*
X5285Y-4474D01*
X5284Y-4474D01*
X5284D01*
X5283Y-4474D01*
X5283D01*
X5283Y-4474D01*
X5282Y-4474D01*
X5280Y-4475D01*
X5279Y-4475D01*
X5278Y-4476D01*
X5278Y-4476D01*
X5277Y-4476D01*
X5277Y-4477D01*
X5277Y-4477D01*
X5277Y-4477D01*
X5276Y-4477D01*
X5276Y-4477D01*
X5276Y-4478D01*
X5276Y-4478D01*
X5275Y-4478D01*
X5275Y-4479D01*
X5275Y-4479D01*
X5274Y-4480D01*
X5274Y-4481D01*
X5274Y-4481D01*
X5273Y-4482D01*
X5273Y-4483D01*
X5273Y-4484D01*
X5268Y-4483D01*
Y-4482D01*
X5268Y-4482D01*
X5268Y-4482D01*
X5268Y-4481D01*
X5268Y-4481D01*
X5269Y-4480D01*
X5269Y-4480D01*
X5269Y-4479D01*
X5270Y-4477D01*
X5271Y-4476D01*
X5272Y-4475D01*
X5272Y-4474D01*
X5273Y-4474D01*
X5274Y-4473D01*
X5274Y-4473D01*
X5274Y-4473D01*
X5274Y-4473D01*
X5274Y-4473D01*
X5275Y-4472D01*
X5275Y-4472D01*
X5276Y-4472D01*
X5276Y-4471D01*
X5277Y-4471D01*
X5278Y-4471D01*
X5279Y-4471D01*
X5280Y-4470D01*
X5281Y-4470D01*
X5282Y-4470D01*
X5283Y-4470D01*
X5284Y-4470D01*
X5284D01*
X5285Y-4470D01*
D02*
G37*
G36*
X5250Y-4500D02*
X5251Y-4500D01*
X5251Y-4500D01*
X5251Y-4500D01*
X5252Y-4499D01*
X5252Y-4499D01*
X5253Y-4498D01*
X5254Y-4498D01*
X5255Y-4497D01*
X5255D01*
X5255Y-4497D01*
X5255Y-4497D01*
X5256Y-4497D01*
X5257Y-4496D01*
X5257Y-4496D01*
X5258Y-4495D01*
X5259Y-4495D01*
X5260Y-4495D01*
Y-4499D01*
X5260D01*
X5260Y-4499D01*
X5260Y-4499D01*
X5259Y-4500D01*
X5259Y-4500D01*
X5259Y-4500D01*
X5258Y-4501D01*
X5256Y-4501D01*
X5255Y-4502D01*
X5254Y-4503D01*
X5253Y-4504D01*
X5253Y-4504D01*
X5253Y-4504D01*
X5253Y-4504D01*
X5253Y-4504D01*
X5252Y-4505D01*
X5251Y-4505D01*
X5251Y-4506D01*
X5250Y-4507D01*
X5249Y-4508D01*
X5249Y-4509D01*
X5246D01*
Y-4470D01*
X5250D01*
Y-4500D01*
D02*
G37*
G36*
X5221D02*
X5221Y-4500D01*
X5221Y-4500D01*
X5221Y-4500D01*
X5222Y-4499D01*
X5223Y-4499D01*
X5223Y-4498D01*
X5224Y-4498D01*
X5225Y-4497D01*
X5225D01*
X5225Y-4497D01*
X5226Y-4497D01*
X5226Y-4497D01*
X5227Y-4496D01*
X5228Y-4496D01*
X5228Y-4495D01*
X5229Y-4495D01*
X5230Y-4495D01*
Y-4499D01*
X5230D01*
X5230Y-4499D01*
X5230Y-4499D01*
X5229Y-4500D01*
X5229Y-4500D01*
X5229Y-4500D01*
X5228Y-4501D01*
X5227Y-4501D01*
X5226Y-4502D01*
X5224Y-4503D01*
X5223Y-4504D01*
X5223Y-4504D01*
X5223Y-4504D01*
X5223Y-4504D01*
X5223Y-4504D01*
X5222Y-4505D01*
X5222Y-4505D01*
X5221Y-4506D01*
X5220Y-4507D01*
X5220Y-4508D01*
X5219Y-4509D01*
X5216D01*
Y-4470D01*
X5221D01*
Y-4500D01*
D02*
G37*
G36*
X2546Y-3251D02*
X2546D01*
X2547Y-3251D01*
X2548Y-3251D01*
X2550Y-3251D01*
X2551Y-3252D01*
X2552Y-3252D01*
X2552Y-3252D01*
X2552D01*
X2552Y-3252D01*
X2552Y-3252D01*
X2553Y-3252D01*
X2554Y-3253D01*
X2554Y-3253D01*
X2555Y-3254D01*
X2556Y-3255D01*
X2556Y-3256D01*
Y-3256D01*
X2556Y-3256D01*
X2557Y-3256D01*
X2557Y-3257D01*
X2557Y-3257D01*
X2557Y-3258D01*
X2558Y-3259D01*
X2558Y-3260D01*
X2558Y-3261D01*
Y-3262D01*
Y-3262D01*
Y-3262D01*
X2558Y-3262D01*
Y-3262D01*
X2558Y-3263D01*
X2558Y-3264D01*
X2557Y-3265D01*
X2557Y-3266D01*
X2556Y-3267D01*
X2556Y-3268D01*
X2555Y-3268D01*
X2555Y-3268D01*
X2555Y-3268D01*
X2555Y-3269D01*
X2555Y-3269D01*
X2554Y-3269D01*
X2554Y-3269D01*
X2554Y-3270D01*
X2553Y-3270D01*
X2553Y-3270D01*
X2552Y-3270D01*
X2551Y-3271D01*
X2551Y-3271D01*
X2550Y-3271D01*
X2549Y-3272D01*
X2548Y-3272D01*
X2547Y-3272D01*
X2547Y-3272D01*
X2547Y-3272D01*
X2548Y-3272D01*
X2548Y-3272D01*
X2549Y-3273D01*
X2550Y-3273D01*
X2550Y-3274D01*
X2550Y-3274D01*
X2551Y-3274D01*
X2551Y-3275D01*
X2552Y-3275D01*
X2552Y-3276D01*
X2553Y-3277D01*
X2554Y-3278D01*
X2554Y-3279D01*
X2561Y-3289D01*
X2555D01*
X2550Y-3281D01*
Y-3281D01*
X2550Y-3281D01*
X2549Y-3281D01*
X2549Y-3281D01*
X2549Y-3280D01*
X2548Y-3279D01*
X2548Y-3279D01*
X2547Y-3278D01*
X2547Y-3277D01*
X2546Y-3276D01*
X2546Y-3276D01*
X2546Y-3276D01*
X2545Y-3275D01*
X2545Y-3275D01*
X2544Y-3274D01*
X2544Y-3274D01*
X2543Y-3274D01*
X2543Y-3273D01*
X2543Y-3273D01*
X2543Y-3273D01*
X2543Y-3273D01*
X2542Y-3273D01*
X2542Y-3273D01*
X2541Y-3273D01*
X2541D01*
X2541Y-3272D01*
X2541D01*
X2540Y-3272D01*
X2540Y-3272D01*
X2540D01*
X2539Y-3272D01*
X2532D01*
Y-3289D01*
X2527D01*
Y-3251D01*
X2545D01*
X2546Y-3251D01*
D02*
G37*
G36*
X2577Y-3251D02*
X2578Y-3251D01*
X2578Y-3251D01*
X2579Y-3251D01*
X2579Y-3251D01*
X2581Y-3252D01*
X2582Y-3252D01*
X2583Y-3252D01*
X2583Y-3253D01*
X2584Y-3253D01*
X2584Y-3254D01*
X2585Y-3254D01*
X2585Y-3254D01*
X2585Y-3254D01*
X2585Y-3254D01*
X2585Y-3255D01*
X2585Y-3255D01*
X2586Y-3256D01*
X2587Y-3257D01*
X2587Y-3258D01*
X2587Y-3259D01*
X2588Y-3260D01*
X2588Y-3261D01*
Y-3261D01*
Y-3261D01*
Y-3261D01*
X2588Y-3262D01*
X2587Y-3262D01*
X2587Y-3263D01*
X2587Y-3264D01*
X2587Y-3265D01*
X2586Y-3266D01*
X2586Y-3266D01*
X2586Y-3266D01*
X2586Y-3266D01*
X2585Y-3267D01*
X2584Y-3267D01*
X2584Y-3268D01*
X2583Y-3268D01*
X2582Y-3269D01*
X2582D01*
X2582Y-3269D01*
X2582Y-3269D01*
X2583Y-3269D01*
X2583Y-3269D01*
X2584Y-3269D01*
X2585Y-3270D01*
X2586Y-3271D01*
X2586Y-3271D01*
X2587Y-3272D01*
Y-3272D01*
X2587Y-3272D01*
X2588Y-3273D01*
X2588Y-3273D01*
X2588Y-3274D01*
X2589Y-3275D01*
X2589Y-3276D01*
X2589Y-3277D01*
X2589Y-3278D01*
Y-3278D01*
Y-3279D01*
Y-3279D01*
X2589Y-3279D01*
X2589Y-3280D01*
X2589Y-3280D01*
X2589Y-3281D01*
X2589Y-3281D01*
X2588Y-3283D01*
X2588Y-3283D01*
X2588Y-3284D01*
X2587Y-3285D01*
X2587Y-3285D01*
X2586Y-3286D01*
X2586Y-3287D01*
X2586Y-3287D01*
X2585Y-3287D01*
X2585Y-3287D01*
X2585Y-3287D01*
X2585Y-3287D01*
X2584Y-3288D01*
X2584Y-3288D01*
X2583Y-3288D01*
X2583Y-3289D01*
X2582Y-3289D01*
X2581Y-3289D01*
X2580Y-3289D01*
X2579Y-3290D01*
X2579Y-3290D01*
X2578Y-3290D01*
X2577Y-3290D01*
X2576D01*
X2576Y-3290D01*
X2575Y-3290D01*
X2575Y-3290D01*
X2574Y-3290D01*
X2573Y-3290D01*
X2572Y-3289D01*
X2571Y-3289D01*
X2570Y-3289D01*
X2569Y-3288D01*
X2569Y-3288D01*
X2568Y-3287D01*
X2567Y-3287D01*
X2567Y-3287D01*
X2567Y-3286D01*
X2567Y-3286D01*
X2567Y-3286D01*
X2567Y-3286D01*
X2566Y-3285D01*
X2566Y-3285D01*
X2566Y-3284D01*
X2565Y-3284D01*
X2565Y-3283D01*
X2564Y-3282D01*
X2564Y-3281D01*
X2564Y-3280D01*
X2564Y-3279D01*
X2564Y-3278D01*
Y-3278D01*
Y-3278D01*
Y-3278D01*
X2564Y-3278D01*
Y-3277D01*
X2564Y-3277D01*
X2564Y-3276D01*
X2564Y-3275D01*
X2565Y-3274D01*
X2565Y-3273D01*
X2566Y-3272D01*
Y-3272D01*
X2566Y-3272D01*
X2566Y-3272D01*
X2567Y-3271D01*
X2567Y-3271D01*
X2568Y-3270D01*
X2569Y-3269D01*
X2570Y-3269D01*
X2571Y-3269D01*
X2571D01*
X2571Y-3269D01*
X2571Y-3268D01*
X2571Y-3268D01*
X2570Y-3268D01*
X2570Y-3268D01*
X2569Y-3267D01*
X2568Y-3267D01*
X2567Y-3266D01*
X2567Y-3266D01*
X2567Y-3265D01*
X2567Y-3265D01*
X2566Y-3265D01*
X2566Y-3264D01*
X2566Y-3263D01*
X2566Y-3263D01*
X2566Y-3262D01*
X2565Y-3261D01*
Y-3261D01*
Y-3261D01*
Y-3260D01*
X2566Y-3260D01*
X2566Y-3260D01*
X2566Y-3259D01*
X2566Y-3258D01*
X2566Y-3257D01*
X2567Y-3256D01*
X2567Y-3255D01*
X2567Y-3255D01*
X2568Y-3254D01*
X2568Y-3254D01*
X2568Y-3254D01*
X2569Y-3254D01*
X2569Y-3253D01*
X2569Y-3253D01*
X2569Y-3253D01*
X2570Y-3253D01*
X2570Y-3253D01*
X2571Y-3252D01*
X2571Y-3252D01*
X2572Y-3252D01*
X2572Y-3251D01*
X2573Y-3251D01*
X2575Y-3251D01*
X2576Y-3251D01*
X2576Y-3251D01*
X2577D01*
X2577Y-3251D01*
D02*
G37*
G36*
X2958D02*
X2958D01*
X2958Y-3251D01*
X2959Y-3251D01*
X2960Y-3251D01*
X2961Y-3252D01*
X2963Y-3252D01*
X2964Y-3253D01*
X2964D01*
X2964Y-3253D01*
X2964Y-3253D01*
X2964Y-3253D01*
X2965Y-3254D01*
X2966Y-3254D01*
X2966Y-3255D01*
X2967Y-3256D01*
X2968Y-3257D01*
X2968Y-3259D01*
Y-3259D01*
X2969Y-3259D01*
X2969Y-3259D01*
X2969Y-3259D01*
X2969Y-3260D01*
X2969Y-3260D01*
X2969Y-3261D01*
X2969Y-3261D01*
X2969Y-3262D01*
X2970Y-3263D01*
X2970Y-3264D01*
X2970Y-3265D01*
X2970Y-3266D01*
X2970Y-3267D01*
X2970Y-3268D01*
Y-3269D01*
Y-3269D01*
Y-3270D01*
Y-3270D01*
Y-3271D01*
X2970Y-3271D01*
Y-3272D01*
X2970Y-3273D01*
X2970Y-3274D01*
X2970Y-3275D01*
X2969Y-3277D01*
X2969Y-3279D01*
X2969Y-3280D01*
X2969Y-3281D01*
Y-3281D01*
X2968Y-3281D01*
X2968Y-3281D01*
X2968Y-3282D01*
X2968Y-3282D01*
X2968Y-3283D01*
X2967Y-3284D01*
X2967Y-3285D01*
X2966Y-3286D01*
X2965Y-3287D01*
X2964Y-3288D01*
X2964D01*
X2964Y-3288D01*
X2963Y-3288D01*
X2963Y-3288D01*
X2963Y-3288D01*
X2963Y-3288D01*
X2962Y-3289D01*
X2962Y-3289D01*
X2961Y-3289D01*
X2959Y-3290D01*
X2958Y-3290D01*
X2956Y-3290D01*
X2956D01*
X2956Y-3290D01*
X2955D01*
X2955Y-3290D01*
X2954Y-3290D01*
X2953Y-3289D01*
X2951Y-3289D01*
X2950Y-3288D01*
X2950Y-3288D01*
X2949Y-3287D01*
X2949Y-3287D01*
X2949Y-3287D01*
X2949Y-3287D01*
X2949Y-3287D01*
X2948Y-3287D01*
X2948Y-3286D01*
X2948Y-3286D01*
X2947Y-3285D01*
X2946Y-3283D01*
X2946Y-3282D01*
X2946Y-3280D01*
X2950Y-3280D01*
Y-3280D01*
X2950Y-3280D01*
Y-3280D01*
X2950Y-3281D01*
X2950Y-3281D01*
X2951Y-3282D01*
X2951Y-3283D01*
X2951Y-3283D01*
X2952Y-3284D01*
X2952Y-3285D01*
X2952Y-3285D01*
X2953Y-3285D01*
X2953Y-3285D01*
X2953Y-3285D01*
X2954Y-3286D01*
X2955Y-3286D01*
X2956Y-3286D01*
X2957Y-3286D01*
X2957D01*
X2957Y-3286D01*
X2958Y-3286D01*
X2958Y-3286D01*
X2959Y-3286D01*
X2960Y-3285D01*
X2960Y-3285D01*
X2960Y-3285D01*
X2961Y-3285D01*
X2961Y-3285D01*
X2961Y-3284D01*
X2962Y-3284D01*
X2962Y-3284D01*
X2963Y-3283D01*
X2963Y-3282D01*
X2963Y-3282D01*
X2963Y-3282D01*
X2963Y-3282D01*
X2964Y-3281D01*
X2964Y-3281D01*
X2964Y-3280D01*
X2964Y-3279D01*
X2965Y-3278D01*
Y-3278D01*
X2965Y-3278D01*
Y-3278D01*
X2965Y-3277D01*
X2965Y-3277D01*
X2965Y-3276D01*
X2965Y-3275D01*
X2965Y-3274D01*
X2965Y-3273D01*
X2965Y-3272D01*
Y-3272D01*
Y-3272D01*
Y-3272D01*
Y-3271D01*
X2965Y-3271D01*
X2965Y-3272D01*
X2965Y-3272D01*
X2964Y-3273D01*
X2964Y-3273D01*
X2963Y-3274D01*
X2962Y-3274D01*
X2962Y-3275D01*
X2961Y-3275D01*
X2961Y-3275D01*
X2961Y-3275D01*
X2960Y-3276D01*
X2959Y-3276D01*
X2958Y-3276D01*
X2957Y-3276D01*
X2956Y-3276D01*
X2956D01*
X2955Y-3276D01*
X2955Y-3276D01*
X2955Y-3276D01*
X2954Y-3276D01*
X2953Y-3276D01*
X2952Y-3275D01*
X2952Y-3275D01*
X2951Y-3275D01*
X2950Y-3274D01*
X2949Y-3274D01*
X2949Y-3273D01*
X2948Y-3273D01*
X2948Y-3273D01*
X2948Y-3273D01*
X2948Y-3273D01*
X2948Y-3272D01*
X2947Y-3272D01*
X2947Y-3271D01*
X2947Y-3271D01*
X2947Y-3270D01*
X2946Y-3270D01*
X2946Y-3269D01*
X2946Y-3268D01*
X2945Y-3268D01*
X2945Y-3267D01*
X2945Y-3266D01*
X2945Y-3265D01*
X2945Y-3264D01*
Y-3264D01*
Y-3263D01*
Y-3263D01*
X2945Y-3263D01*
X2945Y-3262D01*
X2945Y-3262D01*
X2945Y-3261D01*
X2945Y-3260D01*
X2946Y-3259D01*
X2946Y-3258D01*
X2946Y-3257D01*
X2947Y-3257D01*
X2947Y-3256D01*
X2948Y-3255D01*
X2948Y-3254D01*
X2948Y-3254D01*
X2949Y-3254D01*
X2949Y-3254D01*
X2949Y-3254D01*
X2949Y-3254D01*
X2950Y-3253D01*
X2950Y-3253D01*
X2951Y-3253D01*
X2951Y-3252D01*
X2952Y-3252D01*
X2953Y-3251D01*
X2954Y-3251D01*
X2955Y-3251D01*
X2956Y-3251D01*
X2957Y-3251D01*
X2957D01*
X2958Y-3251D01*
D02*
G37*
G36*
X2927Y-3251D02*
X2927D01*
X2928Y-3251D01*
X2929Y-3251D01*
X2931Y-3251D01*
X2932Y-3252D01*
X2933Y-3252D01*
X2933Y-3252D01*
X2933D01*
X2933Y-3252D01*
X2933Y-3252D01*
X2934Y-3252D01*
X2935Y-3253D01*
X2935Y-3253D01*
X2936Y-3254D01*
X2937Y-3255D01*
X2937Y-3256D01*
Y-3256D01*
X2937Y-3256D01*
X2938Y-3256D01*
X2938Y-3257D01*
X2938Y-3257D01*
X2938Y-3258D01*
X2939Y-3259D01*
X2939Y-3260D01*
X2939Y-3261D01*
Y-3262D01*
Y-3262D01*
Y-3262D01*
X2939Y-3262D01*
Y-3262D01*
X2939Y-3263D01*
X2939Y-3264D01*
X2938Y-3265D01*
X2938Y-3266D01*
X2937Y-3267D01*
X2937Y-3268D01*
X2936Y-3268D01*
X2936Y-3268D01*
X2936Y-3268D01*
X2936Y-3269D01*
X2936Y-3269D01*
X2935Y-3269D01*
X2935Y-3269D01*
X2935Y-3270D01*
X2934Y-3270D01*
X2934Y-3270D01*
X2933Y-3270D01*
X2932Y-3271D01*
X2932Y-3271D01*
X2931Y-3271D01*
X2930Y-3272D01*
X2929Y-3272D01*
X2928Y-3272D01*
X2928Y-3272D01*
X2928Y-3272D01*
X2929Y-3272D01*
X2929Y-3272D01*
X2930Y-3273D01*
X2931Y-3273D01*
X2931Y-3274D01*
X2931Y-3274D01*
X2932Y-3274D01*
X2932Y-3275D01*
X2933Y-3275D01*
X2933Y-3276D01*
X2934Y-3277D01*
X2935Y-3278D01*
X2935Y-3279D01*
X2942Y-3289D01*
X2936D01*
X2931Y-3281D01*
Y-3281D01*
X2931Y-3281D01*
X2930Y-3281D01*
X2930Y-3281D01*
X2930Y-3280D01*
X2929Y-3279D01*
X2929Y-3279D01*
X2928Y-3278D01*
X2928Y-3277D01*
X2927Y-3276D01*
X2927Y-3276D01*
X2927Y-3276D01*
X2926Y-3275D01*
X2926Y-3275D01*
X2925Y-3274D01*
X2925Y-3274D01*
X2924Y-3274D01*
X2924Y-3273D01*
X2924Y-3273D01*
X2924Y-3273D01*
X2924Y-3273D01*
X2923Y-3273D01*
X2923Y-3273D01*
X2922Y-3273D01*
X2922D01*
X2922Y-3272D01*
X2922D01*
X2921Y-3272D01*
X2921Y-3272D01*
X2921D01*
X2920Y-3272D01*
X2913D01*
Y-3289D01*
X2908D01*
Y-3251D01*
X2926D01*
X2927Y-3251D01*
D02*
G37*
G36*
X4102Y-4457D02*
X4103D01*
X4103Y-4457D01*
X4104Y-4457D01*
X4104Y-4457D01*
X4105Y-4458D01*
X4106Y-4458D01*
X4107Y-4458D01*
X4107Y-4458D01*
X4108Y-4459D01*
X4109Y-4459D01*
X4110Y-4460D01*
X4110Y-4461D01*
X4111Y-4461D01*
X4111Y-4461D01*
X4111Y-4462D01*
X4112Y-4462D01*
X4112Y-4462D01*
X4112Y-4463D01*
X4112Y-4463D01*
X4113Y-4464D01*
X4113Y-4465D01*
X4113Y-4466D01*
X4114Y-4467D01*
X4114Y-4468D01*
X4114Y-4469D01*
X4115Y-4471D01*
X4115Y-4472D01*
X4115Y-4474D01*
X4115Y-4476D01*
Y-4476D01*
Y-4476D01*
Y-4476D01*
Y-4476D01*
X4115Y-4477D01*
Y-4477D01*
X4115Y-4478D01*
X4115Y-4479D01*
X4115Y-4481D01*
X4114Y-4482D01*
X4114Y-4483D01*
X4114Y-4484D01*
X4114Y-4486D01*
X4113Y-4487D01*
X4113Y-4488D01*
X4112Y-4490D01*
X4112Y-4491D01*
X4111Y-4492D01*
X4111Y-4492D01*
X4111Y-4492D01*
X4110Y-4492D01*
X4110Y-4492D01*
X4110Y-4493D01*
X4109Y-4493D01*
X4109Y-4494D01*
X4108Y-4494D01*
X4108Y-4494D01*
X4107Y-4495D01*
X4106Y-4495D01*
X4105Y-4496D01*
X4104Y-4496D01*
X4103Y-4496D01*
X4102Y-4496D01*
X4101Y-4496D01*
X4101D01*
X4100Y-4496D01*
X4100D01*
X4100Y-4496D01*
X4098Y-4496D01*
X4097Y-4496D01*
X4096Y-4495D01*
X4095Y-4494D01*
X4094Y-4494D01*
X4094Y-4494D01*
X4094Y-4494D01*
X4094Y-4494D01*
X4093Y-4493D01*
X4093Y-4493D01*
X4093Y-4493D01*
X4093Y-4493D01*
X4092Y-4492D01*
X4092Y-4491D01*
X4091Y-4490D01*
X4090Y-4488D01*
X4090Y-4487D01*
X4095Y-4486D01*
Y-4486D01*
X4095Y-4486D01*
X4095Y-4487D01*
X4095Y-4487D01*
X4095Y-4488D01*
X4096Y-4488D01*
X4096Y-4489D01*
X4096Y-4490D01*
X4097Y-4490D01*
X4097Y-4490D01*
X4097Y-4491D01*
X4097Y-4491D01*
X4098Y-4491D01*
X4099Y-4492D01*
X4099Y-4492D01*
X4100Y-4492D01*
X4101Y-4492D01*
X4102D01*
X4102Y-4492D01*
X4103Y-4492D01*
X4103Y-4492D01*
X4104Y-4492D01*
X4105Y-4491D01*
X4105Y-4491D01*
X4106Y-4491D01*
X4106Y-4491D01*
X4106Y-4490D01*
X4107Y-4490D01*
X4107Y-4489D01*
X4108Y-4488D01*
X4108Y-4487D01*
X4109Y-4486D01*
Y-4486D01*
X4109Y-4486D01*
X4109Y-4486D01*
X4109Y-4486D01*
X4109Y-4485D01*
X4109Y-4485D01*
X4109Y-4485D01*
X4110Y-4484D01*
X4110Y-4483D01*
X4110Y-4483D01*
X4110Y-4482D01*
X4110Y-4481D01*
X4110Y-4480D01*
X4110Y-4479D01*
X4110Y-4478D01*
Y-4477D01*
X4110Y-4478D01*
X4110Y-4478D01*
X4110Y-4478D01*
X4109Y-4479D01*
X4108Y-4480D01*
X4108Y-4480D01*
X4107Y-4481D01*
X4106Y-4481D01*
X4106D01*
X4106Y-4481D01*
X4106Y-4482D01*
X4105Y-4482D01*
X4105Y-4482D01*
X4104Y-4482D01*
X4103Y-4482D01*
X4102Y-4483D01*
X4101Y-4483D01*
X4100D01*
X4100Y-4483D01*
X4100Y-4482D01*
X4099Y-4482D01*
X4099Y-4482D01*
X4098Y-4482D01*
X4097Y-4482D01*
X4096Y-4481D01*
X4096Y-4481D01*
X4095Y-4481D01*
X4094Y-4480D01*
X4093Y-4480D01*
X4093Y-4479D01*
X4093Y-4479D01*
X4093Y-4479D01*
X4093Y-4479D01*
X4092Y-4478D01*
X4092Y-4478D01*
X4092Y-4478D01*
X4092Y-4477D01*
X4091Y-4477D01*
X4091Y-4476D01*
X4091Y-4475D01*
X4090Y-4475D01*
X4090Y-4474D01*
X4090Y-4473D01*
X4090Y-4472D01*
X4090Y-4471D01*
X4090Y-4470D01*
Y-4470D01*
Y-4470D01*
Y-4470D01*
Y-4469D01*
X4090Y-4469D01*
Y-4469D01*
X4090Y-4468D01*
X4090Y-4467D01*
X4090Y-4466D01*
X4091Y-4465D01*
X4091Y-4463D01*
Y-4463D01*
X4091Y-4463D01*
X4091Y-4463D01*
X4091Y-4463D01*
X4092Y-4462D01*
X4092Y-4462D01*
X4093Y-4461D01*
X4094Y-4460D01*
X4094Y-4459D01*
X4095Y-4459D01*
X4095D01*
X4096Y-4459D01*
X4096Y-4458D01*
X4096Y-4458D01*
X4096Y-4458D01*
X4097Y-4458D01*
X4098Y-4458D01*
X4099Y-4457D01*
X4100Y-4457D01*
X4102Y-4457D01*
X4102D01*
X4102Y-4457D01*
D02*
G37*
G36*
X4136D02*
X4136D01*
X4137Y-4457D01*
X4138Y-4457D01*
X4139Y-4457D01*
X4140Y-4458D01*
X4142Y-4458D01*
X4143Y-4459D01*
X4144Y-4459D01*
X4145Y-4460D01*
X4145Y-4460D01*
X4145Y-4460D01*
X4145Y-4460D01*
X4146Y-4460D01*
X4146Y-4460D01*
X4146Y-4461D01*
X4147Y-4461D01*
X4147Y-4461D01*
X4148Y-4462D01*
X4148Y-4462D01*
X4149Y-4464D01*
X4150Y-4465D01*
X4151Y-4467D01*
Y-4467D01*
X4151Y-4467D01*
X4151Y-4467D01*
X4151Y-4468D01*
X4151Y-4468D01*
X4152Y-4469D01*
X4152Y-4469D01*
X4152Y-4470D01*
X4152Y-4471D01*
X4152Y-4471D01*
X4153Y-4473D01*
X4153Y-4475D01*
X4153Y-4477D01*
Y-4477D01*
Y-4477D01*
Y-4478D01*
X4153Y-4478D01*
Y-4479D01*
X4153Y-4479D01*
X4153Y-4480D01*
X4153Y-4481D01*
X4152Y-4482D01*
X4152Y-4484D01*
X4151Y-4486D01*
X4151Y-4488D01*
X4151Y-4488D01*
X4151Y-4488D01*
X4150Y-4488D01*
X4150Y-4488D01*
X4150Y-4489D01*
X4150Y-4489D01*
X4149Y-4490D01*
X4148Y-4491D01*
X4147Y-4492D01*
X4146Y-4493D01*
X4144Y-4494D01*
X4144Y-4494D01*
X4144Y-4494D01*
X4144Y-4495D01*
X4143Y-4495D01*
X4143Y-4495D01*
X4143Y-4495D01*
X4142Y-4495D01*
X4141Y-4496D01*
X4141Y-4496D01*
X4140Y-4496D01*
X4138Y-4496D01*
X4137Y-4497D01*
X4135Y-4497D01*
X4134D01*
X4134Y-4497D01*
X4133Y-4497D01*
X4133Y-4497D01*
X4132Y-4496D01*
X4131Y-4496D01*
X4130Y-4496D01*
X4128Y-4495D01*
X4127Y-4495D01*
X4127Y-4495D01*
X4126Y-4494D01*
X4125Y-4494D01*
X4125Y-4494D01*
X4125Y-4494D01*
X4125Y-4493D01*
X4124Y-4493D01*
X4124Y-4493D01*
X4124Y-4493D01*
X4123Y-4492D01*
X4123Y-4492D01*
X4123Y-4491D01*
X4122Y-4490D01*
X4122Y-4490D01*
X4121Y-4489D01*
X4121Y-4488D01*
X4120Y-4487D01*
X4120Y-4486D01*
X4120Y-4485D01*
X4125Y-4484D01*
Y-4484D01*
X4125Y-4485D01*
X4125Y-4485D01*
X4125Y-4485D01*
X4125Y-4485D01*
X4125Y-4486D01*
X4126Y-4487D01*
X4126Y-4488D01*
X4127Y-4489D01*
X4128Y-4490D01*
X4129Y-4490D01*
X4129Y-4491D01*
X4129Y-4491D01*
X4130Y-4491D01*
X4130Y-4491D01*
X4131Y-4492D01*
X4132Y-4492D01*
X4134Y-4492D01*
X4135Y-4492D01*
X4135D01*
X4136Y-4492D01*
X4136D01*
X4137Y-4492D01*
X4138Y-4492D01*
X4139Y-4492D01*
X4140Y-4491D01*
X4141Y-4491D01*
X4142Y-4490D01*
X4142D01*
X4142Y-4490D01*
X4143Y-4490D01*
X4143Y-4489D01*
X4144Y-4489D01*
X4145Y-4488D01*
X4145Y-4487D01*
X4146Y-4486D01*
X4147Y-4485D01*
Y-4484D01*
X4147Y-4484D01*
X4147Y-4484D01*
X4147Y-4484D01*
X4147Y-4484D01*
X4147Y-4483D01*
X4147Y-4482D01*
X4147Y-4481D01*
X4148Y-4480D01*
X4148Y-4479D01*
X4148Y-4477D01*
Y-4477D01*
Y-4477D01*
Y-4477D01*
Y-4476D01*
X4148Y-4476D01*
Y-4475D01*
X4148Y-4475D01*
X4148Y-4474D01*
X4147Y-4473D01*
X4147Y-4471D01*
X4147Y-4470D01*
X4146Y-4469D01*
Y-4469D01*
X4146Y-4468D01*
X4146Y-4468D01*
X4146Y-4468D01*
X4146Y-4467D01*
X4145Y-4467D01*
X4145Y-4466D01*
X4144Y-4465D01*
X4143Y-4464D01*
X4142Y-4463D01*
X4142D01*
X4142Y-4463D01*
X4142Y-4463D01*
X4141Y-4463D01*
X4141Y-4463D01*
X4141Y-4463D01*
X4140Y-4462D01*
X4139Y-4462D01*
X4138Y-4462D01*
X4137Y-4461D01*
X4135Y-4461D01*
X4135D01*
X4135Y-4461D01*
X4134D01*
X4134Y-4461D01*
X4133Y-4462D01*
X4132Y-4462D01*
X4131Y-4462D01*
X4129Y-4463D01*
X4129Y-4463D01*
X4128Y-4464D01*
X4128Y-4464D01*
X4128Y-4464D01*
X4128Y-4464D01*
X4128Y-4464D01*
X4127Y-4465D01*
X4127Y-4465D01*
X4127Y-4465D01*
X4127Y-4466D01*
X4126Y-4466D01*
X4126Y-4467D01*
X4125Y-4467D01*
X4125Y-4468D01*
X4125Y-4469D01*
X4125Y-4469D01*
X4124Y-4470D01*
X4124Y-4471D01*
X4119Y-4470D01*
Y-4470D01*
X4119Y-4470D01*
X4119Y-4469D01*
X4119Y-4469D01*
X4120Y-4468D01*
X4120Y-4468D01*
X4120Y-4467D01*
X4120Y-4466D01*
X4121Y-4465D01*
X4122Y-4463D01*
X4123Y-4462D01*
X4123Y-4462D01*
X4124Y-4461D01*
X4125Y-4460D01*
X4125Y-4460D01*
X4125Y-4460D01*
X4125Y-4460D01*
X4125Y-4460D01*
X4126Y-4460D01*
X4126Y-4459D01*
X4127Y-4459D01*
X4128Y-4459D01*
X4128Y-4458D01*
X4129Y-4458D01*
X4130Y-4458D01*
X4131Y-4458D01*
X4132Y-4457D01*
X4133Y-4457D01*
X4134Y-4457D01*
X4135Y-4457D01*
X4136D01*
X4136Y-4457D01*
D02*
G37*
G36*
X4111Y-2501D02*
X4111D01*
X4112Y-2501D01*
X4112Y-2501D01*
X4113Y-2502D01*
X4115Y-2502D01*
X4116Y-2502D01*
X4118Y-2503D01*
X4119Y-2503D01*
X4120Y-2504D01*
X4120Y-2504D01*
X4120Y-2504D01*
X4120Y-2504D01*
X4120Y-2504D01*
X4121Y-2504D01*
X4121Y-2505D01*
X4121Y-2505D01*
X4122Y-2506D01*
X4122Y-2506D01*
X4123Y-2507D01*
X4124Y-2508D01*
X4125Y-2509D01*
X4126Y-2511D01*
Y-2511D01*
X4126Y-2511D01*
X4126Y-2512D01*
X4126Y-2512D01*
X4126Y-2512D01*
X4126Y-2513D01*
X4126Y-2513D01*
X4127Y-2514D01*
X4127Y-2515D01*
X4127Y-2516D01*
X4127Y-2517D01*
X4127Y-2519D01*
X4128Y-2521D01*
Y-2521D01*
Y-2522D01*
Y-2522D01*
X4127Y-2522D01*
Y-2523D01*
X4127Y-2523D01*
X4127Y-2524D01*
X4127Y-2525D01*
X4127Y-2526D01*
X4127Y-2528D01*
X4126Y-2530D01*
X4125Y-2532D01*
X4125Y-2532D01*
X4125Y-2532D01*
X4125Y-2532D01*
X4125Y-2532D01*
X4125Y-2533D01*
X4124Y-2533D01*
X4124Y-2534D01*
X4123Y-2535D01*
X4122Y-2537D01*
X4120Y-2538D01*
X4119Y-2539D01*
X4119Y-2539D01*
X4119Y-2539D01*
X4118Y-2539D01*
X4118Y-2539D01*
X4118Y-2539D01*
X4117Y-2539D01*
X4117Y-2539D01*
X4116Y-2540D01*
X4115Y-2540D01*
X4115Y-2540D01*
X4113Y-2540D01*
X4111Y-2541D01*
X4109Y-2541D01*
X4109D01*
X4109Y-2541D01*
X4108Y-2541D01*
X4107Y-2541D01*
X4107Y-2541D01*
X4106Y-2540D01*
X4105Y-2540D01*
X4103Y-2540D01*
X4102Y-2539D01*
X4101Y-2539D01*
X4101Y-2538D01*
X4100Y-2538D01*
X4100Y-2538D01*
X4100Y-2538D01*
X4099Y-2538D01*
X4099Y-2537D01*
X4099Y-2537D01*
X4098Y-2537D01*
X4098Y-2536D01*
X4098Y-2536D01*
X4097Y-2535D01*
X4097Y-2535D01*
X4096Y-2534D01*
X4096Y-2533D01*
X4095Y-2532D01*
X4095Y-2532D01*
X4095Y-2531D01*
X4094Y-2530D01*
X4099Y-2529D01*
Y-2529D01*
X4099Y-2529D01*
X4099Y-2529D01*
X4100Y-2529D01*
X4100Y-2530D01*
X4100Y-2530D01*
X4100Y-2531D01*
X4101Y-2532D01*
X4101Y-2533D01*
X4102Y-2534D01*
X4103Y-2535D01*
X4103Y-2535D01*
X4104Y-2535D01*
X4104Y-2535D01*
X4105Y-2536D01*
X4106Y-2536D01*
X4107Y-2536D01*
X4108Y-2537D01*
X4110Y-2537D01*
X4110D01*
X4110Y-2537D01*
X4111D01*
X4111Y-2536D01*
X4112Y-2536D01*
X4113Y-2536D01*
X4115Y-2536D01*
X4116Y-2535D01*
X4117Y-2534D01*
X4117D01*
X4117Y-2534D01*
X4117Y-2534D01*
X4118Y-2534D01*
X4119Y-2533D01*
X4119Y-2532D01*
X4120Y-2531D01*
X4121Y-2530D01*
X4121Y-2529D01*
Y-2529D01*
X4121Y-2529D01*
X4121Y-2528D01*
X4121Y-2528D01*
X4121Y-2528D01*
X4122Y-2527D01*
X4122Y-2526D01*
X4122Y-2525D01*
X4122Y-2524D01*
X4122Y-2523D01*
X4122Y-2521D01*
Y-2521D01*
Y-2521D01*
Y-2521D01*
Y-2521D01*
X4122Y-2520D01*
Y-2520D01*
X4122Y-2519D01*
X4122Y-2518D01*
X4122Y-2517D01*
X4122Y-2516D01*
X4121Y-2514D01*
X4121Y-2513D01*
Y-2513D01*
X4121Y-2513D01*
X4121Y-2512D01*
X4121Y-2512D01*
X4120Y-2512D01*
X4120Y-2511D01*
X4119Y-2510D01*
X4118Y-2509D01*
X4118Y-2508D01*
X4116Y-2507D01*
X4116D01*
X4116Y-2507D01*
X4116Y-2507D01*
X4116Y-2507D01*
X4116Y-2507D01*
X4115Y-2507D01*
X4115Y-2506D01*
X4114Y-2506D01*
X4112Y-2506D01*
X4111Y-2506D01*
X4110Y-2506D01*
X4110D01*
X4109Y-2506D01*
X4109D01*
X4108Y-2506D01*
X4107Y-2506D01*
X4106Y-2506D01*
X4105Y-2507D01*
X4104Y-2507D01*
X4103Y-2508D01*
X4103Y-2508D01*
X4103Y-2508D01*
X4103Y-2508D01*
X4102Y-2508D01*
X4102Y-2508D01*
X4102Y-2509D01*
X4102Y-2509D01*
X4101Y-2509D01*
X4101Y-2510D01*
X4101Y-2510D01*
X4100Y-2511D01*
X4100Y-2511D01*
X4100Y-2512D01*
X4099Y-2513D01*
X4099Y-2514D01*
X4099Y-2514D01*
X4099Y-2515D01*
X4094Y-2514D01*
Y-2514D01*
X4094Y-2514D01*
X4094Y-2513D01*
X4094Y-2513D01*
X4094Y-2512D01*
X4094Y-2512D01*
X4095Y-2511D01*
X4095Y-2510D01*
X4096Y-2509D01*
X4097Y-2507D01*
X4097Y-2507D01*
X4098Y-2506D01*
X4099Y-2505D01*
X4099Y-2505D01*
X4099Y-2504D01*
X4100Y-2504D01*
X4100Y-2504D01*
X4100Y-2504D01*
X4101Y-2504D01*
X4101Y-2503D01*
X4102Y-2503D01*
X4102Y-2503D01*
X4103Y-2503D01*
X4104Y-2502D01*
X4105Y-2502D01*
X4105Y-2502D01*
X4106Y-2502D01*
X4107Y-2501D01*
X4108Y-2501D01*
X4110Y-2501D01*
X4110D01*
X4111Y-2501D01*
D02*
G37*
G36*
X4084Y-2502D02*
Y-2502D01*
Y-2502D01*
X4084Y-2503D01*
Y-2503D01*
X4083Y-2504D01*
X4083Y-2504D01*
X4083Y-2505D01*
X4083Y-2506D01*
X4083Y-2506D01*
X4083Y-2507D01*
X4083Y-2508D01*
X4083Y-2509D01*
X4082Y-2510D01*
X4082Y-2513D01*
Y-2513D01*
X4082Y-2513D01*
X4082Y-2513D01*
X4082Y-2514D01*
X4081Y-2514D01*
X4081Y-2515D01*
X4081Y-2516D01*
X4081Y-2517D01*
X4080Y-2518D01*
X4080Y-2519D01*
X4079Y-2521D01*
X4078Y-2523D01*
X4077Y-2525D01*
X4077Y-2525D01*
X4077Y-2525D01*
X4077Y-2526D01*
X4076Y-2526D01*
X4076Y-2527D01*
X4076Y-2527D01*
X4075Y-2528D01*
X4075Y-2529D01*
X4074Y-2530D01*
X4073Y-2532D01*
X4072Y-2534D01*
X4070Y-2535D01*
X4089D01*
Y-2540D01*
X4064D01*
Y-2536D01*
X4064Y-2536D01*
X4064Y-2536D01*
X4065Y-2536D01*
X4065Y-2535D01*
X4065Y-2535D01*
X4066Y-2534D01*
X4066Y-2534D01*
X4066Y-2533D01*
X4067Y-2533D01*
X4068Y-2532D01*
X4068Y-2531D01*
X4069Y-2530D01*
X4069Y-2529D01*
X4070Y-2528D01*
X4071Y-2527D01*
X4071Y-2526D01*
X4072Y-2526D01*
X4072Y-2525D01*
X4072Y-2525D01*
X4072Y-2525D01*
X4072Y-2524D01*
X4073Y-2523D01*
X4073Y-2522D01*
X4073Y-2522D01*
X4074Y-2521D01*
X4074Y-2520D01*
X4075Y-2519D01*
X4075Y-2517D01*
X4076Y-2515D01*
X4077Y-2512D01*
Y-2512D01*
X4077Y-2512D01*
X4077Y-2512D01*
X4077Y-2512D01*
X4077Y-2511D01*
X4077Y-2511D01*
X4078Y-2510D01*
X4078Y-2509D01*
X4078Y-2509D01*
X4078Y-2508D01*
X4078Y-2506D01*
X4079Y-2504D01*
X4079Y-2502D01*
X4084D01*
Y-2502D01*
D02*
G37*
G36*
X4123Y-3517D02*
X4124D01*
X4124Y-3517D01*
X4125Y-3517D01*
X4126Y-3518D01*
X4127Y-3518D01*
X4129Y-3518D01*
X4131Y-3519D01*
X4132Y-3519D01*
X4132Y-3520D01*
X4132Y-3520D01*
X4132Y-3520D01*
X4133Y-3520D01*
X4133Y-3520D01*
X4133Y-3520D01*
X4134Y-3521D01*
X4134Y-3521D01*
X4134Y-3522D01*
X4135Y-3522D01*
X4135Y-3523D01*
X4136Y-3524D01*
X4137Y-3525D01*
X4138Y-3527D01*
Y-3527D01*
X4138Y-3527D01*
X4138Y-3528D01*
X4139Y-3528D01*
X4139Y-3528D01*
X4139Y-3529D01*
X4139Y-3529D01*
X4139Y-3530D01*
X4139Y-3531D01*
X4140Y-3532D01*
X4140Y-3533D01*
X4140Y-3535D01*
X4140Y-3537D01*
Y-3537D01*
Y-3538D01*
Y-3538D01*
X4140Y-3538D01*
Y-3539D01*
X4140Y-3539D01*
X4140Y-3540D01*
X4140Y-3541D01*
X4140Y-3542D01*
X4139Y-3544D01*
X4139Y-3546D01*
X4138Y-3548D01*
X4138Y-3548D01*
X4138Y-3548D01*
X4138Y-3548D01*
X4137Y-3548D01*
X4137Y-3549D01*
X4137Y-3549D01*
X4136Y-3550D01*
X4135Y-3551D01*
X4134Y-3553D01*
X4133Y-3554D01*
X4131Y-3555D01*
X4131Y-3555D01*
X4131Y-3555D01*
X4131Y-3555D01*
X4131Y-3555D01*
X4130Y-3555D01*
X4130Y-3555D01*
X4129Y-3555D01*
X4129Y-3556D01*
X4128Y-3556D01*
X4127Y-3556D01*
X4126Y-3556D01*
X4124Y-3557D01*
X4122Y-3557D01*
X4122D01*
X4121Y-3557D01*
X4121Y-3557D01*
X4120Y-3557D01*
X4119Y-3557D01*
X4119Y-3556D01*
X4117Y-3556D01*
X4116Y-3556D01*
X4115Y-3555D01*
X4114Y-3555D01*
X4113Y-3554D01*
X4112Y-3554D01*
X4112Y-3554D01*
X4112Y-3554D01*
X4112Y-3554D01*
X4112Y-3553D01*
X4112Y-3553D01*
X4111Y-3553D01*
X4111Y-3552D01*
X4110Y-3552D01*
X4110Y-3551D01*
X4109Y-3551D01*
X4109Y-3550D01*
X4108Y-3549D01*
X4108Y-3548D01*
X4108Y-3548D01*
X4107Y-3547D01*
X4107Y-3546D01*
X4112Y-3545D01*
Y-3545D01*
X4112Y-3545D01*
X4112Y-3545D01*
X4112Y-3545D01*
X4112Y-3546D01*
X4113Y-3546D01*
X4113Y-3547D01*
X4114Y-3548D01*
X4114Y-3549D01*
X4115Y-3550D01*
X4116Y-3551D01*
X4116Y-3551D01*
X4116Y-3551D01*
X4117Y-3551D01*
X4118Y-3552D01*
X4119Y-3552D01*
X4120Y-3552D01*
X4121Y-3553D01*
X4122Y-3553D01*
X4123D01*
X4123Y-3553D01*
X4123D01*
X4124Y-3552D01*
X4125Y-3552D01*
X4126Y-3552D01*
X4127Y-3552D01*
X4129Y-3551D01*
X4130Y-3550D01*
X4130D01*
X4130Y-3550D01*
X4130Y-3550D01*
X4131Y-3550D01*
X4131Y-3549D01*
X4132Y-3548D01*
X4133Y-3547D01*
X4133Y-3546D01*
X4134Y-3545D01*
Y-3545D01*
X4134Y-3545D01*
X4134Y-3544D01*
X4134Y-3544D01*
X4134Y-3544D01*
X4134Y-3543D01*
X4134Y-3542D01*
X4135Y-3541D01*
X4135Y-3540D01*
X4135Y-3539D01*
X4135Y-3537D01*
Y-3537D01*
Y-3537D01*
Y-3537D01*
Y-3537D01*
X4135Y-3536D01*
Y-3536D01*
X4135Y-3535D01*
X4135Y-3534D01*
X4135Y-3533D01*
X4134Y-3532D01*
X4134Y-3530D01*
X4134Y-3529D01*
Y-3529D01*
X4134Y-3529D01*
X4133Y-3528D01*
X4133Y-3528D01*
X4133Y-3528D01*
X4133Y-3527D01*
X4132Y-3526D01*
X4131Y-3525D01*
X4130Y-3524D01*
X4129Y-3523D01*
X4129D01*
X4129Y-3523D01*
X4129Y-3523D01*
X4129Y-3523D01*
X4128Y-3523D01*
X4128Y-3523D01*
X4127Y-3522D01*
X4126Y-3522D01*
X4125Y-3522D01*
X4124Y-3522D01*
X4123Y-3522D01*
X4122D01*
X4122Y-3522D01*
X4122D01*
X4121Y-3522D01*
X4120Y-3522D01*
X4119Y-3522D01*
X4118Y-3523D01*
X4117Y-3523D01*
X4116Y-3524D01*
X4115Y-3524D01*
X4115Y-3524D01*
X4115Y-3524D01*
X4115Y-3524D01*
X4115Y-3524D01*
X4115Y-3525D01*
X4114Y-3525D01*
X4114Y-3525D01*
X4114Y-3526D01*
X4114Y-3526D01*
X4113Y-3527D01*
X4113Y-3527D01*
X4112Y-3528D01*
X4112Y-3529D01*
X4112Y-3530D01*
X4112Y-3530D01*
X4111Y-3531D01*
X4106Y-3530D01*
Y-3530D01*
X4106Y-3530D01*
X4106Y-3529D01*
X4107Y-3529D01*
X4107Y-3528D01*
X4107Y-3528D01*
X4107Y-3527D01*
X4108Y-3526D01*
X4108Y-3525D01*
X4109Y-3523D01*
X4110Y-3523D01*
X4111Y-3522D01*
X4111Y-3521D01*
X4112Y-3521D01*
X4112Y-3520D01*
X4112Y-3520D01*
X4113Y-3520D01*
X4113Y-3520D01*
X4113Y-3520D01*
X4114Y-3519D01*
X4114Y-3519D01*
X4115Y-3519D01*
X4116Y-3519D01*
X4116Y-3518D01*
X4117Y-3518D01*
X4118Y-3518D01*
X4119Y-3518D01*
X4120Y-3517D01*
X4121Y-3517D01*
X4122Y-3517D01*
X4123D01*
X4123Y-3517D01*
D02*
G37*
G36*
X4090D02*
X4091Y-3517D01*
X4091Y-3517D01*
X4092Y-3518D01*
X4093Y-3518D01*
X4094Y-3518D01*
X4095Y-3518D01*
X4096Y-3519D01*
X4096Y-3519D01*
X4097Y-3519D01*
X4098Y-3520D01*
X4099Y-3521D01*
X4099Y-3521D01*
X4099Y-3521D01*
X4099Y-3521D01*
X4099Y-3521D01*
X4099Y-3521D01*
X4100Y-3522D01*
X4100Y-3522D01*
X4100Y-3523D01*
X4101Y-3523D01*
X4101Y-3524D01*
X4101Y-3525D01*
X4102Y-3526D01*
X4102Y-3527D01*
X4102Y-3528D01*
X4102Y-3529D01*
Y-3529D01*
Y-3529D01*
Y-3529D01*
X4102Y-3530D01*
Y-3530D01*
X4102Y-3530D01*
X4102Y-3531D01*
X4102Y-3532D01*
X4101Y-3533D01*
X4101Y-3534D01*
X4100Y-3535D01*
Y-3535D01*
X4100Y-3535D01*
X4100Y-3536D01*
X4099Y-3536D01*
X4099Y-3537D01*
X4098Y-3537D01*
X4097Y-3538D01*
X4096Y-3538D01*
X4095Y-3539D01*
X4095D01*
X4095Y-3539D01*
X4095Y-3539D01*
X4095Y-3539D01*
X4096Y-3539D01*
X4096Y-3539D01*
X4097Y-3540D01*
X4098Y-3540D01*
X4099Y-3541D01*
X4099Y-3542D01*
X4099Y-3542D01*
X4099Y-3542D01*
X4100Y-3542D01*
X4100Y-3543D01*
X4100Y-3544D01*
X4100Y-3545D01*
X4100Y-3545D01*
X4100Y-3546D01*
Y-3547D01*
Y-3547D01*
Y-3547D01*
X4100Y-3547D01*
X4100Y-3548D01*
X4100Y-3548D01*
X4100Y-3549D01*
X4100Y-3550D01*
X4099Y-3551D01*
X4099Y-3552D01*
X4099Y-3552D01*
X4098Y-3553D01*
X4098Y-3554D01*
X4097Y-3554D01*
X4097Y-3554D01*
X4097Y-3554D01*
X4097Y-3554D01*
X4097Y-3554D01*
X4096Y-3554D01*
X4096Y-3555D01*
X4095Y-3555D01*
X4095Y-3555D01*
X4094Y-3555D01*
X4094Y-3556D01*
X4093Y-3556D01*
X4091Y-3556D01*
X4090Y-3556D01*
X4090Y-3556D01*
X4089D01*
X4089Y-3556D01*
X4088Y-3556D01*
X4088Y-3556D01*
X4087Y-3556D01*
X4087Y-3556D01*
X4085Y-3556D01*
X4084Y-3555D01*
X4083Y-3555D01*
X4083Y-3554D01*
X4082Y-3554D01*
X4081Y-3553D01*
X4081Y-3553D01*
X4081Y-3553D01*
X4081Y-3553D01*
X4081Y-3553D01*
X4081Y-3553D01*
X4080Y-3552D01*
X4080Y-3551D01*
X4079Y-3550D01*
X4079Y-3549D01*
X4078Y-3548D01*
X4078Y-3547D01*
X4078Y-3546D01*
Y-3546D01*
Y-3546D01*
Y-3546D01*
X4078Y-3545D01*
X4079Y-3545D01*
X4079Y-3544D01*
X4079Y-3543D01*
X4079Y-3542D01*
X4080Y-3542D01*
X4080Y-3542D01*
X4080Y-3541D01*
X4080Y-3541D01*
X4081Y-3541D01*
X4081Y-3540D01*
X4082Y-3540D01*
X4083Y-3539D01*
X4084Y-3539D01*
X4084D01*
X4084Y-3539D01*
X4084Y-3538D01*
X4083Y-3538D01*
X4083Y-3538D01*
X4082Y-3538D01*
X4081Y-3537D01*
X4080Y-3537D01*
X4079Y-3536D01*
X4079Y-3535D01*
Y-3535D01*
X4079Y-3535D01*
X4078Y-3534D01*
X4078Y-3534D01*
X4078Y-3533D01*
X4077Y-3532D01*
X4077Y-3531D01*
X4077Y-3530D01*
X4077Y-3529D01*
Y-3529D01*
Y-3529D01*
Y-3528D01*
X4077Y-3528D01*
X4077Y-3528D01*
X4077Y-3527D01*
X4077Y-3527D01*
X4077Y-3526D01*
X4078Y-3525D01*
X4078Y-3524D01*
X4078Y-3523D01*
X4079Y-3523D01*
X4079Y-3522D01*
X4080Y-3521D01*
X4080Y-3521D01*
X4080Y-3521D01*
X4080Y-3520D01*
X4081Y-3520D01*
X4081Y-3520D01*
X4081Y-3520D01*
X4082Y-3520D01*
X4082Y-3519D01*
X4083Y-3519D01*
X4083Y-3519D01*
X4084Y-3518D01*
X4085Y-3518D01*
X4086Y-3518D01*
X4086Y-3518D01*
X4087Y-3517D01*
X4088Y-3517D01*
X4089Y-3517D01*
X4090D01*
X4090Y-3517D01*
D02*
G37*
G36*
X5234Y-2489D02*
X5235D01*
X5235Y-2489D01*
X5236Y-2489D01*
X5237Y-2489D01*
X5239Y-2490D01*
X5240Y-2490D01*
X5240Y-2491D01*
X5241Y-2491D01*
X5241Y-2491D01*
X5241Y-2491D01*
X5241Y-2491D01*
X5241Y-2491D01*
X5242Y-2492D01*
X5242Y-2492D01*
X5242Y-2493D01*
X5243Y-2494D01*
X5243Y-2495D01*
X5244Y-2496D01*
X5244Y-2498D01*
X5240Y-2498D01*
Y-2498D01*
X5240Y-2498D01*
Y-2498D01*
X5240Y-2498D01*
X5239Y-2497D01*
X5239Y-2497D01*
X5239Y-2496D01*
X5239Y-2495D01*
X5238Y-2494D01*
X5238Y-2494D01*
X5238Y-2494D01*
X5237Y-2494D01*
X5237Y-2493D01*
X5236Y-2493D01*
X5236Y-2493D01*
X5235Y-2493D01*
X5234Y-2492D01*
X5233Y-2492D01*
X5233D01*
X5233Y-2492D01*
X5232Y-2493D01*
X5232Y-2493D01*
X5231Y-2493D01*
X5230Y-2493D01*
X5230Y-2493D01*
X5230Y-2493D01*
X5229Y-2494D01*
X5229Y-2494D01*
X5229Y-2494D01*
X5228Y-2494D01*
X5228Y-2495D01*
X5227Y-2495D01*
X5227Y-2496D01*
X5227Y-2496D01*
X5227Y-2496D01*
X5227Y-2497D01*
X5226Y-2497D01*
X5226Y-2498D01*
X5226Y-2499D01*
X5226Y-2500D01*
X5225Y-2501D01*
Y-2501D01*
X5225Y-2501D01*
Y-2501D01*
X5225Y-2501D01*
X5225Y-2502D01*
X5225Y-2502D01*
X5225Y-2503D01*
X5225Y-2504D01*
X5225Y-2505D01*
X5225Y-2506D01*
Y-2506D01*
Y-2507D01*
Y-2507D01*
Y-2507D01*
X5225Y-2507D01*
X5225Y-2507D01*
X5225Y-2506D01*
X5226Y-2506D01*
X5226Y-2505D01*
X5227Y-2505D01*
X5227Y-2504D01*
X5228Y-2504D01*
X5228Y-2504D01*
X5229Y-2503D01*
X5229Y-2503D01*
X5230Y-2503D01*
X5231Y-2503D01*
X5232Y-2502D01*
X5233Y-2502D01*
X5234Y-2502D01*
X5234D01*
X5234Y-2502D01*
X5235Y-2502D01*
X5235Y-2502D01*
X5236Y-2502D01*
X5236Y-2503D01*
X5238Y-2503D01*
X5238Y-2503D01*
X5239Y-2504D01*
X5240Y-2504D01*
X5240Y-2505D01*
X5241Y-2505D01*
X5242Y-2506D01*
X5242Y-2506D01*
X5242Y-2506D01*
X5242Y-2506D01*
X5242Y-2506D01*
X5243Y-2507D01*
X5243Y-2507D01*
X5243Y-2508D01*
X5243Y-2508D01*
X5244Y-2509D01*
X5244Y-2509D01*
X5244Y-2510D01*
X5244Y-2511D01*
X5245Y-2512D01*
X5245Y-2513D01*
X5245Y-2514D01*
X5245Y-2515D01*
Y-2515D01*
Y-2515D01*
Y-2515D01*
X5245Y-2516D01*
X5245Y-2516D01*
X5245Y-2517D01*
X5245Y-2517D01*
X5245Y-2518D01*
X5244Y-2520D01*
X5244Y-2520D01*
X5244Y-2521D01*
X5243Y-2522D01*
X5243Y-2523D01*
X5242Y-2523D01*
X5242Y-2524D01*
X5242Y-2524D01*
X5241Y-2524D01*
X5241Y-2524D01*
X5241Y-2525D01*
X5241Y-2525D01*
X5240Y-2525D01*
X5240Y-2526D01*
X5239Y-2526D01*
X5239Y-2526D01*
X5238Y-2527D01*
X5236Y-2527D01*
X5236Y-2527D01*
X5235Y-2528D01*
X5234Y-2528D01*
X5233Y-2528D01*
X5233D01*
X5232Y-2528D01*
X5232D01*
X5232Y-2528D01*
X5231Y-2527D01*
X5230Y-2527D01*
X5228Y-2527D01*
X5227Y-2526D01*
X5226Y-2526D01*
X5226D01*
X5226Y-2526D01*
X5226Y-2525D01*
X5226Y-2525D01*
X5225Y-2525D01*
X5224Y-2524D01*
X5224Y-2523D01*
X5223Y-2522D01*
X5222Y-2521D01*
X5221Y-2520D01*
Y-2520D01*
X5221Y-2520D01*
X5221Y-2519D01*
X5221Y-2519D01*
X5221Y-2519D01*
X5221Y-2518D01*
X5221Y-2518D01*
X5221Y-2517D01*
X5220Y-2516D01*
X5220Y-2516D01*
X5220Y-2515D01*
X5220Y-2514D01*
X5220Y-2513D01*
X5220Y-2512D01*
X5220Y-2510D01*
Y-2509D01*
Y-2509D01*
Y-2509D01*
Y-2508D01*
Y-2508D01*
X5220Y-2507D01*
Y-2507D01*
X5220Y-2506D01*
X5220Y-2505D01*
X5220Y-2503D01*
X5220Y-2501D01*
X5221Y-2499D01*
X5221Y-2498D01*
X5221Y-2497D01*
Y-2497D01*
X5221Y-2497D01*
X5222Y-2497D01*
X5222Y-2497D01*
X5222Y-2496D01*
X5222Y-2496D01*
X5223Y-2495D01*
X5223Y-2494D01*
X5224Y-2493D01*
X5225Y-2492D01*
X5226Y-2491D01*
X5226D01*
X5226Y-2491D01*
X5226Y-2491D01*
X5227Y-2490D01*
X5227Y-2490D01*
X5227Y-2490D01*
X5228Y-2490D01*
X5228Y-2490D01*
X5229Y-2489D01*
X5231Y-2489D01*
X5232Y-2489D01*
X5234Y-2489D01*
X5234D01*
X5234Y-2489D01*
D02*
G37*
G36*
X5266D02*
X5267D01*
X5267Y-2489D01*
X5268Y-2489D01*
X5269Y-2489D01*
X5270Y-2489D01*
X5272Y-2490D01*
X5274Y-2490D01*
X5275Y-2491D01*
X5275Y-2491D01*
X5275Y-2491D01*
X5275Y-2491D01*
X5276Y-2491D01*
X5276Y-2492D01*
X5276Y-2492D01*
X5277Y-2492D01*
X5277Y-2492D01*
X5277Y-2493D01*
X5278Y-2493D01*
X5278Y-2494D01*
X5279Y-2495D01*
X5280Y-2497D01*
X5281Y-2498D01*
Y-2498D01*
X5281Y-2499D01*
X5281Y-2499D01*
X5282Y-2499D01*
X5282Y-2500D01*
X5282Y-2500D01*
X5282Y-2501D01*
X5282Y-2501D01*
X5282Y-2502D01*
X5283Y-2503D01*
X5283Y-2505D01*
X5283Y-2507D01*
X5283Y-2509D01*
Y-2509D01*
Y-2509D01*
Y-2509D01*
X5283Y-2510D01*
Y-2510D01*
X5283Y-2511D01*
X5283Y-2511D01*
X5283Y-2512D01*
X5283Y-2514D01*
X5282Y-2516D01*
X5282Y-2517D01*
X5281Y-2519D01*
X5281Y-2519D01*
X5281Y-2519D01*
X5281Y-2519D01*
X5280Y-2520D01*
X5280Y-2520D01*
X5280Y-2521D01*
X5279Y-2522D01*
X5278Y-2523D01*
X5277Y-2524D01*
X5276Y-2525D01*
X5274Y-2526D01*
X5274Y-2526D01*
X5274Y-2526D01*
X5274Y-2526D01*
X5274Y-2526D01*
X5273Y-2526D01*
X5273Y-2527D01*
X5272Y-2527D01*
X5272Y-2527D01*
X5271Y-2527D01*
X5270Y-2527D01*
X5269Y-2528D01*
X5267Y-2528D01*
X5265Y-2528D01*
X5265D01*
X5264Y-2528D01*
X5264Y-2528D01*
X5263Y-2528D01*
X5262Y-2528D01*
X5262Y-2528D01*
X5260Y-2527D01*
X5259Y-2527D01*
X5258Y-2527D01*
X5257Y-2526D01*
X5256Y-2526D01*
X5255Y-2525D01*
X5255Y-2525D01*
X5255Y-2525D01*
X5255Y-2525D01*
X5255Y-2525D01*
X5255Y-2524D01*
X5254Y-2524D01*
X5254Y-2524D01*
X5253Y-2523D01*
X5253Y-2523D01*
X5252Y-2522D01*
X5252Y-2521D01*
X5251Y-2521D01*
X5251Y-2520D01*
X5251Y-2519D01*
X5250Y-2518D01*
X5250Y-2517D01*
X5255Y-2516D01*
Y-2516D01*
X5255Y-2516D01*
X5255Y-2516D01*
X5255Y-2516D01*
X5255Y-2517D01*
X5256Y-2517D01*
X5256Y-2518D01*
X5257Y-2519D01*
X5257Y-2520D01*
X5258Y-2521D01*
X5259Y-2522D01*
X5259Y-2522D01*
X5259Y-2522D01*
X5260Y-2523D01*
X5261Y-2523D01*
X5262Y-2523D01*
X5263Y-2524D01*
X5264Y-2524D01*
X5265Y-2524D01*
X5266D01*
X5266Y-2524D01*
X5266D01*
X5267Y-2524D01*
X5268Y-2524D01*
X5269Y-2523D01*
X5270Y-2523D01*
X5272Y-2522D01*
X5273Y-2522D01*
X5273D01*
X5273Y-2522D01*
X5273Y-2521D01*
X5274Y-2521D01*
X5274Y-2520D01*
X5275Y-2519D01*
X5276Y-2518D01*
X5276Y-2517D01*
X5277Y-2516D01*
Y-2516D01*
X5277Y-2516D01*
X5277Y-2516D01*
X5277Y-2515D01*
X5277Y-2515D01*
X5277Y-2515D01*
X5277Y-2514D01*
X5278Y-2513D01*
X5278Y-2511D01*
X5278Y-2510D01*
X5278Y-2509D01*
Y-2509D01*
Y-2508D01*
Y-2508D01*
Y-2508D01*
X5278Y-2507D01*
Y-2507D01*
X5278Y-2506D01*
X5278Y-2506D01*
X5278Y-2504D01*
X5277Y-2503D01*
X5277Y-2502D01*
X5277Y-2500D01*
Y-2500D01*
X5277Y-2500D01*
X5276Y-2500D01*
X5276Y-2499D01*
X5276Y-2499D01*
X5276Y-2498D01*
X5275Y-2497D01*
X5274Y-2496D01*
X5273Y-2495D01*
X5272Y-2495D01*
X5272D01*
X5272Y-2495D01*
X5272Y-2494D01*
X5272Y-2494D01*
X5271Y-2494D01*
X5271Y-2494D01*
X5270Y-2494D01*
X5269Y-2493D01*
X5268Y-2493D01*
X5267Y-2493D01*
X5266Y-2493D01*
X5265D01*
X5265Y-2493D01*
X5265D01*
X5264Y-2493D01*
X5263Y-2493D01*
X5262Y-2493D01*
X5261Y-2494D01*
X5260Y-2495D01*
X5259Y-2495D01*
X5258Y-2495D01*
X5258Y-2495D01*
X5258Y-2495D01*
X5258Y-2496D01*
X5258Y-2496D01*
X5258Y-2496D01*
X5257Y-2496D01*
X5257Y-2497D01*
X5257Y-2497D01*
X5257Y-2498D01*
X5256Y-2498D01*
X5256Y-2499D01*
X5255Y-2499D01*
X5255Y-2500D01*
X5255Y-2501D01*
X5255Y-2502D01*
X5254Y-2503D01*
X5249Y-2501D01*
Y-2501D01*
X5249Y-2501D01*
X5249Y-2501D01*
X5250Y-2500D01*
X5250Y-2500D01*
X5250Y-2499D01*
X5250Y-2499D01*
X5251Y-2498D01*
X5251Y-2496D01*
X5252Y-2495D01*
X5253Y-2494D01*
X5254Y-2493D01*
X5254Y-2492D01*
X5255Y-2492D01*
X5255Y-2492D01*
X5255Y-2492D01*
X5256Y-2492D01*
X5256Y-2491D01*
X5256Y-2491D01*
X5257Y-2491D01*
X5257Y-2490D01*
X5258Y-2490D01*
X5259Y-2490D01*
X5259Y-2490D01*
X5260Y-2489D01*
X5261Y-2489D01*
X5262Y-2489D01*
X5263Y-2489D01*
X5264Y-2489D01*
X5265Y-2489D01*
X5266D01*
X5266Y-2489D01*
D02*
G37*
G36*
Y-3517D02*
X5267D01*
X5267Y-3517D01*
X5268Y-3517D01*
X5269Y-3518D01*
X5270Y-3518D01*
X5272Y-3518D01*
X5274Y-3519D01*
X5275Y-3519D01*
X5275Y-3520D01*
X5275Y-3520D01*
X5275Y-3520D01*
X5276Y-3520D01*
X5276Y-3520D01*
X5276Y-3520D01*
X5277Y-3521D01*
X5277Y-3521D01*
X5277Y-3522D01*
X5278Y-3522D01*
X5278Y-3523D01*
X5279Y-3524D01*
X5280Y-3525D01*
X5281Y-3527D01*
Y-3527D01*
X5281Y-3527D01*
X5281Y-3528D01*
X5282Y-3528D01*
X5282Y-3528D01*
X5282Y-3529D01*
X5282Y-3529D01*
X5282Y-3530D01*
X5282Y-3531D01*
X5283Y-3532D01*
X5283Y-3533D01*
X5283Y-3535D01*
X5283Y-3537D01*
Y-3537D01*
Y-3538D01*
Y-3538D01*
X5283Y-3538D01*
Y-3539D01*
X5283Y-3539D01*
X5283Y-3540D01*
X5283Y-3541D01*
X5283Y-3542D01*
X5282Y-3544D01*
X5282Y-3546D01*
X5281Y-3548D01*
X5281Y-3548D01*
X5281Y-3548D01*
X5281Y-3548D01*
X5280Y-3548D01*
X5280Y-3549D01*
X5280Y-3549D01*
X5279Y-3550D01*
X5278Y-3551D01*
X5277Y-3553D01*
X5276Y-3554D01*
X5274Y-3555D01*
X5274Y-3555D01*
X5274Y-3555D01*
X5274Y-3555D01*
X5274Y-3555D01*
X5273Y-3555D01*
X5273Y-3555D01*
X5272Y-3555D01*
X5272Y-3556D01*
X5271Y-3556D01*
X5270Y-3556D01*
X5269Y-3556D01*
X5267Y-3557D01*
X5265Y-3557D01*
X5265D01*
X5264Y-3557D01*
X5264Y-3557D01*
X5263Y-3557D01*
X5262Y-3557D01*
X5262Y-3556D01*
X5260Y-3556D01*
X5259Y-3556D01*
X5258Y-3555D01*
X5257Y-3555D01*
X5256Y-3554D01*
X5255Y-3554D01*
X5255Y-3554D01*
X5255Y-3554D01*
X5255Y-3554D01*
X5255Y-3553D01*
X5255Y-3553D01*
X5254Y-3553D01*
X5254Y-3552D01*
X5253Y-3552D01*
X5253Y-3551D01*
X5252Y-3551D01*
X5252Y-3550D01*
X5251Y-3549D01*
X5251Y-3548D01*
X5251Y-3548D01*
X5250Y-3547D01*
X5250Y-3546D01*
X5255Y-3545D01*
Y-3545D01*
X5255Y-3545D01*
X5255Y-3545D01*
X5255Y-3545D01*
X5255Y-3546D01*
X5256Y-3546D01*
X5256Y-3547D01*
X5257Y-3548D01*
X5257Y-3549D01*
X5258Y-3550D01*
X5259Y-3551D01*
X5259Y-3551D01*
X5259Y-3551D01*
X5260Y-3551D01*
X5261Y-3552D01*
X5262Y-3552D01*
X5263Y-3552D01*
X5264Y-3553D01*
X5265Y-3553D01*
X5266D01*
X5266Y-3553D01*
X5266D01*
X5267Y-3552D01*
X5268Y-3552D01*
X5269Y-3552D01*
X5270Y-3552D01*
X5272Y-3551D01*
X5273Y-3550D01*
X5273D01*
X5273Y-3550D01*
X5273Y-3550D01*
X5274Y-3550D01*
X5274Y-3549D01*
X5275Y-3548D01*
X5276Y-3547D01*
X5276Y-3546D01*
X5277Y-3545D01*
Y-3545D01*
X5277Y-3545D01*
X5277Y-3544D01*
X5277Y-3544D01*
X5277Y-3544D01*
X5277Y-3543D01*
X5277Y-3542D01*
X5278Y-3541D01*
X5278Y-3540D01*
X5278Y-3539D01*
X5278Y-3537D01*
Y-3537D01*
Y-3537D01*
Y-3537D01*
Y-3537D01*
X5278Y-3536D01*
Y-3536D01*
X5278Y-3535D01*
X5278Y-3534D01*
X5278Y-3533D01*
X5277Y-3532D01*
X5277Y-3530D01*
X5277Y-3529D01*
Y-3529D01*
X5277Y-3529D01*
X5276Y-3528D01*
X5276Y-3528D01*
X5276Y-3528D01*
X5276Y-3527D01*
X5275Y-3526D01*
X5274Y-3525D01*
X5273Y-3524D01*
X5272Y-3523D01*
X5272D01*
X5272Y-3523D01*
X5272Y-3523D01*
X5272Y-3523D01*
X5271Y-3523D01*
X5271Y-3523D01*
X5270Y-3522D01*
X5269Y-3522D01*
X5268Y-3522D01*
X5267Y-3522D01*
X5266Y-3522D01*
X5265D01*
X5265Y-3522D01*
X5265D01*
X5264Y-3522D01*
X5263Y-3522D01*
X5262Y-3522D01*
X5261Y-3523D01*
X5260Y-3523D01*
X5259Y-3524D01*
X5258Y-3524D01*
X5258Y-3524D01*
X5258Y-3524D01*
X5258Y-3524D01*
X5258Y-3524D01*
X5258Y-3525D01*
X5257Y-3525D01*
X5257Y-3525D01*
X5257Y-3526D01*
X5257Y-3526D01*
X5256Y-3527D01*
X5256Y-3527D01*
X5255Y-3528D01*
X5255Y-3529D01*
X5255Y-3530D01*
X5255Y-3530D01*
X5254Y-3531D01*
X5249Y-3530D01*
Y-3530D01*
X5249Y-3530D01*
X5249Y-3529D01*
X5250Y-3529D01*
X5250Y-3528D01*
X5250Y-3528D01*
X5250Y-3527D01*
X5251Y-3526D01*
X5251Y-3525D01*
X5252Y-3523D01*
X5253Y-3523D01*
X5254Y-3522D01*
X5254Y-3521D01*
X5255Y-3521D01*
X5255Y-3520D01*
X5255Y-3520D01*
X5256Y-3520D01*
X5256Y-3520D01*
X5256Y-3520D01*
X5257Y-3519D01*
X5257Y-3519D01*
X5258Y-3519D01*
X5259Y-3519D01*
X5259Y-3518D01*
X5260Y-3518D01*
X5261Y-3518D01*
X5262Y-3518D01*
X5263Y-3517D01*
X5264Y-3517D01*
X5265Y-3517D01*
X5266D01*
X5266Y-3517D01*
D02*
G37*
G36*
X5232Y-3548D02*
X5232Y-3548D01*
X5232Y-3548D01*
X5233Y-3547D01*
X5233Y-3547D01*
X5234Y-3546D01*
X5235Y-3546D01*
X5235Y-3545D01*
X5236Y-3545D01*
X5237D01*
X5237Y-3545D01*
X5237Y-3544D01*
X5237Y-3544D01*
X5238Y-3544D01*
X5239Y-3543D01*
X5240Y-3543D01*
X5241Y-3543D01*
X5241Y-3542D01*
Y-3547D01*
X5241D01*
X5241Y-3547D01*
X5241Y-3547D01*
X5241Y-3547D01*
X5240Y-3547D01*
X5240Y-3547D01*
X5239Y-3548D01*
X5238Y-3549D01*
X5237Y-3549D01*
X5236Y-3550D01*
X5235Y-3551D01*
X5234Y-3551D01*
X5234Y-3551D01*
X5234Y-3552D01*
X5234Y-3552D01*
X5234Y-3552D01*
X5233Y-3553D01*
X5232Y-3554D01*
X5231Y-3555D01*
X5231Y-3555D01*
X5230Y-3556D01*
X5227D01*
Y-3518D01*
X5232D01*
Y-3548D01*
D02*
G37*
G36*
X5204Y-3517D02*
X5204Y-3517D01*
X5205Y-3517D01*
X5205Y-3518D01*
X5206Y-3518D01*
X5207Y-3518D01*
X5207Y-3518D01*
X5208Y-3519D01*
X5209Y-3519D01*
X5209Y-3519D01*
X5210Y-3520D01*
X5211Y-3521D01*
X5211Y-3521D01*
X5211Y-3521D01*
X5212Y-3521D01*
X5212Y-3522D01*
X5212Y-3522D01*
X5212Y-3523D01*
X5213Y-3523D01*
X5213Y-3524D01*
X5213Y-3525D01*
X5214Y-3526D01*
X5214Y-3527D01*
X5214Y-3528D01*
X5215Y-3530D01*
X5215Y-3531D01*
X5215Y-3533D01*
X5215Y-3535D01*
X5215Y-3537D01*
Y-3537D01*
Y-3537D01*
Y-3537D01*
Y-3538D01*
X5215Y-3538D01*
Y-3539D01*
X5215Y-3540D01*
X5215Y-3541D01*
X5215Y-3542D01*
X5215Y-3544D01*
X5214Y-3546D01*
X5214Y-3547D01*
X5214Y-3548D01*
Y-3548D01*
X5214Y-3548D01*
X5214Y-3548D01*
X5214Y-3548D01*
X5213Y-3549D01*
X5213Y-3549D01*
X5213Y-3550D01*
X5212Y-3551D01*
X5211Y-3552D01*
X5211Y-3553D01*
X5210Y-3554D01*
X5210D01*
X5210Y-3554D01*
X5209Y-3554D01*
X5209Y-3554D01*
X5209Y-3555D01*
X5209Y-3555D01*
X5208Y-3555D01*
X5207Y-3556D01*
X5206Y-3556D01*
X5204Y-3556D01*
X5203Y-3556D01*
X5202D01*
X5202Y-3556D01*
X5201Y-3556D01*
X5200Y-3556D01*
X5199Y-3556D01*
X5198Y-3556D01*
X5197Y-3555D01*
X5197D01*
X5197Y-3555D01*
X5197Y-3555D01*
X5196Y-3555D01*
X5196Y-3554D01*
X5195Y-3554D01*
X5195Y-3553D01*
X5194Y-3552D01*
X5193Y-3552D01*
X5193Y-3551D01*
X5193Y-3551D01*
X5193Y-3551D01*
X5193Y-3550D01*
X5192Y-3549D01*
X5192Y-3548D01*
X5191Y-3547D01*
X5191Y-3546D01*
Y-3546D01*
X5191Y-3546D01*
X5191Y-3545D01*
X5191Y-3545D01*
X5191Y-3545D01*
X5191Y-3544D01*
X5191Y-3544D01*
X5191Y-3543D01*
X5191Y-3543D01*
X5190Y-3542D01*
X5190Y-3541D01*
X5190Y-3541D01*
X5190Y-3540D01*
Y-3539D01*
X5190Y-3538D01*
Y-3537D01*
Y-3537D01*
Y-3537D01*
Y-3536D01*
Y-3536D01*
X5190Y-3535D01*
Y-3534D01*
X5190Y-3534D01*
X5190Y-3533D01*
X5191Y-3531D01*
X5191Y-3529D01*
X5191Y-3528D01*
X5191Y-3527D01*
X5192Y-3526D01*
Y-3526D01*
X5192Y-3526D01*
X5192Y-3525D01*
X5192Y-3525D01*
X5192Y-3525D01*
X5192Y-3524D01*
X5193Y-3523D01*
X5193Y-3522D01*
X5194Y-3521D01*
X5195Y-3520D01*
X5196Y-3519D01*
X5196D01*
X5196Y-3519D01*
X5196Y-3519D01*
X5196Y-3519D01*
X5197Y-3519D01*
X5197Y-3519D01*
X5198Y-3518D01*
X5199Y-3518D01*
X5200Y-3518D01*
X5201Y-3517D01*
X5203Y-3517D01*
X5203D01*
X5204Y-3517D01*
D02*
G37*
%LPC*%
G36*
X2544Y-3255D02*
X2532D01*
Y-3268D01*
X2544D01*
X2544Y-3268D01*
X2545Y-3268D01*
X2546Y-3268D01*
X2547Y-3268D01*
X2548Y-3267D01*
X2549Y-3267D01*
X2549Y-3267D01*
X2549Y-3267D01*
X2549Y-3267D01*
X2550Y-3267D01*
X2550Y-3266D01*
X2551Y-3266D01*
X2551Y-3265D01*
X2552Y-3265D01*
X2552Y-3265D01*
X2552Y-3265D01*
X2552Y-3264D01*
X2552Y-3264D01*
X2552Y-3263D01*
X2553Y-3263D01*
X2553Y-3262D01*
X2553Y-3262D01*
Y-3261D01*
Y-3261D01*
X2553Y-3261D01*
X2553Y-3261D01*
X2552Y-3260D01*
X2552Y-3259D01*
X2552Y-3258D01*
X2551Y-3258D01*
X2551Y-3257D01*
X2551Y-3257D01*
X2550Y-3257D01*
X2550Y-3256D01*
X2549Y-3256D01*
X2548Y-3256D01*
X2547Y-3256D01*
X2546Y-3255D01*
X2544Y-3255D01*
D02*
G37*
G36*
X2577Y-3255D02*
X2576D01*
X2576Y-3255D01*
X2575Y-3255D01*
X2574Y-3255D01*
X2573Y-3255D01*
X2573Y-3256D01*
X2572Y-3256D01*
X2572Y-3257D01*
X2572Y-3257D01*
X2571Y-3257D01*
X2571Y-3258D01*
X2571Y-3258D01*
X2571Y-3259D01*
X2570Y-3260D01*
X2570Y-3261D01*
Y-3261D01*
Y-3261D01*
X2570Y-3261D01*
X2570Y-3262D01*
X2570Y-3262D01*
X2571Y-3263D01*
X2571Y-3264D01*
X2571Y-3264D01*
X2572Y-3265D01*
X2572Y-3265D01*
X2572Y-3265D01*
X2573Y-3266D01*
X2573Y-3266D01*
X2574Y-3266D01*
X2575Y-3266D01*
X2576Y-3267D01*
X2577Y-3267D01*
X2577D01*
X2577Y-3267D01*
X2577Y-3267D01*
X2578Y-3267D01*
X2579Y-3266D01*
X2580Y-3266D01*
X2580Y-3266D01*
X2581Y-3265D01*
X2581Y-3265D01*
X2581Y-3265D01*
X2582Y-3264D01*
X2582Y-3264D01*
X2582Y-3263D01*
X2583Y-3263D01*
X2583Y-3262D01*
X2583Y-3261D01*
Y-3261D01*
Y-3261D01*
Y-3260D01*
X2583Y-3260D01*
X2583Y-3259D01*
X2582Y-3259D01*
X2582Y-3258D01*
X2582Y-3257D01*
X2581Y-3256D01*
X2581Y-3256D01*
X2581Y-3256D01*
X2580Y-3256D01*
X2580Y-3256D01*
X2579Y-3255D01*
X2578Y-3255D01*
X2577Y-3255D01*
X2577Y-3255D01*
D02*
G37*
G36*
X2576Y-3271D02*
X2576D01*
X2576Y-3271D01*
X2575Y-3271D01*
X2574Y-3271D01*
X2574Y-3271D01*
X2573Y-3272D01*
X2572Y-3272D01*
X2571Y-3273D01*
X2571Y-3273D01*
X2571Y-3273D01*
X2570Y-3274D01*
X2570Y-3274D01*
X2569Y-3275D01*
X2569Y-3276D01*
X2569Y-3277D01*
X2569Y-3278D01*
Y-3278D01*
Y-3279D01*
X2569Y-3279D01*
X2569Y-3279D01*
X2569Y-3280D01*
X2569Y-3281D01*
X2569Y-3281D01*
X2570Y-3282D01*
X2570Y-3282D01*
X2570Y-3282D01*
X2570Y-3283D01*
X2570Y-3283D01*
X2571Y-3284D01*
X2571Y-3284D01*
X2572Y-3285D01*
X2572Y-3285D01*
X2573Y-3285D01*
X2573Y-3285D01*
X2573Y-3285D01*
X2574Y-3286D01*
X2574Y-3286D01*
X2575Y-3286D01*
X2576Y-3286D01*
X2577Y-3286D01*
X2577D01*
X2577Y-3286D01*
X2578Y-3286D01*
X2579Y-3286D01*
X2579Y-3286D01*
X2580Y-3285D01*
X2581Y-3285D01*
X2582Y-3284D01*
X2582Y-3284D01*
X2582Y-3284D01*
X2583Y-3283D01*
X2583Y-3282D01*
X2584Y-3282D01*
X2584Y-3281D01*
X2584Y-3280D01*
X2584Y-3278D01*
Y-3278D01*
Y-3278D01*
Y-3278D01*
X2584Y-3278D01*
X2584Y-3277D01*
X2584Y-3276D01*
X2584Y-3276D01*
X2583Y-3275D01*
X2583Y-3274D01*
X2582Y-3273D01*
X2582Y-3273D01*
X2582Y-3273D01*
X2581Y-3272D01*
X2581Y-3272D01*
X2580Y-3271D01*
X2579Y-3271D01*
X2578Y-3271D01*
X2576Y-3271D01*
D02*
G37*
G36*
X2958Y-3255D02*
X2957D01*
X2957Y-3255D01*
X2956Y-3255D01*
X2956Y-3255D01*
X2955Y-3255D01*
X2954Y-3256D01*
X2953Y-3256D01*
X2952Y-3257D01*
X2952Y-3257D01*
Y-3257D01*
X2952Y-3257D01*
X2952Y-3258D01*
X2952Y-3258D01*
X2951Y-3258D01*
X2951Y-3259D01*
X2950Y-3260D01*
X2950Y-3261D01*
X2950Y-3262D01*
X2950Y-3264D01*
Y-3264D01*
Y-3264D01*
Y-3264D01*
X2950Y-3265D01*
Y-3265D01*
X2950Y-3265D01*
X2950Y-3266D01*
X2950Y-3267D01*
X2951Y-3268D01*
X2951Y-3269D01*
X2952Y-3270D01*
X2952Y-3270D01*
X2952Y-3270D01*
X2953Y-3271D01*
X2953Y-3271D01*
X2954Y-3271D01*
X2955Y-3272D01*
X2956Y-3272D01*
X2957Y-3272D01*
X2958D01*
X2958Y-3272D01*
X2959Y-3272D01*
X2959Y-3272D01*
X2960Y-3272D01*
X2961Y-3271D01*
X2962Y-3271D01*
X2963Y-3270D01*
X2963Y-3270D01*
X2963Y-3269D01*
X2963Y-3269D01*
X2964Y-3268D01*
X2964Y-3267D01*
X2965Y-3266D01*
X2965Y-3265D01*
X2965Y-3264D01*
Y-3263D01*
Y-3263D01*
Y-3263D01*
X2965Y-3263D01*
Y-3262D01*
X2965Y-3262D01*
X2965Y-3261D01*
X2964Y-3260D01*
X2964Y-3259D01*
X2964Y-3258D01*
X2963Y-3257D01*
Y-3257D01*
X2963Y-3257D01*
X2962Y-3257D01*
X2962Y-3256D01*
X2961Y-3256D01*
X2961Y-3255D01*
X2960Y-3255D01*
X2959Y-3255D01*
X2958Y-3255D01*
D02*
G37*
G36*
X2925Y-3255D02*
X2913D01*
Y-3268D01*
X2925D01*
X2925Y-3268D01*
X2926Y-3268D01*
X2927Y-3268D01*
X2928Y-3268D01*
X2929Y-3267D01*
X2930Y-3267D01*
X2930Y-3267D01*
X2930Y-3267D01*
X2930Y-3267D01*
X2931Y-3267D01*
X2931Y-3266D01*
X2932Y-3266D01*
X2932Y-3265D01*
X2933Y-3265D01*
X2933Y-3265D01*
X2933Y-3265D01*
X2933Y-3264D01*
X2933Y-3264D01*
X2933Y-3263D01*
X2934Y-3263D01*
X2934Y-3262D01*
X2934Y-3262D01*
Y-3261D01*
Y-3261D01*
X2934Y-3261D01*
X2934Y-3261D01*
X2933Y-3260D01*
X2933Y-3259D01*
X2933Y-3258D01*
X2932Y-3258D01*
X2932Y-3257D01*
X2932Y-3257D01*
X2931Y-3257D01*
X2931Y-3256D01*
X2930Y-3256D01*
X2929Y-3256D01*
X2928Y-3256D01*
X2927Y-3255D01*
X2925Y-3255D01*
D02*
G37*
G36*
X4102Y-4461D02*
X4101D01*
X4101Y-4461D01*
X4101Y-4461D01*
X4100Y-4461D01*
X4099Y-4462D01*
X4098Y-4462D01*
X4097Y-4463D01*
X4097Y-4463D01*
X4097Y-4463D01*
Y-4463D01*
X4096Y-4463D01*
X4096Y-4464D01*
X4096Y-4464D01*
X4095Y-4465D01*
X4095Y-4466D01*
X4095Y-4467D01*
X4094Y-4468D01*
X4094Y-4470D01*
Y-4470D01*
Y-4470D01*
Y-4470D01*
X4094Y-4470D01*
Y-4471D01*
X4094Y-4471D01*
X4095Y-4472D01*
X4095Y-4473D01*
X4095Y-4474D01*
X4096Y-4475D01*
X4097Y-4476D01*
X4097Y-4476D01*
X4097Y-4476D01*
X4097Y-4477D01*
X4098Y-4477D01*
X4099Y-4478D01*
X4100Y-4478D01*
X4101Y-4478D01*
X4102Y-4478D01*
X4102D01*
X4102Y-4478D01*
X4103Y-4478D01*
X4104Y-4478D01*
X4105Y-4478D01*
X4106Y-4477D01*
X4106Y-4477D01*
X4107Y-4476D01*
X4107Y-4476D01*
X4108Y-4476D01*
X4108Y-4475D01*
X4108Y-4474D01*
X4109Y-4474D01*
X4109Y-4473D01*
X4109Y-4471D01*
X4109Y-4470D01*
Y-4470D01*
Y-4470D01*
X4109Y-4469D01*
X4109Y-4469D01*
X4109Y-4468D01*
X4109Y-4467D01*
X4109Y-4466D01*
X4108Y-4465D01*
X4108Y-4465D01*
X4108Y-4465D01*
X4108Y-4465D01*
X4108Y-4464D01*
X4107Y-4464D01*
X4107Y-4463D01*
X4106Y-4463D01*
X4106Y-4462D01*
X4106Y-4462D01*
X4105Y-4462D01*
X4105Y-4462D01*
X4104Y-4462D01*
X4104Y-4461D01*
X4103Y-4461D01*
X4102Y-4461D01*
X4102Y-4461D01*
D02*
G37*
G36*
X4089Y-3521D02*
X4089D01*
X4089Y-3521D01*
X4088Y-3521D01*
X4087Y-3521D01*
X4087Y-3522D01*
X4086Y-3522D01*
X4085Y-3523D01*
X4084Y-3523D01*
X4084Y-3523D01*
X4083Y-3524D01*
X4083Y-3524D01*
X4083Y-3525D01*
X4082Y-3526D01*
X4082Y-3526D01*
X4082Y-3528D01*
X4082Y-3529D01*
Y-3529D01*
Y-3529D01*
Y-3529D01*
X4082Y-3529D01*
X4082Y-3530D01*
X4082Y-3531D01*
X4082Y-3532D01*
X4083Y-3533D01*
X4083Y-3533D01*
X4084Y-3534D01*
X4084Y-3534D01*
X4084Y-3535D01*
X4085Y-3535D01*
X4085Y-3536D01*
X4086Y-3536D01*
X4087Y-3536D01*
X4088Y-3537D01*
X4090Y-3537D01*
X4090D01*
X4090Y-3537D01*
X4091Y-3537D01*
X4092Y-3536D01*
X4092Y-3536D01*
X4093Y-3536D01*
X4094Y-3535D01*
X4095Y-3534D01*
X4095Y-3534D01*
X4095Y-3534D01*
X4096Y-3534D01*
X4096Y-3533D01*
X4097Y-3532D01*
X4097Y-3531D01*
X4097Y-3530D01*
X4097Y-3529D01*
Y-3529D01*
Y-3529D01*
X4097Y-3528D01*
X4097Y-3528D01*
X4097Y-3527D01*
X4097Y-3526D01*
X4097Y-3526D01*
X4096Y-3525D01*
X4096Y-3525D01*
X4096Y-3525D01*
X4096Y-3524D01*
X4096Y-3524D01*
X4095Y-3523D01*
X4095Y-3523D01*
X4094Y-3523D01*
X4094Y-3522D01*
X4093Y-3522D01*
X4093Y-3522D01*
X4093Y-3522D01*
X4092Y-3522D01*
X4092Y-3521D01*
X4091Y-3521D01*
X4090Y-3521D01*
X4089Y-3521D01*
D02*
G37*
G36*
Y-3540D02*
X4089D01*
X4089Y-3540D01*
X4088Y-3541D01*
X4088Y-3541D01*
X4087Y-3541D01*
X4086Y-3541D01*
X4086Y-3542D01*
X4085Y-3542D01*
X4085Y-3542D01*
X4085Y-3542D01*
X4084Y-3543D01*
X4084Y-3543D01*
X4084Y-3544D01*
X4083Y-3545D01*
X4083Y-3545D01*
X4083Y-3546D01*
Y-3546D01*
Y-3546D01*
Y-3547D01*
X4083Y-3547D01*
X4083Y-3548D01*
X4084Y-3549D01*
X4084Y-3549D01*
X4084Y-3550D01*
X4085Y-3551D01*
X4085Y-3551D01*
X4085Y-3551D01*
X4086Y-3551D01*
X4086Y-3552D01*
X4087Y-3552D01*
X4088Y-3552D01*
X4088Y-3552D01*
X4089Y-3553D01*
X4090D01*
X4090Y-3552D01*
X4091Y-3552D01*
X4092Y-3552D01*
X4093Y-3552D01*
X4093Y-3551D01*
X4094Y-3551D01*
X4094Y-3551D01*
X4094Y-3550D01*
X4095Y-3550D01*
X4095Y-3550D01*
X4095Y-3549D01*
X4095Y-3548D01*
X4096Y-3547D01*
X4096Y-3547D01*
Y-3547D01*
Y-3546D01*
X4096Y-3546D01*
X4096Y-3546D01*
X4095Y-3545D01*
X4095Y-3544D01*
X4095Y-3544D01*
X4095Y-3543D01*
X4094Y-3542D01*
X4094Y-3542D01*
X4094Y-3542D01*
X4093Y-3542D01*
X4093Y-3541D01*
X4092Y-3541D01*
X4091Y-3541D01*
X4090Y-3540D01*
X4089Y-3540D01*
D02*
G37*
G36*
X5233Y-2506D02*
X5232D01*
X5232Y-2506D01*
X5231Y-2506D01*
X5231Y-2507D01*
X5230Y-2507D01*
X5229Y-2507D01*
X5228Y-2508D01*
X5227Y-2509D01*
X5227Y-2509D01*
X5227Y-2509D01*
X5226Y-2510D01*
X5226Y-2510D01*
X5226Y-2511D01*
X5225Y-2512D01*
X5225Y-2514D01*
X5225Y-2515D01*
Y-2515D01*
Y-2515D01*
Y-2515D01*
X5225Y-2516D01*
Y-2516D01*
X5225Y-2516D01*
X5225Y-2517D01*
X5226Y-2518D01*
X5226Y-2519D01*
X5226Y-2520D01*
X5227Y-2521D01*
Y-2521D01*
X5227Y-2522D01*
X5228Y-2522D01*
X5228Y-2522D01*
X5229Y-2523D01*
X5229Y-2523D01*
X5230Y-2523D01*
X5231Y-2524D01*
X5232Y-2524D01*
X5233D01*
X5233Y-2524D01*
X5234Y-2524D01*
X5234Y-2523D01*
X5235Y-2523D01*
X5236Y-2523D01*
X5237Y-2522D01*
X5237Y-2522D01*
X5238Y-2521D01*
Y-2521D01*
X5238Y-2521D01*
X5238Y-2521D01*
X5238Y-2521D01*
X5239Y-2520D01*
X5239Y-2519D01*
X5239Y-2518D01*
X5240Y-2517D01*
X5240Y-2516D01*
X5240Y-2515D01*
Y-2515D01*
Y-2514D01*
Y-2514D01*
X5240Y-2514D01*
Y-2514D01*
X5240Y-2513D01*
X5240Y-2512D01*
X5240Y-2512D01*
X5239Y-2511D01*
X5239Y-2510D01*
X5238Y-2509D01*
X5238Y-2509D01*
X5238Y-2508D01*
X5237Y-2508D01*
X5237Y-2508D01*
X5236Y-2507D01*
X5235Y-2507D01*
X5234Y-2506D01*
X5233Y-2506D01*
D02*
G37*
G36*
X5203Y-3521D02*
X5202D01*
X5202Y-3521D01*
X5202Y-3521D01*
X5201Y-3521D01*
X5200Y-3522D01*
X5199Y-3522D01*
X5199Y-3523D01*
X5198Y-3523D01*
X5198Y-3524D01*
X5197Y-3524D01*
Y-3524D01*
X5197Y-3524D01*
X5197Y-3525D01*
X5197Y-3525D01*
X5197Y-3525D01*
X5197Y-3526D01*
X5196Y-3526D01*
X5196Y-3527D01*
X5196Y-3528D01*
X5196Y-3529D01*
X5195Y-3530D01*
X5195Y-3531D01*
X5195Y-3532D01*
X5195Y-3534D01*
X5195Y-3535D01*
Y-3537D01*
Y-3537D01*
Y-3537D01*
Y-3537D01*
Y-3538D01*
X5195Y-3538D01*
Y-3539D01*
X5195Y-3540D01*
X5195Y-3541D01*
X5195Y-3542D01*
X5196Y-3544D01*
X5196Y-3545D01*
X5196Y-3546D01*
X5196Y-3547D01*
X5196Y-3548D01*
X5197Y-3549D01*
X5197Y-3549D01*
Y-3549D01*
X5197Y-3549D01*
X5197Y-3550D01*
X5198Y-3550D01*
X5198Y-3550D01*
X5199Y-3551D01*
X5200Y-3552D01*
X5200Y-3552D01*
X5201Y-3552D01*
X5202Y-3552D01*
X5202Y-3552D01*
X5203Y-3553D01*
X5203D01*
X5203Y-3552D01*
X5204Y-3552D01*
X5205Y-3552D01*
X5205Y-3552D01*
X5206Y-3551D01*
X5207Y-3551D01*
X5207Y-3551D01*
X5208Y-3550D01*
X5208Y-3550D01*
Y-3550D01*
X5208Y-3550D01*
X5208Y-3549D01*
X5208Y-3549D01*
X5209Y-3549D01*
X5209Y-3548D01*
X5209Y-3548D01*
X5209Y-3547D01*
X5209Y-3546D01*
X5210Y-3545D01*
X5210Y-3544D01*
X5210Y-3543D01*
X5210Y-3541D01*
X5210Y-3540D01*
X5210Y-3538D01*
X5210Y-3537D01*
Y-3537D01*
Y-3536D01*
Y-3536D01*
X5210Y-3535D01*
Y-3535D01*
X5210Y-3534D01*
X5210Y-3533D01*
X5210Y-3532D01*
X5210Y-3530D01*
X5210Y-3528D01*
X5209Y-3527D01*
X5209Y-3527D01*
X5209Y-3526D01*
X5209Y-3525D01*
X5208Y-3524D01*
Y-3524D01*
X5208Y-3524D01*
X5208Y-3524D01*
X5207Y-3523D01*
X5207Y-3523D01*
X5206Y-3522D01*
X5205Y-3522D01*
X5204Y-3521D01*
X5203Y-3521D01*
X5203Y-3521D01*
D02*
G37*
%LPD*%
M02*
