G04*
G04 #@! TF.GenerationSoftware,Altium Limited,Altium Designer,23.10.1 (27)*
G04*
G04 Layer_Color=32896*
%FSLAX42Y42*%
%MOMM*%
G71*
G04*
G04 #@! TF.SameCoordinates,D45A84C9-24EE-431E-81B0-E16C7BED9CBD*
G04*
G04*
G04 #@! TF.FilePolarity,Positive*
G04*
G01*
G75*
%ADD10C,0.20*%
%ADD11C,0.25*%
%ADD13C,0.13*%
%ADD14C,0.40*%
%ADD17C,0.25*%
%ADD97C,0.38*%
%ADD98C,0.10*%
D10*
X1612Y-2060D02*
G03*
X1612Y-2060I-10J0D01*
G01*
X2893Y-597D02*
G03*
X2893Y-597I-10J0D01*
G01*
X3381Y-479D02*
G03*
X3381Y-479I-10J0D01*
G01*
X4442Y-443D02*
Y17D01*
X4042Y-443D02*
Y17D01*
X4394Y-443D02*
X4442D01*
X4394Y17D02*
X4442D01*
X4042Y-443D02*
X4089D01*
X4042Y17D02*
X4089D01*
X2841Y-3063D02*
Y-2352D01*
X3354Y-3063D02*
X3463D01*
X2841D02*
X2949D01*
X3463D02*
Y-2352D01*
X3354D02*
X3463D01*
X2841D02*
X2949D01*
X2412Y-3107D02*
Y-2537D01*
X1732Y-3107D02*
Y-2537D01*
X331Y-5203D02*
Y-4703D01*
X5461D01*
Y-5203D02*
Y-4703D01*
X331Y-5203D02*
X5461D01*
X1705Y-279D02*
Y1D01*
X1165Y-279D02*
Y1D01*
X2366Y-280D02*
Y0D01*
X1825Y-280D02*
Y0D01*
X3484Y-3345D02*
Y-3325D01*
X2864Y-3345D02*
Y-3325D01*
X3484Y-3665D02*
Y-3645D01*
X2864Y-3665D02*
Y-3645D01*
Y-3325D02*
X3484D01*
X2864Y-3665D02*
X3484D01*
X2233Y-1426D02*
X2353D01*
X2233Y-1596D02*
X2353D01*
X2274Y-1833D02*
X2374D01*
X2274Y-1673D02*
X2374D01*
X3715Y-680D02*
Y-590D01*
X3550Y-680D02*
Y-590D01*
X3067Y-1036D02*
Y-946D01*
X3232Y-1036D02*
Y-946D01*
X4186Y-653D02*
X4536D01*
X4186Y-973D02*
X4536D01*
X3957Y-1405D02*
X4307D01*
X3957Y-1085D02*
X4307D01*
X1330Y-1204D02*
X1335D01*
X1934D02*
X1940D01*
X1330Y-1714D02*
X1335D01*
X1934D02*
X1940D01*
X1330D02*
Y-1204D01*
X1940Y-1714D02*
Y-1204D01*
D11*
X3164Y-2177D02*
G03*
X3164Y-2177I-12J0D01*
G01*
X5538Y-4823D02*
G03*
X5538Y-4823I-12J0D01*
G01*
D13*
X3305Y-379D02*
Y-302D01*
X3015Y-379D02*
Y-302D01*
X3097D01*
X3222D02*
X3305D01*
D14*
X4045Y147D02*
X4439D01*
X2796Y-3665D02*
Y-3325D01*
D17*
X1080Y-1384D02*
X1206D01*
X1232Y-1410D01*
Y-1461D01*
X1206Y-1486D01*
X1080D01*
X1232Y-1537D02*
Y-1587D01*
Y-1562D01*
X1080D01*
X1105Y-1537D01*
X4572Y-1372D02*
X4724D01*
Y-1295D01*
X4699Y-1270D01*
X4648D01*
X4623Y-1295D01*
Y-1372D01*
Y-1321D02*
X4572Y-1270D01*
X4724Y-1219D02*
Y-1118D01*
X4699D01*
X4597Y-1219D01*
X4572D01*
X4806Y-966D02*
X4959D01*
Y-890D01*
X4933Y-865D01*
X4883D01*
X4857Y-890D01*
Y-966D01*
Y-916D02*
X4806Y-865D01*
X4959Y-713D02*
X4933Y-763D01*
X4883Y-814D01*
X4832D01*
X4806Y-789D01*
Y-738D01*
X4832Y-713D01*
X4857D01*
X4883Y-738D01*
Y-814D01*
X2984Y-876D02*
X2832D01*
Y-953D01*
X2858Y-978D01*
X2908D01*
X2934Y-953D01*
Y-876D01*
Y-927D02*
X2984Y-978D01*
X2832Y-1130D02*
Y-1029D01*
X2908D01*
X2883Y-1079D01*
Y-1105D01*
X2908Y-1130D01*
X2959D01*
X2984Y-1105D01*
Y-1054D01*
X2959Y-1029D01*
X3505Y-1397D02*
X3658D01*
Y-1321D01*
X3632Y-1295D01*
X3581D01*
X3556Y-1321D01*
Y-1397D01*
Y-1346D02*
X3505Y-1295D01*
Y-1168D02*
X3658D01*
X3581Y-1245D01*
Y-1143D01*
X3810Y-724D02*
X3962D01*
Y-648D01*
X3937Y-622D01*
X3886D01*
X3861Y-648D01*
Y-724D01*
Y-673D02*
X3810Y-622D01*
X3937Y-571D02*
X3962Y-546D01*
Y-495D01*
X3937Y-470D01*
X3912D01*
X3886Y-495D01*
Y-521D01*
Y-495D01*
X3861Y-470D01*
X3835D01*
X3810Y-495D01*
Y-546D01*
X3835Y-571D01*
X2591Y-2057D02*
Y-1905D01*
X2515D01*
X2489Y-1930D01*
Y-1981D01*
X2515Y-2007D01*
X2591D01*
X2540D02*
X2489Y-2057D01*
X2337D02*
X2438D01*
X2337Y-1956D01*
Y-1930D01*
X2362Y-1905D01*
X2413D01*
X2438Y-1930D01*
X2541Y-1600D02*
X2694D01*
Y-1524D01*
X2668Y-1499D01*
X2618D01*
X2592Y-1524D01*
Y-1600D01*
Y-1549D02*
X2541Y-1499D01*
Y-1448D02*
Y-1397D01*
Y-1422D01*
X2694D01*
X2668Y-1448D01*
X3734Y140D02*
Y241D01*
X3759Y267D01*
X3810D01*
X3835Y241D01*
Y140D01*
X3810Y114D01*
X3759D01*
X3785Y165D02*
X3734Y114D01*
X3759D02*
X3734Y140D01*
X3581Y114D02*
X3683D01*
X3581Y216D01*
Y241D01*
X3607Y267D01*
X3658D01*
X3683Y241D01*
X3147Y-88D02*
Y14D01*
X3172Y39D01*
X3223D01*
X3249Y14D01*
Y-88D01*
X3223Y-113D01*
X3172D01*
X3198Y-63D02*
X3147Y-113D01*
X3172D02*
X3147Y-88D01*
X3096Y-113D02*
X3045D01*
X3071D01*
Y39D01*
X3096Y14D01*
X1270Y-2692D02*
X1422D01*
Y-2794D01*
Y-2845D02*
Y-2896D01*
Y-2870D01*
X1270D01*
X1295Y-2845D01*
X5270Y-4394D02*
Y-4445D01*
Y-4420D01*
X5144D01*
X5118Y-4445D01*
Y-4470D01*
X5144Y-4496D01*
X5118Y-4343D02*
Y-4293D01*
Y-4318D01*
X5270D01*
X5245Y-4343D01*
X4559Y-252D02*
X4712D01*
Y-328D01*
X4686Y-353D01*
X4585D01*
X4559Y-328D01*
Y-252D01*
X4585Y-404D02*
X4559Y-429D01*
Y-480D01*
X4585Y-506D01*
X4610D01*
X4635Y-480D01*
Y-455D01*
Y-480D01*
X4661Y-506D01*
X4686D01*
X4712Y-480D01*
Y-429D01*
X4686Y-404D01*
X3264Y-1930D02*
Y-2083D01*
X3188D01*
X3162Y-2057D01*
Y-1956D01*
X3188Y-1930D01*
X3264D01*
X3112Y-2083D02*
X3061D01*
X3086D01*
Y-1930D01*
X3112Y-1956D01*
X3250Y-3787D02*
X3275Y-3762D01*
X3326D01*
X3351Y-3787D01*
Y-3889D01*
X3326Y-3914D01*
X3275D01*
X3250Y-3889D01*
X3097Y-3762D02*
X3199D01*
Y-3838D01*
X3148Y-3812D01*
X3123D01*
X3097Y-3838D01*
Y-3889D01*
X3123Y-3914D01*
X3174D01*
X3199Y-3889D01*
X2413Y-1016D02*
X2438Y-991D01*
X2489D01*
X2515Y-1016D01*
Y-1118D01*
X2489Y-1143D01*
X2438D01*
X2413Y-1118D01*
X2286Y-1143D02*
Y-991D01*
X2362Y-1067D01*
X2261D01*
X2718Y-699D02*
X2743Y-673D01*
X2794D01*
X2819Y-699D01*
Y-800D01*
X2794Y-825D01*
X2743D01*
X2718Y-800D01*
X2667Y-699D02*
X2642Y-673D01*
X2591D01*
X2565Y-699D01*
Y-724D01*
X2591Y-749D01*
X2616D01*
X2591D01*
X2565Y-775D01*
Y-800D01*
X2591Y-825D01*
X2642D01*
X2667Y-800D01*
X2134Y-597D02*
X2159Y-572D01*
X2210D01*
X2235Y-597D01*
Y-698D01*
X2210Y-724D01*
X2159D01*
X2134Y-698D01*
X1981Y-724D02*
X2083D01*
X1981Y-622D01*
Y-597D01*
X2007Y-572D01*
X2057D01*
X2083Y-597D01*
X1397Y-597D02*
X1422Y-572D01*
X1473D01*
X1499Y-597D01*
Y-698D01*
X1473Y-724D01*
X1422D01*
X1397Y-698D01*
X1346Y-724D02*
X1295D01*
X1321D01*
Y-572D01*
X1346Y-597D01*
D97*
X3472Y127D02*
G03*
X3472Y127I-18J0D01*
G01*
D98*
X1335Y-1164D02*
G03*
X1335Y-1164I-5J0D01*
G01*
M02*
