G04*
G04 #@! TF.GenerationSoftware,Altium Limited,Altium Designer,23.10.1 (27)*
G04*
G04 Layer_Color=32768*
%FSLAX42Y42*%
%MOMM*%
G71*
G04*
G04 #@! TF.SameCoordinates,D45A84C9-24EE-431E-81B0-E16C7BED9CBD*
G04*
G04*
G04 #@! TF.FilePolarity,Positive*
G04*
G01*
G75*
%ADD10C,0.20*%
%ADD13C,0.13*%
%ADD17C,0.25*%
%ADD98C,0.10*%
%ADD103R,3.94X0.61*%
%ADD104R,0.83X3.40*%
D10*
X3381Y-479D02*
G03*
X3381Y-479I-10J0D01*
G01*
X2841Y-3063D02*
Y-2352D01*
Y-3063D02*
X3463D01*
Y-2352D01*
X2841D02*
X3463D01*
X1185Y-424D02*
X1685D01*
X1185D02*
Y146D01*
X1685D01*
Y-424D02*
Y146D01*
X1845Y-425D02*
X2345D01*
X1845D02*
Y145D01*
X2345D01*
Y-425D02*
Y145D01*
X2448Y-1591D02*
Y-1431D01*
X2138Y-1591D02*
X2448D01*
X2138D02*
Y-1431D01*
X2448D01*
D13*
X3305Y-432D02*
Y-302D01*
X3015Y-432D02*
X3305D01*
X3015D02*
Y-302D01*
X3305D01*
D17*
X2997Y-5093D02*
X2946D01*
X2972D01*
Y-4966D01*
X2946Y-4940D01*
X2921D01*
X2896Y-4966D01*
X3048Y-4940D02*
X3099D01*
X3073D01*
Y-5093D01*
X3048Y-5067D01*
D98*
X1474Y-1299D02*
G03*
X1474Y-1299I-50J0D01*
G01*
X4045Y-442D02*
X4439D01*
X4045Y15D02*
X4439D01*
Y-442D02*
Y15D01*
X4045Y-442D02*
Y15D01*
X2707Y-3457D02*
Y-2187D01*
X1437Y-3457D02*
Y-2187D01*
Y-3457D02*
X2707D01*
X1437Y-2187D02*
X2707D01*
X331Y-5203D02*
Y-4703D01*
X5461D01*
Y-5203D02*
Y-4703D01*
X331Y-5203D02*
X5461D01*
X2542Y-337D02*
X2842D01*
X2542Y33D02*
X2842D01*
Y-337D02*
Y33D01*
X2542Y-337D02*
Y33D01*
X2330Y-1185D02*
X2550D01*
X2330Y-1330D02*
X2550D01*
Y-1185D01*
X2330Y-1330D02*
Y-1185D01*
X2864Y-3325D02*
X3484D01*
X2864Y-3665D02*
X3484D01*
Y-3325D01*
X2864Y-3665D02*
Y-3325D01*
X2164Y-1838D02*
Y-1668D01*
X2484Y-1838D02*
Y-1668D01*
X2164Y-1838D02*
X2484D01*
X2164Y-1668D02*
X2484D01*
X3545Y-800D02*
X3720D01*
X3545Y-470D02*
X3720D01*
Y-800D02*
Y-470D01*
X3545Y-800D02*
Y-470D01*
X3346Y-1267D02*
X3436D01*
X3346Y-1097D02*
X3436D01*
Y-1267D02*
Y-1097D01*
X3346Y-1267D02*
Y-1097D01*
X3062Y-826D02*
X3237D01*
X3062Y-1156D02*
X3237D01*
X3062D02*
Y-826D01*
X3237Y-1156D02*
Y-826D01*
X4036Y-643D02*
X4686D01*
X4036Y-983D02*
X4686D01*
Y-643D01*
X4036Y-983D02*
Y-643D01*
X3807Y-1415D02*
X4457D01*
X3807Y-1075D02*
X4457D01*
X3807Y-1415D02*
Y-1075D01*
X4457Y-1415D02*
Y-1075D01*
X1335Y-1209D02*
X1934D01*
X1335Y-1709D02*
X1934D01*
X1335D02*
Y-1209D01*
X1934Y-1709D02*
Y-1209D01*
D103*
X4242Y-16D02*
D03*
D104*
X2905Y-3495D02*
D03*
M02*
