G04*
G04 #@! TF.GenerationSoftware,Altium Limited,Altium Designer,23.10.1 (27)*
G04*
G04 Layer_Color=16711935*
%FSLAX42Y42*%
%MOMM*%
G71*
G04*
G04 #@! TF.SameCoordinates,D45A84C9-24EE-431E-81B0-E16C7BED9CBD*
G04*
G04*
G04 #@! TF.FilePolarity,Positive*
G04*
G01*
G75*
%ADD10C,0.20*%
%ADD98C,0.10*%
G36*
X5754Y-961D02*
X5754D01*
X5753D01*
X5753D01*
X5752Y-960D01*
X5751Y-960D01*
X5750Y-960D01*
X5749Y-960D01*
X5748Y-960D01*
X5748D01*
X5748Y-960D01*
X5747Y-959D01*
X5747Y-959D01*
X5746Y-958D01*
X5744Y-958D01*
X5743Y-957D01*
X5741Y-956D01*
X5740Y-954D01*
X5740D01*
X5740Y-954D01*
X5739Y-954D01*
X5738Y-953D01*
X5737Y-952D01*
X5736Y-950D01*
X5734Y-949D01*
X5732Y-947D01*
X5730Y-944D01*
X5730Y-944D01*
X5730Y-944D01*
X5729Y-943D01*
X5729Y-943D01*
X5728Y-942D01*
X5727Y-941D01*
X5726Y-940D01*
X5725Y-938D01*
X5723Y-936D01*
X5721Y-934D01*
X5720Y-933D01*
X5719Y-932D01*
X5718Y-931D01*
X5717Y-930D01*
X5716D01*
X5716Y-930D01*
X5716Y-930D01*
X5716Y-929D01*
X5715Y-929D01*
X5713Y-928D01*
X5712Y-927D01*
X5710Y-927D01*
X5709Y-926D01*
X5707Y-926D01*
X5707D01*
X5707D01*
X5706Y-926D01*
X5705Y-926D01*
X5704Y-927D01*
X5703Y-927D01*
X5702Y-928D01*
X5700Y-929D01*
X5699Y-930D01*
X5699Y-930D01*
X5699Y-930D01*
X5698Y-931D01*
X5697Y-932D01*
X5697Y-933D01*
X5696Y-935D01*
X5696Y-937D01*
X5696Y-938D01*
Y-939D01*
X5696Y-939D01*
X5696Y-940D01*
X5696Y-942D01*
X5697Y-943D01*
X5697Y-945D01*
X5698Y-946D01*
X5699Y-948D01*
X5700Y-948D01*
X5700Y-948D01*
X5701Y-949D01*
X5702Y-949D01*
X5703Y-950D01*
X5705Y-950D01*
X5707Y-951D01*
X5709Y-951D01*
X5708Y-959D01*
X5708D01*
X5708Y-959D01*
X5707D01*
X5706Y-959D01*
X5706Y-959D01*
X5705Y-959D01*
X5704Y-958D01*
X5703Y-958D01*
X5701Y-957D01*
X5698Y-956D01*
X5697Y-955D01*
X5696Y-955D01*
X5695Y-954D01*
X5694Y-953D01*
X5694Y-953D01*
X5694Y-953D01*
X5694Y-952D01*
X5694Y-952D01*
X5693Y-951D01*
X5693Y-951D01*
X5692Y-950D01*
X5692Y-949D01*
X5691Y-948D01*
X5691Y-947D01*
X5691Y-946D01*
X5690Y-944D01*
X5690Y-943D01*
X5690Y-942D01*
X5690Y-940D01*
X5689Y-938D01*
Y-937D01*
X5690Y-937D01*
X5690Y-936D01*
X5690Y-935D01*
X5690Y-934D01*
X5690Y-933D01*
X5691Y-931D01*
X5692Y-928D01*
X5692Y-927D01*
X5693Y-926D01*
X5694Y-925D01*
X5695Y-924D01*
X5695Y-924D01*
X5695Y-923D01*
X5695Y-923D01*
X5696Y-923D01*
X5696Y-922D01*
X5697Y-922D01*
X5697Y-921D01*
X5698Y-921D01*
X5700Y-920D01*
X5702Y-919D01*
X5703Y-919D01*
X5705Y-918D01*
X5706Y-918D01*
X5707Y-918D01*
X5707D01*
X5708D01*
X5709Y-918D01*
X5710Y-918D01*
X5711Y-919D01*
X5712Y-919D01*
X5713Y-919D01*
X5715Y-920D01*
X5715Y-920D01*
X5715Y-920D01*
X5716Y-921D01*
X5717Y-921D01*
X5718Y-922D01*
X5720Y-923D01*
X5721Y-924D01*
X5723Y-925D01*
X5723Y-925D01*
X5723Y-926D01*
X5724Y-926D01*
X5724Y-927D01*
X5725Y-927D01*
X5726Y-928D01*
X5726Y-929D01*
X5727Y-930D01*
X5728Y-931D01*
X5729Y-932D01*
X5730Y-933D01*
X5731Y-934D01*
X5733Y-936D01*
X5734Y-937D01*
X5734Y-937D01*
X5734Y-937D01*
X5734Y-938D01*
X5735Y-938D01*
X5735Y-939D01*
X5736Y-939D01*
X5737Y-941D01*
X5738Y-943D01*
X5740Y-944D01*
X5741Y-945D01*
X5741Y-946D01*
X5742Y-946D01*
X5742Y-946D01*
X5742Y-947D01*
X5743Y-947D01*
X5743Y-948D01*
X5744Y-948D01*
X5745Y-949D01*
X5746Y-950D01*
Y-918D01*
X5754D01*
Y-961D01*
D02*
G37*
G36*
X5735Y-970D02*
X5736D01*
X5738Y-970D01*
X5740Y-971D01*
X5742Y-971D01*
X5744Y-971D01*
X5746Y-972D01*
X5746D01*
X5746Y-972D01*
X5747Y-972D01*
X5747Y-973D01*
X5748Y-974D01*
X5749Y-975D01*
X5750Y-976D01*
X5752Y-977D01*
X5752Y-978D01*
X5753Y-978D01*
X5753Y-979D01*
X5753Y-980D01*
X5754Y-981D01*
X5754Y-983D01*
X5754Y-984D01*
X5755Y-986D01*
X5755Y-988D01*
Y-989D01*
X5755Y-989D01*
X5755Y-990D01*
X5755Y-991D01*
X5754Y-993D01*
X5754Y-995D01*
X5753Y-997D01*
X5752Y-998D01*
X5752Y-999D01*
X5751Y-1000D01*
X5750Y-1001D01*
X5750Y-1001D01*
X5750Y-1001D01*
X5749Y-1001D01*
X5749Y-1002D01*
X5749Y-1002D01*
X5748Y-1002D01*
X5747Y-1003D01*
X5746Y-1003D01*
X5745Y-1004D01*
X5744Y-1004D01*
X5743Y-1004D01*
X5742Y-1005D01*
X5741Y-1005D01*
X5739Y-1005D01*
X5737Y-1005D01*
X5736D01*
X5735Y-998D01*
X5735D01*
X5735D01*
X5735D01*
X5736Y-998D01*
X5736Y-997D01*
X5737D01*
X5739Y-997D01*
X5740Y-997D01*
X5742Y-996D01*
X5743Y-996D01*
X5744Y-995D01*
X5745Y-995D01*
X5745Y-995D01*
X5745Y-994D01*
X5745Y-994D01*
X5746Y-993D01*
X5746Y-992D01*
X5747Y-991D01*
X5747Y-990D01*
X5747Y-988D01*
Y-988D01*
X5747Y-987D01*
X5747Y-986D01*
X5747Y-985D01*
X5747Y-984D01*
X5746Y-984D01*
X5746Y-983D01*
X5746Y-983D01*
X5746Y-982D01*
X5745Y-982D01*
X5745Y-981D01*
X5744Y-981D01*
X5744Y-980D01*
X5743Y-980D01*
X5742Y-980D01*
X5742D01*
X5741Y-979D01*
X5741Y-979D01*
X5740Y-979D01*
X5739Y-979D01*
X5737Y-979D01*
X5736Y-979D01*
X5734D01*
X5690D01*
Y-970D01*
X5733D01*
X5733D01*
X5734D01*
X5734D01*
X5735D01*
X5735Y-970D01*
D02*
G37*
G36*
X4188Y-4023D02*
Y-4023D01*
Y-4024D01*
Y-4024D01*
Y-4025D01*
X4188Y-4025D01*
Y-4026D01*
X4188Y-4028D01*
X4188Y-4030D01*
X4187Y-4032D01*
X4187Y-4034D01*
X4186Y-4036D01*
Y-4036D01*
X4186Y-4036D01*
X4186Y-4036D01*
X4185Y-4037D01*
X4185Y-4038D01*
X4184Y-4039D01*
X4183Y-4040D01*
X4181Y-4041D01*
X4180Y-4042D01*
X4180Y-4043D01*
X4179Y-4043D01*
X4178Y-4043D01*
X4177Y-4044D01*
X4176Y-4044D01*
X4174Y-4044D01*
X4172Y-4045D01*
X4170Y-4045D01*
X4169D01*
X4169Y-4045D01*
X4168Y-4045D01*
X4167Y-4044D01*
X4165Y-4044D01*
X4163Y-4044D01*
X4161Y-4043D01*
X4160Y-4042D01*
X4159Y-4041D01*
X4158Y-4041D01*
X4157Y-4040D01*
X4157Y-4040D01*
X4157Y-4040D01*
X4157Y-4039D01*
X4157Y-4039D01*
X4156Y-4039D01*
X4156Y-4038D01*
X4155Y-4037D01*
X4155Y-4036D01*
X4155Y-4035D01*
X4154Y-4034D01*
X4154Y-4033D01*
X4153Y-4032D01*
X4153Y-4030D01*
X4153Y-4029D01*
X4153Y-4027D01*
Y-4026D01*
X4161Y-4024D01*
Y-4025D01*
Y-4025D01*
Y-4025D01*
X4161Y-4026D01*
X4161Y-4026D01*
Y-4027D01*
X4161Y-4028D01*
X4161Y-4030D01*
X4162Y-4032D01*
X4162Y-4033D01*
X4163Y-4034D01*
X4163Y-4034D01*
X4163Y-4035D01*
X4164Y-4035D01*
X4164Y-4035D01*
X4165Y-4036D01*
X4166Y-4036D01*
X4167Y-4037D01*
X4169Y-4037D01*
X4170Y-4037D01*
X4171D01*
X4171Y-4037D01*
X4172Y-4037D01*
X4173Y-4037D01*
X4174Y-4037D01*
X4175Y-4036D01*
X4176Y-4036D01*
X4176Y-4036D01*
X4176Y-4035D01*
X4176Y-4035D01*
X4177Y-4035D01*
X4177Y-4034D01*
X4178Y-4033D01*
X4178Y-4033D01*
X4179Y-4032D01*
Y-4032D01*
X4179Y-4031D01*
X4179Y-4031D01*
X4179Y-4030D01*
X4179Y-4029D01*
X4179Y-4027D01*
X4180Y-4026D01*
Y-4024D01*
Y-3980D01*
X4188D01*
Y-4023D01*
D02*
G37*
G36*
X4238Y-3988D02*
X4213D01*
X4209Y-4005D01*
X4209Y-4005D01*
X4209Y-4005D01*
X4210Y-4005D01*
X4210Y-4005D01*
X4211Y-4004D01*
X4211Y-4004D01*
X4213Y-4003D01*
X4215Y-4002D01*
X4217Y-4002D01*
X4219Y-4001D01*
X4220Y-4001D01*
X4222D01*
X4223Y-4001D01*
X4223Y-4001D01*
X4224Y-4001D01*
X4225Y-4002D01*
X4226Y-4002D01*
X4228Y-4003D01*
X4230Y-4003D01*
X4231Y-4004D01*
X4232Y-4004D01*
X4233Y-4005D01*
X4234Y-4006D01*
X4235Y-4007D01*
X4235Y-4007D01*
X4236Y-4007D01*
X4236Y-4008D01*
X4236Y-4008D01*
X4237Y-4009D01*
X4237Y-4009D01*
X4238Y-4010D01*
X4238Y-4011D01*
X4239Y-4012D01*
X4239Y-4013D01*
X4240Y-4014D01*
X4240Y-4016D01*
X4241Y-4017D01*
X4241Y-4019D01*
X4241Y-4020D01*
X4241Y-4022D01*
Y-4022D01*
Y-4022D01*
Y-4023D01*
X4241Y-4023D01*
X4241Y-4024D01*
X4241Y-4025D01*
X4241Y-4026D01*
X4241Y-4027D01*
X4240Y-4029D01*
X4239Y-4032D01*
X4239Y-4033D01*
X4238Y-4034D01*
X4237Y-4036D01*
X4236Y-4037D01*
X4236Y-4037D01*
X4236Y-4037D01*
X4235Y-4038D01*
X4235Y-4038D01*
X4234Y-4039D01*
X4234Y-4039D01*
X4233Y-4040D01*
X4232Y-4041D01*
X4231Y-4042D01*
X4229Y-4042D01*
X4228Y-4043D01*
X4226Y-4044D01*
X4225Y-4044D01*
X4223Y-4044D01*
X4221Y-4045D01*
X4219Y-4045D01*
X4218D01*
X4218Y-4045D01*
X4217Y-4045D01*
X4216Y-4044D01*
X4215Y-4044D01*
X4214Y-4044D01*
X4212Y-4044D01*
X4210Y-4043D01*
X4208Y-4042D01*
X4207Y-4041D01*
X4206Y-4041D01*
X4205Y-4040D01*
X4205Y-4040D01*
X4205Y-4040D01*
X4204Y-4039D01*
X4204Y-4039D01*
X4204Y-4039D01*
X4203Y-4038D01*
X4203Y-4037D01*
X4202Y-4036D01*
X4202Y-4036D01*
X4201Y-4035D01*
X4200Y-4032D01*
X4199Y-4030D01*
X4199Y-4028D01*
X4199Y-4027D01*
X4207Y-4026D01*
Y-4026D01*
Y-4027D01*
X4207Y-4027D01*
X4207Y-4027D01*
X4207Y-4028D01*
X4208Y-4030D01*
X4208Y-4031D01*
X4209Y-4033D01*
X4210Y-4034D01*
X4211Y-4035D01*
X4211Y-4035D01*
X4212Y-4036D01*
X4212Y-4036D01*
X4213Y-4037D01*
X4215Y-4037D01*
X4216Y-4038D01*
X4218Y-4038D01*
X4219Y-4038D01*
X4220D01*
X4220Y-4038D01*
X4221Y-4038D01*
X4223Y-4038D01*
X4224Y-4037D01*
X4226Y-4036D01*
X4227Y-4035D01*
X4228Y-4035D01*
X4229Y-4034D01*
X4229Y-4034D01*
X4229Y-4034D01*
X4229Y-4034D01*
X4230Y-4033D01*
X4230Y-4032D01*
X4231Y-4031D01*
X4232Y-4029D01*
X4232Y-4027D01*
X4233Y-4025D01*
X4233Y-4024D01*
Y-4023D01*
Y-4023D01*
Y-4022D01*
Y-4022D01*
X4233Y-4022D01*
Y-4021D01*
X4233Y-4020D01*
X4232Y-4019D01*
X4232Y-4017D01*
X4231Y-4015D01*
X4230Y-4014D01*
X4229Y-4012D01*
Y-4012D01*
X4229Y-4012D01*
X4228Y-4011D01*
X4228Y-4011D01*
X4226Y-4010D01*
X4225Y-4009D01*
X4223Y-4009D01*
X4221Y-4008D01*
X4220Y-4008D01*
X4219D01*
X4218Y-4008D01*
X4217Y-4008D01*
X4216Y-4009D01*
X4215Y-4009D01*
X4213Y-4009D01*
X4212Y-4010D01*
X4212Y-4010D01*
X4212Y-4010D01*
X4211Y-4011D01*
X4210Y-4011D01*
X4210Y-4012D01*
X4209Y-4013D01*
X4208Y-4013D01*
X4208Y-4014D01*
X4200Y-4013D01*
X4206Y-3980D01*
X4238D01*
Y-3988D01*
D02*
G37*
G36*
X5407Y-2019D02*
X5408Y-2019D01*
X5409Y-2020D01*
X5411Y-2020D01*
X5413Y-2021D01*
X5415Y-2021D01*
X5416Y-2022D01*
X5417Y-2023D01*
X5418Y-2023D01*
X5419Y-2024D01*
X5419Y-2024D01*
X5419Y-2024D01*
X5419Y-2025D01*
X5419Y-2025D01*
X5420Y-2025D01*
X5420Y-2026D01*
X5420Y-2027D01*
X5421Y-2028D01*
X5421Y-2029D01*
X5422Y-2030D01*
X5422Y-2031D01*
X5422Y-2032D01*
X5423Y-2034D01*
X5423Y-2035D01*
X5423Y-2037D01*
Y-2038D01*
X5415Y-2040D01*
Y-2039D01*
Y-2039D01*
Y-2039D01*
X5415Y-2038D01*
X5415Y-2038D01*
Y-2037D01*
X5415Y-2036D01*
X5414Y-2034D01*
X5414Y-2032D01*
X5413Y-2031D01*
X5413Y-2030D01*
X5413Y-2030D01*
X5412Y-2029D01*
X5412Y-2029D01*
X5412Y-2029D01*
X5411Y-2028D01*
X5410Y-2028D01*
X5409Y-2027D01*
X5407Y-2027D01*
X5406Y-2027D01*
X5405D01*
X5405Y-2027D01*
X5404Y-2027D01*
X5403Y-2027D01*
X5402Y-2027D01*
X5401Y-2028D01*
X5400Y-2028D01*
X5400Y-2028D01*
X5400Y-2029D01*
X5400Y-2029D01*
X5399Y-2029D01*
X5398Y-2030D01*
X5398Y-2031D01*
X5397Y-2031D01*
X5397Y-2032D01*
Y-2032D01*
X5397Y-2033D01*
X5397Y-2033D01*
X5397Y-2034D01*
X5396Y-2035D01*
X5396Y-2037D01*
X5396Y-2038D01*
Y-2040D01*
Y-2084D01*
X5388D01*
Y-2041D01*
Y-2041D01*
Y-2040D01*
Y-2040D01*
Y-2039D01*
X5388Y-2039D01*
Y-2038D01*
X5388Y-2036D01*
X5388Y-2034D01*
X5389Y-2032D01*
X5389Y-2030D01*
X5390Y-2028D01*
Y-2028D01*
X5390Y-2028D01*
X5390Y-2028D01*
X5391Y-2027D01*
X5391Y-2026D01*
X5392Y-2025D01*
X5393Y-2024D01*
X5394Y-2023D01*
X5396Y-2022D01*
X5396Y-2022D01*
X5397Y-2021D01*
X5397Y-2021D01*
X5399Y-2021D01*
X5400Y-2020D01*
X5402Y-2020D01*
X5404Y-2019D01*
X5406Y-2019D01*
X5407D01*
X5407Y-2019D01*
D02*
G37*
G36*
X5358D02*
X5358Y-2019D01*
X5359Y-2020D01*
X5360Y-2020D01*
X5362Y-2020D01*
X5364Y-2021D01*
X5365Y-2021D01*
X5367Y-2022D01*
X5368Y-2022D01*
X5369Y-2023D01*
X5370Y-2024D01*
X5371Y-2025D01*
X5371Y-2025D01*
X5372Y-2025D01*
X5372Y-2025D01*
X5372Y-2026D01*
X5373Y-2026D01*
X5373Y-2027D01*
X5374Y-2028D01*
X5374Y-2029D01*
X5375Y-2030D01*
X5375Y-2031D01*
X5376Y-2033D01*
X5377Y-2034D01*
X5377Y-2036D01*
X5377Y-2037D01*
X5377Y-2039D01*
Y-2039D01*
Y-2039D01*
Y-2039D01*
X5377Y-2040D01*
Y-2040D01*
X5377Y-2041D01*
X5377Y-2043D01*
X5376Y-2044D01*
X5376Y-2046D01*
X5375Y-2048D01*
X5374Y-2049D01*
Y-2049D01*
X5374Y-2049D01*
X5373Y-2050D01*
X5373Y-2051D01*
X5372Y-2052D01*
X5370Y-2052D01*
X5369Y-2054D01*
X5367Y-2054D01*
X5365Y-2055D01*
X5365D01*
X5365Y-2055D01*
X5365Y-2055D01*
X5366Y-2055D01*
X5367Y-2056D01*
X5368Y-2056D01*
X5369Y-2057D01*
X5370Y-2058D01*
X5371Y-2059D01*
X5372Y-2060D01*
X5372Y-2060D01*
X5373Y-2061D01*
X5373Y-2061D01*
X5373Y-2062D01*
X5374Y-2063D01*
X5374Y-2065D01*
X5374Y-2066D01*
X5375Y-2068D01*
Y-2068D01*
Y-2068D01*
Y-2069D01*
X5374Y-2069D01*
X5374Y-2070D01*
X5374Y-2071D01*
X5374Y-2072D01*
X5373Y-2074D01*
X5372Y-2076D01*
X5372Y-2077D01*
X5371Y-2078D01*
X5370Y-2079D01*
X5370Y-2080D01*
X5369Y-2080D01*
X5369Y-2080D01*
X5369Y-2080D01*
X5369Y-2081D01*
X5368Y-2081D01*
X5368Y-2081D01*
X5367Y-2082D01*
X5366Y-2082D01*
X5365Y-2083D01*
X5364Y-2083D01*
X5363Y-2084D01*
X5362Y-2084D01*
X5359Y-2084D01*
X5358Y-2085D01*
X5356Y-2085D01*
X5355D01*
X5355Y-2085D01*
X5354Y-2084D01*
X5353Y-2084D01*
X5352Y-2084D01*
X5351Y-2084D01*
X5349Y-2083D01*
X5347Y-2083D01*
X5346Y-2082D01*
X5345Y-2081D01*
X5344Y-2081D01*
X5343Y-2080D01*
X5343Y-2080D01*
X5343Y-2080D01*
X5342Y-2079D01*
X5342Y-2079D01*
X5342Y-2078D01*
X5341Y-2078D01*
X5340Y-2076D01*
X5339Y-2075D01*
X5338Y-2073D01*
X5338Y-2070D01*
X5338Y-2069D01*
X5338Y-2068D01*
Y-2068D01*
Y-2068D01*
Y-2067D01*
X5338Y-2066D01*
X5338Y-2065D01*
X5338Y-2064D01*
X5339Y-2063D01*
X5339Y-2061D01*
X5340Y-2060D01*
X5340Y-2060D01*
X5340Y-2060D01*
X5341Y-2059D01*
X5342Y-2058D01*
X5343Y-2057D01*
X5344Y-2057D01*
X5345Y-2056D01*
X5347Y-2055D01*
X5347D01*
X5347Y-2055D01*
X5346Y-2055D01*
X5346Y-2055D01*
X5345Y-2054D01*
X5344Y-2054D01*
X5342Y-2053D01*
X5341Y-2052D01*
X5339Y-2050D01*
X5338Y-2049D01*
Y-2049D01*
X5338Y-2049D01*
X5338Y-2048D01*
X5337Y-2047D01*
X5337Y-2046D01*
X5336Y-2044D01*
X5335Y-2043D01*
X5335Y-2041D01*
X5335Y-2039D01*
Y-2039D01*
Y-2038D01*
Y-2038D01*
X5335Y-2037D01*
X5335Y-2037D01*
X5335Y-2036D01*
X5335Y-2035D01*
X5336Y-2034D01*
X5336Y-2032D01*
X5337Y-2030D01*
X5337Y-2029D01*
X5338Y-2028D01*
X5339Y-2027D01*
X5340Y-2026D01*
X5341Y-2025D01*
X5341Y-2025D01*
X5341Y-2025D01*
X5341Y-2024D01*
X5342Y-2024D01*
X5342Y-2024D01*
X5343Y-2023D01*
X5344Y-2023D01*
X5345Y-2022D01*
X5346Y-2022D01*
X5347Y-2021D01*
X5348Y-2021D01*
X5350Y-2020D01*
X5351Y-2020D01*
X5353Y-2020D01*
X5354Y-2019D01*
X5356Y-2019D01*
X5357D01*
X5358Y-2019D01*
D02*
G37*
G36*
X789Y-3712D02*
X789D01*
X791Y-3712D01*
X793Y-3712D01*
X795Y-3713D01*
X797Y-3713D01*
X799Y-3714D01*
X799D01*
X800Y-3714D01*
X800Y-3714D01*
X800Y-3715D01*
X801Y-3715D01*
X802Y-3716D01*
X804Y-3717D01*
X805Y-3718D01*
X806Y-3719D01*
X808Y-3721D01*
Y-3721D01*
X808Y-3721D01*
X808Y-3721D01*
X808Y-3722D01*
X809Y-3723D01*
X809Y-3724D01*
X810Y-3725D01*
X810Y-3727D01*
X811Y-3729D01*
X811Y-3731D01*
X803Y-3732D01*
Y-3732D01*
Y-3731D01*
X803Y-3731D01*
X803Y-3731D01*
X802Y-3730D01*
X802Y-3728D01*
X801Y-3727D01*
X801Y-3725D01*
X800Y-3724D01*
X798Y-3723D01*
X798Y-3722D01*
X798Y-3722D01*
X797Y-3722D01*
X795Y-3721D01*
X794Y-3720D01*
X792Y-3720D01*
X790Y-3719D01*
X787Y-3719D01*
X786D01*
X785Y-3719D01*
X785Y-3720D01*
X783Y-3720D01*
X781Y-3720D01*
X779Y-3721D01*
X777Y-3721D01*
X777Y-3722D01*
X776Y-3722D01*
X776Y-3722D01*
X775Y-3723D01*
X775Y-3723D01*
X774Y-3724D01*
X774Y-3725D01*
X773Y-3726D01*
X773Y-3728D01*
X773Y-3729D01*
Y-3729D01*
Y-3730D01*
X773Y-3730D01*
X773Y-3731D01*
X773Y-3732D01*
X774Y-3733D01*
X774Y-3734D01*
X775Y-3735D01*
X775Y-3735D01*
X775Y-3735D01*
X776Y-3735D01*
X776Y-3735D01*
X777Y-3736D01*
X777Y-3736D01*
X778Y-3736D01*
X779Y-3737D01*
X780Y-3737D01*
X781Y-3738D01*
X783Y-3738D01*
X784Y-3738D01*
X786Y-3739D01*
X788Y-3739D01*
X788D01*
X788Y-3739D01*
X789Y-3739D01*
X789Y-3740D01*
X790Y-3740D01*
X791Y-3740D01*
X792Y-3740D01*
X793Y-3741D01*
X796Y-3741D01*
X798Y-3742D01*
X799Y-3742D01*
X800Y-3743D01*
X801Y-3743D01*
X802Y-3743D01*
X802D01*
X802Y-3743D01*
X802Y-3744D01*
X803Y-3744D01*
X804Y-3744D01*
X805Y-3745D01*
X806Y-3746D01*
X808Y-3747D01*
X809Y-3749D01*
X810Y-3750D01*
X810Y-3750D01*
X811Y-3751D01*
X811Y-3751D01*
X812Y-3753D01*
X812Y-3754D01*
X812Y-3755D01*
X813Y-3757D01*
X813Y-3759D01*
Y-3759D01*
Y-3759D01*
Y-3759D01*
Y-3760D01*
X813Y-3761D01*
X812Y-3762D01*
X812Y-3764D01*
X812Y-3765D01*
X811Y-3767D01*
X810Y-3769D01*
Y-3769D01*
X810Y-3769D01*
X809Y-3769D01*
X809Y-3770D01*
X808Y-3771D01*
X807Y-3772D01*
X805Y-3773D01*
X803Y-3775D01*
X801Y-3776D01*
X801D01*
X801Y-3776D01*
X801Y-3776D01*
X801Y-3776D01*
X800Y-3776D01*
X799Y-3776D01*
X798Y-3777D01*
X796Y-3777D01*
X794Y-3778D01*
X792Y-3778D01*
X789Y-3778D01*
X788D01*
X787Y-3778D01*
X786D01*
X785Y-3778D01*
X784Y-3778D01*
X782Y-3777D01*
X779Y-3777D01*
X777Y-3776D01*
X775Y-3776D01*
X775D01*
X774Y-3775D01*
X774Y-3775D01*
X774Y-3775D01*
X773Y-3775D01*
X771Y-3774D01*
X770Y-3773D01*
X768Y-3771D01*
X767Y-3770D01*
X765Y-3768D01*
Y-3768D01*
X765Y-3768D01*
X765Y-3767D01*
X765Y-3767D01*
X765Y-3767D01*
X764Y-3766D01*
X764Y-3765D01*
X763Y-3763D01*
X763Y-3761D01*
X762Y-3759D01*
X762Y-3756D01*
X770Y-3756D01*
Y-3756D01*
Y-3756D01*
X770Y-3756D01*
Y-3756D01*
X770Y-3757D01*
X771Y-3759D01*
X771Y-3760D01*
X771Y-3761D01*
X772Y-3762D01*
X773Y-3764D01*
X773Y-3764D01*
X773Y-3764D01*
X773Y-3765D01*
X774Y-3765D01*
X775Y-3766D01*
X776Y-3767D01*
X777Y-3768D01*
X779Y-3769D01*
X779D01*
X779Y-3769D01*
X779Y-3769D01*
X780Y-3769D01*
X781Y-3769D01*
X782Y-3770D01*
X783Y-3770D01*
X785Y-3770D01*
X787Y-3770D01*
X789Y-3770D01*
X790D01*
X791Y-3770D01*
X792Y-3770D01*
X793Y-3770D01*
X794Y-3770D01*
X796Y-3770D01*
X797Y-3769D01*
X798Y-3769D01*
X798Y-3769D01*
X799Y-3768D01*
X799Y-3768D01*
X800Y-3767D01*
X801Y-3767D01*
X802Y-3766D01*
X803Y-3765D01*
X803Y-3765D01*
X803Y-3765D01*
X803Y-3764D01*
X804Y-3763D01*
X804Y-3763D01*
X804Y-3762D01*
X805Y-3761D01*
X805Y-3760D01*
Y-3760D01*
Y-3759D01*
X805Y-3759D01*
X805Y-3758D01*
X804Y-3757D01*
X804Y-3756D01*
X804Y-3755D01*
X803Y-3754D01*
X803Y-3754D01*
X802Y-3754D01*
X802Y-3754D01*
X801Y-3753D01*
X801Y-3753D01*
X800Y-3752D01*
X799Y-3751D01*
X797Y-3751D01*
X797Y-3751D01*
X797Y-3750D01*
X796Y-3750D01*
X795Y-3750D01*
X795Y-3750D01*
X794Y-3750D01*
X793Y-3749D01*
X792Y-3749D01*
X791Y-3749D01*
X790Y-3749D01*
X789Y-3748D01*
X787Y-3748D01*
X786Y-3748D01*
X786D01*
X785Y-3747D01*
X785Y-3747D01*
X784Y-3747D01*
X784Y-3747D01*
X783Y-3747D01*
X781Y-3746D01*
X779Y-3746D01*
X777Y-3745D01*
X775Y-3744D01*
X774Y-3744D01*
X773Y-3744D01*
X773D01*
X773Y-3743D01*
X773Y-3743D01*
X772Y-3743D01*
X771Y-3742D01*
X770Y-3741D01*
X769Y-3740D01*
X768Y-3739D01*
X767Y-3738D01*
X767Y-3737D01*
X766Y-3737D01*
X766Y-3736D01*
X766Y-3735D01*
X765Y-3734D01*
X765Y-3733D01*
X764Y-3731D01*
X764Y-3730D01*
Y-3729D01*
Y-3729D01*
Y-3729D01*
Y-3729D01*
X765Y-3728D01*
X765Y-3727D01*
X765Y-3725D01*
X766Y-3724D01*
X766Y-3722D01*
X767Y-3721D01*
Y-3720D01*
X767Y-3720D01*
X768Y-3720D01*
X768Y-3719D01*
X769Y-3718D01*
X770Y-3717D01*
X772Y-3716D01*
X773Y-3715D01*
X775Y-3714D01*
X775D01*
X775Y-3714D01*
X776Y-3714D01*
X776Y-3714D01*
X777Y-3713D01*
X777Y-3713D01*
X779Y-3713D01*
X780Y-3713D01*
X782Y-3712D01*
X784Y-3712D01*
X787Y-3712D01*
X788D01*
X789Y-3712D01*
D02*
G37*
G36*
X883Y-3777D02*
X875D01*
X862Y-3728D01*
Y-3728D01*
X862Y-3728D01*
X861Y-3728D01*
X861Y-3727D01*
X861Y-3726D01*
X861Y-3725D01*
X860Y-3724D01*
X860Y-3722D01*
X860Y-3721D01*
X860Y-3721D01*
X860Y-3721D01*
Y-3721D01*
X860Y-3721D01*
X859Y-3721D01*
X859Y-3722D01*
X859Y-3723D01*
X859Y-3724D01*
X858Y-3726D01*
X858Y-3727D01*
X858Y-3728D01*
X844Y-3777D01*
X835D01*
X819Y-3713D01*
X827D01*
X837Y-3755D01*
Y-3755D01*
X837Y-3755D01*
X837Y-3756D01*
X837Y-3756D01*
X837Y-3757D01*
X837Y-3757D01*
X838Y-3758D01*
X838Y-3759D01*
X838Y-3761D01*
X839Y-3763D01*
X839Y-3766D01*
X840Y-3768D01*
Y-3768D01*
X840Y-3768D01*
X840Y-3767D01*
X840Y-3766D01*
X840Y-3766D01*
X840Y-3765D01*
X841Y-3763D01*
X842Y-3761D01*
X842Y-3760D01*
X842Y-3759D01*
X842Y-3758D01*
X842Y-3757D01*
X843Y-3757D01*
X843Y-3756D01*
X855Y-3713D01*
X865D01*
X874Y-3745D01*
Y-3745D01*
X874Y-3746D01*
X874Y-3747D01*
X875Y-3747D01*
X875Y-3749D01*
X875Y-3750D01*
X876Y-3751D01*
X876Y-3753D01*
X876Y-3754D01*
X877Y-3756D01*
X878Y-3760D01*
X878Y-3764D01*
X879Y-3768D01*
Y-3768D01*
X879Y-3768D01*
Y-3767D01*
X879Y-3767D01*
X880Y-3766D01*
X880Y-3766D01*
X880Y-3765D01*
X880Y-3764D01*
X881Y-3762D01*
X881Y-3760D01*
X882Y-3757D01*
X882Y-3754D01*
X892Y-3713D01*
X901D01*
X883Y-3777D01*
D02*
G37*
G36*
X935D02*
X927D01*
Y-3727D01*
X927Y-3727D01*
X927Y-3727D01*
X926Y-3728D01*
X925Y-3729D01*
X924Y-3729D01*
X923Y-3730D01*
X922Y-3731D01*
X920Y-3732D01*
X920D01*
X920Y-3732D01*
X919Y-3733D01*
X918Y-3733D01*
X917Y-3734D01*
X916Y-3734D01*
X914Y-3735D01*
X913Y-3736D01*
X912Y-3736D01*
Y-3729D01*
X912D01*
X912Y-3729D01*
X912Y-3728D01*
X913Y-3728D01*
X913Y-3728D01*
X914Y-3728D01*
X916Y-3727D01*
X917Y-3726D01*
X919Y-3724D01*
X921Y-3723D01*
X923Y-3721D01*
X923Y-3721D01*
X923Y-3721D01*
X924Y-3721D01*
X924Y-3721D01*
X925Y-3720D01*
X926Y-3718D01*
X927Y-3717D01*
X928Y-3716D01*
X929Y-3714D01*
X930Y-3713D01*
X935D01*
Y-3777D01*
D02*
G37*
G36*
X4225Y-1962D02*
X4226Y-1962D01*
X4227Y-1962D01*
X4229Y-1963D01*
X4231Y-1963D01*
X4232Y-1964D01*
X4233D01*
X4233Y-1964D01*
X4233Y-1964D01*
X4234Y-1965D01*
X4235Y-1966D01*
X4236Y-1967D01*
X4237Y-1968D01*
X4238Y-1969D01*
X4239Y-1970D01*
X4239Y-1970D01*
X4240Y-1971D01*
X4240Y-1972D01*
X4240Y-1973D01*
X4241Y-1974D01*
X4241Y-1975D01*
X4241Y-1977D01*
X4242Y-1978D01*
Y-1979D01*
Y-1979D01*
X4241Y-1980D01*
X4241Y-1981D01*
X4241Y-1982D01*
X4241Y-1983D01*
X4240Y-1985D01*
X4239Y-1986D01*
X4239Y-1986D01*
X4239Y-1987D01*
X4238Y-1987D01*
X4238Y-1988D01*
X4237Y-1989D01*
X4236Y-1990D01*
X4234Y-1991D01*
X4233Y-1991D01*
X4233D01*
X4233Y-1991D01*
X4233Y-1992D01*
X4234Y-1992D01*
X4235Y-1992D01*
X4236Y-1993D01*
X4237Y-1993D01*
X4239Y-1994D01*
X4240Y-1995D01*
X4242Y-1997D01*
X4242Y-1997D01*
X4242Y-1998D01*
X4243Y-1998D01*
X4243Y-2000D01*
X4244Y-2001D01*
X4244Y-2003D01*
X4245Y-2005D01*
X4245Y-2007D01*
Y-2007D01*
Y-2008D01*
Y-2008D01*
X4245Y-2009D01*
X4245Y-2009D01*
X4244Y-2010D01*
X4244Y-2011D01*
X4244Y-2012D01*
X4243Y-2014D01*
X4243Y-2015D01*
X4242Y-2017D01*
X4241Y-2018D01*
X4241Y-2019D01*
X4240Y-2020D01*
X4239Y-2021D01*
X4238Y-2021D01*
X4238Y-2022D01*
X4238Y-2022D01*
X4237Y-2022D01*
X4237Y-2023D01*
X4236Y-2023D01*
X4235Y-2024D01*
X4234Y-2024D01*
X4233Y-2025D01*
X4232Y-2025D01*
X4231Y-2026D01*
X4229Y-2026D01*
X4228Y-2027D01*
X4226Y-2027D01*
X4225Y-2027D01*
X4223Y-2027D01*
X4222D01*
X4222Y-2027D01*
X4221Y-2027D01*
X4220Y-2027D01*
X4219Y-2027D01*
X4218Y-2026D01*
X4216Y-2026D01*
X4214Y-2025D01*
X4212Y-2024D01*
X4211Y-2024D01*
X4210Y-2023D01*
X4209Y-2022D01*
X4209Y-2022D01*
X4209Y-2022D01*
X4209Y-2022D01*
X4208Y-2021D01*
X4208Y-2021D01*
X4207Y-2020D01*
X4207Y-2019D01*
X4206Y-2019D01*
X4206Y-2018D01*
X4205Y-2017D01*
X4204Y-2015D01*
X4203Y-2012D01*
X4203Y-2011D01*
X4203Y-2009D01*
X4211Y-2008D01*
Y-2008D01*
X4211Y-2008D01*
X4211Y-2009D01*
X4211Y-2009D01*
X4211Y-2010D01*
X4211Y-2010D01*
X4212Y-2012D01*
X4212Y-2013D01*
X4213Y-2015D01*
X4214Y-2016D01*
X4215Y-2018D01*
X4215Y-2018D01*
X4216Y-2018D01*
X4217Y-2019D01*
X4217Y-2019D01*
X4219Y-2020D01*
X4220Y-2020D01*
X4222Y-2021D01*
X4223Y-2021D01*
X4224D01*
X4224Y-2021D01*
X4225Y-2020D01*
X4226Y-2020D01*
X4228Y-2020D01*
X4229Y-2019D01*
X4231Y-2018D01*
X4233Y-2017D01*
X4233Y-2017D01*
X4233Y-2016D01*
X4234Y-2015D01*
X4234Y-2014D01*
X4235Y-2013D01*
X4236Y-2011D01*
X4236Y-2009D01*
X4236Y-2007D01*
Y-2007D01*
Y-2007D01*
Y-2007D01*
X4236Y-2006D01*
X4236Y-2005D01*
X4236Y-2004D01*
X4236Y-2003D01*
X4235Y-2001D01*
X4234Y-2000D01*
X4233Y-1998D01*
X4233Y-1998D01*
X4232Y-1998D01*
X4231Y-1997D01*
X4230Y-1997D01*
X4229Y-1996D01*
X4228Y-1995D01*
X4226Y-1995D01*
X4224Y-1995D01*
X4223D01*
X4222Y-1995D01*
X4222Y-1995D01*
X4221Y-1995D01*
X4219Y-1995D01*
X4218Y-1996D01*
X4219Y-1989D01*
X4220D01*
X4220Y-1989D01*
X4221D01*
X4222Y-1989D01*
X4223Y-1988D01*
X4225Y-1988D01*
X4226Y-1988D01*
X4228Y-1987D01*
X4229Y-1986D01*
X4230D01*
X4230Y-1986D01*
X4230Y-1986D01*
X4231Y-1985D01*
X4232Y-1984D01*
X4232Y-1983D01*
X4233Y-1982D01*
X4233Y-1980D01*
X4234Y-1979D01*
Y-1978D01*
Y-1978D01*
Y-1978D01*
Y-1977D01*
X4233Y-1977D01*
X4233Y-1976D01*
X4233Y-1975D01*
X4232Y-1973D01*
X4232Y-1972D01*
X4231Y-1971D01*
X4230Y-1971D01*
X4230Y-1971D01*
X4229Y-1970D01*
X4229Y-1970D01*
X4227Y-1969D01*
X4226Y-1969D01*
X4225Y-1968D01*
X4223Y-1968D01*
X4222D01*
X4221Y-1968D01*
X4220Y-1969D01*
X4219Y-1969D01*
X4218Y-1969D01*
X4217Y-1970D01*
X4215Y-1971D01*
X4215Y-1971D01*
X4215Y-1972D01*
X4214Y-1972D01*
X4214Y-1973D01*
X4213Y-1974D01*
X4212Y-1976D01*
X4212Y-1978D01*
X4212Y-1980D01*
X4204Y-1978D01*
Y-1978D01*
X4204Y-1978D01*
X4204Y-1978D01*
X4204Y-1977D01*
X4204Y-1976D01*
X4204Y-1976D01*
X4205Y-1974D01*
X4206Y-1972D01*
X4207Y-1970D01*
X4208Y-1968D01*
X4210Y-1966D01*
X4210Y-1966D01*
X4210Y-1966D01*
X4211Y-1966D01*
X4211Y-1965D01*
X4212Y-1965D01*
X4212Y-1965D01*
X4213Y-1964D01*
X4214Y-1964D01*
X4216Y-1963D01*
X4218Y-1962D01*
X4220Y-1962D01*
X4221Y-1962D01*
X4224D01*
X4225Y-1962D01*
D02*
G37*
G36*
X4192Y-2006D02*
Y-2006D01*
Y-2006D01*
Y-2006D01*
Y-2007D01*
X4192Y-2008D01*
Y-2008D01*
X4192Y-2010D01*
X4192Y-2012D01*
X4191Y-2014D01*
X4191Y-2016D01*
X4190Y-2018D01*
Y-2018D01*
X4190Y-2018D01*
X4190Y-2019D01*
X4189Y-2020D01*
X4189Y-2021D01*
X4188Y-2022D01*
X4187Y-2023D01*
X4185Y-2024D01*
X4184Y-2025D01*
X4184Y-2025D01*
X4183Y-2025D01*
X4182Y-2026D01*
X4181Y-2026D01*
X4180Y-2026D01*
X4178Y-2027D01*
X4176Y-2027D01*
X4174Y-2027D01*
X4173D01*
X4173Y-2027D01*
X4172Y-2027D01*
X4171Y-2027D01*
X4169Y-2026D01*
X4167Y-2026D01*
X4165Y-2025D01*
X4164Y-2025D01*
X4163Y-2024D01*
X4162Y-2023D01*
X4161Y-2022D01*
X4161Y-2022D01*
X4161Y-2022D01*
X4161Y-2022D01*
X4161Y-2021D01*
X4160Y-2021D01*
X4160Y-2020D01*
X4159Y-2020D01*
X4159Y-2019D01*
X4159Y-2018D01*
X4158Y-2017D01*
X4158Y-2016D01*
X4157Y-2014D01*
X4157Y-2013D01*
X4157Y-2011D01*
X4157Y-2010D01*
Y-2008D01*
X4165Y-2007D01*
Y-2007D01*
Y-2007D01*
Y-2008D01*
X4165Y-2008D01*
X4165Y-2009D01*
Y-2009D01*
X4165Y-2011D01*
X4165Y-2013D01*
X4166Y-2014D01*
X4166Y-2016D01*
X4167Y-2016D01*
X4167Y-2017D01*
X4167Y-2017D01*
X4168Y-2017D01*
X4168Y-2018D01*
X4169Y-2018D01*
X4170Y-2019D01*
X4171Y-2019D01*
X4173Y-2019D01*
X4174Y-2020D01*
X4175D01*
X4175Y-2019D01*
X4176Y-2019D01*
X4177Y-2019D01*
X4178Y-2019D01*
X4179Y-2019D01*
X4180Y-2018D01*
X4180Y-2018D01*
X4180Y-2018D01*
X4180Y-2018D01*
X4181Y-2017D01*
X4181Y-2016D01*
X4182Y-2016D01*
X4182Y-2015D01*
X4183Y-2014D01*
Y-2014D01*
X4183Y-2014D01*
X4183Y-2013D01*
X4183Y-2012D01*
X4183Y-2011D01*
X4183Y-2010D01*
X4184Y-2008D01*
Y-2006D01*
Y-1962D01*
X4192D01*
Y-2006D01*
D02*
G37*
G36*
X4188Y-3022D02*
Y-3022D01*
Y-3022D01*
Y-3022D01*
Y-3023D01*
X4188Y-3024D01*
Y-3024D01*
X4188Y-3026D01*
X4188Y-3028D01*
X4187Y-3030D01*
X4187Y-3032D01*
X4186Y-3034D01*
Y-3034D01*
X4186Y-3034D01*
X4186Y-3035D01*
X4185Y-3036D01*
X4185Y-3037D01*
X4184Y-3038D01*
X4183Y-3039D01*
X4181Y-3040D01*
X4180Y-3041D01*
X4180Y-3041D01*
X4179Y-3041D01*
X4178Y-3042D01*
X4177Y-3042D01*
X4176Y-3042D01*
X4174Y-3043D01*
X4172Y-3043D01*
X4170Y-3043D01*
X4169D01*
X4169Y-3043D01*
X4168Y-3043D01*
X4167Y-3043D01*
X4165Y-3042D01*
X4163Y-3042D01*
X4161Y-3041D01*
X4160Y-3041D01*
X4159Y-3040D01*
X4158Y-3039D01*
X4157Y-3038D01*
X4157Y-3038D01*
X4157Y-3038D01*
X4157Y-3038D01*
X4157Y-3037D01*
X4156Y-3037D01*
X4156Y-3036D01*
X4155Y-3036D01*
X4155Y-3035D01*
X4155Y-3034D01*
X4154Y-3033D01*
X4154Y-3032D01*
X4153Y-3030D01*
X4153Y-3029D01*
X4153Y-3027D01*
X4153Y-3026D01*
Y-3024D01*
X4161Y-3023D01*
Y-3023D01*
Y-3023D01*
Y-3024D01*
X4161Y-3024D01*
X4161Y-3025D01*
Y-3025D01*
X4161Y-3027D01*
X4161Y-3029D01*
X4162Y-3030D01*
X4162Y-3032D01*
X4163Y-3032D01*
X4163Y-3033D01*
X4163Y-3033D01*
X4164Y-3033D01*
X4164Y-3034D01*
X4165Y-3034D01*
X4166Y-3035D01*
X4167Y-3035D01*
X4169Y-3035D01*
X4170Y-3036D01*
X4171D01*
X4171Y-3035D01*
X4172Y-3035D01*
X4173Y-3035D01*
X4174Y-3035D01*
X4175Y-3035D01*
X4176Y-3034D01*
X4176Y-3034D01*
X4176Y-3034D01*
X4176Y-3034D01*
X4177Y-3033D01*
X4177Y-3032D01*
X4178Y-3032D01*
X4178Y-3031D01*
X4179Y-3030D01*
Y-3030D01*
X4179Y-3030D01*
X4179Y-3029D01*
X4179Y-3028D01*
X4179Y-3027D01*
X4179Y-3026D01*
X4180Y-3024D01*
Y-3022D01*
Y-2978D01*
X4188D01*
Y-3022D01*
D02*
G37*
G36*
X4232Y-3019D02*
X4240D01*
Y-3027D01*
X4232D01*
Y-3042D01*
X4224D01*
Y-3027D01*
X4196D01*
Y-3019D01*
X4225Y-2978D01*
X4232D01*
Y-3019D01*
D02*
G37*
G36*
X5409Y-4040D02*
X5410Y-4040D01*
X5411Y-4041D01*
X5413Y-4041D01*
X5415Y-4042D01*
X5417Y-4042D01*
X5418Y-4043D01*
X5419Y-4044D01*
X5420Y-4044D01*
X5421Y-4045D01*
X5421Y-4045D01*
X5421Y-4045D01*
X5421Y-4046D01*
X5421Y-4046D01*
X5422Y-4046D01*
X5422Y-4047D01*
X5422Y-4048D01*
X5423Y-4049D01*
X5423Y-4050D01*
X5424Y-4051D01*
X5424Y-4052D01*
X5424Y-4053D01*
X5425Y-4055D01*
X5425Y-4056D01*
X5425Y-4058D01*
Y-4059D01*
X5417Y-4061D01*
Y-4060D01*
Y-4060D01*
Y-4060D01*
X5417Y-4059D01*
X5417Y-4059D01*
Y-4058D01*
X5417Y-4057D01*
X5416Y-4055D01*
X5416Y-4053D01*
X5415Y-4052D01*
X5415Y-4051D01*
X5415Y-4051D01*
X5414Y-4050D01*
X5414Y-4050D01*
X5414Y-4050D01*
X5413Y-4049D01*
X5412Y-4049D01*
X5411Y-4048D01*
X5409Y-4048D01*
X5408Y-4048D01*
X5407D01*
X5407Y-4048D01*
X5406Y-4048D01*
X5405Y-4048D01*
X5404Y-4048D01*
X5403Y-4049D01*
X5402Y-4049D01*
X5402Y-4049D01*
X5402Y-4050D01*
X5402Y-4050D01*
X5401Y-4050D01*
X5400Y-4051D01*
X5400Y-4052D01*
X5399Y-4052D01*
X5399Y-4053D01*
Y-4053D01*
X5399Y-4054D01*
X5399Y-4054D01*
X5399Y-4055D01*
X5398Y-4056D01*
X5398Y-4058D01*
X5398Y-4059D01*
Y-4061D01*
Y-4105D01*
X5390D01*
Y-4062D01*
Y-4062D01*
Y-4061D01*
Y-4061D01*
Y-4060D01*
X5390Y-4060D01*
Y-4059D01*
X5390Y-4057D01*
X5390Y-4055D01*
X5391Y-4053D01*
X5391Y-4051D01*
X5392Y-4049D01*
Y-4049D01*
X5392Y-4049D01*
X5392Y-4049D01*
X5393Y-4048D01*
X5393Y-4047D01*
X5394Y-4046D01*
X5395Y-4045D01*
X5396Y-4044D01*
X5398Y-4043D01*
X5398Y-4043D01*
X5399Y-4042D01*
X5399Y-4042D01*
X5401Y-4042D01*
X5402Y-4041D01*
X5404Y-4041D01*
X5406Y-4040D01*
X5408Y-4040D01*
X5409D01*
X5409Y-4040D01*
D02*
G37*
G36*
X5358D02*
X5359D01*
X5360Y-4040D01*
X5361Y-4041D01*
X5362Y-4041D01*
X5363Y-4041D01*
X5364Y-4042D01*
X5365Y-4042D01*
X5367Y-4043D01*
X5368Y-4043D01*
X5369Y-4044D01*
X5371Y-4045D01*
X5372Y-4046D01*
X5373Y-4048D01*
X5373Y-4048D01*
X5373Y-4048D01*
X5374Y-4048D01*
X5374Y-4049D01*
X5375Y-4050D01*
X5375Y-4051D01*
X5376Y-4052D01*
X5376Y-4053D01*
X5377Y-4055D01*
X5377Y-4056D01*
X5378Y-4058D01*
X5378Y-4061D01*
X5379Y-4063D01*
X5379Y-4066D01*
X5379Y-4068D01*
X5379Y-4071D01*
Y-4071D01*
Y-4071D01*
Y-4072D01*
Y-4072D01*
X5379Y-4073D01*
Y-4074D01*
X5379Y-4076D01*
X5379Y-4078D01*
X5379Y-4080D01*
X5379Y-4082D01*
X5378Y-4084D01*
X5378Y-4086D01*
X5377Y-4088D01*
X5377Y-4091D01*
X5376Y-4093D01*
X5375Y-4095D01*
X5374Y-4097D01*
X5373Y-4098D01*
X5372Y-4098D01*
X5372Y-4099D01*
X5372Y-4099D01*
X5371Y-4099D01*
X5371Y-4100D01*
X5370Y-4101D01*
X5369Y-4101D01*
X5368Y-4102D01*
X5367Y-4103D01*
X5366Y-4103D01*
X5365Y-4104D01*
X5363Y-4105D01*
X5362Y-4105D01*
X5360Y-4105D01*
X5358Y-4106D01*
X5356Y-4106D01*
X5356D01*
X5355Y-4106D01*
X5354D01*
X5354Y-4105D01*
X5352Y-4105D01*
X5350Y-4105D01*
X5348Y-4104D01*
X5346Y-4103D01*
X5345Y-4102D01*
X5344Y-4101D01*
X5344Y-4101D01*
X5344Y-4101D01*
X5344Y-4101D01*
X5343Y-4101D01*
X5343Y-4100D01*
X5342Y-4100D01*
X5341Y-4098D01*
X5340Y-4097D01*
X5339Y-4095D01*
X5339Y-4092D01*
X5338Y-4090D01*
X5346Y-4089D01*
Y-4089D01*
X5346Y-4089D01*
X5346Y-4090D01*
X5346Y-4091D01*
X5347Y-4092D01*
X5347Y-4093D01*
X5348Y-4094D01*
X5348Y-4095D01*
X5349Y-4096D01*
X5349Y-4096D01*
X5350Y-4096D01*
X5350Y-4097D01*
X5351Y-4098D01*
X5352Y-4098D01*
X5354Y-4099D01*
X5355Y-4099D01*
X5357Y-4099D01*
X5358D01*
X5358Y-4099D01*
X5359Y-4099D01*
X5360Y-4099D01*
X5361Y-4098D01*
X5362Y-4098D01*
X5364Y-4097D01*
X5364Y-4097D01*
X5364Y-4097D01*
X5365Y-4096D01*
X5366Y-4095D01*
X5367Y-4094D01*
X5368Y-4093D01*
X5369Y-4091D01*
X5369Y-4089D01*
Y-4089D01*
X5370Y-4089D01*
X5370Y-4089D01*
X5370Y-4088D01*
X5370Y-4088D01*
X5370Y-4087D01*
X5370Y-4086D01*
X5370Y-4085D01*
X5371Y-4084D01*
X5371Y-4083D01*
X5371Y-4082D01*
X5371Y-4081D01*
X5371Y-4079D01*
X5371Y-4078D01*
X5372Y-4076D01*
Y-4074D01*
X5371Y-4075D01*
X5371Y-4075D01*
X5370Y-4076D01*
X5370Y-4077D01*
X5369Y-4078D01*
X5367Y-4079D01*
X5366Y-4080D01*
X5365Y-4081D01*
X5365D01*
X5365Y-4081D01*
X5364Y-4081D01*
X5363Y-4081D01*
X5362Y-4082D01*
X5361Y-4082D01*
X5359Y-4083D01*
X5358Y-4083D01*
X5356Y-4083D01*
X5355D01*
X5355Y-4083D01*
X5354Y-4083D01*
X5353Y-4083D01*
X5352Y-4082D01*
X5351Y-4082D01*
X5349Y-4082D01*
X5348Y-4081D01*
X5347Y-4080D01*
X5346Y-4080D01*
X5345Y-4079D01*
X5344Y-4078D01*
X5343Y-4077D01*
X5343Y-4077D01*
X5342Y-4077D01*
X5342Y-4077D01*
X5342Y-4076D01*
X5341Y-4075D01*
X5341Y-4075D01*
X5340Y-4074D01*
X5340Y-4073D01*
X5339Y-4072D01*
X5339Y-4071D01*
X5338Y-4070D01*
X5338Y-4068D01*
X5338Y-4067D01*
X5337Y-4065D01*
X5337Y-4064D01*
X5337Y-4062D01*
Y-4062D01*
Y-4062D01*
Y-4062D01*
Y-4061D01*
X5337Y-4061D01*
Y-4060D01*
X5337Y-4059D01*
X5338Y-4057D01*
X5338Y-4055D01*
X5339Y-4053D01*
X5340Y-4051D01*
Y-4051D01*
X5340Y-4051D01*
X5340Y-4050D01*
X5340Y-4050D01*
X5341Y-4049D01*
X5342Y-4048D01*
X5343Y-4047D01*
X5344Y-4045D01*
X5345Y-4044D01*
X5347Y-4043D01*
X5347D01*
X5347Y-4043D01*
X5347Y-4043D01*
X5348Y-4043D01*
X5349Y-4042D01*
X5350Y-4042D01*
X5351Y-4041D01*
X5353Y-4041D01*
X5355Y-4040D01*
X5357Y-4040D01*
X5358D01*
X5358Y-4040D01*
D02*
G37*
G36*
X5407Y-3023D02*
X5408Y-3023D01*
X5409Y-3023D01*
X5411Y-3023D01*
X5413Y-3024D01*
X5415Y-3025D01*
X5416Y-3025D01*
X5417Y-3026D01*
X5418Y-3027D01*
X5419Y-3027D01*
X5419Y-3027D01*
X5419Y-3028D01*
X5419Y-3028D01*
X5419Y-3028D01*
X5420Y-3029D01*
X5420Y-3029D01*
X5420Y-3030D01*
X5421Y-3031D01*
X5421Y-3032D01*
X5422Y-3033D01*
X5422Y-3034D01*
X5422Y-3035D01*
X5423Y-3037D01*
X5423Y-3038D01*
X5423Y-3040D01*
Y-3042D01*
X5415Y-3043D01*
Y-3043D01*
Y-3043D01*
Y-3042D01*
X5415Y-3042D01*
X5415Y-3041D01*
Y-3040D01*
X5415Y-3039D01*
X5414Y-3037D01*
X5414Y-3036D01*
X5413Y-3034D01*
X5413Y-3033D01*
X5413Y-3033D01*
X5412Y-3033D01*
X5412Y-3032D01*
X5412Y-3032D01*
X5411Y-3032D01*
X5410Y-3031D01*
X5409Y-3031D01*
X5407Y-3030D01*
X5406Y-3030D01*
X5405D01*
X5405Y-3030D01*
X5404Y-3030D01*
X5403Y-3031D01*
X5402Y-3031D01*
X5401Y-3031D01*
X5400Y-3032D01*
X5400Y-3032D01*
X5400Y-3032D01*
X5400Y-3032D01*
X5399Y-3033D01*
X5398Y-3033D01*
X5398Y-3034D01*
X5397Y-3035D01*
X5397Y-3036D01*
Y-3036D01*
X5397Y-3036D01*
X5397Y-3037D01*
X5397Y-3037D01*
X5396Y-3039D01*
X5396Y-3040D01*
X5396Y-3042D01*
Y-3044D01*
Y-3088D01*
X5388D01*
Y-3044D01*
Y-3044D01*
Y-3044D01*
Y-3043D01*
Y-3043D01*
X5388Y-3042D01*
Y-3041D01*
X5388Y-3040D01*
X5388Y-3037D01*
X5389Y-3035D01*
X5389Y-3033D01*
X5390Y-3032D01*
Y-3031D01*
X5390Y-3031D01*
X5390Y-3031D01*
X5391Y-3030D01*
X5391Y-3029D01*
X5392Y-3028D01*
X5393Y-3027D01*
X5394Y-3026D01*
X5396Y-3025D01*
X5396Y-3025D01*
X5397Y-3025D01*
X5397Y-3024D01*
X5399Y-3024D01*
X5400Y-3023D01*
X5402Y-3023D01*
X5404Y-3023D01*
X5406Y-3023D01*
X5407D01*
X5407Y-3023D01*
D02*
G37*
G36*
X5368Y-3024D02*
Y-3024D01*
Y-3024D01*
X5367Y-3025D01*
Y-3026D01*
X5367Y-3027D01*
X5367Y-3028D01*
X5367Y-3029D01*
X5367Y-3030D01*
X5367Y-3031D01*
X5367Y-3033D01*
X5366Y-3035D01*
X5366Y-3036D01*
X5366Y-3038D01*
X5365Y-3042D01*
Y-3042D01*
X5365Y-3042D01*
X5364Y-3043D01*
X5364Y-3044D01*
X5364Y-3045D01*
X5363Y-3046D01*
X5363Y-3047D01*
X5363Y-3048D01*
X5362Y-3050D01*
X5361Y-3052D01*
X5360Y-3055D01*
X5358Y-3059D01*
X5357Y-3062D01*
X5356Y-3063D01*
X5356Y-3063D01*
X5356Y-3063D01*
X5356Y-3064D01*
X5355Y-3065D01*
X5354Y-3066D01*
X5354Y-3067D01*
X5353Y-3068D01*
X5351Y-3071D01*
X5349Y-3074D01*
X5347Y-3077D01*
X5345Y-3079D01*
X5376D01*
Y-3087D01*
X5335D01*
Y-3081D01*
X5335Y-3081D01*
X5335Y-3080D01*
X5336Y-3080D01*
X5336Y-3079D01*
X5337Y-3079D01*
X5337Y-3078D01*
X5338Y-3077D01*
X5339Y-3076D01*
X5340Y-3075D01*
X5341Y-3074D01*
X5342Y-3072D01*
X5343Y-3071D01*
X5344Y-3069D01*
X5345Y-3067D01*
X5346Y-3065D01*
X5347Y-3063D01*
X5347Y-3063D01*
X5348Y-3063D01*
X5348Y-3062D01*
X5348Y-3062D01*
X5349Y-3061D01*
X5349Y-3059D01*
X5350Y-3058D01*
X5351Y-3057D01*
X5351Y-3055D01*
X5352Y-3053D01*
X5353Y-3051D01*
X5354Y-3050D01*
X5355Y-3046D01*
X5357Y-3041D01*
Y-3041D01*
X5357Y-3041D01*
X5357Y-3040D01*
X5357Y-3040D01*
X5357Y-3039D01*
X5357Y-3038D01*
X5358Y-3037D01*
X5358Y-3036D01*
X5358Y-3035D01*
X5358Y-3033D01*
X5359Y-3030D01*
X5359Y-3027D01*
X5359Y-3024D01*
X5368D01*
Y-3024D01*
D02*
G37*
%LPC*%
G36*
X5356Y-2026D02*
X5356D01*
X5355Y-2026D01*
X5354Y-2026D01*
X5353Y-2026D01*
X5351Y-2027D01*
X5350Y-2027D01*
X5348Y-2028D01*
X5347Y-2029D01*
X5347Y-2030D01*
X5346Y-2030D01*
X5346Y-2031D01*
X5345Y-2032D01*
X5344Y-2033D01*
X5344Y-2035D01*
X5343Y-2037D01*
X5343Y-2039D01*
Y-2039D01*
Y-2039D01*
Y-2039D01*
X5343Y-2039D01*
X5343Y-2040D01*
X5343Y-2042D01*
X5344Y-2043D01*
X5345Y-2045D01*
X5346Y-2046D01*
X5347Y-2048D01*
X5347Y-2048D01*
X5347Y-2048D01*
X5348Y-2049D01*
X5349Y-2050D01*
X5351Y-2050D01*
X5352Y-2051D01*
X5354Y-2051D01*
X5356Y-2052D01*
X5357D01*
X5357Y-2052D01*
X5358Y-2051D01*
X5360Y-2051D01*
X5361Y-2051D01*
X5363Y-2050D01*
X5364Y-2049D01*
X5365Y-2048D01*
X5366Y-2048D01*
X5366Y-2047D01*
X5367Y-2046D01*
X5367Y-2045D01*
X5368Y-2044D01*
X5369Y-2043D01*
X5369Y-2041D01*
X5369Y-2039D01*
Y-2039D01*
Y-2038D01*
X5369Y-2038D01*
X5369Y-2037D01*
X5369Y-2036D01*
X5368Y-2035D01*
X5368Y-2034D01*
X5368Y-2032D01*
X5368Y-2032D01*
X5367Y-2032D01*
X5367Y-2031D01*
X5366Y-2031D01*
X5366Y-2030D01*
X5365Y-2029D01*
X5364Y-2028D01*
X5363Y-2027D01*
X5363Y-2027D01*
X5362Y-2027D01*
X5362Y-2027D01*
X5361Y-2027D01*
X5360Y-2026D01*
X5359Y-2026D01*
X5357Y-2026D01*
X5356Y-2026D01*
D02*
G37*
G36*
Y-2058D02*
X5356D01*
X5355Y-2058D01*
X5354Y-2058D01*
X5353Y-2058D01*
X5352Y-2059D01*
X5351Y-2059D01*
X5350Y-2060D01*
X5349Y-2061D01*
X5348Y-2061D01*
X5348Y-2061D01*
X5348Y-2062D01*
X5347Y-2063D01*
X5347Y-2064D01*
X5346Y-2065D01*
X5346Y-2066D01*
X5346Y-2068D01*
Y-2068D01*
Y-2068D01*
Y-2069D01*
X5346Y-2070D01*
X5346Y-2071D01*
X5346Y-2072D01*
X5347Y-2073D01*
X5348Y-2074D01*
X5349Y-2075D01*
X5349Y-2075D01*
X5349Y-2076D01*
X5350Y-2076D01*
X5351Y-2077D01*
X5352Y-2077D01*
X5353Y-2078D01*
X5354Y-2078D01*
X5356Y-2078D01*
X5357D01*
X5358Y-2078D01*
X5359Y-2078D01*
X5360Y-2077D01*
X5361Y-2077D01*
X5362Y-2076D01*
X5364Y-2075D01*
X5364Y-2075D01*
X5364Y-2075D01*
X5365Y-2074D01*
X5365Y-2073D01*
X5366Y-2072D01*
X5366Y-2071D01*
X5366Y-2070D01*
X5367Y-2068D01*
Y-2068D01*
Y-2068D01*
X5366Y-2068D01*
X5366Y-2067D01*
X5366Y-2066D01*
X5366Y-2065D01*
X5365Y-2063D01*
X5365Y-2062D01*
X5364Y-2061D01*
X5364Y-2061D01*
X5363Y-2060D01*
X5362Y-2060D01*
X5362Y-2060D01*
X5360Y-2059D01*
X5359Y-2058D01*
X5358Y-2058D01*
X5356Y-2058D01*
D02*
G37*
G36*
X4224Y-2991D02*
X4204Y-3019D01*
X4224D01*
Y-2991D01*
D02*
G37*
G36*
X5357Y-4047D02*
X5357D01*
X5356Y-4047D01*
X5356Y-4047D01*
X5354Y-4047D01*
X5353Y-4048D01*
X5352Y-4048D01*
X5350Y-4049D01*
X5349Y-4050D01*
X5349Y-4051D01*
Y-4051D01*
X5349Y-4051D01*
X5348Y-4051D01*
X5348Y-4052D01*
X5347Y-4054D01*
X5346Y-4055D01*
X5346Y-4057D01*
X5345Y-4059D01*
X5345Y-4062D01*
Y-4062D01*
Y-4062D01*
Y-4062D01*
X5345Y-4063D01*
Y-4063D01*
X5345Y-4064D01*
X5346Y-4065D01*
X5346Y-4067D01*
X5347Y-4069D01*
X5348Y-4071D01*
X5349Y-4072D01*
X5349Y-4072D01*
X5349Y-4073D01*
X5350Y-4073D01*
X5351Y-4074D01*
X5352Y-4075D01*
X5354Y-4075D01*
X5356Y-4076D01*
X5358Y-4076D01*
X5358D01*
X5359Y-4076D01*
X5359Y-4076D01*
X5361Y-4076D01*
X5362Y-4075D01*
X5364Y-4074D01*
X5365Y-4073D01*
X5367Y-4072D01*
X5367Y-4072D01*
X5367Y-4071D01*
X5368Y-4071D01*
X5369Y-4069D01*
X5369Y-4068D01*
X5370Y-4066D01*
X5370Y-4064D01*
X5370Y-4062D01*
Y-4062D01*
Y-4061D01*
X5370Y-4061D01*
X5370Y-4060D01*
X5370Y-4058D01*
X5370Y-4057D01*
X5369Y-4056D01*
X5369Y-4054D01*
X5369Y-4054D01*
X5368Y-4054D01*
X5368Y-4053D01*
X5367Y-4052D01*
X5367Y-4051D01*
X5366Y-4050D01*
X5365Y-4050D01*
X5364Y-4049D01*
X5364Y-4049D01*
X5363Y-4048D01*
X5363Y-4048D01*
X5362Y-4048D01*
X5361Y-4047D01*
X5360Y-4047D01*
X5359Y-4047D01*
X5357Y-4047D01*
D02*
G37*
%LPD*%
D10*
X1305Y-2715D02*
Y-1882D01*
X-289Y-2715D02*
X1305D01*
X-289D02*
Y-1882D01*
X1305D01*
X5457Y-1385D02*
X6052D01*
Y-625D01*
X5457D02*
X6052D01*
X5457Y-1385D02*
Y-625D01*
X3648Y-4323D02*
Y-3728D01*
Y-4323D02*
X4658D01*
Y-3728D01*
X3648D02*
X4658D01*
X6053Y-2317D02*
Y-1722D01*
X4793D02*
X6053D01*
X4793Y-2317D02*
Y-1722D01*
Y-2317D02*
X6053D01*
X-313Y-4534D02*
Y-2984D01*
Y-4534D02*
X1837D01*
Y-2984D01*
X-313D02*
X1837D01*
X3652Y-2306D02*
Y-1711D01*
Y-2306D02*
X4662D01*
Y-1711D01*
X3652D02*
X4662D01*
X3648Y-3322D02*
Y-2727D01*
Y-3322D02*
X4658D01*
Y-2727D01*
X3648D02*
X4658D01*
X6055Y-4338D02*
Y-3743D01*
X4795D02*
X6055D01*
X4795Y-4338D02*
Y-3743D01*
Y-4338D02*
X6055D01*
X6053Y-3320D02*
Y-2725D01*
X4793D02*
X6053D01*
X4793Y-3320D02*
Y-2725D01*
Y-3320D02*
X6053D01*
D98*
X5120Y-4453D02*
X5230D01*
X5120Y-4513D02*
X5230D01*
X5120D02*
Y-4453D01*
X5230Y-4513D02*
Y-4453D01*
X2983Y-3304D02*
X3088D01*
X2983Y-3249D02*
X3088D01*
Y-3304D02*
Y-3249D01*
X2983Y-3304D02*
Y-3249D01*
X3971Y-4440D02*
X4081D01*
X3971Y-4500D02*
X4081D01*
X3971D02*
Y-4440D01*
X4081Y-4500D02*
Y-4440D01*
X3946Y-2485D02*
X4056D01*
X3946Y-2545D02*
X4056D01*
X3946D02*
Y-2485D01*
X4056Y-2545D02*
Y-2485D01*
X3958Y-3501D02*
X4068D01*
X3958Y-3561D02*
X4068D01*
X3958D02*
Y-3501D01*
X4068Y-3561D02*
Y-3501D01*
X5101Y-2472D02*
X5211D01*
X5101Y-2532D02*
X5211D01*
X5101D02*
Y-2472D01*
X5211Y-2532D02*
Y-2472D01*
X5101Y-3501D02*
X5211D01*
X5101Y-3561D02*
X5211D01*
X5101D02*
Y-3501D01*
X5211Y-3561D02*
Y-3501D01*
M02*
